%TF.GenerationSoftware,KiCad,Pcbnew,(6.0.9)*%
%TF.CreationDate,2023-01-29T17:20:29+01:00*%
%TF.ProjectId,wvtbl_main_board,77767462-6c5f-46d6-9169-6e5f626f6172,rev?*%
%TF.SameCoordinates,Original*%
%TF.FileFunction,Soldermask,Top*%
%TF.FilePolarity,Negative*%
%FSLAX46Y46*%
G04 Gerber Fmt 4.6, Leading zero omitted, Abs format (unit mm)*
G04 Created by KiCad (PCBNEW (6.0.9)) date 2023-01-29 17:20:29*
%MOMM*%
%LPD*%
G01*
G04 APERTURE LIST*
%ADD10O,2.720000X3.240000*%
%ADD11R,1.800000X1.800000*%
%ADD12C,1.800000*%
%ADD13R,1.930000X1.830000*%
%ADD14C,2.130000*%
%ADD15C,1.981200*%
%ADD16C,2.001520*%
%ADD17C,3.317240*%
%ADD18R,1.700000X1.700000*%
%ADD19O,1.700000X1.700000*%
G04 APERTURE END LIST*
D10*
%TO.C,RV2*%
X54800000Y-95000000D03*
X45200000Y-95000000D03*
D11*
X47500000Y-102500000D03*
D12*
X50000000Y-102500000D03*
X52500000Y-102500000D03*
%TD*%
D13*
%TO.C,J5*%
X57500000Y-153480000D03*
D14*
X57500000Y-142080000D03*
X57500000Y-150380000D03*
%TD*%
D15*
%TO.C,S1*%
X46002040Y-48002300D03*
X48001020Y-48002300D03*
X50000000Y-48002300D03*
X51998980Y-48002300D03*
X53997960Y-48002300D03*
D16*
X47500640Y-62498080D03*
X52499360Y-62498080D03*
X50000000Y-62498080D03*
D17*
X44450100Y-55000000D03*
X55549900Y-55000000D03*
%TD*%
D13*
%TO.C,J2*%
X42500000Y-153480000D03*
D14*
X42500000Y-142080000D03*
X42500000Y-150380000D03*
%TD*%
D10*
%TO.C,RV4*%
X52700000Y-115000000D03*
X62300000Y-115000000D03*
D11*
X55000000Y-122500000D03*
D12*
X57500000Y-122500000D03*
X60000000Y-122500000D03*
%TD*%
D10*
%TO.C,RV3*%
X47300000Y-115000000D03*
X37700000Y-115000000D03*
D11*
X40000000Y-122500000D03*
D12*
X42500000Y-122500000D03*
X45000000Y-122500000D03*
%TD*%
D13*
%TO.C,J4*%
X57500000Y-138480000D03*
D14*
X57500000Y-127080000D03*
X57500000Y-135380000D03*
%TD*%
D13*
%TO.C,J3*%
X42500000Y-138480000D03*
D14*
X42500000Y-127080000D03*
X42500000Y-135380000D03*
%TD*%
D10*
%TO.C,RV1*%
X45200000Y-75000000D03*
X54800000Y-75000000D03*
D11*
X47500000Y-82500000D03*
D12*
X50000000Y-82500000D03*
X52500000Y-82500000D03*
%TD*%
D18*
%TO.C,U1*%
X63000000Y-60080000D03*
D19*
X63000000Y-62620000D03*
X63000000Y-65160000D03*
X63000000Y-67700000D03*
X63000000Y-70240000D03*
X63000000Y-72780000D03*
X63000000Y-75320000D03*
X63000000Y-77860000D03*
X63000000Y-80400000D03*
X63000000Y-82940000D03*
X63000000Y-85480000D03*
X63000000Y-88020000D03*
X63000000Y-90560000D03*
X37000000Y-90560000D03*
X37000000Y-88020000D03*
X37000000Y-85480000D03*
X37000000Y-82940000D03*
D18*
X37000000Y-80400000D03*
D19*
X37000000Y-75320000D03*
X37000000Y-72780000D03*
X37000000Y-70240000D03*
X37000000Y-67700000D03*
X37000000Y-65160000D03*
X37000000Y-62620000D03*
X37000000Y-60080000D03*
X37000000Y-57540000D03*
D18*
X37000000Y-55000000D03*
%TD*%
M02*
