%TF.GenerationSoftware,KiCad,Pcbnew,(6.0.9)*%
%TF.CreationDate,2023-01-29T17:20:29+01:00*%
%TF.ProjectId,wvtbl_main_board,77767462-6c5f-46d6-9169-6e5f626f6172,rev?*%
%TF.SameCoordinates,Original*%
%TF.FileFunction,Copper,L1,Top*%
%TF.FilePolarity,Positive*%
%FSLAX46Y46*%
G04 Gerber Fmt 4.6, Leading zero omitted, Abs format (unit mm)*
G04 Created by KiCad (PCBNEW (6.0.9)) date 2023-01-29 17:20:29*
%MOMM*%
%LPD*%
G01*
G04 APERTURE LIST*
%TA.AperFunction,ComponentPad*%
%ADD10O,2.720000X3.240000*%
%TD*%
%TA.AperFunction,ComponentPad*%
%ADD11R,1.800000X1.800000*%
%TD*%
%TA.AperFunction,ComponentPad*%
%ADD12C,1.800000*%
%TD*%
%TA.AperFunction,ComponentPad*%
%ADD13R,1.930000X1.830000*%
%TD*%
%TA.AperFunction,ComponentPad*%
%ADD14C,2.130000*%
%TD*%
%TA.AperFunction,ComponentPad*%
%ADD15C,1.778000*%
%TD*%
%TA.AperFunction,ComponentPad*%
%ADD16C,1.798320*%
%TD*%
%TA.AperFunction,ComponentPad*%
%ADD17C,3.114040*%
%TD*%
%TA.AperFunction,ComponentPad*%
%ADD18R,1.700000X1.700000*%
%TD*%
%TA.AperFunction,ComponentPad*%
%ADD19O,1.700000X1.700000*%
%TD*%
%TA.AperFunction,ViaPad*%
%ADD20C,0.800000*%
%TD*%
%TA.AperFunction,ViaPad*%
%ADD21C,0.700000*%
%TD*%
%TA.AperFunction,Conductor*%
%ADD22C,0.500000*%
%TD*%
%TA.AperFunction,Conductor*%
%ADD23C,0.600000*%
%TD*%
%TA.AperFunction,Conductor*%
%ADD24C,0.700000*%
%TD*%
G04 APERTURE END LIST*
D10*
%TO.P,RV2,*%
%TO.N,*%
X54800000Y-95000000D03*
X45200000Y-95000000D03*
D11*
%TO.P,RV2,1,1*%
%TO.N,+3.3VA*%
X47500000Y-102500000D03*
D12*
%TO.P,RV2,2,2*%
%TO.N,/POT_2*%
X50000000Y-102500000D03*
%TO.P,RV2,3,3*%
%TO.N,GND*%
X52500000Y-102500000D03*
%TD*%
D13*
%TO.P,J5,S*%
%TO.N,GND*%
X57500000Y-153480000D03*
D14*
%TO.P,J5,T*%
%TO.N,/OUT*%
X57500000Y-142080000D03*
%TO.P,J5,TN*%
%TO.N,unconnected-(J5-PadTN)*%
X57500000Y-150380000D03*
%TD*%
D15*
%TO.P,S1,1*%
%TO.N,Net-(R6-Pad1)*%
X46002040Y-48002300D03*
%TO.P,S1,2*%
%TO.N,Net-(R7-Pad1)*%
X48001020Y-48002300D03*
%TO.P,S1,3*%
%TO.N,/ENCODER_SWITCH*%
X50000000Y-48002300D03*
%TO.P,S1,4*%
%TO.N,Net-(R8-Pad1)*%
X51998980Y-48002300D03*
%TO.P,S1,5*%
%TO.N,+3.3V*%
X53997960Y-48002300D03*
D16*
%TO.P,S1,A*%
%TO.N,Net-(R1-Pad2)*%
X47500640Y-62498080D03*
%TO.P,S1,B*%
%TO.N,Net-(R2-Pad2)*%
X52499360Y-62498080D03*
%TO.P,S1,C*%
%TO.N,GND*%
X50000000Y-62498080D03*
D17*
%TO.P,S1,M1*%
%TO.N,N/C*%
X44450100Y-55000000D03*
%TO.P,S1,M2*%
X55549900Y-55000000D03*
%TD*%
D13*
%TO.P,J2,S*%
%TO.N,GND*%
X42500000Y-153480000D03*
D14*
%TO.P,J2,T*%
%TO.N,/CV1*%
X42500000Y-142080000D03*
%TO.P,J2,TN*%
%TO.N,GND*%
X42500000Y-150380000D03*
%TD*%
D10*
%TO.P,RV4,*%
%TO.N,*%
X52700000Y-115000000D03*
X62300000Y-115000000D03*
D11*
%TO.P,RV4,1,1*%
%TO.N,+3.3VA*%
X55000000Y-122500000D03*
D12*
%TO.P,RV4,2,2*%
%TO.N,/POT_4*%
X57500000Y-122500000D03*
%TO.P,RV4,3,3*%
%TO.N,GND*%
X60000000Y-122500000D03*
%TD*%
D10*
%TO.P,RV3,*%
%TO.N,*%
X47300000Y-115000000D03*
X37700000Y-115000000D03*
D11*
%TO.P,RV3,1,1*%
%TO.N,+3.3VA*%
X40000000Y-122500000D03*
D12*
%TO.P,RV3,2,2*%
%TO.N,/POT_3*%
X42500000Y-122500000D03*
%TO.P,RV3,3,3*%
%TO.N,GND*%
X45000000Y-122500000D03*
%TD*%
D13*
%TO.P,J4,S*%
%TO.N,GND*%
X57500000Y-138480000D03*
D14*
%TO.P,J4,T*%
%TO.N,/CV3*%
X57500000Y-127080000D03*
%TO.P,J4,TN*%
%TO.N,GND*%
X57500000Y-135380000D03*
%TD*%
D13*
%TO.P,J3,S*%
%TO.N,GND*%
X42500000Y-138480000D03*
D14*
%TO.P,J3,T*%
%TO.N,/CV2*%
X42500000Y-127080000D03*
%TO.P,J3,TN*%
%TO.N,GND*%
X42500000Y-135380000D03*
%TD*%
D10*
%TO.P,RV1,*%
%TO.N,*%
X45200000Y-75000000D03*
X54800000Y-75000000D03*
D11*
%TO.P,RV1,1,1*%
%TO.N,+3.3VA*%
X47500000Y-82500000D03*
D12*
%TO.P,RV1,2,2*%
%TO.N,/POT_1*%
X50000000Y-82500000D03*
%TO.P,RV1,3,3*%
%TO.N,GND*%
X52500000Y-82500000D03*
%TD*%
D18*
%TO.P,U1,1,GND*%
%TO.N,GND*%
X63000000Y-60080000D03*
D19*
%TO.P,U1,2,POT_1*%
%TO.N,/POT_1*%
X63000000Y-62620000D03*
%TO.P,U1,3,POT_2*%
%TO.N,/POT_2*%
X63000000Y-65160000D03*
%TO.P,U1,4,POT_3*%
%TO.N,/POT_3*%
X63000000Y-67700000D03*
%TO.P,U1,5,POT_4*%
%TO.N,/POT_4*%
X63000000Y-70240000D03*
%TO.P,U1,6,+3.3VA*%
%TO.N,+3.3VA*%
X63000000Y-72780000D03*
%TO.P,U1,7,CV1*%
%TO.N,/CV1*%
X63000000Y-75320000D03*
%TO.P,U1,8,CV2*%
%TO.N,/CV2*%
X63000000Y-77860000D03*
%TO.P,U1,9,CV3*%
%TO.N,/CV3*%
X63000000Y-80400000D03*
%TO.P,U1,10,CV4*%
%TO.N,GND*%
X63000000Y-82940000D03*
%TO.P,U1,11,GND*%
X63000000Y-85480000D03*
%TO.P,U1,12,OUT*%
%TO.N,/OUT*%
X63000000Y-88020000D03*
%TO.P,U1,13,GND*%
%TO.N,GND*%
X63000000Y-90560000D03*
%TO.P,U1,14,-12V*%
%TO.N,-12V*%
X37000000Y-90560000D03*
%TO.P,U1,15,GND*%
%TO.N,GND*%
X37000000Y-88020000D03*
%TO.P,U1,16,+12V*%
%TO.N,+12V*%
X37000000Y-85480000D03*
%TO.P,U1,17,GND*%
%TO.N,GND*%
X37000000Y-82940000D03*
D18*
%TO.P,U1,18,+5V*%
%TO.N,+5V*%
X37000000Y-80400000D03*
D19*
%TO.P,U1,19,GND*%
%TO.N,GND*%
X37000000Y-75320000D03*
%TO.P,U1,20,LED_1*%
%TO.N,/LED_1*%
X37000000Y-72780000D03*
%TO.P,U1,21,LED_2*%
%TO.N,/LED_2*%
X37000000Y-70240000D03*
%TO.P,U1,22,LED_3*%
%TO.N,/LED_3*%
X37000000Y-67700000D03*
%TO.P,U1,23,GND*%
%TO.N,GND*%
X37000000Y-65160000D03*
%TO.P,U1,24,ENCODER_B*%
%TO.N,/ENCODER_B*%
X37000000Y-62620000D03*
%TO.P,U1,25,ENCODER_A*%
%TO.N,/ENCODER_A*%
X37000000Y-60080000D03*
%TO.P,U1,26,ENCODER_SWITCH*%
%TO.N,/ENCODER_SWITCH*%
X37000000Y-57540000D03*
D18*
%TO.P,U1,27,+3.3V*%
%TO.N,+3.3V*%
X37000000Y-55000000D03*
%TD*%
D20*
%TO.N,/ENCODER_A*%
X42350000Y-59850000D03*
D21*
%TO.N,GND*%
X40700000Y-146000000D03*
X40800000Y-82800000D03*
X53200000Y-108000000D03*
X37400000Y-52700000D03*
X59300000Y-146000000D03*
X53250000Y-67000000D03*
X61900000Y-131000000D03*
X63000000Y-153500000D03*
X43200000Y-89800000D03*
X51300000Y-74500000D03*
X44900000Y-119700000D03*
X54450000Y-141300000D03*
X52400000Y-128000000D03*
X59825000Y-119700000D03*
X36900000Y-153600000D03*
X44500000Y-67300000D03*
X38100000Y-146000000D03*
X50000000Y-143800000D03*
X50000000Y-146400000D03*
X55800000Y-63500000D03*
X43400000Y-107000000D03*
X39200000Y-97800000D03*
X45550000Y-141300000D03*
X37100000Y-118100000D03*
X50000000Y-141300000D03*
X48800000Y-150400000D03*
X52400000Y-99700000D03*
X43000000Y-129500000D03*
X36900000Y-46200000D03*
X48700000Y-80700000D03*
X51600000Y-70300000D03*
X52400000Y-79600000D03*
X51700000Y-46000000D03*
X45550000Y-146350000D03*
X54450000Y-146350000D03*
X47375000Y-128000000D03*
X38400000Y-112100000D03*
X40700000Y-131000000D03*
X37700000Y-125200000D03*
X62400000Y-111700000D03*
X52400000Y-152000000D03*
X59300000Y-131000000D03*
X50000000Y-52600000D03*
X40800000Y-89800000D03*
X55900000Y-70000000D03*
X45600000Y-61850000D03*
X54450000Y-143800000D03*
X43200000Y-98400000D03*
X62700000Y-118300000D03*
X36800000Y-97800000D03*
X56400000Y-110900000D03*
X59000000Y-49200000D03*
X46300000Y-80600000D03*
X61900000Y-146000000D03*
X52000000Y-117900000D03*
X53200000Y-120400000D03*
X48100000Y-111000000D03*
X38100000Y-131000000D03*
X63600000Y-142100000D03*
X48900000Y-75600000D03*
X45550000Y-143800000D03*
X43200000Y-82800000D03*
D20*
%TO.N,+3.3V*%
X47500000Y-57350000D03*
X52500000Y-57350000D03*
%TO.N,/ENCODER_B*%
X50000000Y-65012500D03*
%TO.N,/POT_3*%
X49500000Y-104900000D03*
%TD*%
D22*
%TO.N,/ENCODER_A*%
X42350000Y-59850000D02*
X37230000Y-59850000D01*
X37230000Y-59850000D02*
X37000000Y-60080000D01*
D23*
%TO.N,+3.3V*%
X41150000Y-57350000D02*
X38800000Y-55000000D01*
X38800000Y-55000000D02*
X37000000Y-55000000D01*
X47500000Y-57350000D02*
X52500000Y-57350000D01*
X52500000Y-52250000D02*
X54000000Y-50750000D01*
X53997960Y-50747960D02*
X53997960Y-48002300D01*
X54000000Y-50750000D02*
X53997960Y-50747960D01*
X52500000Y-57350000D02*
X52500000Y-52250000D01*
X47500000Y-57350000D02*
X41150000Y-57350000D01*
D22*
%TO.N,/ENCODER_B*%
X37000000Y-62620000D02*
X39270000Y-62620000D01*
X39270000Y-62620000D02*
X41662500Y-65012500D01*
X41662500Y-65012500D02*
X50000000Y-65012500D01*
%TO.N,/POT_3*%
X42500000Y-111900000D02*
X42500000Y-122500000D01*
X49500000Y-104900000D02*
X42500000Y-111900000D01*
%TO.N,/CV1*%
X49600000Y-123400000D02*
X48200000Y-124800000D01*
X48200000Y-124800000D02*
X41500000Y-124800000D01*
X63000000Y-75320000D02*
X59220000Y-75320000D01*
X39900000Y-139480000D02*
X42500000Y-142080000D01*
X39900000Y-126400000D02*
X39900000Y-139480000D01*
X52500000Y-104100000D02*
X49600000Y-107000000D01*
X57200000Y-77300000D02*
X57200000Y-102900000D01*
X56000000Y-104100000D02*
X52500000Y-104100000D01*
X57200000Y-102900000D02*
X56000000Y-104100000D01*
X59200000Y-75300000D02*
X57200000Y-77300000D01*
X59220000Y-75320000D02*
X59200000Y-75300000D01*
X49600000Y-107000000D02*
X49600000Y-123400000D01*
X41500000Y-124800000D02*
X39900000Y-126400000D01*
%TO.N,/CV2*%
X47620000Y-127080000D02*
X50800000Y-123900000D01*
X50800000Y-123900000D02*
X50800000Y-107200000D01*
X42500000Y-127080000D02*
X47620000Y-127080000D01*
X50800000Y-107200000D02*
X53000000Y-105000000D01*
X58000000Y-79800000D02*
X59940000Y-77860000D01*
X53000000Y-105000000D02*
X56200000Y-105000000D01*
X59940000Y-77860000D02*
X63000000Y-77860000D01*
X58000000Y-103200000D02*
X58000000Y-79800000D01*
X56200000Y-105000000D02*
X58000000Y-103200000D01*
%TO.N,/CV3*%
X55000000Y-116500000D02*
X55000000Y-107700000D01*
X55000000Y-107700000D02*
X58900000Y-103800000D01*
X54200000Y-127100000D02*
X54220000Y-127080000D01*
X60200000Y-80400000D02*
X58900000Y-81700000D01*
X63000000Y-80400000D02*
X60200000Y-80400000D01*
X51900000Y-119600000D02*
X51900000Y-124800000D01*
X54220000Y-127080000D02*
X57500000Y-127080000D01*
X51900000Y-124800000D02*
X54200000Y-127100000D01*
X58900000Y-81700000D02*
X58900000Y-103800000D01*
X55000000Y-116500000D02*
X51900000Y-119600000D01*
D23*
%TO.N,+3.3VA*%
X47500000Y-82500000D02*
X47500000Y-102500000D01*
X63000000Y-72780000D02*
X49970000Y-72780000D01*
D24*
X40000000Y-105800000D02*
X43300000Y-102500000D01*
D23*
X49970000Y-72780000D02*
X47500000Y-75250000D01*
D24*
X40000000Y-122500000D02*
X40000000Y-105800000D01*
D23*
X47500000Y-75250000D02*
X47500000Y-82500000D01*
D24*
X43300000Y-102500000D02*
X47500000Y-102500000D01*
D22*
%TO.N,/OUT*%
X63000000Y-88020000D02*
X61380000Y-88020000D01*
X59900000Y-117400000D02*
X63500000Y-121000000D01*
X59900000Y-89500000D02*
X59900000Y-117400000D01*
X63500000Y-121000000D02*
X63500000Y-140400000D01*
X63500000Y-140400000D02*
X61820000Y-142080000D01*
X61380000Y-88020000D02*
X59900000Y-89500000D01*
X61820000Y-142080000D02*
X57500000Y-142080000D01*
%TD*%
%TA.AperFunction,Conductor*%
%TO.N,GND*%
G36*
X59059532Y-104817315D02*
G01*
X59116368Y-104859862D01*
X59141179Y-104926382D01*
X59141500Y-104935371D01*
X59141500Y-117332930D01*
X59140067Y-117351880D01*
X59136801Y-117373349D01*
X59137394Y-117380641D01*
X59137394Y-117380644D01*
X59141085Y-117426018D01*
X59141500Y-117436233D01*
X59141500Y-117444293D01*
X59141925Y-117447937D01*
X59144789Y-117472507D01*
X59145222Y-117476882D01*
X59151140Y-117549637D01*
X59153396Y-117556601D01*
X59154587Y-117562560D01*
X59155971Y-117568415D01*
X59156818Y-117575681D01*
X59181735Y-117644327D01*
X59183152Y-117648455D01*
X59205649Y-117717899D01*
X59209445Y-117724154D01*
X59211951Y-117729628D01*
X59214670Y-117735058D01*
X59217167Y-117741937D01*
X59221180Y-117748057D01*
X59221180Y-117748058D01*
X59257186Y-117802976D01*
X59259523Y-117806680D01*
X59297405Y-117869107D01*
X59301121Y-117873315D01*
X59301122Y-117873316D01*
X59304803Y-117877484D01*
X59304776Y-117877508D01*
X59307429Y-117880500D01*
X59310132Y-117883733D01*
X59314144Y-117889852D01*
X59319456Y-117894884D01*
X59370383Y-117943128D01*
X59372825Y-117945506D01*
X62704595Y-121277275D01*
X62738621Y-121339587D01*
X62741500Y-121366370D01*
X62741500Y-140033629D01*
X62721498Y-140101750D01*
X62704595Y-140122724D01*
X61542724Y-141284595D01*
X61480412Y-141318621D01*
X61453629Y-141321500D01*
X58951199Y-141321500D01*
X58883078Y-141301498D01*
X58843766Y-141261335D01*
X58803898Y-141196276D01*
X58776925Y-141152260D01*
X58616073Y-140963927D01*
X58427740Y-140803075D01*
X58216563Y-140673666D01*
X58211993Y-140671773D01*
X58211989Y-140671771D01*
X57992315Y-140580779D01*
X57992313Y-140580778D01*
X57987742Y-140578885D01*
X57902830Y-140558499D01*
X57751724Y-140522221D01*
X57751718Y-140522220D01*
X57746911Y-140521066D01*
X57500000Y-140501634D01*
X57253089Y-140521066D01*
X57248282Y-140522220D01*
X57248276Y-140522221D01*
X57097170Y-140558499D01*
X57012258Y-140578885D01*
X57007687Y-140580778D01*
X57007685Y-140580779D01*
X56788011Y-140671771D01*
X56788007Y-140671773D01*
X56783437Y-140673666D01*
X56572260Y-140803075D01*
X56383927Y-140963927D01*
X56223075Y-141152260D01*
X56093666Y-141363437D01*
X55998885Y-141592258D01*
X55997730Y-141597070D01*
X55942221Y-141828276D01*
X55942220Y-141828282D01*
X55941066Y-141833089D01*
X55921634Y-142080000D01*
X55941066Y-142326911D01*
X55942220Y-142331718D01*
X55942221Y-142331724D01*
X55978499Y-142482830D01*
X55998885Y-142567742D01*
X56000778Y-142572313D01*
X56000779Y-142572315D01*
X56081587Y-142767401D01*
X56093666Y-142796563D01*
X56223075Y-143007740D01*
X56383927Y-143196073D01*
X56572260Y-143356925D01*
X56783437Y-143486334D01*
X56788007Y-143488227D01*
X56788011Y-143488229D01*
X57007685Y-143579221D01*
X57012258Y-143581115D01*
X57097170Y-143601501D01*
X57248276Y-143637779D01*
X57248282Y-143637780D01*
X57253089Y-143638934D01*
X57500000Y-143658366D01*
X57746911Y-143638934D01*
X57751718Y-143637780D01*
X57751724Y-143637779D01*
X57902830Y-143601501D01*
X57987742Y-143581115D01*
X57992315Y-143579221D01*
X58211989Y-143488229D01*
X58211993Y-143488227D01*
X58216563Y-143486334D01*
X58427740Y-143356925D01*
X58616073Y-143196073D01*
X58776925Y-143007740D01*
X58843766Y-142898665D01*
X58896414Y-142851034D01*
X58951199Y-142838500D01*
X61752930Y-142838500D01*
X61771880Y-142839933D01*
X61786115Y-142842099D01*
X61786119Y-142842099D01*
X61793349Y-142843199D01*
X61800641Y-142842606D01*
X61800644Y-142842606D01*
X61846018Y-142838915D01*
X61856233Y-142838500D01*
X61864293Y-142838500D01*
X61877583Y-142836951D01*
X61892507Y-142835211D01*
X61896882Y-142834778D01*
X61962339Y-142829454D01*
X61962342Y-142829453D01*
X61969637Y-142828860D01*
X61976601Y-142826604D01*
X61982560Y-142825413D01*
X61988415Y-142824029D01*
X61995681Y-142823182D01*
X62064327Y-142798265D01*
X62068455Y-142796848D01*
X62130936Y-142776607D01*
X62130938Y-142776606D01*
X62137899Y-142774351D01*
X62144154Y-142770555D01*
X62149628Y-142768049D01*
X62155058Y-142765330D01*
X62161937Y-142762833D01*
X62222976Y-142722814D01*
X62226680Y-142720477D01*
X62289107Y-142682595D01*
X62297484Y-142675197D01*
X62297508Y-142675224D01*
X62300500Y-142672571D01*
X62303733Y-142669868D01*
X62309852Y-142665856D01*
X62363128Y-142609617D01*
X62365506Y-142607175D01*
X63776405Y-141196276D01*
X63838717Y-141162250D01*
X63909532Y-141167315D01*
X63966368Y-141209862D01*
X63991179Y-141276382D01*
X63991500Y-141285371D01*
X63991500Y-154365500D01*
X63971498Y-154433621D01*
X63917842Y-154480114D01*
X63865500Y-154491500D01*
X59099000Y-154491500D01*
X59030879Y-154471498D01*
X58984386Y-154417842D01*
X58973000Y-154365500D01*
X58973000Y-153752115D01*
X58968525Y-153736876D01*
X58967135Y-153735671D01*
X58959452Y-153734000D01*
X56045116Y-153734000D01*
X56029877Y-153738475D01*
X56028672Y-153739865D01*
X56027001Y-153747548D01*
X56027001Y-154365500D01*
X56006999Y-154433621D01*
X55953343Y-154480114D01*
X55901001Y-154491500D01*
X44099000Y-154491500D01*
X44030879Y-154471498D01*
X43984386Y-154417842D01*
X43973000Y-154365500D01*
X43973000Y-153752115D01*
X43968525Y-153736876D01*
X43967135Y-153735671D01*
X43959452Y-153734000D01*
X41045116Y-153734000D01*
X41029877Y-153738475D01*
X41028672Y-153739865D01*
X41027001Y-153747548D01*
X41027001Y-154365500D01*
X41006999Y-154433621D01*
X40953343Y-154480114D01*
X40901001Y-154491500D01*
X36134500Y-154491500D01*
X36066379Y-154471498D01*
X36019886Y-154417842D01*
X36008500Y-154365500D01*
X36008500Y-153207885D01*
X41027000Y-153207885D01*
X41031475Y-153223124D01*
X41032865Y-153224329D01*
X41040548Y-153226000D01*
X43954884Y-153226000D01*
X43970123Y-153221525D01*
X43971328Y-153220135D01*
X43972999Y-153212452D01*
X43972999Y-152520331D01*
X43972629Y-152513510D01*
X43967105Y-152462648D01*
X43963479Y-152447396D01*
X43918324Y-152326946D01*
X43909786Y-152311351D01*
X43833285Y-152209276D01*
X43820724Y-152196715D01*
X43718649Y-152120214D01*
X43703054Y-152111676D01*
X43582606Y-152066522D01*
X43567351Y-152062895D01*
X43516486Y-152057369D01*
X43509672Y-152057000D01*
X43195255Y-152057000D01*
X43127134Y-152036998D01*
X43080641Y-151983342D01*
X43070537Y-151913068D01*
X43100031Y-151848488D01*
X43147037Y-151814591D01*
X43211761Y-151787782D01*
X43220555Y-151783301D01*
X43405715Y-151669835D01*
X43415175Y-151659379D01*
X43411391Y-151650601D01*
X42512812Y-150752022D01*
X42498868Y-150744408D01*
X42497035Y-150744539D01*
X42490420Y-150748790D01*
X41591652Y-151647558D01*
X41584892Y-151659938D01*
X41590619Y-151667588D01*
X41779445Y-151783301D01*
X41788235Y-151787780D01*
X41852965Y-151814592D01*
X41908245Y-151859141D01*
X41930666Y-151926504D01*
X41913107Y-151995296D01*
X41861145Y-152043674D01*
X41804746Y-152057001D01*
X41490331Y-152057001D01*
X41483510Y-152057371D01*
X41432648Y-152062895D01*
X41417396Y-152066521D01*
X41296946Y-152111676D01*
X41281351Y-152120214D01*
X41179276Y-152196715D01*
X41166715Y-152209276D01*
X41090214Y-152311351D01*
X41081676Y-152326946D01*
X41036522Y-152447394D01*
X41032895Y-152462649D01*
X41027369Y-152513514D01*
X41027000Y-152520328D01*
X41027000Y-153207885D01*
X36008500Y-153207885D01*
X36008500Y-150384930D01*
X40922524Y-150384930D01*
X40941174Y-150621898D01*
X40942717Y-150631645D01*
X40998207Y-150862775D01*
X41001256Y-150872160D01*
X41092218Y-151091761D01*
X41096699Y-151100555D01*
X41210165Y-151285715D01*
X41220621Y-151295175D01*
X41229399Y-151291391D01*
X42127978Y-150392812D01*
X42134356Y-150381132D01*
X42864408Y-150381132D01*
X42864539Y-150382965D01*
X42868790Y-150389580D01*
X43767558Y-151288348D01*
X43779938Y-151295108D01*
X43787588Y-151289381D01*
X43903301Y-151100555D01*
X43907782Y-151091761D01*
X43998744Y-150872160D01*
X44001793Y-150862775D01*
X44057283Y-150631645D01*
X44058826Y-150621898D01*
X44077476Y-150384930D01*
X44077476Y-150380000D01*
X55921634Y-150380000D01*
X55941066Y-150626911D01*
X55942220Y-150631718D01*
X55942221Y-150631724D01*
X55969275Y-150744408D01*
X55998885Y-150867742D01*
X56093666Y-151096563D01*
X56223075Y-151307740D01*
X56383927Y-151496073D01*
X56572260Y-151656925D01*
X56783437Y-151786334D01*
X56851656Y-151814591D01*
X56851658Y-151814592D01*
X56906938Y-151859141D01*
X56929359Y-151926504D01*
X56911801Y-151995295D01*
X56859838Y-152043674D01*
X56803439Y-152057001D01*
X56490331Y-152057001D01*
X56483510Y-152057371D01*
X56432648Y-152062895D01*
X56417396Y-152066521D01*
X56296946Y-152111676D01*
X56281351Y-152120214D01*
X56179276Y-152196715D01*
X56166715Y-152209276D01*
X56090214Y-152311351D01*
X56081676Y-152326946D01*
X56036522Y-152447394D01*
X56032895Y-152462649D01*
X56027369Y-152513514D01*
X56027000Y-152520328D01*
X56027000Y-153207885D01*
X56031475Y-153223124D01*
X56032865Y-153224329D01*
X56040548Y-153226000D01*
X58954884Y-153226000D01*
X58970123Y-153221525D01*
X58971328Y-153220135D01*
X58972999Y-153212452D01*
X58972999Y-152520331D01*
X58972629Y-152513510D01*
X58967105Y-152462648D01*
X58963479Y-152447396D01*
X58918324Y-152326946D01*
X58909786Y-152311351D01*
X58833285Y-152209276D01*
X58820724Y-152196715D01*
X58718649Y-152120214D01*
X58703054Y-152111676D01*
X58582606Y-152066522D01*
X58567351Y-152062895D01*
X58516486Y-152057369D01*
X58509672Y-152057000D01*
X58196562Y-152057000D01*
X58128441Y-152036998D01*
X58081948Y-151983342D01*
X58071844Y-151913068D01*
X58101338Y-151848488D01*
X58148343Y-151814592D01*
X58176640Y-151802871D01*
X58211989Y-151788229D01*
X58211993Y-151788227D01*
X58216563Y-151786334D01*
X58427740Y-151656925D01*
X58616073Y-151496073D01*
X58776925Y-151307740D01*
X58906334Y-151096563D01*
X59001115Y-150867742D01*
X59030725Y-150744408D01*
X59057779Y-150631724D01*
X59057780Y-150631718D01*
X59058934Y-150626911D01*
X59078366Y-150380000D01*
X59058934Y-150133089D01*
X59057780Y-150128282D01*
X59057779Y-150128276D01*
X59002270Y-149897070D01*
X59001115Y-149892258D01*
X58906334Y-149663437D01*
X58776925Y-149452260D01*
X58616073Y-149263927D01*
X58427740Y-149103075D01*
X58216563Y-148973666D01*
X58211993Y-148971773D01*
X58211989Y-148971771D01*
X57992315Y-148880779D01*
X57992313Y-148880778D01*
X57987742Y-148878885D01*
X57902830Y-148858499D01*
X57751724Y-148822221D01*
X57751718Y-148822220D01*
X57746911Y-148821066D01*
X57500000Y-148801634D01*
X57253089Y-148821066D01*
X57248282Y-148822220D01*
X57248276Y-148822221D01*
X57097170Y-148858499D01*
X57012258Y-148878885D01*
X57007687Y-148880778D01*
X57007685Y-148880779D01*
X56788011Y-148971771D01*
X56788007Y-148971773D01*
X56783437Y-148973666D01*
X56572260Y-149103075D01*
X56383927Y-149263927D01*
X56223075Y-149452260D01*
X56093666Y-149663437D01*
X55998885Y-149892258D01*
X55997730Y-149897070D01*
X55942221Y-150128276D01*
X55942220Y-150128282D01*
X55941066Y-150133089D01*
X55921634Y-150380000D01*
X44077476Y-150380000D01*
X44077476Y-150375070D01*
X44058826Y-150138102D01*
X44057283Y-150128355D01*
X44001793Y-149897225D01*
X43998744Y-149887840D01*
X43907782Y-149668239D01*
X43903301Y-149659445D01*
X43789835Y-149474285D01*
X43779379Y-149464825D01*
X43770601Y-149468609D01*
X42872022Y-150367188D01*
X42864408Y-150381132D01*
X42134356Y-150381132D01*
X42135592Y-150378868D01*
X42135461Y-150377035D01*
X42131210Y-150370420D01*
X41232442Y-149471652D01*
X41220062Y-149464892D01*
X41212412Y-149470619D01*
X41096699Y-149659445D01*
X41092218Y-149668239D01*
X41001256Y-149887840D01*
X40998207Y-149897225D01*
X40942717Y-150128355D01*
X40941174Y-150138102D01*
X40922524Y-150375070D01*
X40922524Y-150384930D01*
X36008500Y-150384930D01*
X36008500Y-149100621D01*
X41584825Y-149100621D01*
X41588609Y-149109399D01*
X42487188Y-150007978D01*
X42501132Y-150015592D01*
X42502965Y-150015461D01*
X42509580Y-150011210D01*
X43408348Y-149112442D01*
X43415108Y-149100062D01*
X43409381Y-149092412D01*
X43220555Y-148976699D01*
X43211761Y-148972218D01*
X42992160Y-148881256D01*
X42982775Y-148878207D01*
X42751645Y-148822717D01*
X42741898Y-148821174D01*
X42504930Y-148802524D01*
X42495070Y-148802524D01*
X42258102Y-148821174D01*
X42248355Y-148822717D01*
X42017225Y-148878207D01*
X42007840Y-148881256D01*
X41788239Y-148972218D01*
X41779445Y-148976699D01*
X41594285Y-149090165D01*
X41584825Y-149100621D01*
X36008500Y-149100621D01*
X36008500Y-147000000D01*
X40994859Y-147000000D01*
X41002839Y-147097060D01*
X41014646Y-147240678D01*
X41014647Y-147240684D01*
X41015070Y-147245829D01*
X41075159Y-147485055D01*
X41077217Y-147489788D01*
X41077218Y-147489791D01*
X41092270Y-147524407D01*
X41173514Y-147711256D01*
X41307492Y-147918355D01*
X41310971Y-147922178D01*
X41310973Y-147922181D01*
X41337154Y-147950953D01*
X41473496Y-148100790D01*
X41477547Y-148103989D01*
X41477551Y-148103993D01*
X41663013Y-148250462D01*
X41663017Y-148250464D01*
X41667068Y-148253664D01*
X41671589Y-148256160D01*
X41671591Y-148256161D01*
X41707582Y-148276029D01*
X41883008Y-148372869D01*
X41887877Y-148374593D01*
X41887881Y-148374595D01*
X42110643Y-148453480D01*
X42110647Y-148453481D01*
X42115518Y-148455206D01*
X42120611Y-148456113D01*
X42120614Y-148456114D01*
X42224156Y-148474557D01*
X42358354Y-148498461D01*
X42451217Y-148499596D01*
X42599823Y-148501412D01*
X42599825Y-148501412D01*
X42604993Y-148501475D01*
X42848813Y-148464165D01*
X43083266Y-148387534D01*
X43302054Y-148273640D01*
X43306187Y-148270537D01*
X43306190Y-148270535D01*
X43495168Y-148128647D01*
X43495171Y-148128645D01*
X43499303Y-148125542D01*
X43669714Y-147947216D01*
X43808712Y-147743452D01*
X43912564Y-147519722D01*
X43978481Y-147282035D01*
X44004692Y-147036774D01*
X44002572Y-147000000D01*
X55994859Y-147000000D01*
X56002839Y-147097060D01*
X56014646Y-147240678D01*
X56014647Y-147240684D01*
X56015070Y-147245829D01*
X56075159Y-147485055D01*
X56077217Y-147489788D01*
X56077218Y-147489791D01*
X56092270Y-147524407D01*
X56173514Y-147711256D01*
X56307492Y-147918355D01*
X56310971Y-147922178D01*
X56310973Y-147922181D01*
X56337154Y-147950953D01*
X56473496Y-148100790D01*
X56477547Y-148103989D01*
X56477551Y-148103993D01*
X56663013Y-148250462D01*
X56663017Y-148250464D01*
X56667068Y-148253664D01*
X56671589Y-148256160D01*
X56671591Y-148256161D01*
X56707582Y-148276029D01*
X56883008Y-148372869D01*
X56887877Y-148374593D01*
X56887881Y-148374595D01*
X57110643Y-148453480D01*
X57110647Y-148453481D01*
X57115518Y-148455206D01*
X57120611Y-148456113D01*
X57120614Y-148456114D01*
X57224156Y-148474557D01*
X57358354Y-148498461D01*
X57451217Y-148499596D01*
X57599823Y-148501412D01*
X57599825Y-148501412D01*
X57604993Y-148501475D01*
X57848813Y-148464165D01*
X58083266Y-148387534D01*
X58302054Y-148273640D01*
X58306187Y-148270537D01*
X58306190Y-148270535D01*
X58495168Y-148128647D01*
X58495171Y-148128645D01*
X58499303Y-148125542D01*
X58669714Y-147947216D01*
X58808712Y-147743452D01*
X58912564Y-147519722D01*
X58978481Y-147282035D01*
X59004692Y-147036774D01*
X58998141Y-146923152D01*
X58990791Y-146795694D01*
X58990493Y-146790525D01*
X58989356Y-146785479D01*
X58989355Y-146785473D01*
X58937402Y-146554943D01*
X58936266Y-146549901D01*
X58894045Y-146445921D01*
X58845412Y-146326153D01*
X58845411Y-146326151D01*
X58843468Y-146321366D01*
X58714589Y-146111055D01*
X58553092Y-145924618D01*
X58363313Y-145767061D01*
X58358861Y-145764459D01*
X58358856Y-145764456D01*
X58154808Y-145645220D01*
X58154807Y-145645220D01*
X58150350Y-145642615D01*
X57919921Y-145554623D01*
X57914853Y-145553592D01*
X57914850Y-145553591D01*
X57784608Y-145527093D01*
X57678215Y-145505447D01*
X57673040Y-145505257D01*
X57673038Y-145505257D01*
X57436886Y-145496597D01*
X57436882Y-145496597D01*
X57431722Y-145496408D01*
X57426602Y-145497064D01*
X57426600Y-145497064D01*
X57362646Y-145505257D01*
X57187064Y-145527750D01*
X57182113Y-145529235D01*
X57182110Y-145529236D01*
X56955752Y-145597147D01*
X56950809Y-145598630D01*
X56729303Y-145707144D01*
X56725098Y-145710143D01*
X56725097Y-145710144D01*
X56645302Y-145767061D01*
X56528495Y-145850379D01*
X56353777Y-146024488D01*
X56209842Y-146224795D01*
X56100555Y-146445921D01*
X56099050Y-146450875D01*
X56030355Y-146676974D01*
X56030354Y-146676980D01*
X56028851Y-146681926D01*
X55996656Y-146926474D01*
X55994859Y-147000000D01*
X44002572Y-147000000D01*
X43998141Y-146923152D01*
X43990791Y-146795694D01*
X43990493Y-146790525D01*
X43989356Y-146785479D01*
X43989355Y-146785473D01*
X43937402Y-146554943D01*
X43936266Y-146549901D01*
X43894045Y-146445921D01*
X43845412Y-146326153D01*
X43845411Y-146326151D01*
X43843468Y-146321366D01*
X43714589Y-146111055D01*
X43553092Y-145924618D01*
X43363313Y-145767061D01*
X43358861Y-145764459D01*
X43358856Y-145764456D01*
X43154808Y-145645220D01*
X43154807Y-145645220D01*
X43150350Y-145642615D01*
X42919921Y-145554623D01*
X42914853Y-145553592D01*
X42914850Y-145553591D01*
X42784608Y-145527093D01*
X42678215Y-145505447D01*
X42673040Y-145505257D01*
X42673038Y-145505257D01*
X42436886Y-145496597D01*
X42436882Y-145496597D01*
X42431722Y-145496408D01*
X42426602Y-145497064D01*
X42426600Y-145497064D01*
X42362646Y-145505257D01*
X42187064Y-145527750D01*
X42182113Y-145529235D01*
X42182110Y-145529236D01*
X41955752Y-145597147D01*
X41950809Y-145598630D01*
X41729303Y-145707144D01*
X41725098Y-145710143D01*
X41725097Y-145710144D01*
X41645302Y-145767061D01*
X41528495Y-145850379D01*
X41353777Y-146024488D01*
X41209842Y-146224795D01*
X41100555Y-146445921D01*
X41099050Y-146450875D01*
X41030355Y-146676974D01*
X41030354Y-146676980D01*
X41028851Y-146681926D01*
X40996656Y-146926474D01*
X40994859Y-147000000D01*
X36008500Y-147000000D01*
X36008500Y-116496397D01*
X36028502Y-116428276D01*
X36082158Y-116381783D01*
X36152432Y-116371679D01*
X36217012Y-116401173D01*
X36234663Y-116419955D01*
X36296833Y-116501417D01*
X36490736Y-116690970D01*
X36709972Y-116850547D01*
X36949947Y-116976804D01*
X36954248Y-116978323D01*
X36954253Y-116978325D01*
X37045978Y-117010716D01*
X37205634Y-117067096D01*
X37256015Y-117077026D01*
X37467206Y-117118652D01*
X37467212Y-117118653D01*
X37471678Y-117119533D01*
X37476232Y-117119760D01*
X37476234Y-117119760D01*
X37737936Y-117132789D01*
X37737942Y-117132789D01*
X37742505Y-117133016D01*
X38012441Y-117107262D01*
X38016870Y-117106178D01*
X38016877Y-117106177D01*
X38176584Y-117067096D01*
X38275832Y-117042810D01*
X38336513Y-117018232D01*
X38522931Y-116942725D01*
X38522932Y-116942725D01*
X38527160Y-116941012D01*
X38761161Y-116803999D01*
X38848831Y-116733887D01*
X38936805Y-116663533D01*
X39002498Y-116636609D01*
X39072319Y-116649475D01*
X39124101Y-116698046D01*
X39141500Y-116761936D01*
X39141500Y-120968709D01*
X39121498Y-121036830D01*
X39067842Y-121083323D01*
X39029108Y-121093972D01*
X39016914Y-121095297D01*
X38989684Y-121098255D01*
X38853295Y-121149385D01*
X38736739Y-121236739D01*
X38649385Y-121353295D01*
X38598255Y-121489684D01*
X38591500Y-121551866D01*
X38591500Y-123448134D01*
X38598255Y-123510316D01*
X38649385Y-123646705D01*
X38736739Y-123763261D01*
X38853295Y-123850615D01*
X38989684Y-123901745D01*
X39051866Y-123908500D01*
X40948134Y-123908500D01*
X41010316Y-123901745D01*
X41090794Y-123871575D01*
X41097806Y-123871062D01*
X41112473Y-123863448D01*
X41127648Y-123857759D01*
X41146705Y-123850615D01*
X41263261Y-123763261D01*
X41350615Y-123646705D01*
X41365686Y-123606504D01*
X41408328Y-123549739D01*
X41474890Y-123525040D01*
X41544239Y-123540248D01*
X41564150Y-123553788D01*
X41689349Y-123657730D01*
X41889322Y-123774584D01*
X41894147Y-123776426D01*
X41894148Y-123776427D01*
X41950092Y-123797790D01*
X42006595Y-123840778D01*
X42030888Y-123907489D01*
X42015258Y-123976744D01*
X41964666Y-124026554D01*
X41905143Y-124041500D01*
X41567070Y-124041500D01*
X41548120Y-124040067D01*
X41533885Y-124037901D01*
X41533881Y-124037901D01*
X41526651Y-124036801D01*
X41519359Y-124037394D01*
X41519356Y-124037394D01*
X41473982Y-124041085D01*
X41463767Y-124041500D01*
X41455707Y-124041500D01*
X41452073Y-124041924D01*
X41452067Y-124041924D01*
X41439042Y-124043443D01*
X41427480Y-124044791D01*
X41423132Y-124045221D01*
X41350364Y-124051140D01*
X41343403Y-124053395D01*
X41337463Y-124054582D01*
X41331588Y-124055971D01*
X41324319Y-124056818D01*
X41255670Y-124081736D01*
X41251558Y-124083148D01*
X41195535Y-124101297D01*
X41192059Y-124101393D01*
X41188262Y-124103653D01*
X41182101Y-124105649D01*
X41175841Y-124109448D01*
X41170361Y-124111957D01*
X41164945Y-124114669D01*
X41158063Y-124117167D01*
X41151943Y-124121180D01*
X41151942Y-124121180D01*
X41097024Y-124157186D01*
X41093320Y-124159523D01*
X41030893Y-124197405D01*
X41022516Y-124204803D01*
X41022492Y-124204776D01*
X41019500Y-124207429D01*
X41016267Y-124210132D01*
X41010148Y-124214144D01*
X41005116Y-124219456D01*
X40956872Y-124270383D01*
X40954494Y-124272825D01*
X39411089Y-125816230D01*
X39396677Y-125828616D01*
X39385082Y-125837149D01*
X39385077Y-125837154D01*
X39379182Y-125841492D01*
X39374443Y-125847070D01*
X39374440Y-125847073D01*
X39344965Y-125881768D01*
X39338035Y-125889284D01*
X39332340Y-125894979D01*
X39330060Y-125897861D01*
X39314719Y-125917251D01*
X39311928Y-125920655D01*
X39277891Y-125960719D01*
X39264667Y-125976285D01*
X39261339Y-125982801D01*
X39257972Y-125987850D01*
X39254805Y-125992979D01*
X39250266Y-125998716D01*
X39219345Y-126064875D01*
X39217442Y-126068769D01*
X39184231Y-126133808D01*
X39182492Y-126140916D01*
X39180393Y-126146559D01*
X39178476Y-126152322D01*
X39175378Y-126158950D01*
X39173888Y-126166112D01*
X39173888Y-126166113D01*
X39160514Y-126230412D01*
X39159544Y-126234696D01*
X39142192Y-126305610D01*
X39141500Y-126316764D01*
X39141464Y-126316762D01*
X39141225Y-126320755D01*
X39140851Y-126324947D01*
X39139360Y-126332115D01*
X39139558Y-126339432D01*
X39141454Y-126409521D01*
X39141500Y-126412928D01*
X39141500Y-139412930D01*
X39140067Y-139431880D01*
X39138882Y-139439672D01*
X39136801Y-139453349D01*
X39137394Y-139460641D01*
X39137394Y-139460644D01*
X39141085Y-139506018D01*
X39141500Y-139516233D01*
X39141500Y-139524293D01*
X39141925Y-139527937D01*
X39144789Y-139552507D01*
X39145222Y-139556882D01*
X39151140Y-139629637D01*
X39153396Y-139636601D01*
X39154587Y-139642560D01*
X39155971Y-139648415D01*
X39156818Y-139655681D01*
X39181735Y-139724327D01*
X39183152Y-139728455D01*
X39194436Y-139763285D01*
X39205649Y-139797899D01*
X39209445Y-139804154D01*
X39211951Y-139809628D01*
X39214670Y-139815058D01*
X39217167Y-139821937D01*
X39221180Y-139828057D01*
X39221180Y-139828058D01*
X39257186Y-139882976D01*
X39259523Y-139886680D01*
X39297405Y-139949107D01*
X39301121Y-139953315D01*
X39301122Y-139953316D01*
X39304803Y-139957484D01*
X39304776Y-139957508D01*
X39307429Y-139960500D01*
X39310132Y-139963733D01*
X39314144Y-139969852D01*
X39319456Y-139974884D01*
X39370383Y-140023128D01*
X39372825Y-140025506D01*
X40937506Y-141590187D01*
X40971532Y-141652499D01*
X40970930Y-141708696D01*
X40942221Y-141828276D01*
X40942220Y-141828282D01*
X40941066Y-141833089D01*
X40921634Y-142080000D01*
X40941066Y-142326911D01*
X40942220Y-142331718D01*
X40942221Y-142331724D01*
X40978499Y-142482830D01*
X40998885Y-142567742D01*
X41000778Y-142572313D01*
X41000779Y-142572315D01*
X41081587Y-142767401D01*
X41093666Y-142796563D01*
X41223075Y-143007740D01*
X41383927Y-143196073D01*
X41572260Y-143356925D01*
X41783437Y-143486334D01*
X41788007Y-143488227D01*
X41788011Y-143488229D01*
X42007685Y-143579221D01*
X42012258Y-143581115D01*
X42097170Y-143601501D01*
X42248276Y-143637779D01*
X42248282Y-143637780D01*
X42253089Y-143638934D01*
X42500000Y-143658366D01*
X42746911Y-143638934D01*
X42751718Y-143637780D01*
X42751724Y-143637779D01*
X42902830Y-143601501D01*
X42987742Y-143581115D01*
X42992315Y-143579221D01*
X43211989Y-143488229D01*
X43211993Y-143488227D01*
X43216563Y-143486334D01*
X43427740Y-143356925D01*
X43616073Y-143196073D01*
X43776925Y-143007740D01*
X43906334Y-142796563D01*
X43918414Y-142767401D01*
X43999221Y-142572315D01*
X43999222Y-142572313D01*
X44001115Y-142567742D01*
X44021501Y-142482830D01*
X44057779Y-142331724D01*
X44057780Y-142331718D01*
X44058934Y-142326911D01*
X44078366Y-142080000D01*
X44058934Y-141833089D01*
X44057780Y-141828282D01*
X44057779Y-141828276D01*
X44002270Y-141597070D01*
X44001115Y-141592258D01*
X43906334Y-141363437D01*
X43776925Y-141152260D01*
X43616073Y-140963927D01*
X43427740Y-140803075D01*
X43216563Y-140673666D01*
X43211993Y-140671773D01*
X43211989Y-140671771D01*
X42992315Y-140580779D01*
X42992313Y-140580778D01*
X42987742Y-140578885D01*
X42902830Y-140558499D01*
X42751724Y-140522221D01*
X42751718Y-140522220D01*
X42746911Y-140521066D01*
X42500000Y-140501634D01*
X42253089Y-140521066D01*
X42248282Y-140522220D01*
X42248276Y-140522221D01*
X42128696Y-140550930D01*
X42057788Y-140547383D01*
X42010187Y-140517506D01*
X41610776Y-140118095D01*
X41576750Y-140055783D01*
X41581815Y-139984968D01*
X41624362Y-139928132D01*
X41690882Y-139903321D01*
X41699871Y-139903000D01*
X42227885Y-139903000D01*
X42243124Y-139898525D01*
X42244329Y-139897135D01*
X42246000Y-139889452D01*
X42246000Y-139884884D01*
X42754000Y-139884884D01*
X42758475Y-139900123D01*
X42759865Y-139901328D01*
X42767548Y-139902999D01*
X43509669Y-139902999D01*
X43516490Y-139902629D01*
X43567352Y-139897105D01*
X43582604Y-139893479D01*
X43703054Y-139848324D01*
X43718649Y-139839786D01*
X43820724Y-139763285D01*
X43833285Y-139750724D01*
X43909786Y-139648649D01*
X43918324Y-139633054D01*
X43963478Y-139512606D01*
X43967105Y-139497351D01*
X43972631Y-139446486D01*
X43973000Y-139439672D01*
X43973000Y-139439669D01*
X56027001Y-139439669D01*
X56027371Y-139446490D01*
X56032895Y-139497352D01*
X56036521Y-139512604D01*
X56081676Y-139633054D01*
X56090214Y-139648649D01*
X56166715Y-139750724D01*
X56179276Y-139763285D01*
X56281351Y-139839786D01*
X56296946Y-139848324D01*
X56417394Y-139893478D01*
X56432649Y-139897105D01*
X56483514Y-139902631D01*
X56490328Y-139903000D01*
X57227885Y-139903000D01*
X57243124Y-139898525D01*
X57244329Y-139897135D01*
X57246000Y-139889452D01*
X57246000Y-139884884D01*
X57754000Y-139884884D01*
X57758475Y-139900123D01*
X57759865Y-139901328D01*
X57767548Y-139902999D01*
X58509669Y-139902999D01*
X58516490Y-139902629D01*
X58567352Y-139897105D01*
X58582604Y-139893479D01*
X58703054Y-139848324D01*
X58718649Y-139839786D01*
X58820724Y-139763285D01*
X58833285Y-139750724D01*
X58909786Y-139648649D01*
X58918324Y-139633054D01*
X58963478Y-139512606D01*
X58967105Y-139497351D01*
X58972631Y-139446486D01*
X58973000Y-139439672D01*
X58973000Y-138752115D01*
X58968525Y-138736876D01*
X58967135Y-138735671D01*
X58959452Y-138734000D01*
X57772115Y-138734000D01*
X57756876Y-138738475D01*
X57755671Y-138739865D01*
X57754000Y-138747548D01*
X57754000Y-139884884D01*
X57246000Y-139884884D01*
X57246000Y-138752115D01*
X57241525Y-138736876D01*
X57240135Y-138735671D01*
X57232452Y-138734000D01*
X56045116Y-138734000D01*
X56029877Y-138738475D01*
X56028672Y-138739865D01*
X56027001Y-138747548D01*
X56027001Y-139439669D01*
X43973000Y-139439669D01*
X43973000Y-138752115D01*
X43968525Y-138736876D01*
X43967135Y-138735671D01*
X43959452Y-138734000D01*
X42772115Y-138734000D01*
X42756876Y-138738475D01*
X42755671Y-138739865D01*
X42754000Y-138747548D01*
X42754000Y-139884884D01*
X42246000Y-139884884D01*
X42246000Y-138752115D01*
X42241525Y-138736876D01*
X42240135Y-138735671D01*
X42232452Y-138734000D01*
X41045116Y-138734000D01*
X41029877Y-138738475D01*
X41028672Y-138739865D01*
X41027001Y-138747548D01*
X41027001Y-139230130D01*
X41006999Y-139298251D01*
X40953343Y-139344744D01*
X40883069Y-139354848D01*
X40818489Y-139325354D01*
X40811906Y-139319225D01*
X40695405Y-139202724D01*
X40661379Y-139140412D01*
X40658500Y-139113629D01*
X40658500Y-138207885D01*
X41027000Y-138207885D01*
X41031475Y-138223124D01*
X41032865Y-138224329D01*
X41040548Y-138226000D01*
X43954884Y-138226000D01*
X43970123Y-138221525D01*
X43971328Y-138220135D01*
X43972999Y-138212452D01*
X43972999Y-138207885D01*
X56027000Y-138207885D01*
X56031475Y-138223124D01*
X56032865Y-138224329D01*
X56040548Y-138226000D01*
X58954884Y-138226000D01*
X58970123Y-138221525D01*
X58971328Y-138220135D01*
X58972999Y-138212452D01*
X58972999Y-137520331D01*
X58972629Y-137513510D01*
X58967105Y-137462648D01*
X58963479Y-137447396D01*
X58918324Y-137326946D01*
X58909786Y-137311351D01*
X58833285Y-137209276D01*
X58820724Y-137196715D01*
X58718649Y-137120214D01*
X58703054Y-137111676D01*
X58582606Y-137066522D01*
X58567351Y-137062895D01*
X58516486Y-137057369D01*
X58509672Y-137057000D01*
X58195255Y-137057000D01*
X58127134Y-137036998D01*
X58080641Y-136983342D01*
X58070537Y-136913068D01*
X58100031Y-136848488D01*
X58147037Y-136814591D01*
X58211761Y-136787782D01*
X58220555Y-136783301D01*
X58405715Y-136669835D01*
X58415175Y-136659379D01*
X58411391Y-136650601D01*
X57512812Y-135752022D01*
X57498868Y-135744408D01*
X57497035Y-135744539D01*
X57490420Y-135748790D01*
X56591652Y-136647558D01*
X56584892Y-136659938D01*
X56590619Y-136667588D01*
X56779445Y-136783301D01*
X56788235Y-136787780D01*
X56852965Y-136814592D01*
X56908245Y-136859141D01*
X56930666Y-136926504D01*
X56913107Y-136995296D01*
X56861145Y-137043674D01*
X56804746Y-137057001D01*
X56490331Y-137057001D01*
X56483510Y-137057371D01*
X56432648Y-137062895D01*
X56417396Y-137066521D01*
X56296946Y-137111676D01*
X56281351Y-137120214D01*
X56179276Y-137196715D01*
X56166715Y-137209276D01*
X56090214Y-137311351D01*
X56081676Y-137326946D01*
X56036522Y-137447394D01*
X56032895Y-137462649D01*
X56027369Y-137513514D01*
X56027000Y-137520328D01*
X56027000Y-138207885D01*
X43972999Y-138207885D01*
X43972999Y-137520331D01*
X43972629Y-137513510D01*
X43967105Y-137462648D01*
X43963479Y-137447396D01*
X43918324Y-137326946D01*
X43909786Y-137311351D01*
X43833285Y-137209276D01*
X43820724Y-137196715D01*
X43718649Y-137120214D01*
X43703054Y-137111676D01*
X43582606Y-137066522D01*
X43567351Y-137062895D01*
X43516486Y-137057369D01*
X43509672Y-137057000D01*
X43195255Y-137057000D01*
X43127134Y-137036998D01*
X43080641Y-136983342D01*
X43070537Y-136913068D01*
X43100031Y-136848488D01*
X43147037Y-136814591D01*
X43211761Y-136787782D01*
X43220555Y-136783301D01*
X43405715Y-136669835D01*
X43415175Y-136659379D01*
X43411391Y-136650601D01*
X42512812Y-135752022D01*
X42498868Y-135744408D01*
X42497035Y-135744539D01*
X42490420Y-135748790D01*
X41591652Y-136647558D01*
X41584892Y-136659938D01*
X41590619Y-136667588D01*
X41779445Y-136783301D01*
X41788235Y-136787780D01*
X41852965Y-136814592D01*
X41908245Y-136859141D01*
X41930666Y-136926504D01*
X41913107Y-136995296D01*
X41861145Y-137043674D01*
X41804746Y-137057001D01*
X41490331Y-137057001D01*
X41483510Y-137057371D01*
X41432648Y-137062895D01*
X41417396Y-137066521D01*
X41296946Y-137111676D01*
X41281351Y-137120214D01*
X41179276Y-137196715D01*
X41166715Y-137209276D01*
X41090214Y-137311351D01*
X41081676Y-137326946D01*
X41036522Y-137447394D01*
X41032895Y-137462649D01*
X41027369Y-137513514D01*
X41027000Y-137520328D01*
X41027000Y-138207885D01*
X40658500Y-138207885D01*
X40658500Y-135384930D01*
X40922524Y-135384930D01*
X40941174Y-135621898D01*
X40942717Y-135631645D01*
X40998207Y-135862775D01*
X41001256Y-135872160D01*
X41092218Y-136091761D01*
X41096699Y-136100555D01*
X41210165Y-136285715D01*
X41220621Y-136295175D01*
X41229399Y-136291391D01*
X42127978Y-135392812D01*
X42134356Y-135381132D01*
X42864408Y-135381132D01*
X42864539Y-135382965D01*
X42868790Y-135389580D01*
X43767558Y-136288348D01*
X43779938Y-136295108D01*
X43787588Y-136289381D01*
X43903301Y-136100555D01*
X43907782Y-136091761D01*
X43998744Y-135872160D01*
X44001793Y-135862775D01*
X44057283Y-135631645D01*
X44058826Y-135621898D01*
X44077476Y-135384930D01*
X55922524Y-135384930D01*
X55941174Y-135621898D01*
X55942717Y-135631645D01*
X55998207Y-135862775D01*
X56001256Y-135872160D01*
X56092218Y-136091761D01*
X56096699Y-136100555D01*
X56210165Y-136285715D01*
X56220621Y-136295175D01*
X56229399Y-136291391D01*
X57127978Y-135392812D01*
X57134356Y-135381132D01*
X57864408Y-135381132D01*
X57864539Y-135382965D01*
X57868790Y-135389580D01*
X58767558Y-136288348D01*
X58779938Y-136295108D01*
X58787588Y-136289381D01*
X58903301Y-136100555D01*
X58907782Y-136091761D01*
X58998744Y-135872160D01*
X59001793Y-135862775D01*
X59057283Y-135631645D01*
X59058826Y-135621898D01*
X59077476Y-135384930D01*
X59077476Y-135375070D01*
X59058826Y-135138102D01*
X59057283Y-135128355D01*
X59001793Y-134897225D01*
X58998744Y-134887840D01*
X58907782Y-134668239D01*
X58903301Y-134659445D01*
X58789835Y-134474285D01*
X58779379Y-134464825D01*
X58770601Y-134468609D01*
X57872022Y-135367188D01*
X57864408Y-135381132D01*
X57134356Y-135381132D01*
X57135592Y-135378868D01*
X57135461Y-135377035D01*
X57131210Y-135370420D01*
X56232442Y-134471652D01*
X56220062Y-134464892D01*
X56212412Y-134470619D01*
X56096699Y-134659445D01*
X56092218Y-134668239D01*
X56001256Y-134887840D01*
X55998207Y-134897225D01*
X55942717Y-135128355D01*
X55941174Y-135138102D01*
X55922524Y-135375070D01*
X55922524Y-135384930D01*
X44077476Y-135384930D01*
X44077476Y-135375070D01*
X44058826Y-135138102D01*
X44057283Y-135128355D01*
X44001793Y-134897225D01*
X43998744Y-134887840D01*
X43907782Y-134668239D01*
X43903301Y-134659445D01*
X43789835Y-134474285D01*
X43779379Y-134464825D01*
X43770601Y-134468609D01*
X42872022Y-135367188D01*
X42864408Y-135381132D01*
X42134356Y-135381132D01*
X42135592Y-135378868D01*
X42135461Y-135377035D01*
X42131210Y-135370420D01*
X41232442Y-134471652D01*
X41220062Y-134464892D01*
X41212412Y-134470619D01*
X41096699Y-134659445D01*
X41092218Y-134668239D01*
X41001256Y-134887840D01*
X40998207Y-134897225D01*
X40942717Y-135128355D01*
X40941174Y-135138102D01*
X40922524Y-135375070D01*
X40922524Y-135384930D01*
X40658500Y-135384930D01*
X40658500Y-134100621D01*
X41584825Y-134100621D01*
X41588609Y-134109399D01*
X42487188Y-135007978D01*
X42501132Y-135015592D01*
X42502965Y-135015461D01*
X42509580Y-135011210D01*
X43408348Y-134112442D01*
X43414803Y-134100621D01*
X56584825Y-134100621D01*
X56588609Y-134109399D01*
X57487188Y-135007978D01*
X57501132Y-135015592D01*
X57502965Y-135015461D01*
X57509580Y-135011210D01*
X58408348Y-134112442D01*
X58415108Y-134100062D01*
X58409381Y-134092412D01*
X58220555Y-133976699D01*
X58211761Y-133972218D01*
X57992160Y-133881256D01*
X57982775Y-133878207D01*
X57751645Y-133822717D01*
X57741898Y-133821174D01*
X57504930Y-133802524D01*
X57495070Y-133802524D01*
X57258102Y-133821174D01*
X57248355Y-133822717D01*
X57017225Y-133878207D01*
X57007840Y-133881256D01*
X56788239Y-133972218D01*
X56779445Y-133976699D01*
X56594285Y-134090165D01*
X56584825Y-134100621D01*
X43414803Y-134100621D01*
X43415108Y-134100062D01*
X43409381Y-134092412D01*
X43220555Y-133976699D01*
X43211761Y-133972218D01*
X42992160Y-133881256D01*
X42982775Y-133878207D01*
X42751645Y-133822717D01*
X42741898Y-133821174D01*
X42504930Y-133802524D01*
X42495070Y-133802524D01*
X42258102Y-133821174D01*
X42248355Y-133822717D01*
X42017225Y-133878207D01*
X42007840Y-133881256D01*
X41788239Y-133972218D01*
X41779445Y-133976699D01*
X41594285Y-134090165D01*
X41584825Y-134100621D01*
X40658500Y-134100621D01*
X40658500Y-132000000D01*
X40994859Y-132000000D01*
X41002839Y-132097060D01*
X41014646Y-132240678D01*
X41014647Y-132240684D01*
X41015070Y-132245829D01*
X41075159Y-132485055D01*
X41077217Y-132489788D01*
X41077218Y-132489791D01*
X41092270Y-132524407D01*
X41173514Y-132711256D01*
X41307492Y-132918355D01*
X41310971Y-132922178D01*
X41310973Y-132922181D01*
X41337154Y-132950953D01*
X41473496Y-133100790D01*
X41477547Y-133103989D01*
X41477551Y-133103993D01*
X41663013Y-133250462D01*
X41663017Y-133250464D01*
X41667068Y-133253664D01*
X41671589Y-133256160D01*
X41671591Y-133256161D01*
X41707582Y-133276029D01*
X41883008Y-133372869D01*
X41887877Y-133374593D01*
X41887881Y-133374595D01*
X42110643Y-133453480D01*
X42110647Y-133453481D01*
X42115518Y-133455206D01*
X42120611Y-133456113D01*
X42120614Y-133456114D01*
X42224156Y-133474557D01*
X42358354Y-133498461D01*
X42451217Y-133499596D01*
X42599823Y-133501412D01*
X42599825Y-133501412D01*
X42604993Y-133501475D01*
X42848813Y-133464165D01*
X43083266Y-133387534D01*
X43302054Y-133273640D01*
X43306187Y-133270537D01*
X43306190Y-133270535D01*
X43495168Y-133128647D01*
X43495171Y-133128645D01*
X43499303Y-133125542D01*
X43669714Y-132947216D01*
X43808712Y-132743452D01*
X43912564Y-132519722D01*
X43978481Y-132282035D01*
X44004692Y-132036774D01*
X44002572Y-132000000D01*
X55994859Y-132000000D01*
X56002839Y-132097060D01*
X56014646Y-132240678D01*
X56014647Y-132240684D01*
X56015070Y-132245829D01*
X56075159Y-132485055D01*
X56077217Y-132489788D01*
X56077218Y-132489791D01*
X56092270Y-132524407D01*
X56173514Y-132711256D01*
X56307492Y-132918355D01*
X56310971Y-132922178D01*
X56310973Y-132922181D01*
X56337154Y-132950953D01*
X56473496Y-133100790D01*
X56477547Y-133103989D01*
X56477551Y-133103993D01*
X56663013Y-133250462D01*
X56663017Y-133250464D01*
X56667068Y-133253664D01*
X56671589Y-133256160D01*
X56671591Y-133256161D01*
X56707582Y-133276029D01*
X56883008Y-133372869D01*
X56887877Y-133374593D01*
X56887881Y-133374595D01*
X57110643Y-133453480D01*
X57110647Y-133453481D01*
X57115518Y-133455206D01*
X57120611Y-133456113D01*
X57120614Y-133456114D01*
X57224156Y-133474557D01*
X57358354Y-133498461D01*
X57451217Y-133499596D01*
X57599823Y-133501412D01*
X57599825Y-133501412D01*
X57604993Y-133501475D01*
X57848813Y-133464165D01*
X58083266Y-133387534D01*
X58302054Y-133273640D01*
X58306187Y-133270537D01*
X58306190Y-133270535D01*
X58495168Y-133128647D01*
X58495171Y-133128645D01*
X58499303Y-133125542D01*
X58669714Y-132947216D01*
X58808712Y-132743452D01*
X58912564Y-132519722D01*
X58978481Y-132282035D01*
X59004692Y-132036774D01*
X58998141Y-131923152D01*
X58990791Y-131795694D01*
X58990493Y-131790525D01*
X58989356Y-131785479D01*
X58989355Y-131785473D01*
X58937402Y-131554943D01*
X58936266Y-131549901D01*
X58894045Y-131445921D01*
X58845412Y-131326153D01*
X58845411Y-131326151D01*
X58843468Y-131321366D01*
X58714589Y-131111055D01*
X58553092Y-130924618D01*
X58363313Y-130767061D01*
X58358861Y-130764459D01*
X58358856Y-130764456D01*
X58154808Y-130645220D01*
X58154807Y-130645220D01*
X58150350Y-130642615D01*
X57919921Y-130554623D01*
X57914853Y-130553592D01*
X57914850Y-130553591D01*
X57784608Y-130527093D01*
X57678215Y-130505447D01*
X57673040Y-130505257D01*
X57673038Y-130505257D01*
X57436886Y-130496597D01*
X57436882Y-130496597D01*
X57431722Y-130496408D01*
X57426602Y-130497064D01*
X57426600Y-130497064D01*
X57362646Y-130505257D01*
X57187064Y-130527750D01*
X57182113Y-130529235D01*
X57182110Y-130529236D01*
X56955752Y-130597147D01*
X56950809Y-130598630D01*
X56729303Y-130707144D01*
X56725098Y-130710143D01*
X56725097Y-130710144D01*
X56645302Y-130767061D01*
X56528495Y-130850379D01*
X56353777Y-131024488D01*
X56209842Y-131224795D01*
X56100555Y-131445921D01*
X56099050Y-131450875D01*
X56030355Y-131676974D01*
X56030354Y-131676980D01*
X56028851Y-131681926D01*
X55996656Y-131926474D01*
X55994859Y-132000000D01*
X44002572Y-132000000D01*
X43998141Y-131923152D01*
X43990791Y-131795694D01*
X43990493Y-131790525D01*
X43989356Y-131785479D01*
X43989355Y-131785473D01*
X43937402Y-131554943D01*
X43936266Y-131549901D01*
X43894045Y-131445921D01*
X43845412Y-131326153D01*
X43845411Y-131326151D01*
X43843468Y-131321366D01*
X43714589Y-131111055D01*
X43553092Y-130924618D01*
X43363313Y-130767061D01*
X43358861Y-130764459D01*
X43358856Y-130764456D01*
X43154808Y-130645220D01*
X43154807Y-130645220D01*
X43150350Y-130642615D01*
X42919921Y-130554623D01*
X42914853Y-130553592D01*
X42914850Y-130553591D01*
X42784608Y-130527093D01*
X42678215Y-130505447D01*
X42673040Y-130505257D01*
X42673038Y-130505257D01*
X42436886Y-130496597D01*
X42436882Y-130496597D01*
X42431722Y-130496408D01*
X42426602Y-130497064D01*
X42426600Y-130497064D01*
X42362646Y-130505257D01*
X42187064Y-130527750D01*
X42182113Y-130529235D01*
X42182110Y-130529236D01*
X41955752Y-130597147D01*
X41950809Y-130598630D01*
X41729303Y-130707144D01*
X41725098Y-130710143D01*
X41725097Y-130710144D01*
X41645302Y-130767061D01*
X41528495Y-130850379D01*
X41353777Y-131024488D01*
X41209842Y-131224795D01*
X41100555Y-131445921D01*
X41099050Y-131450875D01*
X41030355Y-131676974D01*
X41030354Y-131676980D01*
X41028851Y-131681926D01*
X40996656Y-131926474D01*
X40994859Y-132000000D01*
X40658500Y-132000000D01*
X40658500Y-126766371D01*
X40678502Y-126698250D01*
X40695405Y-126677276D01*
X40751994Y-126620687D01*
X40814306Y-126586661D01*
X40885121Y-126591726D01*
X40941957Y-126634273D01*
X40966768Y-126700793D01*
X40963608Y-126739196D01*
X40942221Y-126828276D01*
X40942220Y-126828282D01*
X40941066Y-126833089D01*
X40921634Y-127080000D01*
X40941066Y-127326911D01*
X40942220Y-127331718D01*
X40942221Y-127331724D01*
X40978499Y-127482830D01*
X40998885Y-127567742D01*
X41000778Y-127572313D01*
X41000779Y-127572315D01*
X41082864Y-127770484D01*
X41093666Y-127796563D01*
X41223075Y-128007740D01*
X41383927Y-128196073D01*
X41572260Y-128356925D01*
X41783437Y-128486334D01*
X41788007Y-128488227D01*
X41788011Y-128488229D01*
X42007685Y-128579221D01*
X42012258Y-128581115D01*
X42097170Y-128601501D01*
X42248276Y-128637779D01*
X42248282Y-128637780D01*
X42253089Y-128638934D01*
X42500000Y-128658366D01*
X42746911Y-128638934D01*
X42751718Y-128637780D01*
X42751724Y-128637779D01*
X42902830Y-128601501D01*
X42987742Y-128581115D01*
X42992315Y-128579221D01*
X43211989Y-128488229D01*
X43211993Y-128488227D01*
X43216563Y-128486334D01*
X43427740Y-128356925D01*
X43616073Y-128196073D01*
X43776925Y-128007740D01*
X43843766Y-127898665D01*
X43896414Y-127851034D01*
X43951199Y-127838500D01*
X47552930Y-127838500D01*
X47571880Y-127839933D01*
X47586115Y-127842099D01*
X47586119Y-127842099D01*
X47593349Y-127843199D01*
X47600641Y-127842606D01*
X47600644Y-127842606D01*
X47646018Y-127838915D01*
X47656233Y-127838500D01*
X47664293Y-127838500D01*
X47680608Y-127836598D01*
X47692507Y-127835211D01*
X47696882Y-127834778D01*
X47762339Y-127829454D01*
X47762342Y-127829453D01*
X47769637Y-127828860D01*
X47776601Y-127826604D01*
X47782560Y-127825413D01*
X47788415Y-127824029D01*
X47795681Y-127823182D01*
X47864327Y-127798265D01*
X47868455Y-127796848D01*
X47930936Y-127776607D01*
X47930938Y-127776606D01*
X47937899Y-127774351D01*
X47944154Y-127770555D01*
X47949628Y-127768049D01*
X47955058Y-127765330D01*
X47961937Y-127762833D01*
X47975785Y-127753754D01*
X48022976Y-127722814D01*
X48026680Y-127720477D01*
X48089107Y-127682595D01*
X48097484Y-127675197D01*
X48097508Y-127675224D01*
X48100500Y-127672571D01*
X48103733Y-127669868D01*
X48109852Y-127665856D01*
X48163128Y-127609617D01*
X48165506Y-127607175D01*
X50933862Y-124838819D01*
X50996174Y-124804793D01*
X51066989Y-124809858D01*
X51123825Y-124852405D01*
X51148542Y-124917698D01*
X51151140Y-124949637D01*
X51153396Y-124956601D01*
X51154587Y-124962560D01*
X51155971Y-124968415D01*
X51156818Y-124975681D01*
X51181735Y-125044327D01*
X51183152Y-125048455D01*
X51205649Y-125117899D01*
X51209445Y-125124154D01*
X51211951Y-125129628D01*
X51214670Y-125135058D01*
X51217167Y-125141937D01*
X51221180Y-125148057D01*
X51221180Y-125148058D01*
X51257186Y-125202976D01*
X51259523Y-125206680D01*
X51297405Y-125269107D01*
X51301121Y-125273315D01*
X51301122Y-125273316D01*
X51304803Y-125277484D01*
X51304776Y-125277508D01*
X51307429Y-125280500D01*
X51310132Y-125283733D01*
X51314144Y-125289852D01*
X51319456Y-125294884D01*
X51370383Y-125343128D01*
X51372825Y-125345506D01*
X53643969Y-127616650D01*
X53649315Y-127622337D01*
X53690000Y-127668404D01*
X53710080Y-127682595D01*
X53742677Y-127705632D01*
X53748132Y-127709713D01*
X53798716Y-127749734D01*
X53807321Y-127753756D01*
X53826682Y-127765001D01*
X53834440Y-127770484D01*
X53894311Y-127794613D01*
X53900499Y-127797304D01*
X53958950Y-127824622D01*
X53966122Y-127826114D01*
X53966123Y-127826114D01*
X53968244Y-127826555D01*
X53989676Y-127833046D01*
X53998489Y-127836598D01*
X54005719Y-127837698D01*
X54005723Y-127837699D01*
X54062270Y-127846301D01*
X54068978Y-127847508D01*
X54124950Y-127859150D01*
X54124953Y-127859150D01*
X54132115Y-127860640D01*
X54141599Y-127860383D01*
X54163962Y-127861771D01*
X54164638Y-127861874D01*
X54166117Y-127862099D01*
X54166120Y-127862099D01*
X54173349Y-127863199D01*
X54180640Y-127862606D01*
X54180643Y-127862606D01*
X54237632Y-127857970D01*
X54244441Y-127857601D01*
X54286921Y-127856452D01*
X54308920Y-127855857D01*
X54318103Y-127853422D01*
X54340171Y-127849630D01*
X54349637Y-127848860D01*
X54362686Y-127844633D01*
X54401516Y-127838500D01*
X56048801Y-127838500D01*
X56116922Y-127858502D01*
X56156234Y-127898665D01*
X56223075Y-128007740D01*
X56383927Y-128196073D01*
X56572260Y-128356925D01*
X56783437Y-128486334D01*
X56788007Y-128488227D01*
X56788011Y-128488229D01*
X57007685Y-128579221D01*
X57012258Y-128581115D01*
X57097170Y-128601501D01*
X57248276Y-128637779D01*
X57248282Y-128637780D01*
X57253089Y-128638934D01*
X57500000Y-128658366D01*
X57746911Y-128638934D01*
X57751718Y-128637780D01*
X57751724Y-128637779D01*
X57902830Y-128601501D01*
X57987742Y-128581115D01*
X57992315Y-128579221D01*
X58211989Y-128488229D01*
X58211993Y-128488227D01*
X58216563Y-128486334D01*
X58427740Y-128356925D01*
X58616073Y-128196073D01*
X58776925Y-128007740D01*
X58906334Y-127796563D01*
X58917137Y-127770484D01*
X58999221Y-127572315D01*
X58999222Y-127572313D01*
X59001115Y-127567742D01*
X59021501Y-127482830D01*
X59057779Y-127331724D01*
X59057780Y-127331718D01*
X59058934Y-127326911D01*
X59078366Y-127080000D01*
X59058934Y-126833089D01*
X59057780Y-126828282D01*
X59057779Y-126828276D01*
X59002270Y-126597070D01*
X59001115Y-126592258D01*
X58906334Y-126363437D01*
X58776925Y-126152260D01*
X58616073Y-125963927D01*
X58427740Y-125803075D01*
X58216563Y-125673666D01*
X58211993Y-125671773D01*
X58211989Y-125671771D01*
X57992315Y-125580779D01*
X57992313Y-125580778D01*
X57987742Y-125578885D01*
X57902830Y-125558499D01*
X57751724Y-125522221D01*
X57751718Y-125522220D01*
X57746911Y-125521066D01*
X57500000Y-125501634D01*
X57253089Y-125521066D01*
X57248282Y-125522220D01*
X57248276Y-125522221D01*
X57097170Y-125558499D01*
X57012258Y-125578885D01*
X57007687Y-125580778D01*
X57007685Y-125580779D01*
X56788011Y-125671771D01*
X56788007Y-125671773D01*
X56783437Y-125673666D01*
X56572260Y-125803075D01*
X56383927Y-125963927D01*
X56223075Y-126152260D01*
X56214586Y-126166113D01*
X56156234Y-126261335D01*
X56103586Y-126308966D01*
X56048801Y-126321500D01*
X54546371Y-126321500D01*
X54478250Y-126301498D01*
X54457276Y-126284595D01*
X52695405Y-124522724D01*
X52661379Y-124460412D01*
X52658500Y-124433629D01*
X52658500Y-123448134D01*
X53591500Y-123448134D01*
X53598255Y-123510316D01*
X53649385Y-123646705D01*
X53736739Y-123763261D01*
X53853295Y-123850615D01*
X53989684Y-123901745D01*
X54051866Y-123908500D01*
X55948134Y-123908500D01*
X56010316Y-123901745D01*
X56146705Y-123850615D01*
X56263261Y-123763261D01*
X56350615Y-123646705D01*
X56365686Y-123606504D01*
X56408328Y-123549739D01*
X56474890Y-123525040D01*
X56544239Y-123540248D01*
X56564150Y-123553788D01*
X56689349Y-123657730D01*
X56889322Y-123774584D01*
X57105694Y-123857209D01*
X57110760Y-123858240D01*
X57110761Y-123858240D01*
X57163846Y-123869040D01*
X57332656Y-123903385D01*
X57462089Y-123908131D01*
X57558949Y-123911683D01*
X57558953Y-123911683D01*
X57564113Y-123911872D01*
X57569233Y-123911216D01*
X57569235Y-123911216D01*
X57643166Y-123901745D01*
X57793847Y-123882442D01*
X57798795Y-123880957D01*
X57798802Y-123880956D01*
X58010747Y-123817369D01*
X58015690Y-123815886D01*
X58097161Y-123775974D01*
X58219049Y-123716262D01*
X58219052Y-123716260D01*
X58223684Y-123713991D01*
X58297406Y-123661406D01*
X59203423Y-123661406D01*
X59208704Y-123668461D01*
X59385080Y-123771527D01*
X59394363Y-123775974D01*
X59601003Y-123854883D01*
X59610901Y-123857759D01*
X59827653Y-123901857D01*
X59837883Y-123903076D01*
X60058914Y-123911182D01*
X60069223Y-123910714D01*
X60288623Y-123882608D01*
X60298688Y-123880468D01*
X60510557Y-123816905D01*
X60520152Y-123813144D01*
X60718778Y-123715838D01*
X60727636Y-123710559D01*
X60785097Y-123669572D01*
X60793497Y-123658874D01*
X60786510Y-123645721D01*
X60012811Y-122872021D01*
X59998868Y-122864408D01*
X59997034Y-122864539D01*
X59990420Y-122868790D01*
X59210180Y-123649031D01*
X59203423Y-123661406D01*
X58297406Y-123661406D01*
X58412243Y-123579494D01*
X58576303Y-123416005D01*
X58650714Y-123312451D01*
X58706709Y-123268803D01*
X58777412Y-123262357D01*
X58837572Y-123292543D01*
X58840555Y-123295242D01*
X58849330Y-123291459D01*
X59627979Y-122512811D01*
X59634356Y-122501132D01*
X60364408Y-122501132D01*
X60364539Y-122502966D01*
X60368790Y-122509580D01*
X61146307Y-123287096D01*
X61158313Y-123293652D01*
X61170052Y-123284684D01*
X61208010Y-123231859D01*
X61213321Y-123223020D01*
X61311318Y-123024737D01*
X61315117Y-123015142D01*
X61379415Y-122803517D01*
X61381594Y-122793436D01*
X61410702Y-122572338D01*
X61411221Y-122565663D01*
X61412744Y-122503364D01*
X61412550Y-122496646D01*
X61394279Y-122274400D01*
X61392596Y-122264238D01*
X61338710Y-122049708D01*
X61335389Y-122039953D01*
X61247193Y-121837118D01*
X61242315Y-121828020D01*
X61169224Y-121715038D01*
X61158538Y-121705835D01*
X61148973Y-121710238D01*
X60372021Y-122487189D01*
X60364408Y-122501132D01*
X59634356Y-122501132D01*
X59635592Y-122498868D01*
X59635461Y-122497034D01*
X59631210Y-122490420D01*
X58853862Y-121713073D01*
X58842331Y-121706776D01*
X58832877Y-121714183D01*
X58766918Y-121740450D01*
X58697229Y-121726887D01*
X58649377Y-121683440D01*
X58622571Y-121642004D01*
X58619764Y-121637665D01*
X58463887Y-121466358D01*
X58459836Y-121463159D01*
X58459832Y-121463155D01*
X58304790Y-121340711D01*
X59205508Y-121340711D01*
X59212251Y-121353040D01*
X59987189Y-122127979D01*
X60001132Y-122135592D01*
X60002966Y-122135461D01*
X60009580Y-122131210D01*
X60788994Y-121351795D01*
X60796011Y-121338944D01*
X60788237Y-121328274D01*
X60785902Y-121326430D01*
X60777320Y-121320729D01*
X60583678Y-121213833D01*
X60574272Y-121209606D01*
X60365772Y-121135772D01*
X60355809Y-121133140D01*
X60138047Y-121094350D01*
X60127796Y-121093381D01*
X59906616Y-121090679D01*
X59896332Y-121091399D01*
X59677693Y-121124855D01*
X59667666Y-121127244D01*
X59457426Y-121195961D01*
X59447916Y-121199958D01*
X59251725Y-121302089D01*
X59243007Y-121307578D01*
X59213961Y-121329386D01*
X59205508Y-121340711D01*
X58304790Y-121340711D01*
X58286177Y-121326011D01*
X58286172Y-121326008D01*
X58282123Y-121322810D01*
X58277607Y-121320317D01*
X58277604Y-121320315D01*
X58083879Y-121213373D01*
X58083875Y-121213371D01*
X58079355Y-121210876D01*
X58074486Y-121209152D01*
X58074482Y-121209150D01*
X57865903Y-121135288D01*
X57865899Y-121135287D01*
X57861028Y-121133562D01*
X57855935Y-121132655D01*
X57855932Y-121132654D01*
X57638095Y-121093851D01*
X57638089Y-121093850D01*
X57633006Y-121092945D01*
X57560096Y-121092054D01*
X57406581Y-121090179D01*
X57406579Y-121090179D01*
X57401411Y-121090116D01*
X57172464Y-121125150D01*
X56952314Y-121197106D01*
X56947726Y-121199494D01*
X56947722Y-121199496D01*
X56860066Y-121245127D01*
X56746872Y-121304052D01*
X56742739Y-121307155D01*
X56742736Y-121307157D01*
X56561655Y-121443117D01*
X56560976Y-121442213D01*
X56501730Y-121470131D01*
X56431341Y-121460869D01*
X56377132Y-121415022D01*
X56364325Y-121389866D01*
X56353768Y-121361705D01*
X56353767Y-121361703D01*
X56350615Y-121353295D01*
X56263261Y-121236739D01*
X56146705Y-121149385D01*
X56010316Y-121098255D01*
X55948134Y-121091500D01*
X54051866Y-121091500D01*
X53989684Y-121098255D01*
X53853295Y-121149385D01*
X53736739Y-121236739D01*
X53649385Y-121353295D01*
X53598255Y-121489684D01*
X53591500Y-121551866D01*
X53591500Y-123448134D01*
X52658500Y-123448134D01*
X52658500Y-119966371D01*
X52678502Y-119898250D01*
X52695405Y-119877276D01*
X55488911Y-117083770D01*
X55503323Y-117071384D01*
X55514918Y-117062851D01*
X55514923Y-117062846D01*
X55520818Y-117058508D01*
X55525557Y-117052930D01*
X55525560Y-117052927D01*
X55555035Y-117018232D01*
X55561965Y-117010716D01*
X55567660Y-117005021D01*
X55585281Y-116982749D01*
X55588072Y-116979345D01*
X55630591Y-116929297D01*
X55630592Y-116929295D01*
X55635333Y-116923715D01*
X55638661Y-116917199D01*
X55642028Y-116912150D01*
X55645195Y-116907021D01*
X55649734Y-116901284D01*
X55680655Y-116835125D01*
X55682561Y-116831225D01*
X55695284Y-116806309D01*
X55715769Y-116766192D01*
X55717508Y-116759084D01*
X55719607Y-116753441D01*
X55721524Y-116747678D01*
X55724622Y-116741050D01*
X55739487Y-116669583D01*
X55740457Y-116665299D01*
X55756473Y-116599845D01*
X55757808Y-116594390D01*
X55758500Y-116583236D01*
X55758536Y-116583238D01*
X55758775Y-116579245D01*
X55759149Y-116575053D01*
X55760640Y-116567885D01*
X55758546Y-116490479D01*
X55758500Y-116487072D01*
X55758500Y-108066371D01*
X55778502Y-107998250D01*
X55795405Y-107977276D01*
X58926405Y-104846276D01*
X58988717Y-104812250D01*
X59059532Y-104817315D01*
G37*
%TD.AperFunction*%
%TA.AperFunction,Conductor*%
G36*
X48757489Y-106819358D02*
G01*
X48814325Y-106861905D01*
X48839411Y-106934006D01*
X48841454Y-107009520D01*
X48841500Y-107012928D01*
X48841500Y-113334436D01*
X48821498Y-113402557D01*
X48767842Y-113449050D01*
X48697568Y-113459154D01*
X48632988Y-113429660D01*
X48627421Y-113424536D01*
X48512532Y-113312224D01*
X48512525Y-113312218D01*
X48509264Y-113309030D01*
X48409866Y-113236680D01*
X48293721Y-113152141D01*
X48290028Y-113149453D01*
X48050053Y-113023196D01*
X48045752Y-113021677D01*
X48045747Y-113021675D01*
X47867998Y-112958906D01*
X47794366Y-112932904D01*
X47696347Y-112913585D01*
X47532794Y-112881348D01*
X47532788Y-112881347D01*
X47528322Y-112880467D01*
X47523768Y-112880240D01*
X47523766Y-112880240D01*
X47262064Y-112867211D01*
X47262058Y-112867211D01*
X47257495Y-112866984D01*
X46987559Y-112892738D01*
X46983130Y-112893822D01*
X46983123Y-112893823D01*
X46853069Y-112925648D01*
X46724168Y-112957190D01*
X46719933Y-112958905D01*
X46719931Y-112958906D01*
X46477069Y-113057275D01*
X46472840Y-113058988D01*
X46238839Y-113196001D01*
X46027068Y-113365359D01*
X46023947Y-113368700D01*
X45883222Y-113519345D01*
X45841963Y-113563512D01*
X45687402Y-113786312D01*
X45685374Y-113790388D01*
X45685373Y-113790390D01*
X45612403Y-113937066D01*
X45566621Y-114029090D01*
X45482153Y-114286760D01*
X45435765Y-114553925D01*
X45431500Y-114639600D01*
X45431500Y-115328884D01*
X45446125Y-115530451D01*
X45504585Y-115795237D01*
X45600655Y-116048810D01*
X45732324Y-116285859D01*
X45896833Y-116501417D01*
X46090736Y-116690970D01*
X46309972Y-116850547D01*
X46549947Y-116976804D01*
X46554248Y-116978323D01*
X46554253Y-116978325D01*
X46645978Y-117010716D01*
X46805634Y-117067096D01*
X46856015Y-117077026D01*
X47067206Y-117118652D01*
X47067212Y-117118653D01*
X47071678Y-117119533D01*
X47076232Y-117119760D01*
X47076234Y-117119760D01*
X47337936Y-117132789D01*
X47337942Y-117132789D01*
X47342505Y-117133016D01*
X47612441Y-117107262D01*
X47616870Y-117106178D01*
X47616877Y-117106177D01*
X47776584Y-117067096D01*
X47875832Y-117042810D01*
X47936513Y-117018232D01*
X48122931Y-116942725D01*
X48122932Y-116942725D01*
X48127160Y-116941012D01*
X48361161Y-116803999D01*
X48534596Y-116665299D01*
X48569366Y-116637493D01*
X48569368Y-116637492D01*
X48572932Y-116634641D01*
X48623427Y-116580587D01*
X48684543Y-116544463D01*
X48755490Y-116547116D01*
X48813741Y-116587704D01*
X48840800Y-116653341D01*
X48841500Y-116666601D01*
X48841500Y-123033629D01*
X48821498Y-123101750D01*
X48804595Y-123122724D01*
X47922724Y-124004595D01*
X47860412Y-124038621D01*
X47833629Y-124041500D01*
X45597620Y-124041500D01*
X45529499Y-124021498D01*
X45483006Y-123967842D01*
X45472902Y-123897568D01*
X45502396Y-123832988D01*
X45542188Y-123802349D01*
X45718778Y-123715838D01*
X45727636Y-123710559D01*
X45785097Y-123669572D01*
X45793497Y-123658874D01*
X45786510Y-123645721D01*
X45012811Y-122872021D01*
X44998868Y-122864408D01*
X44997034Y-122864539D01*
X44990420Y-122868790D01*
X44210180Y-123649031D01*
X44203423Y-123661406D01*
X44208704Y-123668461D01*
X44385080Y-123771527D01*
X44394363Y-123775974D01*
X44451492Y-123797790D01*
X44507995Y-123840778D01*
X44532288Y-123907489D01*
X44516658Y-123976743D01*
X44466067Y-124026554D01*
X44406543Y-124041500D01*
X43098757Y-124041500D01*
X43030636Y-124021498D01*
X42984143Y-123967842D01*
X42974039Y-123897568D01*
X43003533Y-123832988D01*
X43043325Y-123802349D01*
X43219039Y-123716267D01*
X43219043Y-123716265D01*
X43223684Y-123713991D01*
X43412243Y-123579494D01*
X43576303Y-123416005D01*
X43650714Y-123312451D01*
X43706709Y-123268803D01*
X43777412Y-123262357D01*
X43837572Y-123292543D01*
X43840555Y-123295242D01*
X43849330Y-123291459D01*
X44627979Y-122512811D01*
X44634356Y-122501132D01*
X45364408Y-122501132D01*
X45364539Y-122502966D01*
X45368790Y-122509580D01*
X46146307Y-123287096D01*
X46158313Y-123293652D01*
X46170052Y-123284684D01*
X46208010Y-123231859D01*
X46213321Y-123223020D01*
X46311318Y-123024737D01*
X46315117Y-123015142D01*
X46379415Y-122803517D01*
X46381594Y-122793436D01*
X46410702Y-122572338D01*
X46411221Y-122565663D01*
X46412744Y-122503364D01*
X46412550Y-122496646D01*
X46394279Y-122274400D01*
X46392596Y-122264238D01*
X46338710Y-122049708D01*
X46335389Y-122039953D01*
X46247193Y-121837118D01*
X46242315Y-121828020D01*
X46169224Y-121715038D01*
X46158538Y-121705835D01*
X46148973Y-121710238D01*
X45372021Y-122487189D01*
X45364408Y-122501132D01*
X44634356Y-122501132D01*
X44635592Y-122498868D01*
X44635461Y-122497034D01*
X44631210Y-122490420D01*
X43853862Y-121713073D01*
X43842331Y-121706776D01*
X43832877Y-121714183D01*
X43766918Y-121740450D01*
X43697229Y-121726887D01*
X43649377Y-121683440D01*
X43622571Y-121642004D01*
X43619764Y-121637665D01*
X43463887Y-121466358D01*
X43459836Y-121463159D01*
X43459832Y-121463155D01*
X43306408Y-121341989D01*
X43305502Y-121340711D01*
X44205508Y-121340711D01*
X44212251Y-121353040D01*
X44987189Y-122127979D01*
X45001132Y-122135592D01*
X45002966Y-122135461D01*
X45009580Y-122131210D01*
X45788994Y-121351795D01*
X45796011Y-121338944D01*
X45788237Y-121328274D01*
X45785902Y-121326430D01*
X45777320Y-121320729D01*
X45583678Y-121213833D01*
X45574272Y-121209606D01*
X45365772Y-121135772D01*
X45355809Y-121133140D01*
X45138047Y-121094350D01*
X45127796Y-121093381D01*
X44906616Y-121090679D01*
X44896332Y-121091399D01*
X44677693Y-121124855D01*
X44667666Y-121127244D01*
X44457426Y-121195961D01*
X44447916Y-121199958D01*
X44251725Y-121302089D01*
X44243007Y-121307578D01*
X44213961Y-121329386D01*
X44205508Y-121340711D01*
X43305502Y-121340711D01*
X43265345Y-121284072D01*
X43258500Y-121243107D01*
X43258500Y-112266371D01*
X43278502Y-112198250D01*
X43295405Y-112177276D01*
X48624362Y-106848319D01*
X48686674Y-106814293D01*
X48757489Y-106819358D01*
G37*
%TD.AperFunction*%
%TA.AperFunction,Conductor*%
G36*
X46036830Y-103378502D02*
G01*
X46083323Y-103432158D01*
X46093972Y-103470892D01*
X46098255Y-103510316D01*
X46149385Y-103646705D01*
X46236739Y-103763261D01*
X46353295Y-103850615D01*
X46489684Y-103901745D01*
X46551866Y-103908500D01*
X48448134Y-103908500D01*
X48510316Y-103901745D01*
X48646705Y-103850615D01*
X48763261Y-103763261D01*
X48850615Y-103646705D01*
X48865686Y-103606504D01*
X48908328Y-103549739D01*
X48974890Y-103525040D01*
X49044239Y-103540248D01*
X49064150Y-103553788D01*
X49189349Y-103657730D01*
X49384371Y-103771691D01*
X49433094Y-103823328D01*
X49446165Y-103893111D01*
X49419434Y-103958883D01*
X49361387Y-103999762D01*
X49346997Y-104003724D01*
X49224178Y-104029831D01*
X49224173Y-104029833D01*
X49217712Y-104031206D01*
X49211682Y-104033891D01*
X49211681Y-104033891D01*
X49049278Y-104106197D01*
X49049276Y-104106198D01*
X49043248Y-104108882D01*
X48888747Y-104221134D01*
X48760960Y-104363056D01*
X48665473Y-104528444D01*
X48632092Y-104631181D01*
X48610613Y-104697285D01*
X48579875Y-104747444D01*
X42011089Y-111316230D01*
X41996677Y-111328616D01*
X41985082Y-111337149D01*
X41985077Y-111337154D01*
X41979182Y-111341492D01*
X41974443Y-111347070D01*
X41974440Y-111347073D01*
X41944965Y-111381768D01*
X41938035Y-111389284D01*
X41932340Y-111394979D01*
X41930060Y-111397861D01*
X41914719Y-111417251D01*
X41911928Y-111420655D01*
X41869409Y-111470703D01*
X41864667Y-111476285D01*
X41861339Y-111482801D01*
X41857972Y-111487850D01*
X41854805Y-111492979D01*
X41850266Y-111498716D01*
X41819345Y-111564875D01*
X41817442Y-111568769D01*
X41784231Y-111633808D01*
X41782492Y-111640916D01*
X41780393Y-111646559D01*
X41778476Y-111652322D01*
X41775378Y-111658950D01*
X41773888Y-111666112D01*
X41773888Y-111666113D01*
X41760514Y-111730412D01*
X41759544Y-111734696D01*
X41742192Y-111805610D01*
X41741500Y-111816764D01*
X41741464Y-111816762D01*
X41741225Y-111820755D01*
X41740851Y-111824947D01*
X41739360Y-111832115D01*
X41739558Y-111839432D01*
X41741454Y-111909521D01*
X41741500Y-111912928D01*
X41741500Y-121245127D01*
X41721498Y-121313248D01*
X41691154Y-121345886D01*
X41561655Y-121443117D01*
X41560976Y-121442213D01*
X41501730Y-121470131D01*
X41431341Y-121460869D01*
X41377132Y-121415022D01*
X41364325Y-121389866D01*
X41353768Y-121361705D01*
X41353767Y-121361703D01*
X41350615Y-121353295D01*
X41263261Y-121236739D01*
X41146705Y-121149385D01*
X41010316Y-121098255D01*
X40983086Y-121095297D01*
X40970892Y-121093972D01*
X40905330Y-121066730D01*
X40864904Y-121008366D01*
X40858500Y-120968709D01*
X40858500Y-106207792D01*
X40878502Y-106139671D01*
X40895405Y-106118697D01*
X43618698Y-103395405D01*
X43681010Y-103361379D01*
X43707793Y-103358500D01*
X45968709Y-103358500D01*
X46036830Y-103378502D01*
G37*
%TD.AperFunction*%
%TA.AperFunction,Conductor*%
G36*
X63951324Y-116410384D02*
G01*
X63987574Y-116471429D01*
X63991500Y-116502635D01*
X63991500Y-120114629D01*
X63971498Y-120182750D01*
X63917842Y-120229243D01*
X63847568Y-120239347D01*
X63782988Y-120209853D01*
X63776405Y-120203724D01*
X60695405Y-117122724D01*
X60661379Y-117060412D01*
X60658500Y-117033629D01*
X60658500Y-116561913D01*
X60678502Y-116493792D01*
X60732158Y-116447299D01*
X60802432Y-116437195D01*
X60867012Y-116466689D01*
X60884661Y-116485468D01*
X60896833Y-116501417D01*
X61090736Y-116690970D01*
X61309972Y-116850547D01*
X61549947Y-116976804D01*
X61554248Y-116978323D01*
X61554253Y-116978325D01*
X61645978Y-117010716D01*
X61805634Y-117067096D01*
X61856015Y-117077026D01*
X62067206Y-117118652D01*
X62067212Y-117118653D01*
X62071678Y-117119533D01*
X62076232Y-117119760D01*
X62076234Y-117119760D01*
X62337936Y-117132789D01*
X62337942Y-117132789D01*
X62342505Y-117133016D01*
X62612441Y-117107262D01*
X62616870Y-117106178D01*
X62616877Y-117106177D01*
X62776584Y-117067096D01*
X62875832Y-117042810D01*
X62936513Y-117018232D01*
X63122931Y-116942725D01*
X63122932Y-116942725D01*
X63127160Y-116941012D01*
X63361161Y-116803999D01*
X63534596Y-116665299D01*
X63569366Y-116637493D01*
X63569368Y-116637492D01*
X63572932Y-116634641D01*
X63610533Y-116594390D01*
X63754921Y-116439824D01*
X63754923Y-116439821D01*
X63758037Y-116436488D01*
X63761974Y-116430813D01*
X63762598Y-116430309D01*
X63763509Y-116429181D01*
X63763753Y-116429378D01*
X63817238Y-116386244D01*
X63887825Y-116378629D01*
X63951324Y-116410384D01*
G37*
%TD.AperFunction*%
%TA.AperFunction,Conductor*%
G36*
X51743167Y-116868012D02*
G01*
X51826374Y-116911789D01*
X51949947Y-116976804D01*
X51954248Y-116978323D01*
X51954253Y-116978325D01*
X52045978Y-117010716D01*
X52205634Y-117067096D01*
X52256015Y-117077026D01*
X52467206Y-117118652D01*
X52467212Y-117118653D01*
X52471678Y-117119533D01*
X52476232Y-117119760D01*
X52476234Y-117119760D01*
X52737936Y-117132789D01*
X52737942Y-117132789D01*
X52742505Y-117133016D01*
X52893059Y-117118652D01*
X53003629Y-117108103D01*
X53073342Y-117121544D01*
X53124720Y-117170542D01*
X53141453Y-117239539D01*
X53118227Y-117306628D01*
X53104691Y-117322628D01*
X51773595Y-118653724D01*
X51711283Y-118687750D01*
X51640468Y-118682685D01*
X51583632Y-118640138D01*
X51558821Y-118573618D01*
X51558500Y-118564629D01*
X51558500Y-116979520D01*
X51578502Y-116911399D01*
X51632158Y-116864906D01*
X51702432Y-116854802D01*
X51743167Y-116868012D01*
G37*
%TD.AperFunction*%
%TA.AperFunction,Conductor*%
G36*
X61870612Y-88798502D02*
G01*
X61899402Y-88825595D01*
X61899987Y-88825088D01*
X62046250Y-88993938D01*
X62218126Y-89136632D01*
X62291955Y-89179774D01*
X62340679Y-89231412D01*
X62353750Y-89301195D01*
X62327019Y-89366967D01*
X62286562Y-89400327D01*
X62278457Y-89404546D01*
X62269738Y-89410036D01*
X62099433Y-89537905D01*
X62091726Y-89544748D01*
X61944590Y-89698717D01*
X61938104Y-89706727D01*
X61818098Y-89882649D01*
X61813000Y-89891623D01*
X61723338Y-90084783D01*
X61719775Y-90094470D01*
X61664389Y-90294183D01*
X61665912Y-90302607D01*
X61678292Y-90306000D01*
X63128000Y-90306000D01*
X63196121Y-90326002D01*
X63242614Y-90379658D01*
X63254000Y-90432000D01*
X63254000Y-91878517D01*
X63258064Y-91892359D01*
X63271478Y-91894393D01*
X63278184Y-91893534D01*
X63288262Y-91891392D01*
X63492255Y-91830191D01*
X63501842Y-91826433D01*
X63693095Y-91732739D01*
X63701945Y-91727464D01*
X63792332Y-91662992D01*
X63859406Y-91639718D01*
X63928414Y-91656402D01*
X63977448Y-91707746D01*
X63991500Y-91765571D01*
X63991500Y-113503603D01*
X63971498Y-113571724D01*
X63917842Y-113618217D01*
X63847568Y-113628321D01*
X63782988Y-113598827D01*
X63765337Y-113580045D01*
X63705939Y-113502215D01*
X63705938Y-113502214D01*
X63703167Y-113498583D01*
X63509264Y-113309030D01*
X63409866Y-113236680D01*
X63293721Y-113152141D01*
X63290028Y-113149453D01*
X63050053Y-113023196D01*
X63045752Y-113021677D01*
X63045747Y-113021675D01*
X62867998Y-112958906D01*
X62794366Y-112932904D01*
X62696347Y-112913585D01*
X62532794Y-112881348D01*
X62532788Y-112881347D01*
X62528322Y-112880467D01*
X62523768Y-112880240D01*
X62523766Y-112880240D01*
X62262064Y-112867211D01*
X62262058Y-112867211D01*
X62257495Y-112866984D01*
X61987559Y-112892738D01*
X61983130Y-112893822D01*
X61983123Y-112893823D01*
X61853069Y-112925648D01*
X61724168Y-112957190D01*
X61719933Y-112958905D01*
X61719931Y-112958906D01*
X61477069Y-113057275D01*
X61472840Y-113058988D01*
X61238839Y-113196001D01*
X61027068Y-113365359D01*
X61023947Y-113368700D01*
X60876575Y-113526460D01*
X60815457Y-113562586D01*
X60744510Y-113559933D01*
X60686259Y-113519345D01*
X60659200Y-113453708D01*
X60658500Y-113440448D01*
X60658500Y-90827966D01*
X61668257Y-90827966D01*
X61698565Y-90962446D01*
X61701645Y-90972275D01*
X61781770Y-91169603D01*
X61786413Y-91178794D01*
X61897694Y-91360388D01*
X61903777Y-91368699D01*
X62043213Y-91529667D01*
X62050580Y-91536883D01*
X62214434Y-91672916D01*
X62222881Y-91678831D01*
X62406756Y-91786279D01*
X62416042Y-91790729D01*
X62615001Y-91866703D01*
X62624899Y-91869579D01*
X62728250Y-91890606D01*
X62742299Y-91889410D01*
X62746000Y-91879065D01*
X62746000Y-90832115D01*
X62741525Y-90816876D01*
X62740135Y-90815671D01*
X62732452Y-90814000D01*
X61683225Y-90814000D01*
X61669694Y-90817973D01*
X61668257Y-90827966D01*
X60658500Y-90827966D01*
X60658500Y-89866371D01*
X60678502Y-89798250D01*
X60695405Y-89777276D01*
X61657276Y-88815405D01*
X61719588Y-88781379D01*
X61746371Y-88778500D01*
X61802491Y-88778500D01*
X61870612Y-88798502D01*
G37*
%TD.AperFunction*%
%TA.AperFunction,Conductor*%
G36*
X63933621Y-45528502D02*
G01*
X63980114Y-45582158D01*
X63991500Y-45634500D01*
X63991500Y-58596000D01*
X63971498Y-58664121D01*
X63917842Y-58710614D01*
X63865500Y-58722000D01*
X63272115Y-58722000D01*
X63256876Y-58726475D01*
X63255671Y-58727865D01*
X63254000Y-58735548D01*
X63254000Y-60208000D01*
X63233998Y-60276121D01*
X63180342Y-60322614D01*
X63128000Y-60334000D01*
X61660116Y-60334000D01*
X61644877Y-60338475D01*
X61643672Y-60339865D01*
X61642001Y-60347548D01*
X61642001Y-60974669D01*
X61642371Y-60981490D01*
X61647895Y-61032352D01*
X61651521Y-61047604D01*
X61696676Y-61168054D01*
X61705214Y-61183649D01*
X61781715Y-61285724D01*
X61794276Y-61298285D01*
X61896351Y-61374786D01*
X61911946Y-61383324D01*
X62020827Y-61424142D01*
X62077591Y-61466784D01*
X62102291Y-61533345D01*
X62087083Y-61602694D01*
X62067691Y-61629175D01*
X61963560Y-61738142D01*
X61940629Y-61762138D01*
X61937715Y-61766410D01*
X61937714Y-61766411D01*
X61890689Y-61835347D01*
X61814743Y-61946680D01*
X61803795Y-61970266D01*
X61727945Y-62133672D01*
X61720688Y-62149305D01*
X61660989Y-62364570D01*
X61637251Y-62586695D01*
X61650110Y-62809715D01*
X61651247Y-62814761D01*
X61651248Y-62814767D01*
X61663719Y-62870102D01*
X61699222Y-63027639D01*
X61783266Y-63234616D01*
X61785965Y-63239020D01*
X61840421Y-63327884D01*
X61899987Y-63425088D01*
X62046250Y-63593938D01*
X62218126Y-63736632D01*
X62281641Y-63773747D01*
X62291445Y-63779476D01*
X62340169Y-63831114D01*
X62353240Y-63900897D01*
X62326509Y-63966669D01*
X62286055Y-64000027D01*
X62273607Y-64006507D01*
X62269474Y-64009610D01*
X62269471Y-64009612D01*
X62099100Y-64137530D01*
X62094965Y-64140635D01*
X62076254Y-64160215D01*
X62014093Y-64225263D01*
X61940629Y-64302138D01*
X61814743Y-64486680D01*
X61720688Y-64689305D01*
X61660989Y-64904570D01*
X61637251Y-65126695D01*
X61637548Y-65131848D01*
X61637548Y-65131851D01*
X61646552Y-65288000D01*
X61650110Y-65349715D01*
X61651247Y-65354761D01*
X61651248Y-65354767D01*
X61664597Y-65414000D01*
X61699222Y-65567639D01*
X61747468Y-65686455D01*
X61780975Y-65768973D01*
X61783266Y-65774616D01*
X61899987Y-65965088D01*
X62046250Y-66133938D01*
X62218126Y-66276632D01*
X62288595Y-66317811D01*
X62291445Y-66319476D01*
X62340169Y-66371114D01*
X62353240Y-66440897D01*
X62326509Y-66506669D01*
X62286055Y-66540027D01*
X62273607Y-66546507D01*
X62269474Y-66549610D01*
X62269471Y-66549612D01*
X62245247Y-66567800D01*
X62094965Y-66680635D01*
X61940629Y-66842138D01*
X61814743Y-67026680D01*
X61720688Y-67229305D01*
X61660989Y-67444570D01*
X61637251Y-67666695D01*
X61637548Y-67671848D01*
X61637548Y-67671851D01*
X61643011Y-67766590D01*
X61650110Y-67889715D01*
X61651247Y-67894761D01*
X61651248Y-67894767D01*
X61671119Y-67982939D01*
X61699222Y-68107639D01*
X61783266Y-68314616D01*
X61899987Y-68505088D01*
X62046250Y-68673938D01*
X62218126Y-68816632D01*
X62288595Y-68857811D01*
X62291445Y-68859476D01*
X62340169Y-68911114D01*
X62353240Y-68980897D01*
X62326509Y-69046669D01*
X62286055Y-69080027D01*
X62273607Y-69086507D01*
X62269474Y-69089610D01*
X62269471Y-69089612D01*
X62245247Y-69107800D01*
X62094965Y-69220635D01*
X61940629Y-69382138D01*
X61814743Y-69566680D01*
X61720688Y-69769305D01*
X61660989Y-69984570D01*
X61637251Y-70206695D01*
X61637548Y-70211848D01*
X61637548Y-70211851D01*
X61643011Y-70306590D01*
X61650110Y-70429715D01*
X61651247Y-70434761D01*
X61651248Y-70434767D01*
X61671119Y-70522939D01*
X61699222Y-70647639D01*
X61783266Y-70854616D01*
X61899987Y-71045088D01*
X62046250Y-71213938D01*
X62218126Y-71356632D01*
X62288595Y-71397811D01*
X62291445Y-71399476D01*
X62340169Y-71451114D01*
X62353240Y-71520897D01*
X62326509Y-71586669D01*
X62286055Y-71620027D01*
X62273607Y-71626507D01*
X62269474Y-71629610D01*
X62269471Y-71629612D01*
X62245247Y-71647800D01*
X62094965Y-71760635D01*
X61940629Y-71922138D01*
X61938632Y-71925065D01*
X61880603Y-71965148D01*
X61841102Y-71971500D01*
X49979164Y-71971500D01*
X49977845Y-71971493D01*
X49887779Y-71970550D01*
X49880893Y-71972039D01*
X49880891Y-71972039D01*
X49862313Y-71976056D01*
X49845414Y-71979710D01*
X49832835Y-71981770D01*
X49796741Y-71985818D01*
X49796738Y-71985819D01*
X49789745Y-71986603D01*
X49758068Y-71997634D01*
X49743258Y-72001796D01*
X49717378Y-72007391D01*
X49717374Y-72007392D01*
X49710489Y-72008881D01*
X49704105Y-72011858D01*
X49704099Y-72011860D01*
X49671193Y-72027204D01*
X49659384Y-72031999D01*
X49618448Y-72046255D01*
X49612476Y-72049987D01*
X49612469Y-72049990D01*
X49590005Y-72064027D01*
X49576488Y-72071366D01*
X49552481Y-72082561D01*
X49552477Y-72082563D01*
X49546098Y-72085538D01*
X49518184Y-72107190D01*
X49511844Y-72112108D01*
X49501395Y-72119397D01*
X49464624Y-72142374D01*
X49459625Y-72147339D01*
X49459623Y-72147340D01*
X49435815Y-72170983D01*
X49435192Y-72171566D01*
X49434530Y-72172079D01*
X49408682Y-72197927D01*
X49335918Y-72270185D01*
X49335259Y-72271223D01*
X49334153Y-72272456D01*
X47231486Y-74375122D01*
X47169174Y-74409148D01*
X47098358Y-74404083D01*
X47041523Y-74361536D01*
X47019354Y-74313191D01*
X46996400Y-74209223D01*
X46996399Y-74209219D01*
X46995415Y-74204763D01*
X46940909Y-74060897D01*
X46900963Y-73955460D01*
X46900962Y-73955457D01*
X46899345Y-73951190D01*
X46767676Y-73714141D01*
X46603167Y-73498583D01*
X46409264Y-73309030D01*
X46378247Y-73286453D01*
X46193721Y-73152141D01*
X46190028Y-73149453D01*
X45950053Y-73023196D01*
X45945752Y-73021677D01*
X45945747Y-73021675D01*
X45767998Y-72958906D01*
X45694366Y-72932904D01*
X45596347Y-72913585D01*
X45432794Y-72881348D01*
X45432788Y-72881347D01*
X45428322Y-72880467D01*
X45423768Y-72880240D01*
X45423766Y-72880240D01*
X45162064Y-72867211D01*
X45162058Y-72867211D01*
X45157495Y-72866984D01*
X44887559Y-72892738D01*
X44883130Y-72893822D01*
X44883123Y-72893823D01*
X44753069Y-72925648D01*
X44624168Y-72957190D01*
X44619933Y-72958905D01*
X44619931Y-72958906D01*
X44377069Y-73057275D01*
X44372840Y-73058988D01*
X44138839Y-73196001D01*
X43927068Y-73365359D01*
X43923947Y-73368700D01*
X43799224Y-73502215D01*
X43741963Y-73563512D01*
X43587402Y-73786312D01*
X43585374Y-73790388D01*
X43585373Y-73790390D01*
X43476448Y-74009338D01*
X43466621Y-74029090D01*
X43382153Y-74286760D01*
X43381373Y-74291251D01*
X43381373Y-74291252D01*
X43336949Y-74547106D01*
X43335765Y-74553925D01*
X43335574Y-74557762D01*
X43333773Y-74593949D01*
X43331500Y-74639600D01*
X43331500Y-75328884D01*
X43331665Y-75331152D01*
X43331665Y-75331164D01*
X43339725Y-75442238D01*
X43346125Y-75530451D01*
X43347109Y-75534906D01*
X43347109Y-75534909D01*
X43386482Y-75713240D01*
X43404585Y-75795237D01*
X43406203Y-75799507D01*
X43492021Y-76026020D01*
X43500655Y-76048810D01*
X43632324Y-76285859D01*
X43635096Y-76289491D01*
X43788804Y-76490896D01*
X43796833Y-76501417D01*
X43800099Y-76504610D01*
X43800101Y-76504612D01*
X43883800Y-76586433D01*
X43990736Y-76690970D01*
X43994428Y-76693657D01*
X43994430Y-76693659D01*
X44196354Y-76840635D01*
X44209972Y-76850547D01*
X44449947Y-76976804D01*
X44454248Y-76978323D01*
X44454253Y-76978325D01*
X44587087Y-77025233D01*
X44705634Y-77067096D01*
X44803653Y-77086415D01*
X44967206Y-77118652D01*
X44967212Y-77118653D01*
X44971678Y-77119533D01*
X44976232Y-77119760D01*
X44976234Y-77119760D01*
X45237936Y-77132789D01*
X45237942Y-77132789D01*
X45242505Y-77133016D01*
X45512441Y-77107262D01*
X45516870Y-77106178D01*
X45516877Y-77106177D01*
X45680601Y-77066113D01*
X45775832Y-77042810D01*
X45814150Y-77027290D01*
X46022931Y-76942725D01*
X46022932Y-76942725D01*
X46027160Y-76941012D01*
X46261161Y-76803999D01*
X46432883Y-76666669D01*
X46469366Y-76637493D01*
X46469368Y-76637492D01*
X46472932Y-76634641D01*
X46476053Y-76631300D01*
X46479394Y-76628206D01*
X46480821Y-76629747D01*
X46534514Y-76597994D01*
X46605462Y-76600630D01*
X46663722Y-76641205D01*
X46690797Y-76706836D01*
X46691500Y-76720125D01*
X46691500Y-80965500D01*
X46671498Y-81033621D01*
X46617842Y-81080114D01*
X46565500Y-81091500D01*
X46551866Y-81091500D01*
X46489684Y-81098255D01*
X46353295Y-81149385D01*
X46236739Y-81236739D01*
X46149385Y-81353295D01*
X46098255Y-81489684D01*
X46091500Y-81551866D01*
X46091500Y-83448134D01*
X46098255Y-83510316D01*
X46149385Y-83646705D01*
X46236739Y-83763261D01*
X46353295Y-83850615D01*
X46489684Y-83901745D01*
X46551866Y-83908500D01*
X46565500Y-83908500D01*
X46633621Y-83928502D01*
X46680114Y-83982158D01*
X46691500Y-84034500D01*
X46691500Y-93285558D01*
X46671498Y-93353679D01*
X46617842Y-93400172D01*
X46547568Y-93410276D01*
X46482988Y-93380782D01*
X46477421Y-93375658D01*
X46412531Y-93312224D01*
X46409264Y-93309030D01*
X46190028Y-93149453D01*
X45950053Y-93023196D01*
X45945752Y-93021677D01*
X45945747Y-93021675D01*
X45767998Y-92958906D01*
X45694366Y-92932904D01*
X45596347Y-92913585D01*
X45432794Y-92881348D01*
X45432788Y-92881347D01*
X45428322Y-92880467D01*
X45423768Y-92880240D01*
X45423766Y-92880240D01*
X45162064Y-92867211D01*
X45162058Y-92867211D01*
X45157495Y-92866984D01*
X44887559Y-92892738D01*
X44883130Y-92893822D01*
X44883123Y-92893823D01*
X44753069Y-92925648D01*
X44624168Y-92957190D01*
X44619933Y-92958905D01*
X44619931Y-92958906D01*
X44377069Y-93057275D01*
X44372840Y-93058988D01*
X44138839Y-93196001D01*
X43927068Y-93365359D01*
X43923947Y-93368700D01*
X43787719Y-93514531D01*
X43741963Y-93563512D01*
X43587402Y-93786312D01*
X43585374Y-93790388D01*
X43585373Y-93790390D01*
X43557186Y-93847049D01*
X43466621Y-94029090D01*
X43382153Y-94286760D01*
X43335765Y-94553925D01*
X43331500Y-94639600D01*
X43331500Y-95328884D01*
X43346125Y-95530451D01*
X43404585Y-95795237D01*
X43500655Y-96048810D01*
X43632324Y-96285859D01*
X43796833Y-96501417D01*
X43990736Y-96690970D01*
X43994428Y-96693657D01*
X43994430Y-96693659D01*
X44030791Y-96720125D01*
X44209972Y-96850547D01*
X44449947Y-96976804D01*
X44454248Y-96978323D01*
X44454253Y-96978325D01*
X44587087Y-97025233D01*
X44705634Y-97067096D01*
X44803653Y-97086415D01*
X44967206Y-97118652D01*
X44967212Y-97118653D01*
X44971678Y-97119533D01*
X44976232Y-97119760D01*
X44976234Y-97119760D01*
X45237936Y-97132789D01*
X45237942Y-97132789D01*
X45242505Y-97133016D01*
X45512441Y-97107262D01*
X45516870Y-97106178D01*
X45516877Y-97106177D01*
X45676584Y-97067096D01*
X45775832Y-97042810D01*
X45935039Y-96978325D01*
X46022931Y-96942725D01*
X46022932Y-96942725D01*
X46027160Y-96941012D01*
X46261161Y-96803999D01*
X46472932Y-96634641D01*
X46476053Y-96631300D01*
X46479394Y-96628206D01*
X46480821Y-96629747D01*
X46534514Y-96597994D01*
X46605462Y-96600630D01*
X46663722Y-96641205D01*
X46690797Y-96706836D01*
X46691500Y-96720125D01*
X46691500Y-100965500D01*
X46671498Y-101033621D01*
X46617842Y-101080114D01*
X46565500Y-101091500D01*
X46551866Y-101091500D01*
X46489684Y-101098255D01*
X46353295Y-101149385D01*
X46236739Y-101236739D01*
X46149385Y-101353295D01*
X46098255Y-101489684D01*
X46097402Y-101497540D01*
X46093972Y-101529108D01*
X46066730Y-101594670D01*
X46008366Y-101635096D01*
X45968709Y-101641500D01*
X43341391Y-101641500D01*
X43330848Y-101641058D01*
X43278902Y-101636696D01*
X43272142Y-101637598D01*
X43272141Y-101637598D01*
X43198397Y-101647438D01*
X43195340Y-101647808D01*
X43121343Y-101655846D01*
X43121339Y-101655847D01*
X43114563Y-101656583D01*
X43108100Y-101658758D01*
X43104824Y-101659478D01*
X43104428Y-101659548D01*
X43104004Y-101659671D01*
X43100784Y-101660462D01*
X43094011Y-101661366D01*
X43017677Y-101689149D01*
X43014802Y-101690156D01*
X42996227Y-101696407D01*
X42937777Y-101716078D01*
X42931923Y-101719596D01*
X42928916Y-101720985D01*
X42928511Y-101721152D01*
X42928135Y-101721357D01*
X42925148Y-101722827D01*
X42918732Y-101725162D01*
X42850080Y-101768730D01*
X42847611Y-101770255D01*
X42777891Y-101812147D01*
X42772934Y-101816834D01*
X42770277Y-101818851D01*
X42769543Y-101819361D01*
X42765605Y-101822339D01*
X42761241Y-101825109D01*
X42756968Y-101828929D01*
X42702972Y-101882925D01*
X42700450Y-101885379D01*
X42642364Y-101940308D01*
X42638526Y-101945956D01*
X42634107Y-101951148D01*
X42633707Y-101950808D01*
X42627100Y-101958797D01*
X39422217Y-105163680D01*
X39414451Y-105170822D01*
X39374633Y-105204471D01*
X39370486Y-105209895D01*
X39370485Y-105209896D01*
X39325326Y-105268962D01*
X39323432Y-105271379D01*
X39272490Y-105334738D01*
X39269453Y-105340857D01*
X39267665Y-105343652D01*
X39267412Y-105344013D01*
X39267210Y-105344380D01*
X39265479Y-105347238D01*
X39261340Y-105352652D01*
X39258459Y-105358831D01*
X39227015Y-105426262D01*
X39225681Y-105429033D01*
X39189553Y-105501814D01*
X39187902Y-105508435D01*
X39186751Y-105511563D01*
X39186587Y-105511956D01*
X39186468Y-105512361D01*
X39185391Y-105515525D01*
X39182510Y-105521704D01*
X39181023Y-105528358D01*
X39164785Y-105601002D01*
X39164076Y-105603998D01*
X39144428Y-105682801D01*
X39144237Y-105689622D01*
X39143785Y-105692925D01*
X39143626Y-105693809D01*
X39142948Y-105698692D01*
X39141820Y-105703740D01*
X39141500Y-105709463D01*
X39141500Y-105785844D01*
X39141451Y-105789363D01*
X39139219Y-105869257D01*
X39140498Y-105875961D01*
X39141045Y-105882762D01*
X39140525Y-105882804D01*
X39141500Y-105893125D01*
X39141500Y-113236680D01*
X39121498Y-113304801D01*
X39067842Y-113351294D01*
X38997568Y-113361398D01*
X38932988Y-113331904D01*
X38927443Y-113326801D01*
X38909264Y-113309030D01*
X38809866Y-113236680D01*
X38693721Y-113152141D01*
X38690028Y-113149453D01*
X38450053Y-113023196D01*
X38445752Y-113021677D01*
X38445747Y-113021675D01*
X38267998Y-112958906D01*
X38194366Y-112932904D01*
X38096347Y-112913585D01*
X37932794Y-112881348D01*
X37932788Y-112881347D01*
X37928322Y-112880467D01*
X37923768Y-112880240D01*
X37923766Y-112880240D01*
X37662064Y-112867211D01*
X37662058Y-112867211D01*
X37657495Y-112866984D01*
X37387559Y-112892738D01*
X37383130Y-112893822D01*
X37383123Y-112893823D01*
X37253069Y-112925648D01*
X37124168Y-112957190D01*
X37119933Y-112958905D01*
X37119931Y-112958906D01*
X36877069Y-113057275D01*
X36872840Y-113058988D01*
X36638839Y-113196001D01*
X36427068Y-113365359D01*
X36423947Y-113368700D01*
X36283222Y-113519345D01*
X36241963Y-113563512D01*
X36239363Y-113567260D01*
X36238026Y-113569187D01*
X36237402Y-113569691D01*
X36236491Y-113570819D01*
X36236247Y-113570622D01*
X36182762Y-113613756D01*
X36112175Y-113621371D01*
X36048676Y-113589616D01*
X36012426Y-113528571D01*
X36008500Y-113497365D01*
X36008500Y-91770968D01*
X36028502Y-91702847D01*
X36082158Y-91656354D01*
X36152432Y-91646250D01*
X36209159Y-91671439D01*
X36209912Y-91670363D01*
X36214145Y-91673327D01*
X36218126Y-91676632D01*
X36411000Y-91789338D01*
X36619692Y-91869030D01*
X36624760Y-91870061D01*
X36624763Y-91870062D01*
X36719862Y-91889410D01*
X36838597Y-91913567D01*
X36843772Y-91913757D01*
X36843774Y-91913757D01*
X37056673Y-91921564D01*
X37056677Y-91921564D01*
X37061837Y-91921753D01*
X37066957Y-91921097D01*
X37066959Y-91921097D01*
X37278288Y-91894025D01*
X37278289Y-91894025D01*
X37283416Y-91893368D01*
X37288366Y-91891883D01*
X37492429Y-91830661D01*
X37492434Y-91830659D01*
X37497384Y-91829174D01*
X37697994Y-91730896D01*
X37879860Y-91601173D01*
X38038096Y-91443489D01*
X38168453Y-91262077D01*
X38267430Y-91061811D01*
X38332370Y-90848069D01*
X38361529Y-90626590D01*
X38363156Y-90560000D01*
X38344852Y-90337361D01*
X38290431Y-90120702D01*
X38201354Y-89915840D01*
X38080014Y-89728277D01*
X37929670Y-89563051D01*
X37925619Y-89559852D01*
X37925615Y-89559848D01*
X37758414Y-89427800D01*
X37758410Y-89427798D01*
X37754359Y-89424598D01*
X37712569Y-89401529D01*
X37662598Y-89351097D01*
X37647826Y-89281654D01*
X37672942Y-89215248D01*
X37700294Y-89188641D01*
X37875328Y-89063792D01*
X37883200Y-89057139D01*
X38034052Y-88906812D01*
X38040730Y-88898965D01*
X38165003Y-88726020D01*
X38170313Y-88717183D01*
X38264670Y-88526267D01*
X38268469Y-88516672D01*
X38330377Y-88312910D01*
X38332555Y-88302837D01*
X38333986Y-88291962D01*
X38331775Y-88277778D01*
X38318617Y-88274000D01*
X36872000Y-88274000D01*
X36803879Y-88253998D01*
X36757386Y-88200342D01*
X36746000Y-88148000D01*
X36746000Y-87892000D01*
X36766002Y-87823879D01*
X36819658Y-87777386D01*
X36872000Y-87766000D01*
X38318344Y-87766000D01*
X38331875Y-87762027D01*
X38333180Y-87752947D01*
X38291214Y-87585875D01*
X38287894Y-87576124D01*
X38202972Y-87380814D01*
X38198105Y-87371739D01*
X38082426Y-87192926D01*
X38076136Y-87184757D01*
X37932806Y-87027240D01*
X37925273Y-87020215D01*
X37758139Y-86888222D01*
X37749556Y-86882520D01*
X37712602Y-86862120D01*
X37662631Y-86811687D01*
X37647859Y-86742245D01*
X37672975Y-86675839D01*
X37700327Y-86649232D01*
X37770987Y-86598831D01*
X37879860Y-86521173D01*
X38038096Y-86363489D01*
X38168453Y-86182077D01*
X38267430Y-85981811D01*
X38332370Y-85768069D01*
X38361529Y-85546590D01*
X38363156Y-85480000D01*
X38344852Y-85257361D01*
X38290431Y-85040702D01*
X38201354Y-84835840D01*
X38080014Y-84648277D01*
X37929670Y-84483051D01*
X37925619Y-84479852D01*
X37925615Y-84479848D01*
X37758414Y-84347800D01*
X37758410Y-84347798D01*
X37754359Y-84344598D01*
X37712569Y-84321529D01*
X37662598Y-84271097D01*
X37647826Y-84201654D01*
X37672942Y-84135248D01*
X37700294Y-84108641D01*
X37875328Y-83983792D01*
X37883200Y-83977139D01*
X38034052Y-83826812D01*
X38040730Y-83818965D01*
X38165003Y-83646020D01*
X38170313Y-83637183D01*
X38264670Y-83446267D01*
X38268469Y-83436672D01*
X38330377Y-83232910D01*
X38332555Y-83222837D01*
X38333986Y-83211962D01*
X38331775Y-83197778D01*
X38318617Y-83194000D01*
X36872000Y-83194000D01*
X36803879Y-83173998D01*
X36757386Y-83120342D01*
X36746000Y-83068000D01*
X36746000Y-82812000D01*
X36766002Y-82743879D01*
X36819658Y-82697386D01*
X36872000Y-82686000D01*
X38318344Y-82686000D01*
X38331875Y-82682027D01*
X38333180Y-82672947D01*
X38291214Y-82505875D01*
X38287894Y-82496124D01*
X38202972Y-82300814D01*
X38198105Y-82291739D01*
X38082426Y-82112926D01*
X38076136Y-82104757D01*
X37932293Y-81946677D01*
X37901241Y-81882831D01*
X37909635Y-81812333D01*
X37954812Y-81757564D01*
X37981256Y-81743895D01*
X38088297Y-81703767D01*
X38096705Y-81700615D01*
X38213261Y-81613261D01*
X38300615Y-81496705D01*
X38351745Y-81360316D01*
X38358500Y-81298134D01*
X38358500Y-79501866D01*
X38351745Y-79439684D01*
X38300615Y-79303295D01*
X38213261Y-79186739D01*
X38096705Y-79099385D01*
X37960316Y-79048255D01*
X37898134Y-79041500D01*
X36134500Y-79041500D01*
X36066379Y-79021498D01*
X36019886Y-78967842D01*
X36008500Y-78915500D01*
X36008500Y-76530318D01*
X36028502Y-76462197D01*
X36082158Y-76415704D01*
X36152432Y-76405600D01*
X36209507Y-76430942D01*
X36210200Y-76429952D01*
X36222881Y-76438831D01*
X36406756Y-76546279D01*
X36416042Y-76550729D01*
X36615001Y-76626703D01*
X36624899Y-76629579D01*
X36728250Y-76650606D01*
X36742299Y-76649410D01*
X36746000Y-76639065D01*
X36746000Y-76638517D01*
X37254000Y-76638517D01*
X37258064Y-76652359D01*
X37271478Y-76654393D01*
X37278184Y-76653534D01*
X37288262Y-76651392D01*
X37492255Y-76590191D01*
X37501842Y-76586433D01*
X37693095Y-76492739D01*
X37701945Y-76487464D01*
X37875328Y-76363792D01*
X37883200Y-76357139D01*
X38034052Y-76206812D01*
X38040730Y-76198965D01*
X38165003Y-76026020D01*
X38170313Y-76017183D01*
X38264670Y-75826267D01*
X38268469Y-75816672D01*
X38330377Y-75612910D01*
X38332555Y-75602837D01*
X38333986Y-75591962D01*
X38331775Y-75577778D01*
X38318617Y-75574000D01*
X37272115Y-75574000D01*
X37256876Y-75578475D01*
X37255671Y-75579865D01*
X37254000Y-75587548D01*
X37254000Y-76638517D01*
X36746000Y-76638517D01*
X36746000Y-75192000D01*
X36766002Y-75123879D01*
X36819658Y-75077386D01*
X36872000Y-75066000D01*
X38318344Y-75066000D01*
X38331875Y-75062027D01*
X38333180Y-75052947D01*
X38291214Y-74885875D01*
X38287894Y-74876124D01*
X38202972Y-74680814D01*
X38198105Y-74671739D01*
X38082426Y-74492926D01*
X38076136Y-74484757D01*
X37932806Y-74327240D01*
X37925273Y-74320215D01*
X37758139Y-74188222D01*
X37749556Y-74182520D01*
X37712602Y-74162120D01*
X37662631Y-74111687D01*
X37647859Y-74042245D01*
X37672975Y-73975839D01*
X37700327Y-73949232D01*
X37723797Y-73932491D01*
X37879860Y-73821173D01*
X38038096Y-73663489D01*
X38112334Y-73560176D01*
X38165435Y-73486277D01*
X38168453Y-73482077D01*
X38226139Y-73365359D01*
X38265136Y-73286453D01*
X38265137Y-73286451D01*
X38267430Y-73281811D01*
X38332370Y-73068069D01*
X38361529Y-72846590D01*
X38363156Y-72780000D01*
X38344852Y-72557361D01*
X38290431Y-72340702D01*
X38201354Y-72135840D01*
X38113583Y-72000166D01*
X38082822Y-71952617D01*
X38082820Y-71952614D01*
X38080014Y-71948277D01*
X37929670Y-71783051D01*
X37925619Y-71779852D01*
X37925615Y-71779848D01*
X37758414Y-71647800D01*
X37758410Y-71647798D01*
X37754359Y-71644598D01*
X37713053Y-71621796D01*
X37663084Y-71571364D01*
X37648312Y-71501921D01*
X37673428Y-71435516D01*
X37700780Y-71408909D01*
X37744603Y-71377650D01*
X37879860Y-71281173D01*
X38038096Y-71123489D01*
X38097594Y-71040689D01*
X38165435Y-70946277D01*
X38168453Y-70942077D01*
X38267430Y-70741811D01*
X38332370Y-70528069D01*
X38361529Y-70306590D01*
X38363156Y-70240000D01*
X38344852Y-70017361D01*
X38290431Y-69800702D01*
X38201354Y-69595840D01*
X38080014Y-69408277D01*
X37929670Y-69243051D01*
X37925619Y-69239852D01*
X37925615Y-69239848D01*
X37758414Y-69107800D01*
X37758410Y-69107798D01*
X37754359Y-69104598D01*
X37713053Y-69081796D01*
X37663084Y-69031364D01*
X37648312Y-68961921D01*
X37673428Y-68895516D01*
X37700780Y-68868909D01*
X37744603Y-68837650D01*
X37879860Y-68741173D01*
X38038096Y-68583489D01*
X38097594Y-68500689D01*
X38165435Y-68406277D01*
X38168453Y-68402077D01*
X38267430Y-68201811D01*
X38332370Y-67988069D01*
X38361529Y-67766590D01*
X38363156Y-67700000D01*
X38344852Y-67477361D01*
X38290431Y-67260702D01*
X38201354Y-67055840D01*
X38080014Y-66868277D01*
X37929670Y-66703051D01*
X37925619Y-66699852D01*
X37925615Y-66699848D01*
X37758414Y-66567800D01*
X37758410Y-66567798D01*
X37754359Y-66564598D01*
X37712569Y-66541529D01*
X37662598Y-66491097D01*
X37647826Y-66421654D01*
X37672942Y-66355248D01*
X37700294Y-66328641D01*
X37875328Y-66203792D01*
X37883200Y-66197139D01*
X38034052Y-66046812D01*
X38040730Y-66038965D01*
X38165003Y-65866020D01*
X38170313Y-65857183D01*
X38264670Y-65666267D01*
X38268469Y-65656672D01*
X38330377Y-65452910D01*
X38332555Y-65442837D01*
X38333986Y-65431962D01*
X38331775Y-65417778D01*
X38318617Y-65414000D01*
X36872000Y-65414000D01*
X36803879Y-65393998D01*
X36757386Y-65340342D01*
X36746000Y-65288000D01*
X36746000Y-65032000D01*
X36766002Y-64963879D01*
X36819658Y-64917386D01*
X36872000Y-64906000D01*
X38318344Y-64906000D01*
X38331875Y-64902027D01*
X38333180Y-64892947D01*
X38291214Y-64725875D01*
X38287894Y-64716124D01*
X38202972Y-64520814D01*
X38198105Y-64511739D01*
X38082426Y-64332926D01*
X38076136Y-64324757D01*
X37932806Y-64167240D01*
X37925273Y-64160215D01*
X37758139Y-64028222D01*
X37749556Y-64022520D01*
X37712602Y-64002120D01*
X37662631Y-63951687D01*
X37647859Y-63882245D01*
X37672975Y-63815839D01*
X37700327Y-63789232D01*
X37728909Y-63768845D01*
X37879860Y-63661173D01*
X37894592Y-63646493D01*
X38034435Y-63507137D01*
X38038096Y-63503489D01*
X38090203Y-63430974D01*
X38146198Y-63387326D01*
X38192526Y-63378500D01*
X38903629Y-63378500D01*
X38971750Y-63398502D01*
X38992724Y-63415405D01*
X41078730Y-65501411D01*
X41091116Y-65515823D01*
X41099649Y-65527418D01*
X41099654Y-65527423D01*
X41103992Y-65533318D01*
X41109570Y-65538057D01*
X41109573Y-65538060D01*
X41144268Y-65567535D01*
X41151784Y-65574465D01*
X41157479Y-65580160D01*
X41160361Y-65582440D01*
X41179751Y-65597781D01*
X41183155Y-65600572D01*
X41233203Y-65643091D01*
X41238785Y-65647833D01*
X41245301Y-65651161D01*
X41250350Y-65654528D01*
X41255479Y-65657695D01*
X41261216Y-65662234D01*
X41327375Y-65693155D01*
X41331269Y-65695058D01*
X41396308Y-65728269D01*
X41403416Y-65730008D01*
X41409059Y-65732107D01*
X41414822Y-65734024D01*
X41421450Y-65737122D01*
X41428612Y-65738612D01*
X41428613Y-65738612D01*
X41492912Y-65751986D01*
X41497196Y-65752956D01*
X41568110Y-65770308D01*
X41573712Y-65770656D01*
X41573715Y-65770656D01*
X41579264Y-65771000D01*
X41579262Y-65771036D01*
X41583255Y-65771275D01*
X41587447Y-65771649D01*
X41594615Y-65773140D01*
X41672020Y-65771046D01*
X41675428Y-65771000D01*
X49457413Y-65771000D01*
X49531472Y-65795063D01*
X49537902Y-65799735D01*
X49537909Y-65799739D01*
X49543248Y-65803618D01*
X49549276Y-65806302D01*
X49549278Y-65806303D01*
X49711681Y-65878609D01*
X49717712Y-65881294D01*
X49811113Y-65901147D01*
X49898056Y-65919628D01*
X49898061Y-65919628D01*
X49904513Y-65921000D01*
X50095487Y-65921000D01*
X50101939Y-65919628D01*
X50101944Y-65919628D01*
X50188887Y-65901147D01*
X50282288Y-65881294D01*
X50288319Y-65878609D01*
X50450722Y-65806303D01*
X50450724Y-65806302D01*
X50456752Y-65803618D01*
X50462097Y-65799735D01*
X50526481Y-65752957D01*
X50611253Y-65691366D01*
X50718348Y-65572425D01*
X50734621Y-65554352D01*
X50734622Y-65554351D01*
X50739040Y-65549444D01*
X50834527Y-65384056D01*
X50893542Y-65202428D01*
X50911455Y-65032000D01*
X50912814Y-65019065D01*
X50913504Y-65012500D01*
X50893542Y-64822572D01*
X50834527Y-64640944D01*
X50739040Y-64475556D01*
X50611253Y-64333634D01*
X50501647Y-64254000D01*
X50462094Y-64225263D01*
X50462093Y-64225262D01*
X50456752Y-64221382D01*
X50450724Y-64218698D01*
X50450722Y-64218697D01*
X50288319Y-64146391D01*
X50288318Y-64146391D01*
X50282288Y-64143706D01*
X50275833Y-64142334D01*
X50275824Y-64142331D01*
X50234932Y-64133639D01*
X50172459Y-64099911D01*
X50138138Y-64037761D01*
X50142866Y-63966922D01*
X50185143Y-63909885D01*
X50245121Y-63885414D01*
X50288439Y-63879865D01*
X50298518Y-63877723D01*
X50510247Y-63814201D01*
X50519845Y-63810440D01*
X50718358Y-63713189D01*
X50727203Y-63707916D01*
X50784494Y-63667050D01*
X50792894Y-63656351D01*
X50785907Y-63643197D01*
X50012812Y-62870102D01*
X49998868Y-62862488D01*
X49997035Y-62862619D01*
X49990420Y-62866870D01*
X49210797Y-63646493D01*
X49204037Y-63658873D01*
X49209318Y-63665927D01*
X49385441Y-63768845D01*
X49394728Y-63773295D01*
X49601238Y-63852153D01*
X49611136Y-63855029D01*
X49765901Y-63886516D01*
X49828667Y-63919698D01*
X49863529Y-63981546D01*
X49859420Y-64052423D01*
X49817644Y-64109828D01*
X49766978Y-64133234D01*
X49724169Y-64142333D01*
X49724164Y-64142334D01*
X49717712Y-64143706D01*
X49711682Y-64146391D01*
X49711681Y-64146391D01*
X49549278Y-64218697D01*
X49549276Y-64218698D01*
X49543248Y-64221382D01*
X49537909Y-64225261D01*
X49537902Y-64225265D01*
X49531472Y-64229937D01*
X49457413Y-64254000D01*
X42028871Y-64254000D01*
X41960750Y-64233998D01*
X41939776Y-64217095D01*
X40186251Y-62463570D01*
X46088578Y-62463570D01*
X46088875Y-62468723D01*
X46088875Y-62468726D01*
X46090762Y-62501445D01*
X46101902Y-62694660D01*
X46103039Y-62699706D01*
X46103040Y-62699712D01*
X46123713Y-62791443D01*
X46152791Y-62920470D01*
X46154733Y-62925252D01*
X46154734Y-62925256D01*
X46192414Y-63018050D01*
X46239877Y-63134937D01*
X46242577Y-63139343D01*
X46242578Y-63139345D01*
X46335592Y-63291130D01*
X46360821Y-63332301D01*
X46364210Y-63336214D01*
X46364212Y-63336216D01*
X46508992Y-63503354D01*
X46508996Y-63503358D01*
X46512377Y-63507261D01*
X46690472Y-63655119D01*
X46890326Y-63771904D01*
X46895146Y-63773744D01*
X46895151Y-63773747D01*
X47005381Y-63815839D01*
X47106570Y-63854479D01*
X47111638Y-63855510D01*
X47111641Y-63855511D01*
X47220816Y-63877723D01*
X47333396Y-63900628D01*
X47338571Y-63900818D01*
X47338573Y-63900818D01*
X47559550Y-63908921D01*
X47559554Y-63908921D01*
X47564714Y-63909110D01*
X47569834Y-63908454D01*
X47569836Y-63908454D01*
X47789184Y-63880355D01*
X47789185Y-63880355D01*
X47794312Y-63879698D01*
X47800895Y-63877723D01*
X48011068Y-63814668D01*
X48011073Y-63814666D01*
X48016023Y-63813181D01*
X48223892Y-63711347D01*
X48412339Y-63576930D01*
X48576301Y-63413539D01*
X48650982Y-63309609D01*
X48706977Y-63265961D01*
X48777680Y-63259515D01*
X48837838Y-63289699D01*
X48841166Y-63292710D01*
X48849943Y-63288927D01*
X49627978Y-62510892D01*
X49634356Y-62499212D01*
X50364408Y-62499212D01*
X50364539Y-62501045D01*
X50368790Y-62507660D01*
X51145701Y-63284571D01*
X51157712Y-63291130D01*
X51167038Y-63284005D01*
X51233313Y-63258547D01*
X51302831Y-63272961D01*
X51350959Y-63318296D01*
X51359541Y-63332301D01*
X51362930Y-63336214D01*
X51362932Y-63336216D01*
X51507712Y-63503354D01*
X51507716Y-63503358D01*
X51511097Y-63507261D01*
X51689192Y-63655119D01*
X51889046Y-63771904D01*
X51893866Y-63773744D01*
X51893871Y-63773747D01*
X52004101Y-63815839D01*
X52105290Y-63854479D01*
X52110358Y-63855510D01*
X52110361Y-63855511D01*
X52219536Y-63877723D01*
X52332116Y-63900628D01*
X52337291Y-63900818D01*
X52337293Y-63900818D01*
X52558270Y-63908921D01*
X52558274Y-63908921D01*
X52563434Y-63909110D01*
X52568554Y-63908454D01*
X52568556Y-63908454D01*
X52787904Y-63880355D01*
X52787905Y-63880355D01*
X52793032Y-63879698D01*
X52799615Y-63877723D01*
X53009788Y-63814668D01*
X53009793Y-63814666D01*
X53014743Y-63813181D01*
X53222612Y-63711347D01*
X53411059Y-63576930D01*
X53575021Y-63413539D01*
X53662981Y-63291130D01*
X53707077Y-63229763D01*
X53710095Y-63225563D01*
X53752707Y-63139345D01*
X53810360Y-63022691D01*
X53812654Y-63018050D01*
X53859878Y-62862619D01*
X53878439Y-62801527D01*
X53878439Y-62801525D01*
X53879944Y-62796573D01*
X53910158Y-62567080D01*
X53911844Y-62498080D01*
X53900458Y-62359588D01*
X53893301Y-62272536D01*
X53893300Y-62272530D01*
X53892877Y-62267385D01*
X53858190Y-62129290D01*
X53837746Y-62047896D01*
X53837745Y-62047892D01*
X53836487Y-62042885D01*
X53834428Y-62038149D01*
X53746247Y-61835347D01*
X53746245Y-61835344D01*
X53744187Y-61830610D01*
X53618456Y-61636260D01*
X53603523Y-61619848D01*
X53483368Y-61487800D01*
X53462672Y-61465055D01*
X53458621Y-61461856D01*
X53458617Y-61461852D01*
X53285070Y-61324793D01*
X53281017Y-61321592D01*
X53276501Y-61319099D01*
X53276498Y-61319097D01*
X53082894Y-61212222D01*
X53082890Y-61212220D01*
X53078370Y-61209725D01*
X53073501Y-61208001D01*
X53073497Y-61207999D01*
X52865048Y-61134183D01*
X52865044Y-61134182D01*
X52860173Y-61132457D01*
X52855083Y-61131550D01*
X52855078Y-61131549D01*
X52637375Y-61092771D01*
X52637369Y-61092770D01*
X52632286Y-61091865D01*
X52543391Y-61090779D01*
X52405999Y-61089100D01*
X52405997Y-61089100D01*
X52400830Y-61089037D01*
X52172020Y-61124050D01*
X52063857Y-61159403D01*
X51956918Y-61194355D01*
X51956912Y-61194358D01*
X51952000Y-61195963D01*
X51947414Y-61198350D01*
X51947410Y-61198352D01*
X51751274Y-61300455D01*
X51746681Y-61302846D01*
X51725037Y-61319097D01*
X51650866Y-61374786D01*
X51561575Y-61441827D01*
X51401654Y-61609175D01*
X51349951Y-61684969D01*
X51295039Y-61729971D01*
X51224515Y-61738142D01*
X51163638Y-61709437D01*
X51157931Y-61704522D01*
X51148364Y-61708926D01*
X50372022Y-62485268D01*
X50364408Y-62499212D01*
X49634356Y-62499212D01*
X49635592Y-62496948D01*
X49635461Y-62495115D01*
X49631210Y-62488500D01*
X48854471Y-61711761D01*
X48842935Y-61705461D01*
X48833099Y-61713167D01*
X48767139Y-61739433D01*
X48697451Y-61725869D01*
X48649600Y-61682423D01*
X48622543Y-61640599D01*
X48619736Y-61636260D01*
X48604803Y-61619848D01*
X48484648Y-61487800D01*
X48463952Y-61465055D01*
X48459901Y-61461856D01*
X48459897Y-61461852D01*
X48304836Y-61339392D01*
X49206108Y-61339392D01*
X49212852Y-61351722D01*
X49987188Y-62126058D01*
X50001132Y-62133672D01*
X50002965Y-62133541D01*
X50009580Y-62129290D01*
X50788392Y-61350478D01*
X50795413Y-61337621D01*
X50787640Y-61326954D01*
X50785438Y-61325215D01*
X50776852Y-61319510D01*
X50583330Y-61212681D01*
X50573931Y-61208456D01*
X50365554Y-61134666D01*
X50355597Y-61132036D01*
X50137967Y-61093269D01*
X50127716Y-61092300D01*
X49906675Y-61089600D01*
X49896391Y-61090320D01*
X49677888Y-61123755D01*
X49667861Y-61126144D01*
X49457753Y-61194818D01*
X49448244Y-61198815D01*
X49252174Y-61300883D01*
X49243456Y-61306372D01*
X49214561Y-61328067D01*
X49206108Y-61339392D01*
X48304836Y-61339392D01*
X48286350Y-61324793D01*
X48282297Y-61321592D01*
X48277781Y-61319099D01*
X48277778Y-61319097D01*
X48084174Y-61212222D01*
X48084170Y-61212220D01*
X48079650Y-61209725D01*
X48074781Y-61208001D01*
X48074777Y-61207999D01*
X47866328Y-61134183D01*
X47866324Y-61134182D01*
X47861453Y-61132457D01*
X47856363Y-61131550D01*
X47856358Y-61131549D01*
X47638655Y-61092771D01*
X47638649Y-61092770D01*
X47633566Y-61091865D01*
X47544671Y-61090779D01*
X47407279Y-61089100D01*
X47407277Y-61089100D01*
X47402110Y-61089037D01*
X47173300Y-61124050D01*
X47065137Y-61159403D01*
X46958198Y-61194355D01*
X46958192Y-61194358D01*
X46953280Y-61195963D01*
X46948694Y-61198350D01*
X46948690Y-61198352D01*
X46752554Y-61300455D01*
X46747961Y-61302846D01*
X46726317Y-61319097D01*
X46652146Y-61374786D01*
X46562855Y-61441827D01*
X46402934Y-61609175D01*
X46272492Y-61800395D01*
X46258467Y-61830610D01*
X46206576Y-61942401D01*
X46175034Y-62010352D01*
X46113175Y-62233407D01*
X46088578Y-62463570D01*
X40186251Y-62463570D01*
X39853770Y-62131089D01*
X39841384Y-62116677D01*
X39832851Y-62105082D01*
X39832846Y-62105077D01*
X39828508Y-62099182D01*
X39822930Y-62094443D01*
X39822927Y-62094440D01*
X39788232Y-62064965D01*
X39780716Y-62058035D01*
X39775021Y-62052340D01*
X39757084Y-62038149D01*
X39752749Y-62034719D01*
X39749345Y-62031928D01*
X39699297Y-61989409D01*
X39699295Y-61989408D01*
X39693715Y-61984667D01*
X39687199Y-61981339D01*
X39682150Y-61977972D01*
X39677021Y-61974805D01*
X39671284Y-61970266D01*
X39605125Y-61939345D01*
X39601225Y-61937439D01*
X39536192Y-61904231D01*
X39529084Y-61902492D01*
X39523441Y-61900393D01*
X39517678Y-61898476D01*
X39511050Y-61895378D01*
X39439583Y-61880513D01*
X39435299Y-61879543D01*
X39364390Y-61862192D01*
X39358788Y-61861844D01*
X39358785Y-61861844D01*
X39353236Y-61861500D01*
X39353238Y-61861464D01*
X39349245Y-61861225D01*
X39345053Y-61860851D01*
X39337885Y-61859360D01*
X39271675Y-61861151D01*
X39260479Y-61861454D01*
X39257072Y-61861500D01*
X38195939Y-61861500D01*
X38127818Y-61841498D01*
X38090147Y-61803941D01*
X38082818Y-61792612D01*
X38080014Y-61788277D01*
X37929670Y-61623051D01*
X37925619Y-61619852D01*
X37925615Y-61619848D01*
X37758414Y-61487800D01*
X37758410Y-61487798D01*
X37754359Y-61484598D01*
X37713053Y-61461796D01*
X37663084Y-61411364D01*
X37648312Y-61341921D01*
X37673428Y-61275516D01*
X37700780Y-61248909D01*
X37774070Y-61196632D01*
X37879860Y-61121173D01*
X37908362Y-61092771D01*
X38034435Y-60967137D01*
X38038096Y-60963489D01*
X38168453Y-60782077D01*
X38180106Y-60758500D01*
X38219558Y-60678673D01*
X38267671Y-60626466D01*
X38332515Y-60608500D01*
X41807413Y-60608500D01*
X41881472Y-60632563D01*
X41887902Y-60637235D01*
X41887909Y-60637239D01*
X41893248Y-60641118D01*
X41899276Y-60643802D01*
X41899278Y-60643803D01*
X41977598Y-60678673D01*
X42067712Y-60718794D01*
X42161113Y-60738647D01*
X42248056Y-60757128D01*
X42248061Y-60757128D01*
X42254513Y-60758500D01*
X42445487Y-60758500D01*
X42451939Y-60757128D01*
X42451944Y-60757128D01*
X42538887Y-60738647D01*
X42632288Y-60718794D01*
X42722402Y-60678673D01*
X42800722Y-60643803D01*
X42800724Y-60643802D01*
X42806752Y-60641118D01*
X42812097Y-60637235D01*
X42862157Y-60600864D01*
X42961253Y-60528866D01*
X43089040Y-60386944D01*
X43184527Y-60221556D01*
X43243542Y-60039928D01*
X43263504Y-59850000D01*
X43259078Y-59807885D01*
X61642000Y-59807885D01*
X61646475Y-59823124D01*
X61647865Y-59824329D01*
X61655548Y-59826000D01*
X62727885Y-59826000D01*
X62743124Y-59821525D01*
X62744329Y-59820135D01*
X62746000Y-59812452D01*
X62746000Y-58740116D01*
X62741525Y-58724877D01*
X62740135Y-58723672D01*
X62732452Y-58722001D01*
X62105331Y-58722001D01*
X62098510Y-58722371D01*
X62047648Y-58727895D01*
X62032396Y-58731521D01*
X61911946Y-58776676D01*
X61896351Y-58785214D01*
X61794276Y-58861715D01*
X61781715Y-58874276D01*
X61705214Y-58976351D01*
X61696676Y-58991946D01*
X61651522Y-59112394D01*
X61647895Y-59127649D01*
X61642369Y-59178514D01*
X61642000Y-59185328D01*
X61642000Y-59807885D01*
X43259078Y-59807885D01*
X43243542Y-59660072D01*
X43184527Y-59478444D01*
X43089040Y-59313056D01*
X42961253Y-59171134D01*
X42840018Y-59083051D01*
X42812094Y-59062763D01*
X42812093Y-59062762D01*
X42806752Y-59058882D01*
X42800724Y-59056198D01*
X42800722Y-59056197D01*
X42638319Y-58983891D01*
X42638318Y-58983891D01*
X42632288Y-58981206D01*
X42538887Y-58961353D01*
X42451944Y-58942872D01*
X42451939Y-58942872D01*
X42445487Y-58941500D01*
X42254513Y-58941500D01*
X42248061Y-58942872D01*
X42248056Y-58942872D01*
X42161113Y-58961353D01*
X42067712Y-58981206D01*
X42061682Y-58983891D01*
X42061681Y-58983891D01*
X41899278Y-59056197D01*
X41899276Y-59056198D01*
X41893248Y-59058882D01*
X41887909Y-59062761D01*
X41887902Y-59062765D01*
X41881472Y-59067437D01*
X41807413Y-59091500D01*
X37984123Y-59091500D01*
X37916002Y-59071498D01*
X37906031Y-59064382D01*
X37758414Y-58947800D01*
X37758410Y-58947798D01*
X37754359Y-58944598D01*
X37713053Y-58921796D01*
X37663084Y-58871364D01*
X37648312Y-58801921D01*
X37673428Y-58735516D01*
X37700780Y-58708909D01*
X37744603Y-58677650D01*
X37879860Y-58581173D01*
X38038096Y-58423489D01*
X38168453Y-58242077D01*
X38204376Y-58169393D01*
X38265136Y-58046453D01*
X38265137Y-58046451D01*
X38267430Y-58041811D01*
X38332370Y-57828069D01*
X38361529Y-57606590D01*
X38361611Y-57603240D01*
X38363074Y-57543365D01*
X38363074Y-57543361D01*
X38363156Y-57540000D01*
X38344852Y-57317361D01*
X38290431Y-57100702D01*
X38201354Y-56895840D01*
X38153792Y-56822320D01*
X38082822Y-56712617D01*
X38082820Y-56712614D01*
X38080014Y-56708277D01*
X38051762Y-56677228D01*
X37932798Y-56546488D01*
X37901746Y-56482642D01*
X37910141Y-56412143D01*
X37955317Y-56357375D01*
X37981761Y-56343706D01*
X38088297Y-56303767D01*
X38096705Y-56300615D01*
X38213261Y-56213261D01*
X38300615Y-56096705D01*
X38351745Y-55960316D01*
X38352115Y-55960455D01*
X38384907Y-55903057D01*
X38447863Y-55870238D01*
X38518568Y-55876666D01*
X38561365Y-55904757D01*
X40571766Y-57915158D01*
X40572694Y-57916095D01*
X40635771Y-57980507D01*
X40672221Y-58003998D01*
X40682546Y-58011417D01*
X40716443Y-58038476D01*
X40722784Y-58041541D01*
X40722785Y-58041542D01*
X40746637Y-58053072D01*
X40760054Y-58060601D01*
X40788238Y-58078765D01*
X40794855Y-58081173D01*
X40794860Y-58081176D01*
X40828973Y-58093592D01*
X40840716Y-58098553D01*
X40873400Y-58114353D01*
X40873409Y-58114356D01*
X40879749Y-58117421D01*
X40886614Y-58119006D01*
X40912428Y-58124966D01*
X40927168Y-58129332D01*
X40958685Y-58140803D01*
X40965670Y-58141685D01*
X40965677Y-58141687D01*
X41001692Y-58146237D01*
X41014243Y-58148472D01*
X41056485Y-58158225D01*
X41063529Y-58158250D01*
X41063533Y-58158250D01*
X41097072Y-58158367D01*
X41097942Y-58158396D01*
X41098769Y-58158500D01*
X41135258Y-58158500D01*
X41135697Y-58158501D01*
X41234343Y-58158845D01*
X41234348Y-58158845D01*
X41237870Y-58158857D01*
X41239070Y-58158589D01*
X41240708Y-58158500D01*
X47055506Y-58158500D01*
X47106755Y-58169393D01*
X47217712Y-58218794D01*
X47305425Y-58237438D01*
X47398056Y-58257128D01*
X47398061Y-58257128D01*
X47404513Y-58258500D01*
X47595487Y-58258500D01*
X47601939Y-58257128D01*
X47601944Y-58257128D01*
X47694575Y-58237438D01*
X47782288Y-58218794D01*
X47893245Y-58169393D01*
X47944494Y-58158500D01*
X52055506Y-58158500D01*
X52106755Y-58169393D01*
X52217712Y-58218794D01*
X52305425Y-58237438D01*
X52398056Y-58257128D01*
X52398061Y-58257128D01*
X52404513Y-58258500D01*
X52595487Y-58258500D01*
X52601939Y-58257128D01*
X52601944Y-58257128D01*
X52694575Y-58237438D01*
X52782288Y-58218794D01*
X52788319Y-58216109D01*
X52950722Y-58143803D01*
X52950724Y-58143802D01*
X52956752Y-58141118D01*
X52987187Y-58119006D01*
X53077936Y-58053072D01*
X53111253Y-58028866D01*
X53154796Y-57980507D01*
X53234621Y-57891852D01*
X53234622Y-57891851D01*
X53239040Y-57886944D01*
X53334527Y-57721556D01*
X53393542Y-57539928D01*
X53413504Y-57350000D01*
X53393542Y-57160072D01*
X53334527Y-56978444D01*
X53325380Y-56962602D01*
X53308500Y-56899603D01*
X53308500Y-55587197D01*
X53328502Y-55519076D01*
X53382158Y-55472583D01*
X53452432Y-55462479D01*
X53517012Y-55491973D01*
X53553707Y-55546383D01*
X53641324Y-55802291D01*
X53643251Y-55806122D01*
X53724523Y-55967713D01*
X53767866Y-56053892D01*
X53927383Y-56285991D01*
X54116924Y-56494293D01*
X54120213Y-56497043D01*
X54329689Y-56672193D01*
X54329694Y-56672197D01*
X54332981Y-56674945D01*
X54396053Y-56714510D01*
X54567916Y-56822320D01*
X54567920Y-56822322D01*
X54571556Y-56824603D01*
X54575466Y-56826368D01*
X54575467Y-56826369D01*
X54824323Y-56938732D01*
X54824327Y-56938734D01*
X54828235Y-56940498D01*
X54832355Y-56941718D01*
X54832354Y-56941718D01*
X55094155Y-57019267D01*
X55094159Y-57019268D01*
X55098268Y-57020485D01*
X55102502Y-57021133D01*
X55102507Y-57021134D01*
X55349947Y-57058998D01*
X55376658Y-57063085D01*
X55520001Y-57065337D01*
X55653963Y-57067442D01*
X55653969Y-57067442D01*
X55658254Y-57067509D01*
X55662506Y-57066994D01*
X55662514Y-57066994D01*
X55878466Y-57040860D01*
X55937844Y-57033674D01*
X55941993Y-57032586D01*
X55941996Y-57032585D01*
X56206105Y-56963298D01*
X56210256Y-56962209D01*
X56470449Y-56854433D01*
X56713607Y-56712343D01*
X56935232Y-56538567D01*
X56952610Y-56520635D01*
X57065057Y-56404598D01*
X57131222Y-56336321D01*
X57133757Y-56332870D01*
X57133759Y-56332868D01*
X57295413Y-56112802D01*
X57297951Y-56109347D01*
X57299997Y-56105579D01*
X57430283Y-55865621D01*
X57430284Y-55865619D01*
X57432333Y-55861845D01*
X57531883Y-55598396D01*
X57594757Y-55323873D01*
X57619792Y-55043358D01*
X57620246Y-55000000D01*
X57601091Y-54719022D01*
X57543980Y-54443243D01*
X57449970Y-54177766D01*
X57320800Y-53927505D01*
X57158861Y-53697089D01*
X56967149Y-53490783D01*
X56963833Y-53488069D01*
X56963830Y-53488066D01*
X56752530Y-53315119D01*
X56749212Y-53312403D01*
X56509083Y-53165252D01*
X56491458Y-53157515D01*
X56255133Y-53053775D01*
X56255129Y-53053774D01*
X56251205Y-53052051D01*
X55980349Y-52974896D01*
X55976107Y-52974292D01*
X55976101Y-52974291D01*
X55705779Y-52935819D01*
X55701528Y-52935214D01*
X55553165Y-52934437D01*
X55424188Y-52933761D01*
X55424181Y-52933761D01*
X55419902Y-52933739D01*
X55415658Y-52934298D01*
X55415654Y-52934298D01*
X55292966Y-52950450D01*
X55140681Y-52970499D01*
X55136541Y-52971632D01*
X55136539Y-52971632D01*
X55124608Y-52974896D01*
X54869032Y-53044814D01*
X54865084Y-53046498D01*
X54613935Y-53153622D01*
X54613931Y-53153624D01*
X54609983Y-53155308D01*
X54487976Y-53228327D01*
X54372007Y-53297733D01*
X54372003Y-53297736D01*
X54368325Y-53299937D01*
X54364982Y-53302615D01*
X54364978Y-53302618D01*
X54257753Y-53388522D01*
X54148533Y-53476024D01*
X54131545Y-53493926D01*
X53973999Y-53659945D01*
X53954671Y-53680312D01*
X53790328Y-53909019D01*
X53788319Y-53912814D01*
X53788318Y-53912815D01*
X53716985Y-54047540D01*
X53658545Y-54157914D01*
X53561760Y-54422392D01*
X53560846Y-54426584D01*
X53557608Y-54441435D01*
X53523553Y-54503731D01*
X53461225Y-54537726D01*
X53390412Y-54532628D01*
X53333596Y-54490054D01*
X53308817Y-54423522D01*
X53308500Y-54414593D01*
X53308500Y-52637082D01*
X53328502Y-52568961D01*
X53345405Y-52547987D01*
X54532165Y-51361227D01*
X54543341Y-51351304D01*
X54565744Y-51333675D01*
X54565745Y-51333674D01*
X54571283Y-51329316D01*
X54575719Y-51323838D01*
X54600545Y-51293181D01*
X54602455Y-51290937D01*
X54603947Y-51289445D01*
X54611004Y-51280605D01*
X54621316Y-51269193D01*
X54623435Y-51267118D01*
X54623440Y-51267112D01*
X54628467Y-51262189D01*
X54635787Y-51250831D01*
X54643778Y-51239793D01*
X54681359Y-51193384D01*
X54681362Y-51193379D01*
X54685433Y-51188352D01*
X54686694Y-51185789D01*
X54688476Y-51183557D01*
X54713141Y-51132535D01*
X54720670Y-51119119D01*
X54722905Y-51115651D01*
X54722909Y-51115643D01*
X54726725Y-51109722D01*
X54731783Y-51095826D01*
X54737121Y-51083309D01*
X54765516Y-51025603D01*
X54766178Y-51022822D01*
X54767421Y-51020252D01*
X54779792Y-50966665D01*
X54784163Y-50951912D01*
X54788763Y-50939275D01*
X54790934Y-50922090D01*
X54793370Y-50908682D01*
X54806056Y-50855430D01*
X54807551Y-50849155D01*
X54807581Y-50846301D01*
X54808224Y-50843515D01*
X54808530Y-50755972D01*
X54808535Y-50755211D01*
X54809383Y-50674251D01*
X54809451Y-50667779D01*
X54808847Y-50664986D01*
X54808857Y-50662130D01*
X54807447Y-50655820D01*
X54807250Y-50653885D01*
X54807886Y-50653820D01*
X54806460Y-50640481D01*
X54806460Y-49207176D01*
X54826462Y-49139055D01*
X54859291Y-49104598D01*
X54898866Y-49076369D01*
X54903079Y-49073364D01*
X54910967Y-49065504D01*
X55062197Y-48914800D01*
X55065858Y-48911152D01*
X55199957Y-48724533D01*
X55301776Y-48518517D01*
X55317699Y-48466108D01*
X55367077Y-48303591D01*
X55367078Y-48303585D01*
X55368581Y-48298639D01*
X55398576Y-48070802D01*
X55400250Y-48002300D01*
X55394018Y-47926494D01*
X55381844Y-47778421D01*
X55381843Y-47778415D01*
X55381420Y-47773270D01*
X55325437Y-47550390D01*
X55233803Y-47339647D01*
X55230997Y-47335309D01*
X55111790Y-47151043D01*
X55111788Y-47151040D01*
X55108980Y-47146700D01*
X54954319Y-46976730D01*
X54950268Y-46973531D01*
X54950264Y-46973527D01*
X54778033Y-46837508D01*
X54773975Y-46834303D01*
X54572791Y-46723243D01*
X54455571Y-46681733D01*
X54361044Y-46648259D01*
X54361040Y-46648258D01*
X54356169Y-46646533D01*
X54351076Y-46645626D01*
X54351073Y-46645625D01*
X54135016Y-46607139D01*
X54135010Y-46607138D01*
X54129927Y-46606233D01*
X54056744Y-46605339D01*
X53905311Y-46603489D01*
X53905309Y-46603489D01*
X53900141Y-46603426D01*
X53748570Y-46626619D01*
X53678091Y-46637404D01*
X53678088Y-46637405D01*
X53672982Y-46638186D01*
X53668070Y-46639791D01*
X53668072Y-46639791D01*
X53459464Y-46707975D01*
X53459462Y-46707976D01*
X53454551Y-46709581D01*
X53250713Y-46815692D01*
X53246580Y-46818795D01*
X53246577Y-46818797D01*
X53072358Y-46949604D01*
X53005873Y-46974510D01*
X52936477Y-46959518D01*
X52918616Y-46947728D01*
X52774995Y-46834303D01*
X52573811Y-46723243D01*
X52456591Y-46681733D01*
X52362064Y-46648259D01*
X52362060Y-46648258D01*
X52357189Y-46646533D01*
X52352096Y-46645626D01*
X52352093Y-46645625D01*
X52136036Y-46607139D01*
X52136030Y-46607138D01*
X52130947Y-46606233D01*
X52057764Y-46605339D01*
X51906331Y-46603489D01*
X51906329Y-46603489D01*
X51901161Y-46603426D01*
X51749590Y-46626619D01*
X51679111Y-46637404D01*
X51679108Y-46637405D01*
X51674002Y-46638186D01*
X51669090Y-46639791D01*
X51669092Y-46639791D01*
X51460484Y-46707975D01*
X51460482Y-46707976D01*
X51455571Y-46709581D01*
X51251733Y-46815692D01*
X51247600Y-46818795D01*
X51247597Y-46818797D01*
X51073378Y-46949604D01*
X51006893Y-46974510D01*
X50937497Y-46959518D01*
X50919636Y-46947728D01*
X50776015Y-46834303D01*
X50574831Y-46723243D01*
X50457611Y-46681733D01*
X50363084Y-46648259D01*
X50363080Y-46648258D01*
X50358209Y-46646533D01*
X50353116Y-46645626D01*
X50353113Y-46645625D01*
X50137056Y-46607139D01*
X50137050Y-46607138D01*
X50131967Y-46606233D01*
X50058784Y-46605339D01*
X49907351Y-46603489D01*
X49907349Y-46603489D01*
X49902181Y-46603426D01*
X49750610Y-46626619D01*
X49680131Y-46637404D01*
X49680128Y-46637405D01*
X49675022Y-46638186D01*
X49670110Y-46639791D01*
X49670112Y-46639791D01*
X49461504Y-46707975D01*
X49461502Y-46707976D01*
X49456591Y-46709581D01*
X49252753Y-46815692D01*
X49248620Y-46818795D01*
X49248617Y-46818797D01*
X49074398Y-46949604D01*
X49007913Y-46974510D01*
X48938517Y-46959518D01*
X48920656Y-46947728D01*
X48777035Y-46834303D01*
X48575851Y-46723243D01*
X48458631Y-46681733D01*
X48364104Y-46648259D01*
X48364100Y-46648258D01*
X48359229Y-46646533D01*
X48354136Y-46645626D01*
X48354133Y-46645625D01*
X48138076Y-46607139D01*
X48138070Y-46607138D01*
X48132987Y-46606233D01*
X48059804Y-46605339D01*
X47908371Y-46603489D01*
X47908369Y-46603489D01*
X47903201Y-46603426D01*
X47751630Y-46626619D01*
X47681151Y-46637404D01*
X47681148Y-46637405D01*
X47676042Y-46638186D01*
X47671130Y-46639791D01*
X47671132Y-46639791D01*
X47462524Y-46707975D01*
X47462522Y-46707976D01*
X47457611Y-46709581D01*
X47253773Y-46815692D01*
X47249640Y-46818795D01*
X47249637Y-46818797D01*
X47075418Y-46949604D01*
X47008933Y-46974510D01*
X46939537Y-46959518D01*
X46921676Y-46947728D01*
X46778055Y-46834303D01*
X46576871Y-46723243D01*
X46459651Y-46681733D01*
X46365124Y-46648259D01*
X46365120Y-46648258D01*
X46360249Y-46646533D01*
X46355156Y-46645626D01*
X46355153Y-46645625D01*
X46139096Y-46607139D01*
X46139090Y-46607138D01*
X46134007Y-46606233D01*
X46060824Y-46605339D01*
X45909391Y-46603489D01*
X45909389Y-46603489D01*
X45904221Y-46603426D01*
X45752650Y-46626619D01*
X45682171Y-46637404D01*
X45682168Y-46637405D01*
X45677062Y-46638186D01*
X45672150Y-46639791D01*
X45672152Y-46639791D01*
X45463544Y-46707975D01*
X45463542Y-46707976D01*
X45458631Y-46709581D01*
X45254793Y-46815692D01*
X45250660Y-46818795D01*
X45250657Y-46818797D01*
X45076438Y-46949604D01*
X45071023Y-46953670D01*
X44912256Y-47119810D01*
X44782756Y-47309650D01*
X44686001Y-47518092D01*
X44624588Y-47739537D01*
X44600169Y-47968039D01*
X44613397Y-48197461D01*
X44663918Y-48421642D01*
X44750376Y-48634561D01*
X44870448Y-48830500D01*
X45020909Y-49004198D01*
X45024884Y-49007498D01*
X45024887Y-49007501D01*
X45060155Y-49036781D01*
X45197719Y-49150989D01*
X45396130Y-49266931D01*
X45400950Y-49268771D01*
X45400955Y-49268774D01*
X45507336Y-49309396D01*
X45610814Y-49348910D01*
X45615882Y-49349941D01*
X45615885Y-49349942D01*
X45726574Y-49372462D01*
X45836003Y-49394726D01*
X45841176Y-49394916D01*
X45841179Y-49394916D01*
X46060488Y-49402957D01*
X46060492Y-49402957D01*
X46065652Y-49403146D01*
X46070772Y-49402490D01*
X46070774Y-49402490D01*
X46288465Y-49374604D01*
X46288468Y-49374603D01*
X46293592Y-49373947D01*
X46513703Y-49307910D01*
X46720073Y-49206811D01*
X46810540Y-49142282D01*
X46902956Y-49076362D01*
X46907159Y-49073364D01*
X46910822Y-49069714D01*
X46915047Y-49065504D01*
X46977420Y-49031590D01*
X47048226Y-49036781D01*
X47084469Y-49057814D01*
X47192718Y-49147684D01*
X47196699Y-49150989D01*
X47395110Y-49266931D01*
X47399930Y-49268771D01*
X47399935Y-49268774D01*
X47506316Y-49309396D01*
X47609794Y-49348910D01*
X47614862Y-49349941D01*
X47614865Y-49349942D01*
X47725554Y-49372462D01*
X47834983Y-49394726D01*
X47840156Y-49394916D01*
X47840159Y-49394916D01*
X48059468Y-49402957D01*
X48059472Y-49402957D01*
X48064632Y-49403146D01*
X48069752Y-49402490D01*
X48069754Y-49402490D01*
X48287445Y-49374604D01*
X48287448Y-49374603D01*
X48292572Y-49373947D01*
X48512683Y-49307910D01*
X48719053Y-49206811D01*
X48809520Y-49142282D01*
X48901936Y-49076362D01*
X48906139Y-49073364D01*
X48909802Y-49069714D01*
X48914027Y-49065504D01*
X48976400Y-49031590D01*
X49047206Y-49036781D01*
X49083449Y-49057814D01*
X49191698Y-49147684D01*
X49195679Y-49150989D01*
X49394090Y-49266931D01*
X49398910Y-49268771D01*
X49398915Y-49268774D01*
X49505296Y-49309396D01*
X49608774Y-49348910D01*
X49613842Y-49349941D01*
X49613845Y-49349942D01*
X49724534Y-49372462D01*
X49833963Y-49394726D01*
X49839136Y-49394916D01*
X49839139Y-49394916D01*
X50058448Y-49402957D01*
X50058452Y-49402957D01*
X50063612Y-49403146D01*
X50068732Y-49402490D01*
X50068734Y-49402490D01*
X50286425Y-49374604D01*
X50286428Y-49374603D01*
X50291552Y-49373947D01*
X50511663Y-49307910D01*
X50718033Y-49206811D01*
X50808500Y-49142282D01*
X50900916Y-49076362D01*
X50905119Y-49073364D01*
X50908782Y-49069714D01*
X50913007Y-49065504D01*
X50975380Y-49031590D01*
X51046186Y-49036781D01*
X51082429Y-49057814D01*
X51190678Y-49147684D01*
X51194659Y-49150989D01*
X51393070Y-49266931D01*
X51397890Y-49268771D01*
X51397895Y-49268774D01*
X51504276Y-49309396D01*
X51607754Y-49348910D01*
X51612822Y-49349941D01*
X51612825Y-49349942D01*
X51723514Y-49372462D01*
X51832943Y-49394726D01*
X51838116Y-49394916D01*
X51838119Y-49394916D01*
X52057428Y-49402957D01*
X52057432Y-49402957D01*
X52062592Y-49403146D01*
X52067712Y-49402490D01*
X52067714Y-49402490D01*
X52285405Y-49374604D01*
X52285408Y-49374603D01*
X52290532Y-49373947D01*
X52510643Y-49307910D01*
X52717013Y-49206811D01*
X52807480Y-49142282D01*
X52899896Y-49076362D01*
X52904099Y-49073364D01*
X52907762Y-49069714D01*
X52911987Y-49065504D01*
X52974360Y-49031590D01*
X53045166Y-49036781D01*
X53081408Y-49057813D01*
X53143945Y-49109732D01*
X53183580Y-49168634D01*
X53189460Y-49206676D01*
X53189460Y-50364959D01*
X53169458Y-50433080D01*
X53152555Y-50454054D01*
X51934843Y-51671765D01*
X51933906Y-51672693D01*
X51869493Y-51735771D01*
X51846002Y-51772221D01*
X51838583Y-51782546D01*
X51811524Y-51816443D01*
X51808459Y-51822784D01*
X51808458Y-51822785D01*
X51796928Y-51846637D01*
X51789399Y-51860054D01*
X51771235Y-51888238D01*
X51768827Y-51894855D01*
X51768824Y-51894860D01*
X51756408Y-51928973D01*
X51751447Y-51940716D01*
X51735646Y-51973403D01*
X51735644Y-51973408D01*
X51732579Y-51979749D01*
X51730996Y-51986607D01*
X51730995Y-51986609D01*
X51725035Y-52012426D01*
X51720668Y-52027169D01*
X51709197Y-52058685D01*
X51708314Y-52065675D01*
X51708312Y-52065683D01*
X51703762Y-52101701D01*
X51701526Y-52114253D01*
X51691776Y-52156485D01*
X51691751Y-52163531D01*
X51691751Y-52163534D01*
X51691634Y-52197056D01*
X51691605Y-52197938D01*
X51691500Y-52198769D01*
X51691500Y-52235572D01*
X51691143Y-52337870D01*
X51691411Y-52339070D01*
X51691500Y-52340707D01*
X51691500Y-56415500D01*
X51671498Y-56483621D01*
X51617842Y-56530114D01*
X51565500Y-56541500D01*
X47944494Y-56541500D01*
X47893245Y-56530607D01*
X47788319Y-56483891D01*
X47788318Y-56483891D01*
X47782288Y-56481206D01*
X47688887Y-56461353D01*
X47601944Y-56442872D01*
X47601939Y-56442872D01*
X47595487Y-56441500D01*
X47404513Y-56441500D01*
X47398061Y-56442872D01*
X47398056Y-56442872D01*
X47311112Y-56461353D01*
X47217712Y-56481206D01*
X47211682Y-56483891D01*
X47211681Y-56483891D01*
X47106755Y-56530607D01*
X47055506Y-56541500D01*
X46129094Y-56541500D01*
X46060973Y-56521498D01*
X46014480Y-56467842D01*
X46004376Y-56397568D01*
X46031776Y-56336581D01*
X46031422Y-56336321D01*
X46032634Y-56334671D01*
X46198151Y-56109347D01*
X46200197Y-56105579D01*
X46330483Y-55865621D01*
X46330484Y-55865619D01*
X46332533Y-55861845D01*
X46432083Y-55598396D01*
X46494957Y-55323873D01*
X46519992Y-55043358D01*
X46520446Y-55000000D01*
X46501291Y-54719022D01*
X46444180Y-54443243D01*
X46350170Y-54177766D01*
X46221000Y-53927505D01*
X46059061Y-53697089D01*
X45867349Y-53490783D01*
X45864033Y-53488069D01*
X45864030Y-53488066D01*
X45652730Y-53315119D01*
X45649412Y-53312403D01*
X45409283Y-53165252D01*
X45391658Y-53157515D01*
X45155333Y-53053775D01*
X45155329Y-53053774D01*
X45151405Y-53052051D01*
X44880549Y-52974896D01*
X44876307Y-52974292D01*
X44876301Y-52974291D01*
X44605979Y-52935819D01*
X44601728Y-52935214D01*
X44453365Y-52934437D01*
X44324388Y-52933761D01*
X44324381Y-52933761D01*
X44320102Y-52933739D01*
X44315858Y-52934298D01*
X44315854Y-52934298D01*
X44193166Y-52950450D01*
X44040881Y-52970499D01*
X44036741Y-52971632D01*
X44036739Y-52971632D01*
X44024808Y-52974896D01*
X43769232Y-53044814D01*
X43765284Y-53046498D01*
X43514135Y-53153622D01*
X43514131Y-53153624D01*
X43510183Y-53155308D01*
X43388176Y-53228327D01*
X43272207Y-53297733D01*
X43272203Y-53297736D01*
X43268525Y-53299937D01*
X43265182Y-53302615D01*
X43265178Y-53302618D01*
X43157953Y-53388522D01*
X43048733Y-53476024D01*
X43031745Y-53493926D01*
X42874199Y-53659945D01*
X42854871Y-53680312D01*
X42690528Y-53909019D01*
X42688519Y-53912814D01*
X42688518Y-53912815D01*
X42617185Y-54047540D01*
X42558745Y-54157914D01*
X42461960Y-54422392D01*
X42401964Y-54697558D01*
X42379868Y-54978320D01*
X42396079Y-55259483D01*
X42396904Y-55263688D01*
X42396905Y-55263696D01*
X42428163Y-55423017D01*
X42450299Y-55535845D01*
X42451686Y-55539895D01*
X42451687Y-55539900D01*
X42540135Y-55798235D01*
X42541524Y-55802291D01*
X42543451Y-55806122D01*
X42624723Y-55967713D01*
X42668066Y-56053892D01*
X42827583Y-56285991D01*
X42868267Y-56330702D01*
X42899318Y-56394546D01*
X42890922Y-56465045D01*
X42845746Y-56519813D01*
X42775072Y-56541500D01*
X41537082Y-56541500D01*
X41468961Y-56521498D01*
X41447987Y-56504595D01*
X39378234Y-54434842D01*
X39377306Y-54433905D01*
X39319157Y-54374525D01*
X39319156Y-54374524D01*
X39314229Y-54369493D01*
X39277779Y-54346002D01*
X39267454Y-54338583D01*
X39233557Y-54311524D01*
X39203362Y-54296927D01*
X39189945Y-54289398D01*
X39161762Y-54271235D01*
X39155145Y-54268827D01*
X39155140Y-54268824D01*
X39121027Y-54256408D01*
X39109284Y-54251447D01*
X39076597Y-54235646D01*
X39076592Y-54235644D01*
X39070251Y-54232579D01*
X39063393Y-54230996D01*
X39063391Y-54230995D01*
X39037574Y-54225035D01*
X39022831Y-54220668D01*
X38991315Y-54209197D01*
X38984325Y-54208314D01*
X38984317Y-54208312D01*
X38948299Y-54203762D01*
X38935747Y-54201526D01*
X38900386Y-54193362D01*
X38900383Y-54193362D01*
X38893515Y-54191776D01*
X38886469Y-54191751D01*
X38886466Y-54191751D01*
X38852944Y-54191634D01*
X38852062Y-54191605D01*
X38851231Y-54191500D01*
X38814581Y-54191500D01*
X38814141Y-54191499D01*
X38715657Y-54191155D01*
X38715652Y-54191155D01*
X38712130Y-54191143D01*
X38710930Y-54191411D01*
X38709293Y-54191500D01*
X38481291Y-54191500D01*
X38413170Y-54171498D01*
X38366677Y-54117842D01*
X38356028Y-54079108D01*
X38352598Y-54047540D01*
X38351745Y-54039684D01*
X38300615Y-53903295D01*
X38213261Y-53786739D01*
X38096705Y-53699385D01*
X37960316Y-53648255D01*
X37898134Y-53641500D01*
X36134500Y-53641500D01*
X36066379Y-53621498D01*
X36019886Y-53567842D01*
X36008500Y-53515500D01*
X36008500Y-45634500D01*
X36028502Y-45566379D01*
X36082158Y-45519886D01*
X36134500Y-45508500D01*
X63865500Y-45508500D01*
X63933621Y-45528502D01*
G37*
%TD.AperFunction*%
%TA.AperFunction,Conductor*%
G36*
X55632750Y-105778502D02*
G01*
X55679243Y-105832158D01*
X55689347Y-105902432D01*
X55659853Y-105967012D01*
X55653724Y-105973595D01*
X54511089Y-107116230D01*
X54496677Y-107128616D01*
X54485082Y-107137149D01*
X54485077Y-107137154D01*
X54479182Y-107141492D01*
X54474443Y-107147070D01*
X54474440Y-107147073D01*
X54444965Y-107181768D01*
X54438035Y-107189284D01*
X54432340Y-107194979D01*
X54430060Y-107197861D01*
X54414719Y-107217251D01*
X54411928Y-107220655D01*
X54369409Y-107270703D01*
X54364667Y-107276285D01*
X54361339Y-107282801D01*
X54357972Y-107287850D01*
X54354805Y-107292979D01*
X54350266Y-107298716D01*
X54319345Y-107364875D01*
X54317442Y-107368769D01*
X54284231Y-107433808D01*
X54282492Y-107440916D01*
X54280393Y-107446559D01*
X54278476Y-107452322D01*
X54275378Y-107458950D01*
X54273888Y-107466112D01*
X54273888Y-107466113D01*
X54260514Y-107530412D01*
X54259544Y-107534696D01*
X54242192Y-107605610D01*
X54241500Y-107616764D01*
X54241464Y-107616762D01*
X54241225Y-107620755D01*
X54240851Y-107624947D01*
X54239360Y-107632115D01*
X54239558Y-107639432D01*
X54241454Y-107709521D01*
X54241500Y-107712928D01*
X54241500Y-113334436D01*
X54221498Y-113402557D01*
X54167842Y-113449050D01*
X54097568Y-113459154D01*
X54032988Y-113429660D01*
X54027421Y-113424536D01*
X53912532Y-113312224D01*
X53912525Y-113312218D01*
X53909264Y-113309030D01*
X53809866Y-113236680D01*
X53693721Y-113152141D01*
X53690028Y-113149453D01*
X53450053Y-113023196D01*
X53445752Y-113021677D01*
X53445747Y-113021675D01*
X53267998Y-112958906D01*
X53194366Y-112932904D01*
X53096347Y-112913585D01*
X52932794Y-112881348D01*
X52932788Y-112881347D01*
X52928322Y-112880467D01*
X52923768Y-112880240D01*
X52923766Y-112880240D01*
X52662064Y-112867211D01*
X52662058Y-112867211D01*
X52657495Y-112866984D01*
X52387559Y-112892738D01*
X52383130Y-112893822D01*
X52383123Y-112893823D01*
X52253069Y-112925648D01*
X52124168Y-112957190D01*
X52119933Y-112958905D01*
X52119931Y-112958906D01*
X51877069Y-113057275D01*
X51872840Y-113058988D01*
X51764448Y-113122454D01*
X51748165Y-113131988D01*
X51679273Y-113149148D01*
X51612041Y-113126337D01*
X51567814Y-113070799D01*
X51558500Y-113023256D01*
X51558500Y-107566371D01*
X51578502Y-107498250D01*
X51595405Y-107477276D01*
X53277275Y-105795405D01*
X53339587Y-105761380D01*
X53366370Y-105758500D01*
X55564629Y-105758500D01*
X55632750Y-105778502D01*
G37*
%TD.AperFunction*%
%TA.AperFunction,Conductor*%
G36*
X53151991Y-73608502D02*
G01*
X53198484Y-73662158D01*
X53208588Y-73732432D01*
X53192322Y-73778642D01*
X53190005Y-73782560D01*
X53187402Y-73786312D01*
X53134163Y-73893327D01*
X53076448Y-74009338D01*
X53066621Y-74029090D01*
X52982153Y-74286760D01*
X52981373Y-74291251D01*
X52981373Y-74291252D01*
X52936949Y-74547106D01*
X52935765Y-74553925D01*
X52935574Y-74557762D01*
X52933773Y-74593949D01*
X52931500Y-74639600D01*
X52931500Y-75328884D01*
X52931665Y-75331152D01*
X52931665Y-75331164D01*
X52939725Y-75442238D01*
X52946125Y-75530451D01*
X52947109Y-75534906D01*
X52947109Y-75534909D01*
X52986482Y-75713240D01*
X53004585Y-75795237D01*
X53006203Y-75799507D01*
X53092021Y-76026020D01*
X53100655Y-76048810D01*
X53232324Y-76285859D01*
X53235096Y-76289491D01*
X53388804Y-76490896D01*
X53396833Y-76501417D01*
X53400099Y-76504610D01*
X53400101Y-76504612D01*
X53483800Y-76586433D01*
X53590736Y-76690970D01*
X53594428Y-76693657D01*
X53594430Y-76693659D01*
X53796354Y-76840635D01*
X53809972Y-76850547D01*
X54049947Y-76976804D01*
X54054248Y-76978323D01*
X54054253Y-76978325D01*
X54187087Y-77025233D01*
X54305634Y-77067096D01*
X54403653Y-77086415D01*
X54567206Y-77118652D01*
X54567212Y-77118653D01*
X54571678Y-77119533D01*
X54576232Y-77119760D01*
X54576234Y-77119760D01*
X54837936Y-77132789D01*
X54837942Y-77132789D01*
X54842505Y-77133016D01*
X55112441Y-77107262D01*
X55116870Y-77106178D01*
X55116877Y-77106177D01*
X55280601Y-77066113D01*
X55375832Y-77042810D01*
X55414150Y-77027290D01*
X55622931Y-76942725D01*
X55622932Y-76942725D01*
X55627160Y-76941012D01*
X55861161Y-76803999D01*
X56032883Y-76666669D01*
X56069366Y-76637493D01*
X56069368Y-76637492D01*
X56072932Y-76634641D01*
X56194399Y-76504612D01*
X56254921Y-76439824D01*
X56254923Y-76439821D01*
X56258037Y-76436488D01*
X56412598Y-76213688D01*
X56456676Y-76125088D01*
X56531346Y-75974997D01*
X56531347Y-75974994D01*
X56533379Y-75970910D01*
X56617847Y-75713240D01*
X56618627Y-75708748D01*
X56663579Y-75449856D01*
X56663580Y-75449848D01*
X56664235Y-75446075D01*
X56668500Y-75360400D01*
X56668500Y-74671116D01*
X56666424Y-74642494D01*
X56654205Y-74474100D01*
X56653875Y-74469549D01*
X56640540Y-74409148D01*
X56596400Y-74209223D01*
X56596399Y-74209219D01*
X56595415Y-74204763D01*
X56540909Y-74060897D01*
X56500963Y-73955460D01*
X56500962Y-73955457D01*
X56499345Y-73951190D01*
X56401859Y-73775682D01*
X56386267Y-73706419D01*
X56410597Y-73639721D01*
X56467124Y-73596765D01*
X56512008Y-73588500D01*
X61845389Y-73588500D01*
X61913510Y-73608502D01*
X61940625Y-73632001D01*
X62046250Y-73753938D01*
X62218126Y-73896632D01*
X62288595Y-73937811D01*
X62291445Y-73939476D01*
X62340169Y-73991114D01*
X62353240Y-74060897D01*
X62326509Y-74126669D01*
X62286055Y-74160027D01*
X62273607Y-74166507D01*
X62269474Y-74169610D01*
X62269471Y-74169612D01*
X62107462Y-74291252D01*
X62094965Y-74300635D01*
X62091393Y-74304373D01*
X62023784Y-74375122D01*
X61940629Y-74462138D01*
X61910363Y-74506507D01*
X61855455Y-74551507D01*
X61806277Y-74561500D01*
X59398539Y-74561500D01*
X59379588Y-74560067D01*
X59337724Y-74553698D01*
X59331017Y-74552491D01*
X59275049Y-74540850D01*
X59275048Y-74540850D01*
X59267885Y-74539360D01*
X59258401Y-74539617D01*
X59236038Y-74538229D01*
X59235362Y-74538126D01*
X59233883Y-74537901D01*
X59233880Y-74537901D01*
X59226651Y-74536801D01*
X59219360Y-74537394D01*
X59219357Y-74537394D01*
X59162368Y-74542030D01*
X59155559Y-74542399D01*
X59112208Y-74543572D01*
X59091079Y-74544143D01*
X59081896Y-74546578D01*
X59059828Y-74550370D01*
X59050363Y-74551140D01*
X58988977Y-74571026D01*
X58982502Y-74572932D01*
X58920116Y-74589474D01*
X58913661Y-74592928D01*
X58911753Y-74593949D01*
X58891135Y-74602722D01*
X58889067Y-74603392D01*
X58889064Y-74603393D01*
X58882101Y-74605649D01*
X58875849Y-74609443D01*
X58875840Y-74609447D01*
X58826946Y-74639117D01*
X58821030Y-74642492D01*
X58764166Y-74672918D01*
X58758677Y-74677766D01*
X58758671Y-74677770D01*
X58757043Y-74679207D01*
X58739007Y-74692482D01*
X58730893Y-74697405D01*
X58722516Y-74704803D01*
X58683350Y-74743969D01*
X58677663Y-74749315D01*
X58631596Y-74790000D01*
X58627368Y-74795983D01*
X58624005Y-74800741D01*
X58610203Y-74817116D01*
X56711089Y-76716230D01*
X56696677Y-76728616D01*
X56685082Y-76737149D01*
X56685077Y-76737154D01*
X56679182Y-76741492D01*
X56674443Y-76747070D01*
X56674440Y-76747073D01*
X56644965Y-76781768D01*
X56638035Y-76789284D01*
X56632340Y-76794979D01*
X56630060Y-76797861D01*
X56614719Y-76817251D01*
X56611928Y-76820655D01*
X56586533Y-76850547D01*
X56564667Y-76876285D01*
X56561339Y-76882801D01*
X56557972Y-76887850D01*
X56554805Y-76892979D01*
X56550266Y-76898716D01*
X56519345Y-76964875D01*
X56517442Y-76968769D01*
X56484231Y-77033808D01*
X56482492Y-77040916D01*
X56480393Y-77046559D01*
X56478476Y-77052322D01*
X56475378Y-77058950D01*
X56463342Y-77116818D01*
X56460514Y-77130412D01*
X56459544Y-77134696D01*
X56442192Y-77205610D01*
X56441500Y-77216764D01*
X56441464Y-77216762D01*
X56441225Y-77220755D01*
X56440851Y-77224947D01*
X56439360Y-77232115D01*
X56439558Y-77239432D01*
X56441454Y-77309521D01*
X56441500Y-77312928D01*
X56441500Y-93438087D01*
X56421498Y-93506208D01*
X56367842Y-93552701D01*
X56297568Y-93562805D01*
X56232988Y-93533311D01*
X56215338Y-93514531D01*
X56208986Y-93506208D01*
X56203167Y-93498583D01*
X56112834Y-93410276D01*
X56063968Y-93362507D01*
X56009264Y-93309030D01*
X55790028Y-93149453D01*
X55550053Y-93023196D01*
X55545752Y-93021677D01*
X55545747Y-93021675D01*
X55367998Y-92958906D01*
X55294366Y-92932904D01*
X55196347Y-92913585D01*
X55032794Y-92881348D01*
X55032788Y-92881347D01*
X55028322Y-92880467D01*
X55023768Y-92880240D01*
X55023766Y-92880240D01*
X54762064Y-92867211D01*
X54762058Y-92867211D01*
X54757495Y-92866984D01*
X54487559Y-92892738D01*
X54483130Y-92893822D01*
X54483123Y-92893823D01*
X54353069Y-92925648D01*
X54224168Y-92957190D01*
X54219933Y-92958905D01*
X54219931Y-92958906D01*
X53977069Y-93057275D01*
X53972840Y-93058988D01*
X53738839Y-93196001D01*
X53527068Y-93365359D01*
X53523947Y-93368700D01*
X53387719Y-93514531D01*
X53341963Y-93563512D01*
X53187402Y-93786312D01*
X53185374Y-93790388D01*
X53185373Y-93790390D01*
X53157186Y-93847049D01*
X53066621Y-94029090D01*
X52982153Y-94286760D01*
X52935765Y-94553925D01*
X52931500Y-94639600D01*
X52931500Y-95328884D01*
X52946125Y-95530451D01*
X53004585Y-95795237D01*
X53100655Y-96048810D01*
X53232324Y-96285859D01*
X53396833Y-96501417D01*
X53590736Y-96690970D01*
X53594428Y-96693657D01*
X53594430Y-96693659D01*
X53630791Y-96720125D01*
X53809972Y-96850547D01*
X54049947Y-96976804D01*
X54054248Y-96978323D01*
X54054253Y-96978325D01*
X54187087Y-97025233D01*
X54305634Y-97067096D01*
X54403653Y-97086415D01*
X54567206Y-97118652D01*
X54567212Y-97118653D01*
X54571678Y-97119533D01*
X54576232Y-97119760D01*
X54576234Y-97119760D01*
X54837936Y-97132789D01*
X54837942Y-97132789D01*
X54842505Y-97133016D01*
X55112441Y-97107262D01*
X55116870Y-97106178D01*
X55116877Y-97106177D01*
X55276584Y-97067096D01*
X55375832Y-97042810D01*
X55535039Y-96978325D01*
X55622931Y-96942725D01*
X55622932Y-96942725D01*
X55627160Y-96941012D01*
X55861161Y-96803999D01*
X56072932Y-96634641D01*
X56194399Y-96504612D01*
X56223425Y-96473540D01*
X56284543Y-96437414D01*
X56355490Y-96440067D01*
X56413741Y-96480655D01*
X56440800Y-96546292D01*
X56441500Y-96559552D01*
X56441500Y-102533629D01*
X56421498Y-102601750D01*
X56404595Y-102622724D01*
X55722724Y-103304595D01*
X55660412Y-103338621D01*
X55633629Y-103341500D01*
X53857586Y-103341500D01*
X53789465Y-103321498D01*
X53742972Y-103267842D01*
X53732868Y-103197568D01*
X53744629Y-103159673D01*
X53811318Y-103024737D01*
X53815117Y-103015142D01*
X53879415Y-102803517D01*
X53881594Y-102793436D01*
X53910702Y-102572338D01*
X53911221Y-102565663D01*
X53912744Y-102503364D01*
X53912550Y-102496646D01*
X53894279Y-102274400D01*
X53892596Y-102264238D01*
X53838710Y-102049708D01*
X53835389Y-102039953D01*
X53747193Y-101837118D01*
X53742315Y-101828020D01*
X53669224Y-101715038D01*
X53658538Y-101705835D01*
X53648973Y-101710238D01*
X52859210Y-102500000D01*
X52500000Y-102859210D01*
X51710183Y-103649028D01*
X51703424Y-103661407D01*
X51707559Y-103666931D01*
X51732369Y-103733451D01*
X51717277Y-103802825D01*
X51695785Y-103831534D01*
X50620632Y-104906687D01*
X50558320Y-104940713D01*
X50487505Y-104935648D01*
X50430669Y-104893101D01*
X50406227Y-104830763D01*
X50394232Y-104716634D01*
X50394231Y-104716631D01*
X50393542Y-104710072D01*
X50334527Y-104528444D01*
X50239040Y-104363056D01*
X50111253Y-104221134D01*
X49998392Y-104139135D01*
X49955038Y-104082912D01*
X49948963Y-104012176D01*
X49982095Y-103949385D01*
X50043915Y-103914473D01*
X50063071Y-103911834D01*
X50064113Y-103911872D01*
X50293847Y-103882442D01*
X50298795Y-103880957D01*
X50298802Y-103880956D01*
X50510747Y-103817369D01*
X50515690Y-103815886D01*
X50542351Y-103802825D01*
X50719049Y-103716262D01*
X50719052Y-103716260D01*
X50723684Y-103713991D01*
X50912243Y-103579494D01*
X51076303Y-103416005D01*
X51100398Y-103382474D01*
X51150714Y-103312451D01*
X51206709Y-103268803D01*
X51277412Y-103262357D01*
X51337572Y-103292543D01*
X51340555Y-103295242D01*
X51349330Y-103291459D01*
X52127979Y-102512811D01*
X52135592Y-102498868D01*
X52135461Y-102497034D01*
X52131210Y-102490420D01*
X51353862Y-101713073D01*
X51342331Y-101706776D01*
X51332877Y-101714183D01*
X51266918Y-101740450D01*
X51197229Y-101726887D01*
X51149377Y-101683440D01*
X51122571Y-101642004D01*
X51119764Y-101637665D01*
X50963887Y-101466358D01*
X50959836Y-101463159D01*
X50959832Y-101463155D01*
X50804790Y-101340711D01*
X51705508Y-101340711D01*
X51712251Y-101353040D01*
X52487189Y-102127979D01*
X52501132Y-102135592D01*
X52502966Y-102135461D01*
X52509580Y-102131210D01*
X53288994Y-101351795D01*
X53296011Y-101338944D01*
X53288237Y-101328274D01*
X53285902Y-101326430D01*
X53277320Y-101320729D01*
X53083678Y-101213833D01*
X53074272Y-101209606D01*
X52865772Y-101135772D01*
X52855809Y-101133140D01*
X52638047Y-101094350D01*
X52627796Y-101093381D01*
X52406616Y-101090679D01*
X52396332Y-101091399D01*
X52177693Y-101124855D01*
X52167666Y-101127244D01*
X51957426Y-101195961D01*
X51947916Y-101199958D01*
X51751725Y-101302089D01*
X51743007Y-101307578D01*
X51713961Y-101329386D01*
X51705508Y-101340711D01*
X50804790Y-101340711D01*
X50786177Y-101326011D01*
X50786172Y-101326008D01*
X50782123Y-101322810D01*
X50777607Y-101320317D01*
X50777604Y-101320315D01*
X50583879Y-101213373D01*
X50583875Y-101213371D01*
X50579355Y-101210876D01*
X50574486Y-101209152D01*
X50574482Y-101209150D01*
X50365903Y-101135288D01*
X50365899Y-101135287D01*
X50361028Y-101133562D01*
X50355935Y-101132655D01*
X50355932Y-101132654D01*
X50138095Y-101093851D01*
X50138089Y-101093850D01*
X50133006Y-101092945D01*
X50060096Y-101092054D01*
X49906581Y-101090179D01*
X49906579Y-101090179D01*
X49901411Y-101090116D01*
X49672464Y-101125150D01*
X49452314Y-101197106D01*
X49447726Y-101199494D01*
X49447722Y-101199496D01*
X49251461Y-101301663D01*
X49246872Y-101304052D01*
X49242739Y-101307155D01*
X49242736Y-101307157D01*
X49061655Y-101443117D01*
X49060976Y-101442213D01*
X49001730Y-101470131D01*
X48931341Y-101460869D01*
X48877132Y-101415022D01*
X48864325Y-101389866D01*
X48853768Y-101361705D01*
X48853767Y-101361703D01*
X48850615Y-101353295D01*
X48763261Y-101236739D01*
X48646705Y-101149385D01*
X48510316Y-101098255D01*
X48448134Y-101091500D01*
X48434500Y-101091500D01*
X48366379Y-101071498D01*
X48319886Y-101017842D01*
X48308500Y-100965500D01*
X48308500Y-84034500D01*
X48328502Y-83966379D01*
X48382158Y-83919886D01*
X48434500Y-83908500D01*
X48448134Y-83908500D01*
X48510316Y-83901745D01*
X48646705Y-83850615D01*
X48763261Y-83763261D01*
X48850615Y-83646705D01*
X48865686Y-83606504D01*
X48908328Y-83549739D01*
X48974890Y-83525040D01*
X49044239Y-83540248D01*
X49064150Y-83553788D01*
X49189349Y-83657730D01*
X49389322Y-83774584D01*
X49605694Y-83857209D01*
X49610760Y-83858240D01*
X49610761Y-83858240D01*
X49663846Y-83869040D01*
X49832656Y-83903385D01*
X49962089Y-83908131D01*
X50058949Y-83911683D01*
X50058953Y-83911683D01*
X50064113Y-83911872D01*
X50069233Y-83911216D01*
X50069235Y-83911216D01*
X50143166Y-83901745D01*
X50293847Y-83882442D01*
X50298795Y-83880957D01*
X50298802Y-83880956D01*
X50510747Y-83817369D01*
X50515690Y-83815886D01*
X50597161Y-83775974D01*
X50719049Y-83716262D01*
X50719052Y-83716260D01*
X50723684Y-83713991D01*
X50797406Y-83661406D01*
X51703423Y-83661406D01*
X51708704Y-83668461D01*
X51885080Y-83771527D01*
X51894363Y-83775974D01*
X52101003Y-83854883D01*
X52110901Y-83857759D01*
X52327653Y-83901857D01*
X52337883Y-83903076D01*
X52558914Y-83911182D01*
X52569223Y-83910714D01*
X52788623Y-83882608D01*
X52798688Y-83880468D01*
X53010557Y-83816905D01*
X53020152Y-83813144D01*
X53218778Y-83715838D01*
X53227636Y-83710559D01*
X53285097Y-83669572D01*
X53293497Y-83658874D01*
X53286510Y-83645721D01*
X52512811Y-82872021D01*
X52498868Y-82864408D01*
X52497034Y-82864539D01*
X52490420Y-82868790D01*
X51710180Y-83649031D01*
X51703423Y-83661406D01*
X50797406Y-83661406D01*
X50912243Y-83579494D01*
X51076303Y-83416005D01*
X51150714Y-83312451D01*
X51206709Y-83268803D01*
X51277412Y-83262357D01*
X51337572Y-83292543D01*
X51340555Y-83295242D01*
X51349330Y-83291459D01*
X52127979Y-82512811D01*
X52134356Y-82501132D01*
X52864408Y-82501132D01*
X52864539Y-82502966D01*
X52868790Y-82509580D01*
X53646307Y-83287096D01*
X53658313Y-83293652D01*
X53670052Y-83284684D01*
X53708010Y-83231859D01*
X53713321Y-83223020D01*
X53811318Y-83024737D01*
X53815117Y-83015142D01*
X53879415Y-82803517D01*
X53881594Y-82793436D01*
X53910702Y-82572338D01*
X53911221Y-82565663D01*
X53912744Y-82503364D01*
X53912550Y-82496646D01*
X53894279Y-82274400D01*
X53892596Y-82264238D01*
X53838710Y-82049708D01*
X53835389Y-82039953D01*
X53747193Y-81837118D01*
X53742315Y-81828020D01*
X53669224Y-81715038D01*
X53658538Y-81705835D01*
X53648973Y-81710238D01*
X52872021Y-82487189D01*
X52864408Y-82501132D01*
X52134356Y-82501132D01*
X52135592Y-82498868D01*
X52135461Y-82497034D01*
X52131210Y-82490420D01*
X51353862Y-81713073D01*
X51342331Y-81706776D01*
X51332877Y-81714183D01*
X51266918Y-81740450D01*
X51197229Y-81726887D01*
X51149377Y-81683440D01*
X51122571Y-81642004D01*
X51119764Y-81637665D01*
X51102455Y-81618642D01*
X51038602Y-81548469D01*
X50963887Y-81466358D01*
X50959836Y-81463159D01*
X50959832Y-81463155D01*
X50804790Y-81340711D01*
X51705508Y-81340711D01*
X51712251Y-81353040D01*
X52487189Y-82127979D01*
X52501132Y-82135592D01*
X52502966Y-82135461D01*
X52509580Y-82131210D01*
X53288994Y-81351795D01*
X53296011Y-81338944D01*
X53288237Y-81328274D01*
X53285902Y-81326430D01*
X53277320Y-81320729D01*
X53083678Y-81213833D01*
X53074272Y-81209606D01*
X52865772Y-81135772D01*
X52855809Y-81133140D01*
X52638047Y-81094350D01*
X52627796Y-81093381D01*
X52406616Y-81090679D01*
X52396332Y-81091399D01*
X52177693Y-81124855D01*
X52167666Y-81127244D01*
X51957426Y-81195961D01*
X51947916Y-81199958D01*
X51751725Y-81302089D01*
X51743007Y-81307578D01*
X51713961Y-81329386D01*
X51705508Y-81340711D01*
X50804790Y-81340711D01*
X50786177Y-81326011D01*
X50786172Y-81326008D01*
X50782123Y-81322810D01*
X50777607Y-81320317D01*
X50777604Y-81320315D01*
X50583879Y-81213373D01*
X50583875Y-81213371D01*
X50579355Y-81210876D01*
X50574486Y-81209152D01*
X50574482Y-81209150D01*
X50365903Y-81135288D01*
X50365899Y-81135287D01*
X50361028Y-81133562D01*
X50355935Y-81132655D01*
X50355932Y-81132654D01*
X50138095Y-81093851D01*
X50138089Y-81093850D01*
X50133006Y-81092945D01*
X50060096Y-81092054D01*
X49906581Y-81090179D01*
X49906579Y-81090179D01*
X49901411Y-81090116D01*
X49672464Y-81125150D01*
X49452314Y-81197106D01*
X49447726Y-81199494D01*
X49447722Y-81199496D01*
X49264804Y-81294717D01*
X49246872Y-81304052D01*
X49242739Y-81307155D01*
X49242736Y-81307157D01*
X49061655Y-81443117D01*
X49060976Y-81442213D01*
X49001730Y-81470131D01*
X48931341Y-81460869D01*
X48877132Y-81415022D01*
X48864325Y-81389866D01*
X48853768Y-81361705D01*
X48853767Y-81361703D01*
X48850615Y-81353295D01*
X48763261Y-81236739D01*
X48646705Y-81149385D01*
X48510316Y-81098255D01*
X48448134Y-81091500D01*
X48434500Y-81091500D01*
X48366379Y-81071498D01*
X48319886Y-81017842D01*
X48308500Y-80965500D01*
X48308500Y-75637082D01*
X48328502Y-75568961D01*
X48345405Y-75547987D01*
X50267987Y-73625405D01*
X50330299Y-73591379D01*
X50357082Y-73588500D01*
X53083870Y-73588500D01*
X53151991Y-73608502D01*
G37*
%TD.AperFunction*%
%TA.AperFunction,Conductor*%
G36*
X61870612Y-81178502D02*
G01*
X61899402Y-81205595D01*
X61899987Y-81205088D01*
X62046250Y-81373938D01*
X62218126Y-81516632D01*
X62272609Y-81548469D01*
X62291955Y-81559774D01*
X62340679Y-81611412D01*
X62353750Y-81681195D01*
X62327019Y-81746967D01*
X62286562Y-81780327D01*
X62278457Y-81784546D01*
X62269738Y-81790036D01*
X62099433Y-81917905D01*
X62091726Y-81924748D01*
X61944590Y-82078717D01*
X61938104Y-82086727D01*
X61818098Y-82262649D01*
X61813000Y-82271623D01*
X61723338Y-82464783D01*
X61719775Y-82474470D01*
X61664389Y-82674183D01*
X61665912Y-82682607D01*
X61678292Y-82686000D01*
X63128000Y-82686000D01*
X63196121Y-82706002D01*
X63242614Y-82759658D01*
X63254000Y-82812000D01*
X63254000Y-85608000D01*
X63233998Y-85676121D01*
X63180342Y-85722614D01*
X63128000Y-85734000D01*
X61683225Y-85734000D01*
X61669694Y-85737973D01*
X61668257Y-85747966D01*
X61698565Y-85882446D01*
X61701645Y-85892275D01*
X61781770Y-86089603D01*
X61786413Y-86098794D01*
X61897694Y-86280388D01*
X61903777Y-86288699D01*
X62043213Y-86449667D01*
X62050580Y-86456883D01*
X62214434Y-86592916D01*
X62222881Y-86598831D01*
X62291969Y-86639203D01*
X62340693Y-86690842D01*
X62353764Y-86760625D01*
X62327033Y-86826396D01*
X62286584Y-86859752D01*
X62273607Y-86866507D01*
X62269474Y-86869610D01*
X62269471Y-86869612D01*
X62244685Y-86888222D01*
X62094965Y-87000635D01*
X61940629Y-87162138D01*
X61910363Y-87206507D01*
X61855455Y-87251507D01*
X61806277Y-87261500D01*
X61447070Y-87261500D01*
X61428120Y-87260067D01*
X61413885Y-87257901D01*
X61413881Y-87257901D01*
X61406651Y-87256801D01*
X61399359Y-87257394D01*
X61399356Y-87257394D01*
X61353982Y-87261085D01*
X61343767Y-87261500D01*
X61335707Y-87261500D01*
X61322417Y-87263049D01*
X61307493Y-87264789D01*
X61303118Y-87265222D01*
X61237661Y-87270546D01*
X61237658Y-87270547D01*
X61230363Y-87271140D01*
X61223399Y-87273396D01*
X61217440Y-87274587D01*
X61211585Y-87275971D01*
X61204319Y-87276818D01*
X61135673Y-87301735D01*
X61131545Y-87303152D01*
X61069064Y-87323393D01*
X61069062Y-87323394D01*
X61062101Y-87325649D01*
X61055846Y-87329445D01*
X61050372Y-87331951D01*
X61044942Y-87334670D01*
X61038063Y-87337167D01*
X61031943Y-87341180D01*
X61031942Y-87341180D01*
X60977024Y-87377186D01*
X60973320Y-87379523D01*
X60910893Y-87417405D01*
X60902516Y-87424803D01*
X60902492Y-87424776D01*
X60899500Y-87427429D01*
X60896267Y-87430132D01*
X60890148Y-87434144D01*
X60885116Y-87439456D01*
X60836872Y-87490383D01*
X60834494Y-87492825D01*
X59873595Y-88453724D01*
X59811283Y-88487750D01*
X59740468Y-88482685D01*
X59683632Y-88440138D01*
X59658821Y-88373618D01*
X59658500Y-88364629D01*
X59658500Y-85214183D01*
X61664389Y-85214183D01*
X61665912Y-85222607D01*
X61678292Y-85226000D01*
X62727885Y-85226000D01*
X62743124Y-85221525D01*
X62744329Y-85220135D01*
X62746000Y-85212452D01*
X62746000Y-83212115D01*
X62741525Y-83196876D01*
X62740135Y-83195671D01*
X62732452Y-83194000D01*
X61683225Y-83194000D01*
X61669694Y-83197973D01*
X61668257Y-83207966D01*
X61698565Y-83342446D01*
X61701645Y-83352275D01*
X61781770Y-83549603D01*
X61786413Y-83558794D01*
X61897694Y-83740388D01*
X61903777Y-83748699D01*
X62043213Y-83909667D01*
X62050580Y-83916883D01*
X62214434Y-84052916D01*
X62222881Y-84058831D01*
X62292479Y-84099501D01*
X62341203Y-84151140D01*
X62354274Y-84220923D01*
X62327543Y-84286694D01*
X62287087Y-84320053D01*
X62278462Y-84324542D01*
X62269738Y-84330036D01*
X62099433Y-84457905D01*
X62091726Y-84464748D01*
X61944590Y-84618717D01*
X61938104Y-84626727D01*
X61818098Y-84802649D01*
X61813000Y-84811623D01*
X61723338Y-85004783D01*
X61719775Y-85014470D01*
X61664389Y-85214183D01*
X59658500Y-85214183D01*
X59658500Y-82066371D01*
X59678502Y-81998250D01*
X59695405Y-81977276D01*
X60477276Y-81195405D01*
X60539588Y-81161379D01*
X60566371Y-81158500D01*
X61802491Y-81158500D01*
X61870612Y-81178502D01*
G37*
%TD.AperFunction*%
%TD*%
M02*
