%TF.GenerationSoftware,KiCad,Pcbnew,(6.0.9)*%
%TF.CreationDate,2023-01-29T17:20:29+01:00*%
%TF.ProjectId,wvtbl_main_board,77767462-6c5f-46d6-9169-6e5f626f6172,rev?*%
%TF.SameCoordinates,Original*%
%TF.FileFunction,Legend,Top*%
%TF.FilePolarity,Positive*%
%FSLAX46Y46*%
G04 Gerber Fmt 4.6, Leading zero omitted, Abs format (unit mm)*
G04 Created by KiCad (PCBNEW (6.0.9)) date 2023-01-29 17:20:29*
%MOMM*%
%LPD*%
G01*
G04 APERTURE LIST*
%ADD10C,0.150000*%
%ADD11C,0.120000*%
%ADD12C,0.203200*%
G04 APERTURE END LIST*
D10*
X35952380Y-152119047D02*
X36666666Y-152119047D01*
X36809523Y-152166666D01*
X36904761Y-152261904D01*
X36952380Y-152404761D01*
X36952380Y-152500000D01*
X36952380Y-151166666D02*
X36952380Y-151642857D01*
X35952380Y-151642857D01*
X36857142Y-150261904D02*
X36904761Y-150309523D01*
X36952380Y-150452380D01*
X36952380Y-150547619D01*
X36904761Y-150690476D01*
X36809523Y-150785714D01*
X36714285Y-150833333D01*
X36523809Y-150880952D01*
X36380952Y-150880952D01*
X36190476Y-150833333D01*
X36095238Y-150785714D01*
X36000000Y-150690476D01*
X35952380Y-150547619D01*
X35952380Y-150452380D01*
X36000000Y-150309523D01*
X36047619Y-150261904D01*
X35952380Y-149547619D02*
X36666666Y-149547619D01*
X36809523Y-149595238D01*
X36904761Y-149690476D01*
X36952380Y-149833333D01*
X36952380Y-149928571D01*
X36952380Y-148595238D02*
X36952380Y-149071428D01*
X35952380Y-149071428D01*
X36857142Y-147690476D02*
X36904761Y-147738095D01*
X36952380Y-147880952D01*
X36952380Y-147976190D01*
X36904761Y-148119047D01*
X36809523Y-148214285D01*
X36714285Y-148261904D01*
X36523809Y-148309523D01*
X36380952Y-148309523D01*
X36190476Y-148261904D01*
X36095238Y-148214285D01*
X36000000Y-148119047D01*
X35952380Y-147976190D01*
X35952380Y-147880952D01*
X36000000Y-147738095D01*
X36047619Y-147690476D01*
X35952380Y-146976190D02*
X36666666Y-146976190D01*
X36809523Y-147023809D01*
X36904761Y-147119047D01*
X36952380Y-147261904D01*
X36952380Y-147357142D01*
X36952380Y-146023809D02*
X36952380Y-146500000D01*
X35952380Y-146500000D01*
X36857142Y-145119047D02*
X36904761Y-145166666D01*
X36952380Y-145309523D01*
X36952380Y-145404761D01*
X36904761Y-145547619D01*
X36809523Y-145642857D01*
X36714285Y-145690476D01*
X36523809Y-145738095D01*
X36380952Y-145738095D01*
X36190476Y-145690476D01*
X36095238Y-145642857D01*
X36000000Y-145547619D01*
X35952380Y-145404761D01*
X35952380Y-145309523D01*
X36000000Y-145166666D01*
X36047619Y-145119047D01*
X35952380Y-144404761D02*
X36666666Y-144404761D01*
X36809523Y-144452380D01*
X36904761Y-144547619D01*
X36952380Y-144690476D01*
X36952380Y-144785714D01*
X36952380Y-143452380D02*
X36952380Y-143928571D01*
X35952380Y-143928571D01*
X36857142Y-142547619D02*
X36904761Y-142595238D01*
X36952380Y-142738095D01*
X36952380Y-142833333D01*
X36904761Y-142976190D01*
X36809523Y-143071428D01*
X36714285Y-143119047D01*
X36523809Y-143166666D01*
X36380952Y-143166666D01*
X36190476Y-143119047D01*
X36095238Y-143071428D01*
X36000000Y-142976190D01*
X35952380Y-142833333D01*
X35952380Y-142738095D01*
X36000000Y-142595238D01*
X36047619Y-142547619D01*
%TO.C,RV2*%
X49404761Y-95452380D02*
X49071428Y-94976190D01*
X48833333Y-95452380D02*
X48833333Y-94452380D01*
X49214285Y-94452380D01*
X49309523Y-94500000D01*
X49357142Y-94547619D01*
X49404761Y-94642857D01*
X49404761Y-94785714D01*
X49357142Y-94880952D01*
X49309523Y-94928571D01*
X49214285Y-94976190D01*
X48833333Y-94976190D01*
X49690476Y-94452380D02*
X50023809Y-95452380D01*
X50357142Y-94452380D01*
X50642857Y-94547619D02*
X50690476Y-94500000D01*
X50785714Y-94452380D01*
X51023809Y-94452380D01*
X51119047Y-94500000D01*
X51166666Y-94547619D01*
X51214285Y-94642857D01*
X51214285Y-94738095D01*
X51166666Y-94880952D01*
X50595238Y-95452380D01*
X51214285Y-95452380D01*
%TO.C,J5*%
X61196666Y-151852380D02*
X61196666Y-152566666D01*
X61149047Y-152709523D01*
X61053809Y-152804761D01*
X60910952Y-152852380D01*
X60815714Y-152852380D01*
X62149047Y-151852380D02*
X61672857Y-151852380D01*
X61625238Y-152328571D01*
X61672857Y-152280952D01*
X61768095Y-152233333D01*
X62006190Y-152233333D01*
X62101428Y-152280952D01*
X62149047Y-152328571D01*
X62196666Y-152423809D01*
X62196666Y-152661904D01*
X62149047Y-152757142D01*
X62101428Y-152804761D01*
X62006190Y-152852380D01*
X61768095Y-152852380D01*
X61672857Y-152804761D01*
X61625238Y-152757142D01*
%TO.C,S1*%
X49238095Y-55404761D02*
X49380952Y-55452380D01*
X49619047Y-55452380D01*
X49714285Y-55404761D01*
X49761904Y-55357142D01*
X49809523Y-55261904D01*
X49809523Y-55166666D01*
X49761904Y-55071428D01*
X49714285Y-55023809D01*
X49619047Y-54976190D01*
X49428571Y-54928571D01*
X49333333Y-54880952D01*
X49285714Y-54833333D01*
X49238095Y-54738095D01*
X49238095Y-54642857D01*
X49285714Y-54547619D01*
X49333333Y-54500000D01*
X49428571Y-54452380D01*
X49666666Y-54452380D01*
X49809523Y-54500000D01*
X50761904Y-55452380D02*
X50190476Y-55452380D01*
X50476190Y-55452380D02*
X50476190Y-54452380D01*
X50380952Y-54595238D01*
X50285714Y-54690476D01*
X50190476Y-54738095D01*
%TO.C,J2*%
X46196666Y-151852380D02*
X46196666Y-152566666D01*
X46149047Y-152709523D01*
X46053809Y-152804761D01*
X45910952Y-152852380D01*
X45815714Y-152852380D01*
X46625238Y-151947619D02*
X46672857Y-151900000D01*
X46768095Y-151852380D01*
X47006190Y-151852380D01*
X47101428Y-151900000D01*
X47149047Y-151947619D01*
X47196666Y-152042857D01*
X47196666Y-152138095D01*
X47149047Y-152280952D01*
X46577619Y-152852380D01*
X47196666Y-152852380D01*
%TO.C,RV4*%
X56904761Y-115452380D02*
X56571428Y-114976190D01*
X56333333Y-115452380D02*
X56333333Y-114452380D01*
X56714285Y-114452380D01*
X56809523Y-114500000D01*
X56857142Y-114547619D01*
X56904761Y-114642857D01*
X56904761Y-114785714D01*
X56857142Y-114880952D01*
X56809523Y-114928571D01*
X56714285Y-114976190D01*
X56333333Y-114976190D01*
X57190476Y-114452380D02*
X57523809Y-115452380D01*
X57857142Y-114452380D01*
X58619047Y-114785714D02*
X58619047Y-115452380D01*
X58380952Y-114404761D02*
X58142857Y-115119047D01*
X58761904Y-115119047D01*
%TO.C,RV3*%
X41904761Y-115452380D02*
X41571428Y-114976190D01*
X41333333Y-115452380D02*
X41333333Y-114452380D01*
X41714285Y-114452380D01*
X41809523Y-114500000D01*
X41857142Y-114547619D01*
X41904761Y-114642857D01*
X41904761Y-114785714D01*
X41857142Y-114880952D01*
X41809523Y-114928571D01*
X41714285Y-114976190D01*
X41333333Y-114976190D01*
X42190476Y-114452380D02*
X42523809Y-115452380D01*
X42857142Y-114452380D01*
X43095238Y-114452380D02*
X43714285Y-114452380D01*
X43380952Y-114833333D01*
X43523809Y-114833333D01*
X43619047Y-114880952D01*
X43666666Y-114928571D01*
X43714285Y-115023809D01*
X43714285Y-115261904D01*
X43666666Y-115357142D01*
X43619047Y-115404761D01*
X43523809Y-115452380D01*
X43238095Y-115452380D01*
X43142857Y-115404761D01*
X43095238Y-115357142D01*
%TO.C,J4*%
X61196666Y-136852380D02*
X61196666Y-137566666D01*
X61149047Y-137709523D01*
X61053809Y-137804761D01*
X60910952Y-137852380D01*
X60815714Y-137852380D01*
X62101428Y-137185714D02*
X62101428Y-137852380D01*
X61863333Y-136804761D02*
X61625238Y-137519047D01*
X62244285Y-137519047D01*
%TO.C,J3*%
X46196666Y-136852380D02*
X46196666Y-137566666D01*
X46149047Y-137709523D01*
X46053809Y-137804761D01*
X45910952Y-137852380D01*
X45815714Y-137852380D01*
X46577619Y-136852380D02*
X47196666Y-136852380D01*
X46863333Y-137233333D01*
X47006190Y-137233333D01*
X47101428Y-137280952D01*
X47149047Y-137328571D01*
X47196666Y-137423809D01*
X47196666Y-137661904D01*
X47149047Y-137757142D01*
X47101428Y-137804761D01*
X47006190Y-137852380D01*
X46720476Y-137852380D01*
X46625238Y-137804761D01*
X46577619Y-137757142D01*
%TO.C,RV1*%
X49404761Y-75452380D02*
X49071428Y-74976190D01*
X48833333Y-75452380D02*
X48833333Y-74452380D01*
X49214285Y-74452380D01*
X49309523Y-74500000D01*
X49357142Y-74547619D01*
X49404761Y-74642857D01*
X49404761Y-74785714D01*
X49357142Y-74880952D01*
X49309523Y-74928571D01*
X49214285Y-74976190D01*
X48833333Y-74976190D01*
X49690476Y-74452380D02*
X50023809Y-75452380D01*
X50357142Y-74452380D01*
X51214285Y-75452380D02*
X50642857Y-75452380D01*
X50928571Y-75452380D02*
X50928571Y-74452380D01*
X50833333Y-74595238D01*
X50738095Y-74690476D01*
X50642857Y-74738095D01*
D11*
%TO.C,RV2*%
X54870000Y-101620000D02*
X53380000Y-101620000D01*
X46310000Y-101620000D02*
X45130000Y-101620000D01*
X49210000Y-101620000D02*
X48680000Y-101620000D01*
X54870000Y-93090000D02*
X54870000Y-90030000D01*
X45130000Y-93090000D02*
X45130000Y-90030000D01*
X51660000Y-101620000D02*
X50830000Y-101620000D01*
X54870000Y-101620000D02*
X54870000Y-96900000D01*
X45120000Y-101620000D02*
X45120000Y-96900000D01*
X54870000Y-90030000D02*
X45130000Y-90030000D01*
%TO.C,J5*%
X62000000Y-151500000D02*
X62000000Y-141000000D01*
X58300000Y-141000000D02*
X62000000Y-141000000D01*
X53000000Y-151500000D02*
X56780000Y-151500000D01*
X58220000Y-151500000D02*
X62000000Y-151500000D01*
X58730000Y-154650000D02*
X58730000Y-153850000D01*
X53000000Y-151500000D02*
X53000000Y-141000000D01*
X58730000Y-154650000D02*
X57870000Y-154650000D01*
X53000000Y-141000000D02*
X56700000Y-141000000D01*
X59300000Y-147000000D02*
G75*
G03*
X59300000Y-147000000I-1800000J0D01*
G01*
D12*
%TO.C,S1*%
X43802400Y-56699260D02*
X43802400Y-60892800D01*
X56197600Y-56699260D02*
X56197600Y-60892800D01*
X55392420Y-48302020D02*
X53898900Y-48302020D01*
X43802400Y-53300740D02*
X43802400Y-49107200D01*
X55392420Y-61697980D02*
X53398520Y-61697980D01*
X56197600Y-53300740D02*
X56197600Y-49107200D01*
X44607580Y-61697980D02*
X46601480Y-61697980D01*
X44607580Y-48302020D02*
X46101100Y-48302020D01*
X56197580Y-49107200D02*
G75*
G03*
X55392420Y-48302020I-805180J0D01*
G01*
X44607580Y-48302020D02*
G75*
G03*
X43802400Y-49107200I1J-805181D01*
G01*
X55392420Y-61697980D02*
G75*
G03*
X56197600Y-60892800I10J805170D01*
G01*
X43802400Y-60892800D02*
G75*
G03*
X44607580Y-61697980I805181J1D01*
G01*
X52999740Y-55000000D02*
G75*
G03*
X52999740Y-55000000I-2999740J0D01*
G01*
D11*
%TO.C,J2*%
X43730000Y-154650000D02*
X42870000Y-154650000D01*
X38000000Y-141000000D02*
X41700000Y-141000000D01*
X38000000Y-151500000D02*
X38000000Y-141000000D01*
X47000000Y-151500000D02*
X47000000Y-141000000D01*
X38000000Y-151500000D02*
X41780000Y-151500000D01*
X43300000Y-141000000D02*
X47000000Y-141000000D01*
X43220000Y-151500000D02*
X47000000Y-151500000D01*
X43730000Y-154650000D02*
X43730000Y-153850000D01*
X44300000Y-147000000D02*
G75*
G03*
X44300000Y-147000000I-1800000J0D01*
G01*
%TO.C,RV4*%
X62370000Y-113090000D02*
X62370000Y-110030000D01*
X62370000Y-121620000D02*
X60880000Y-121620000D01*
X62370000Y-110030000D02*
X52630000Y-110030000D01*
X53810000Y-121620000D02*
X52630000Y-121620000D01*
X59160000Y-121620000D02*
X58330000Y-121620000D01*
X52630000Y-113090000D02*
X52630000Y-110030000D01*
X56710000Y-121620000D02*
X56180000Y-121620000D01*
X62370000Y-121620000D02*
X62370000Y-116900000D01*
X52620000Y-121620000D02*
X52620000Y-116900000D01*
%TO.C,RV3*%
X47370000Y-113090000D02*
X47370000Y-110030000D01*
X47370000Y-110030000D02*
X37630000Y-110030000D01*
X37620000Y-121620000D02*
X37620000Y-116900000D01*
X47370000Y-121620000D02*
X47370000Y-116900000D01*
X44160000Y-121620000D02*
X43330000Y-121620000D01*
X41710000Y-121620000D02*
X41180000Y-121620000D01*
X37630000Y-113090000D02*
X37630000Y-110030000D01*
X38810000Y-121620000D02*
X37630000Y-121620000D01*
X47370000Y-121620000D02*
X45880000Y-121620000D01*
%TO.C,J4*%
X53000000Y-136500000D02*
X53000000Y-126000000D01*
X58300000Y-126000000D02*
X62000000Y-126000000D01*
X58220000Y-136500000D02*
X62000000Y-136500000D01*
X58730000Y-139650000D02*
X58730000Y-138850000D01*
X53000000Y-126000000D02*
X56700000Y-126000000D01*
X58730000Y-139650000D02*
X57870000Y-139650000D01*
X62000000Y-136500000D02*
X62000000Y-126000000D01*
X53000000Y-136500000D02*
X56780000Y-136500000D01*
X59300000Y-132000000D02*
G75*
G03*
X59300000Y-132000000I-1800000J0D01*
G01*
%TO.C,J3*%
X43730000Y-139650000D02*
X43730000Y-138850000D01*
X38000000Y-136500000D02*
X38000000Y-126000000D01*
X38000000Y-126000000D02*
X41700000Y-126000000D01*
X43220000Y-136500000D02*
X47000000Y-136500000D01*
X47000000Y-136500000D02*
X47000000Y-126000000D01*
X43730000Y-139650000D02*
X42870000Y-139650000D01*
X38000000Y-136500000D02*
X41780000Y-136500000D01*
X43300000Y-126000000D02*
X47000000Y-126000000D01*
X44300000Y-132000000D02*
G75*
G03*
X44300000Y-132000000I-1800000J0D01*
G01*
%TO.C,RV1*%
X46310000Y-81620000D02*
X45130000Y-81620000D01*
X54870000Y-81620000D02*
X53380000Y-81620000D01*
X45130000Y-73090000D02*
X45130000Y-70030000D01*
X54870000Y-81620000D02*
X54870000Y-76900000D01*
X54870000Y-70030000D02*
X45130000Y-70030000D01*
X49210000Y-81620000D02*
X48680000Y-81620000D01*
X51660000Y-81620000D02*
X50830000Y-81620000D01*
X54870000Y-73090000D02*
X54870000Y-70030000D01*
X45120000Y-81620000D02*
X45120000Y-76900000D01*
%TD*%
M02*
