%TF.GenerationSoftware,KiCad,Pcbnew,(6.0.9)*%
%TF.CreationDate,2023-01-29T17:20:29+01:00*%
%TF.ProjectId,wvtbl_main_board,77767462-6c5f-46d6-9169-6e5f626f6172,rev?*%
%TF.SameCoordinates,Original*%
%TF.FileFunction,Legend,Bot*%
%TF.FilePolarity,Positive*%
%FSLAX46Y46*%
G04 Gerber Fmt 4.6, Leading zero omitted, Abs format (unit mm)*
G04 Created by KiCad (PCBNEW (6.0.9)) date 2023-01-29 17:20:29*
%MOMM*%
%LPD*%
G01*
G04 APERTURE LIST*
%ADD10C,0.300000*%
%ADD11C,0.150000*%
%ADD12C,0.120000*%
G04 APERTURE END LIST*
D10*
X54095238Y-104184761D02*
X53619047Y-106184761D01*
X53238095Y-104756190D01*
X52857142Y-106184761D01*
X52380952Y-104184761D01*
X51619047Y-106184761D02*
X51619047Y-104184761D01*
X50952380Y-104184761D02*
X49809523Y-104184761D01*
X50380952Y-106184761D02*
X50380952Y-104184761D01*
X49142857Y-106184761D02*
X49142857Y-104184761D01*
X48000000Y-106184761D01*
X48000000Y-104184761D01*
X47142857Y-106089523D02*
X46857142Y-106184761D01*
X46380952Y-106184761D01*
X46190476Y-106089523D01*
X46095238Y-105994285D01*
X46000000Y-105803809D01*
X46000000Y-105613333D01*
X46095238Y-105422857D01*
X46190476Y-105327619D01*
X46380952Y-105232380D01*
X46761904Y-105137142D01*
X46952380Y-105041904D01*
X47047619Y-104946666D01*
X47142857Y-104756190D01*
X47142857Y-104565714D01*
X47047619Y-104375238D01*
X46952380Y-104280000D01*
X46761904Y-104184761D01*
X46285714Y-104184761D01*
X46000000Y-104280000D01*
X58190476Y-107404761D02*
X57714285Y-109404761D01*
X57333333Y-107976190D01*
X56952380Y-109404761D01*
X56476190Y-107404761D01*
X56000000Y-107404761D02*
X55333333Y-109404761D01*
X54666666Y-107404761D01*
X54285714Y-107404761D02*
X53142857Y-107404761D01*
X53714285Y-109404761D02*
X53714285Y-107404761D01*
X51809523Y-108357142D02*
X51523809Y-108452380D01*
X51428571Y-108547619D01*
X51333333Y-108738095D01*
X51333333Y-109023809D01*
X51428571Y-109214285D01*
X51523809Y-109309523D01*
X51714285Y-109404761D01*
X52476190Y-109404761D01*
X52476190Y-107404761D01*
X51809523Y-107404761D01*
X51619047Y-107500000D01*
X51523809Y-107595238D01*
X51428571Y-107785714D01*
X51428571Y-107976190D01*
X51523809Y-108166666D01*
X51619047Y-108261904D01*
X51809523Y-108357142D01*
X52476190Y-108357142D01*
X49523809Y-109404761D02*
X50476190Y-109404761D01*
X50476190Y-107404761D01*
X47523809Y-108071428D02*
X47047619Y-109404761D01*
X46571428Y-108071428D01*
X44761904Y-109404761D02*
X45904761Y-109404761D01*
X45333333Y-109404761D02*
X45333333Y-107404761D01*
X45523809Y-107690476D01*
X45714285Y-107880952D01*
X45904761Y-107976190D01*
X43904761Y-109214285D02*
X43809523Y-109309523D01*
X43904761Y-109404761D01*
X43999999Y-109309523D01*
X43904761Y-109214285D01*
X43904761Y-109404761D01*
X42571428Y-107404761D02*
X42380952Y-107404761D01*
X42190476Y-107500000D01*
X42095238Y-107595238D01*
X41999999Y-107785714D01*
X41904761Y-108166666D01*
X41904761Y-108642857D01*
X41999999Y-109023809D01*
X42095238Y-109214285D01*
X42190476Y-109309523D01*
X42380952Y-109404761D01*
X42571428Y-109404761D01*
X42761904Y-109309523D01*
X42857142Y-109214285D01*
X42952380Y-109023809D01*
X43047619Y-108642857D01*
X43047619Y-108166666D01*
X42952380Y-107785714D01*
X42857142Y-107595238D01*
X42761904Y-107500000D01*
X42571428Y-107404761D01*
X53571428Y-112624761D02*
X54523809Y-112624761D01*
X54523809Y-110624761D01*
X52238095Y-111577142D02*
X52904761Y-111577142D01*
X52904761Y-112624761D02*
X52904761Y-110624761D01*
X51952380Y-110624761D01*
X51190476Y-112624761D02*
X51190476Y-110624761D01*
X50333333Y-112053333D02*
X49380952Y-112053333D01*
X50523809Y-112624761D02*
X49857142Y-110624761D01*
X49190476Y-112624761D01*
X47380952Y-112434285D02*
X47476190Y-112529523D01*
X47761904Y-112624761D01*
X47952380Y-112624761D01*
X48238095Y-112529523D01*
X48428571Y-112339047D01*
X48523809Y-112148571D01*
X48619047Y-111767619D01*
X48619047Y-111481904D01*
X48523809Y-111100952D01*
X48428571Y-110910476D01*
X48238095Y-110720000D01*
X47952380Y-110624761D01*
X47761904Y-110624761D01*
X47476190Y-110720000D01*
X47380952Y-110815238D01*
X46523809Y-112624761D02*
X46523809Y-110624761D01*
X45380952Y-112624761D02*
X46238095Y-111481904D01*
X45380952Y-110624761D02*
X46523809Y-111767619D01*
D11*
%TO.C,R4*%
X51522380Y-58833333D02*
X51046190Y-58500000D01*
X51522380Y-58261904D02*
X50522380Y-58261904D01*
X50522380Y-58642857D01*
X50570000Y-58738095D01*
X50617619Y-58785714D01*
X50712857Y-58833333D01*
X50855714Y-58833333D01*
X50950952Y-58785714D01*
X50998571Y-58738095D01*
X51046190Y-58642857D01*
X51046190Y-58261904D01*
X50855714Y-59690476D02*
X51522380Y-59690476D01*
X50474761Y-59452380D02*
X51189047Y-59214285D01*
X51189047Y-59833333D01*
%TO.C,R3*%
X49452380Y-58833333D02*
X48976190Y-58500000D01*
X49452380Y-58261904D02*
X48452380Y-58261904D01*
X48452380Y-58642857D01*
X48500000Y-58738095D01*
X48547619Y-58785714D01*
X48642857Y-58833333D01*
X48785714Y-58833333D01*
X48880952Y-58785714D01*
X48928571Y-58738095D01*
X48976190Y-58642857D01*
X48976190Y-58261904D01*
X48452380Y-59166666D02*
X48452380Y-59785714D01*
X48833333Y-59452380D01*
X48833333Y-59595238D01*
X48880952Y-59690476D01*
X48928571Y-59738095D01*
X49023809Y-59785714D01*
X49261904Y-59785714D01*
X49357142Y-59738095D01*
X49404761Y-59690476D01*
X49452380Y-59595238D01*
X49452380Y-59309523D01*
X49404761Y-59214285D01*
X49357142Y-59166666D01*
%TO.C,C3*%
X60787142Y-50608333D02*
X60834761Y-50560714D01*
X60882380Y-50417857D01*
X60882380Y-50322619D01*
X60834761Y-50179761D01*
X60739523Y-50084523D01*
X60644285Y-50036904D01*
X60453809Y-49989285D01*
X60310952Y-49989285D01*
X60120476Y-50036904D01*
X60025238Y-50084523D01*
X59930000Y-50179761D01*
X59882380Y-50322619D01*
X59882380Y-50417857D01*
X59930000Y-50560714D01*
X59977619Y-50608333D01*
X59882380Y-50941666D02*
X59882380Y-51560714D01*
X60263333Y-51227380D01*
X60263333Y-51370238D01*
X60310952Y-51465476D01*
X60358571Y-51513095D01*
X60453809Y-51560714D01*
X60691904Y-51560714D01*
X60787142Y-51513095D01*
X60834761Y-51465476D01*
X60882380Y-51370238D01*
X60882380Y-51084523D01*
X60834761Y-50989285D01*
X60787142Y-50941666D01*
%TO.C,C9*%
X50966666Y-153857142D02*
X51014285Y-153904761D01*
X51157142Y-153952380D01*
X51252380Y-153952380D01*
X51395238Y-153904761D01*
X51490476Y-153809523D01*
X51538095Y-153714285D01*
X51585714Y-153523809D01*
X51585714Y-153380952D01*
X51538095Y-153190476D01*
X51490476Y-153095238D01*
X51395238Y-153000000D01*
X51252380Y-152952380D01*
X51157142Y-152952380D01*
X51014285Y-153000000D01*
X50966666Y-153047619D01*
X50490476Y-153952380D02*
X50300000Y-153952380D01*
X50204761Y-153904761D01*
X50157142Y-153857142D01*
X50061904Y-153714285D01*
X50014285Y-153523809D01*
X50014285Y-153142857D01*
X50061904Y-153047619D01*
X50109523Y-153000000D01*
X50204761Y-152952380D01*
X50395238Y-152952380D01*
X50490476Y-153000000D01*
X50538095Y-153047619D01*
X50585714Y-153142857D01*
X50585714Y-153380952D01*
X50538095Y-153476190D01*
X50490476Y-153523809D01*
X50395238Y-153571428D01*
X50204761Y-153571428D01*
X50109523Y-153523809D01*
X50061904Y-153476190D01*
X50014285Y-153380952D01*
%TO.C,D4*%
X61238095Y-129452380D02*
X61238095Y-128452380D01*
X61000000Y-128452380D01*
X60857142Y-128500000D01*
X60761904Y-128595238D01*
X60714285Y-128690476D01*
X60666666Y-128880952D01*
X60666666Y-129023809D01*
X60714285Y-129214285D01*
X60761904Y-129309523D01*
X60857142Y-129404761D01*
X61000000Y-129452380D01*
X61238095Y-129452380D01*
X59809523Y-128785714D02*
X59809523Y-129452380D01*
X60047619Y-128404761D02*
X60285714Y-129119047D01*
X59666666Y-129119047D01*
%TO.C,R8*%
X43166666Y-73252380D02*
X43500000Y-72776190D01*
X43738095Y-73252380D02*
X43738095Y-72252380D01*
X43357142Y-72252380D01*
X43261904Y-72300000D01*
X43214285Y-72347619D01*
X43166666Y-72442857D01*
X43166666Y-72585714D01*
X43214285Y-72680952D01*
X43261904Y-72728571D01*
X43357142Y-72776190D01*
X43738095Y-72776190D01*
X42595238Y-72680952D02*
X42690476Y-72633333D01*
X42738095Y-72585714D01*
X42785714Y-72490476D01*
X42785714Y-72442857D01*
X42738095Y-72347619D01*
X42690476Y-72300000D01*
X42595238Y-72252380D01*
X42404761Y-72252380D01*
X42309523Y-72300000D01*
X42261904Y-72347619D01*
X42214285Y-72442857D01*
X42214285Y-72490476D01*
X42261904Y-72585714D01*
X42309523Y-72633333D01*
X42404761Y-72680952D01*
X42595238Y-72680952D01*
X42690476Y-72728571D01*
X42738095Y-72776190D01*
X42785714Y-72871428D01*
X42785714Y-73061904D01*
X42738095Y-73157142D01*
X42690476Y-73204761D01*
X42595238Y-73252380D01*
X42404761Y-73252380D01*
X42309523Y-73204761D01*
X42261904Y-73157142D01*
X42214285Y-73061904D01*
X42214285Y-72871428D01*
X42261904Y-72776190D01*
X42309523Y-72728571D01*
X42404761Y-72680952D01*
%TO.C,C2*%
X50966666Y-78457142D02*
X51014285Y-78504761D01*
X51157142Y-78552380D01*
X51252380Y-78552380D01*
X51395238Y-78504761D01*
X51490476Y-78409523D01*
X51538095Y-78314285D01*
X51585714Y-78123809D01*
X51585714Y-77980952D01*
X51538095Y-77790476D01*
X51490476Y-77695238D01*
X51395238Y-77600000D01*
X51252380Y-77552380D01*
X51157142Y-77552380D01*
X51014285Y-77600000D01*
X50966666Y-77647619D01*
X50585714Y-77647619D02*
X50538095Y-77600000D01*
X50442857Y-77552380D01*
X50204761Y-77552380D01*
X50109523Y-77600000D01*
X50061904Y-77647619D01*
X50014285Y-77742857D01*
X50014285Y-77838095D01*
X50061904Y-77980952D01*
X50633333Y-78552380D01*
X50014285Y-78552380D01*
%TO.C,J1*%
X50333333Y-139452380D02*
X50333333Y-140166666D01*
X50380952Y-140309523D01*
X50476190Y-140404761D01*
X50619047Y-140452380D01*
X50714285Y-140452380D01*
X49333333Y-140452380D02*
X49904761Y-140452380D01*
X49619047Y-140452380D02*
X49619047Y-139452380D01*
X49714285Y-139595238D01*
X49809523Y-139690476D01*
X49904761Y-139738095D01*
%TO.C,C8*%
X39857142Y-94833333D02*
X39904761Y-94785714D01*
X39952380Y-94642857D01*
X39952380Y-94547619D01*
X39904761Y-94404761D01*
X39809523Y-94309523D01*
X39714285Y-94261904D01*
X39523809Y-94214285D01*
X39380952Y-94214285D01*
X39190476Y-94261904D01*
X39095238Y-94309523D01*
X39000000Y-94404761D01*
X38952380Y-94547619D01*
X38952380Y-94642857D01*
X39000000Y-94785714D01*
X39047619Y-94833333D01*
X39380952Y-95404761D02*
X39333333Y-95309523D01*
X39285714Y-95261904D01*
X39190476Y-95214285D01*
X39142857Y-95214285D01*
X39047619Y-95261904D01*
X39000000Y-95309523D01*
X38952380Y-95404761D01*
X38952380Y-95595238D01*
X39000000Y-95690476D01*
X39047619Y-95738095D01*
X39142857Y-95785714D01*
X39190476Y-95785714D01*
X39285714Y-95738095D01*
X39333333Y-95690476D01*
X39380952Y-95595238D01*
X39380952Y-95404761D01*
X39428571Y-95309523D01*
X39476190Y-95261904D01*
X39571428Y-95214285D01*
X39761904Y-95214285D01*
X39857142Y-95261904D01*
X39904761Y-95309523D01*
X39952380Y-95404761D01*
X39952380Y-95595238D01*
X39904761Y-95690476D01*
X39857142Y-95738095D01*
X39761904Y-95785714D01*
X39571428Y-95785714D01*
X39476190Y-95738095D01*
X39428571Y-95690476D01*
X39380952Y-95595238D01*
%TO.C,C12*%
X43857142Y-80357142D02*
X43904761Y-80309523D01*
X43952380Y-80166666D01*
X43952380Y-80071428D01*
X43904761Y-79928571D01*
X43809523Y-79833333D01*
X43714285Y-79785714D01*
X43523809Y-79738095D01*
X43380952Y-79738095D01*
X43190476Y-79785714D01*
X43095238Y-79833333D01*
X43000000Y-79928571D01*
X42952380Y-80071428D01*
X42952380Y-80166666D01*
X43000000Y-80309523D01*
X43047619Y-80357142D01*
X43952380Y-81309523D02*
X43952380Y-80738095D01*
X43952380Y-81023809D02*
X42952380Y-81023809D01*
X43095238Y-80928571D01*
X43190476Y-80833333D01*
X43238095Y-80738095D01*
X43047619Y-81690476D02*
X43000000Y-81738095D01*
X42952380Y-81833333D01*
X42952380Y-82071428D01*
X43000000Y-82166666D01*
X43047619Y-82214285D01*
X43142857Y-82261904D01*
X43238095Y-82261904D01*
X43380952Y-82214285D01*
X43952380Y-81642857D01*
X43952380Y-82261904D01*
%TO.C,C1*%
X44166666Y-63637142D02*
X44214285Y-63684761D01*
X44357142Y-63732380D01*
X44452380Y-63732380D01*
X44595238Y-63684761D01*
X44690476Y-63589523D01*
X44738095Y-63494285D01*
X44785714Y-63303809D01*
X44785714Y-63160952D01*
X44738095Y-62970476D01*
X44690476Y-62875238D01*
X44595238Y-62780000D01*
X44452380Y-62732380D01*
X44357142Y-62732380D01*
X44214285Y-62780000D01*
X44166666Y-62827619D01*
X43214285Y-63732380D02*
X43785714Y-63732380D01*
X43500000Y-63732380D02*
X43500000Y-62732380D01*
X43595238Y-62875238D01*
X43690476Y-62970476D01*
X43785714Y-63018095D01*
%TO.C,R2*%
X54166666Y-65452380D02*
X54500000Y-64976190D01*
X54738095Y-65452380D02*
X54738095Y-64452380D01*
X54357142Y-64452380D01*
X54261904Y-64500000D01*
X54214285Y-64547619D01*
X54166666Y-64642857D01*
X54166666Y-64785714D01*
X54214285Y-64880952D01*
X54261904Y-64928571D01*
X54357142Y-64976190D01*
X54738095Y-64976190D01*
X53785714Y-64547619D02*
X53738095Y-64500000D01*
X53642857Y-64452380D01*
X53404761Y-64452380D01*
X53309523Y-64500000D01*
X53261904Y-64547619D01*
X53214285Y-64642857D01*
X53214285Y-64738095D01*
X53261904Y-64880952D01*
X53833333Y-65452380D01*
X53214285Y-65452380D01*
%TO.C,C10*%
X43857142Y-87357142D02*
X43904761Y-87309523D01*
X43952380Y-87166666D01*
X43952380Y-87071428D01*
X43904761Y-86928571D01*
X43809523Y-86833333D01*
X43714285Y-86785714D01*
X43523809Y-86738095D01*
X43380952Y-86738095D01*
X43190476Y-86785714D01*
X43095238Y-86833333D01*
X43000000Y-86928571D01*
X42952380Y-87071428D01*
X42952380Y-87166666D01*
X43000000Y-87309523D01*
X43047619Y-87357142D01*
X43952380Y-88309523D02*
X43952380Y-87738095D01*
X43952380Y-88023809D02*
X42952380Y-88023809D01*
X43095238Y-87928571D01*
X43190476Y-87833333D01*
X43238095Y-87738095D01*
X42952380Y-88928571D02*
X42952380Y-89023809D01*
X43000000Y-89119047D01*
X43047619Y-89166666D01*
X43142857Y-89214285D01*
X43333333Y-89261904D01*
X43571428Y-89261904D01*
X43761904Y-89214285D01*
X43857142Y-89166666D01*
X43904761Y-89119047D01*
X43952380Y-89023809D01*
X43952380Y-88928571D01*
X43904761Y-88833333D01*
X43857142Y-88785714D01*
X43761904Y-88738095D01*
X43571428Y-88690476D01*
X43333333Y-88690476D01*
X43142857Y-88738095D01*
X43047619Y-88785714D01*
X43000000Y-88833333D01*
X42952380Y-88928571D01*
%TO.C,R5*%
X51882380Y-50833333D02*
X51406190Y-50500000D01*
X51882380Y-50261904D02*
X50882380Y-50261904D01*
X50882380Y-50642857D01*
X50930000Y-50738095D01*
X50977619Y-50785714D01*
X51072857Y-50833333D01*
X51215714Y-50833333D01*
X51310952Y-50785714D01*
X51358571Y-50738095D01*
X51406190Y-50642857D01*
X51406190Y-50261904D01*
X50882380Y-51738095D02*
X50882380Y-51261904D01*
X51358571Y-51214285D01*
X51310952Y-51261904D01*
X51263333Y-51357142D01*
X51263333Y-51595238D01*
X51310952Y-51690476D01*
X51358571Y-51738095D01*
X51453809Y-51785714D01*
X51691904Y-51785714D01*
X51787142Y-51738095D01*
X51834761Y-51690476D01*
X51882380Y-51595238D01*
X51882380Y-51357142D01*
X51834761Y-51261904D01*
X51787142Y-51214285D01*
%TO.C,D2*%
X40238095Y-129452380D02*
X40238095Y-128452380D01*
X40000000Y-128452380D01*
X39857142Y-128500000D01*
X39761904Y-128595238D01*
X39714285Y-128690476D01*
X39666666Y-128880952D01*
X39666666Y-129023809D01*
X39714285Y-129214285D01*
X39761904Y-129309523D01*
X39857142Y-129404761D01*
X40000000Y-129452380D01*
X40238095Y-129452380D01*
X39285714Y-128547619D02*
X39238095Y-128500000D01*
X39142857Y-128452380D01*
X38904761Y-128452380D01*
X38809523Y-128500000D01*
X38761904Y-128547619D01*
X38714285Y-128642857D01*
X38714285Y-128738095D01*
X38761904Y-128880952D01*
X39333333Y-129452380D01*
X38714285Y-129452380D01*
%TO.C,R6*%
X40452380Y-69333333D02*
X39976190Y-69000000D01*
X40452380Y-68761904D02*
X39452380Y-68761904D01*
X39452380Y-69142857D01*
X39500000Y-69238095D01*
X39547619Y-69285714D01*
X39642857Y-69333333D01*
X39785714Y-69333333D01*
X39880952Y-69285714D01*
X39928571Y-69238095D01*
X39976190Y-69142857D01*
X39976190Y-68761904D01*
X39452380Y-70190476D02*
X39452380Y-70000000D01*
X39500000Y-69904761D01*
X39547619Y-69857142D01*
X39690476Y-69761904D01*
X39880952Y-69714285D01*
X40261904Y-69714285D01*
X40357142Y-69761904D01*
X40404761Y-69809523D01*
X40452380Y-69904761D01*
X40452380Y-70095238D01*
X40404761Y-70190476D01*
X40357142Y-70238095D01*
X40261904Y-70285714D01*
X40023809Y-70285714D01*
X39928571Y-70238095D01*
X39880952Y-70190476D01*
X39833333Y-70095238D01*
X39833333Y-69904761D01*
X39880952Y-69809523D01*
X39928571Y-69761904D01*
X40023809Y-69714285D01*
%TO.C,C6*%
X43466666Y-118557142D02*
X43514285Y-118604761D01*
X43657142Y-118652380D01*
X43752380Y-118652380D01*
X43895238Y-118604761D01*
X43990476Y-118509523D01*
X44038095Y-118414285D01*
X44085714Y-118223809D01*
X44085714Y-118080952D01*
X44038095Y-117890476D01*
X43990476Y-117795238D01*
X43895238Y-117700000D01*
X43752380Y-117652380D01*
X43657142Y-117652380D01*
X43514285Y-117700000D01*
X43466666Y-117747619D01*
X42609523Y-117652380D02*
X42800000Y-117652380D01*
X42895238Y-117700000D01*
X42942857Y-117747619D01*
X43038095Y-117890476D01*
X43085714Y-118080952D01*
X43085714Y-118461904D01*
X43038095Y-118557142D01*
X42990476Y-118604761D01*
X42895238Y-118652380D01*
X42704761Y-118652380D01*
X42609523Y-118604761D01*
X42561904Y-118557142D01*
X42514285Y-118461904D01*
X42514285Y-118223809D01*
X42561904Y-118128571D01*
X42609523Y-118080952D01*
X42704761Y-118033333D01*
X42895238Y-118033333D01*
X42990476Y-118080952D01*
X43038095Y-118128571D01*
X43085714Y-118223809D01*
%TO.C,C5*%
X50966666Y-98557142D02*
X51014285Y-98604761D01*
X51157142Y-98652380D01*
X51252380Y-98652380D01*
X51395238Y-98604761D01*
X51490476Y-98509523D01*
X51538095Y-98414285D01*
X51585714Y-98223809D01*
X51585714Y-98080952D01*
X51538095Y-97890476D01*
X51490476Y-97795238D01*
X51395238Y-97700000D01*
X51252380Y-97652380D01*
X51157142Y-97652380D01*
X51014285Y-97700000D01*
X50966666Y-97747619D01*
X50061904Y-97652380D02*
X50538095Y-97652380D01*
X50585714Y-98128571D01*
X50538095Y-98080952D01*
X50442857Y-98033333D01*
X50204761Y-98033333D01*
X50109523Y-98080952D01*
X50061904Y-98128571D01*
X50014285Y-98223809D01*
X50014285Y-98461904D01*
X50061904Y-98557142D01*
X50109523Y-98604761D01*
X50204761Y-98652380D01*
X50442857Y-98652380D01*
X50538095Y-98604761D01*
X50585714Y-98557142D01*
%TO.C,D1*%
X40238095Y-144452380D02*
X40238095Y-143452380D01*
X40000000Y-143452380D01*
X39857142Y-143500000D01*
X39761904Y-143595238D01*
X39714285Y-143690476D01*
X39666666Y-143880952D01*
X39666666Y-144023809D01*
X39714285Y-144214285D01*
X39761904Y-144309523D01*
X39857142Y-144404761D01*
X40000000Y-144452380D01*
X40238095Y-144452380D01*
X38714285Y-144452380D02*
X39285714Y-144452380D01*
X39000000Y-144452380D02*
X39000000Y-143452380D01*
X39095238Y-143595238D01*
X39190476Y-143690476D01*
X39285714Y-143738095D01*
%TO.C,R7*%
X41952380Y-69333333D02*
X41476190Y-69000000D01*
X41952380Y-68761904D02*
X40952380Y-68761904D01*
X40952380Y-69142857D01*
X41000000Y-69238095D01*
X41047619Y-69285714D01*
X41142857Y-69333333D01*
X41285714Y-69333333D01*
X41380952Y-69285714D01*
X41428571Y-69238095D01*
X41476190Y-69142857D01*
X41476190Y-68761904D01*
X40952380Y-69666666D02*
X40952380Y-70333333D01*
X41952380Y-69904761D01*
%TO.C,C4*%
X49166666Y-67357142D02*
X49214285Y-67404761D01*
X49357142Y-67452380D01*
X49452380Y-67452380D01*
X49595238Y-67404761D01*
X49690476Y-67309523D01*
X49738095Y-67214285D01*
X49785714Y-67023809D01*
X49785714Y-66880952D01*
X49738095Y-66690476D01*
X49690476Y-66595238D01*
X49595238Y-66500000D01*
X49452380Y-66452380D01*
X49357142Y-66452380D01*
X49214285Y-66500000D01*
X49166666Y-66547619D01*
X48309523Y-66785714D02*
X48309523Y-67452380D01*
X48547619Y-66404761D02*
X48785714Y-67119047D01*
X48166666Y-67119047D01*
%TO.C,C7*%
X58416666Y-118557142D02*
X58464285Y-118604761D01*
X58607142Y-118652380D01*
X58702380Y-118652380D01*
X58845238Y-118604761D01*
X58940476Y-118509523D01*
X58988095Y-118414285D01*
X59035714Y-118223809D01*
X59035714Y-118080952D01*
X58988095Y-117890476D01*
X58940476Y-117795238D01*
X58845238Y-117700000D01*
X58702380Y-117652380D01*
X58607142Y-117652380D01*
X58464285Y-117700000D01*
X58416666Y-117747619D01*
X58083333Y-117652380D02*
X57416666Y-117652380D01*
X57845238Y-118652380D01*
%TO.C,C11*%
X46442857Y-126857142D02*
X46490476Y-126904761D01*
X46633333Y-126952380D01*
X46728571Y-126952380D01*
X46871428Y-126904761D01*
X46966666Y-126809523D01*
X47014285Y-126714285D01*
X47061904Y-126523809D01*
X47061904Y-126380952D01*
X47014285Y-126190476D01*
X46966666Y-126095238D01*
X46871428Y-126000000D01*
X46728571Y-125952380D01*
X46633333Y-125952380D01*
X46490476Y-126000000D01*
X46442857Y-126047619D01*
X45490476Y-126952380D02*
X46061904Y-126952380D01*
X45776190Y-126952380D02*
X45776190Y-125952380D01*
X45871428Y-126095238D01*
X45966666Y-126190476D01*
X46061904Y-126238095D01*
X44538095Y-126952380D02*
X45109523Y-126952380D01*
X44823809Y-126952380D02*
X44823809Y-125952380D01*
X44919047Y-126095238D01*
X45014285Y-126190476D01*
X45109523Y-126238095D01*
%TO.C,D3*%
X61238095Y-144452380D02*
X61238095Y-143452380D01*
X61000000Y-143452380D01*
X60857142Y-143500000D01*
X60761904Y-143595238D01*
X60714285Y-143690476D01*
X60666666Y-143880952D01*
X60666666Y-144023809D01*
X60714285Y-144214285D01*
X60761904Y-144309523D01*
X60857142Y-144404761D01*
X61000000Y-144452380D01*
X61238095Y-144452380D01*
X60333333Y-143452380D02*
X59714285Y-143452380D01*
X60047619Y-143833333D01*
X59904761Y-143833333D01*
X59809523Y-143880952D01*
X59761904Y-143928571D01*
X59714285Y-144023809D01*
X59714285Y-144261904D01*
X59761904Y-144357142D01*
X59809523Y-144404761D01*
X59904761Y-144452380D01*
X60190476Y-144452380D01*
X60285714Y-144404761D01*
X60333333Y-144357142D01*
%TO.C,R1*%
X44166666Y-58952380D02*
X44500000Y-58476190D01*
X44738095Y-58952380D02*
X44738095Y-57952380D01*
X44357142Y-57952380D01*
X44261904Y-58000000D01*
X44214285Y-58047619D01*
X44166666Y-58142857D01*
X44166666Y-58285714D01*
X44214285Y-58380952D01*
X44261904Y-58428571D01*
X44357142Y-58476190D01*
X44738095Y-58476190D01*
X43214285Y-58952380D02*
X43785714Y-58952380D01*
X43500000Y-58952380D02*
X43500000Y-57952380D01*
X43595238Y-58095238D01*
X43690476Y-58190476D01*
X43785714Y-58238095D01*
%TO.C,C13*%
X51442857Y-126857142D02*
X51490476Y-126904761D01*
X51633333Y-126952380D01*
X51728571Y-126952380D01*
X51871428Y-126904761D01*
X51966666Y-126809523D01*
X52014285Y-126714285D01*
X52061904Y-126523809D01*
X52061904Y-126380952D01*
X52014285Y-126190476D01*
X51966666Y-126095238D01*
X51871428Y-126000000D01*
X51728571Y-125952380D01*
X51633333Y-125952380D01*
X51490476Y-126000000D01*
X51442857Y-126047619D01*
X50490476Y-126952380D02*
X51061904Y-126952380D01*
X50776190Y-126952380D02*
X50776190Y-125952380D01*
X50871428Y-126095238D01*
X50966666Y-126190476D01*
X51061904Y-126238095D01*
X50157142Y-125952380D02*
X49538095Y-125952380D01*
X49871428Y-126333333D01*
X49728571Y-126333333D01*
X49633333Y-126380952D01*
X49585714Y-126428571D01*
X49538095Y-126523809D01*
X49538095Y-126761904D01*
X49585714Y-126857142D01*
X49633333Y-126904761D01*
X49728571Y-126952380D01*
X50014285Y-126952380D01*
X50109523Y-126904761D01*
X50157142Y-126857142D01*
%TO.C,U1*%
X62761904Y-46452380D02*
X62761904Y-47261904D01*
X62714285Y-47357142D01*
X62666666Y-47404761D01*
X62571428Y-47452380D01*
X62380952Y-47452380D01*
X62285714Y-47404761D01*
X62238095Y-47357142D01*
X62190476Y-47261904D01*
X62190476Y-46452380D01*
X61190476Y-47452380D02*
X61761904Y-47452380D01*
X61476190Y-47452380D02*
X61476190Y-46452380D01*
X61571428Y-46595238D01*
X61666666Y-46690476D01*
X61761904Y-46738095D01*
D12*
%TO.C,R4*%
X51977500Y-58762742D02*
X51977500Y-59237258D01*
X53022500Y-58762742D02*
X53022500Y-59237258D01*
%TO.C,R3*%
X46977500Y-58762742D02*
X46977500Y-59237258D01*
X48022500Y-58762742D02*
X48022500Y-59237258D01*
%TO.C,C3*%
X59510000Y-50915580D02*
X59510000Y-50634420D01*
X58490000Y-50915580D02*
X58490000Y-50634420D01*
%TO.C,C9*%
X50940580Y-152510000D02*
X50659420Y-152510000D01*
X50940580Y-151490000D02*
X50659420Y-151490000D01*
%TO.C,D4*%
X62250000Y-132400000D02*
X58950000Y-132400000D01*
X62250000Y-132400000D02*
X62250000Y-127000000D01*
X58950000Y-132400000D02*
X58950000Y-127000000D01*
%TO.C,R8*%
X40737258Y-72277500D02*
X40262742Y-72277500D01*
X40737258Y-73322500D02*
X40262742Y-73322500D01*
%TO.C,C2*%
X50659420Y-79090000D02*
X50940580Y-79090000D01*
X50659420Y-80110000D02*
X50940580Y-80110000D01*
%TO.C,J1*%
X52600000Y-139490000D02*
X52600000Y-140510000D01*
X52600000Y-129780000D02*
X47400000Y-129780000D01*
X47400000Y-131870000D02*
X47400000Y-132890000D01*
X47400000Y-144570000D02*
X47400000Y-145590000D01*
X47400000Y-149650000D02*
X47400000Y-150220000D01*
X47400000Y-142030000D02*
X47400000Y-143050000D01*
X47400000Y-139490000D02*
X47400000Y-140510000D01*
X47400000Y-129780000D02*
X47400000Y-130350000D01*
X54040000Y-130350000D02*
X52600000Y-130350000D01*
X47400000Y-136950000D02*
X47400000Y-137970000D01*
X52600000Y-131870000D02*
X52600000Y-132890000D01*
X52600000Y-147110000D02*
X52600000Y-148130000D01*
X52600000Y-134410000D02*
X52600000Y-135430000D01*
X47400000Y-134410000D02*
X47400000Y-135430000D01*
X47400000Y-147110000D02*
X47400000Y-148130000D01*
X52600000Y-142030000D02*
X52600000Y-143050000D01*
X52600000Y-144570000D02*
X52600000Y-145590000D01*
X52600000Y-136950000D02*
X52600000Y-137970000D01*
X52600000Y-129780000D02*
X52600000Y-130350000D01*
X52600000Y-149650000D02*
X52600000Y-150220000D01*
X52600000Y-150220000D02*
X47400000Y-150220000D01*
%TO.C,C8*%
X39810000Y-98750000D02*
X39310000Y-98750000D01*
X39195563Y-98260000D02*
X40260000Y-97195563D01*
X36804437Y-98260000D02*
X35740000Y-97195563D01*
X35740000Y-97195563D02*
X35740000Y-93740000D01*
X39560000Y-99000000D02*
X39560000Y-98500000D01*
X39195563Y-98260000D02*
X39060000Y-98260000D01*
X40260000Y-97195563D02*
X40260000Y-93740000D01*
X35740000Y-93740000D02*
X36940000Y-93740000D01*
X36804437Y-98260000D02*
X36940000Y-98260000D01*
X40260000Y-93740000D02*
X39060000Y-93740000D01*
%TO.C,C12*%
X43195563Y-78740000D02*
X43060000Y-78740000D01*
X40804437Y-78740000D02*
X40940000Y-78740000D01*
X44260000Y-79804437D02*
X44260000Y-83260000D01*
X40440000Y-78000000D02*
X40440000Y-78500000D01*
X39740000Y-83260000D02*
X40940000Y-83260000D01*
X40190000Y-78250000D02*
X40690000Y-78250000D01*
X44260000Y-83260000D02*
X43060000Y-83260000D01*
X40804437Y-78740000D02*
X39740000Y-79804437D01*
X43195563Y-78740000D02*
X44260000Y-79804437D01*
X39740000Y-79804437D02*
X39740000Y-83260000D01*
%TO.C,C1*%
X43859420Y-62360000D02*
X44140580Y-62360000D01*
X43859420Y-61340000D02*
X44140580Y-61340000D01*
%TO.C,R2*%
X51412742Y-65522500D02*
X51887258Y-65522500D01*
X51412742Y-64477500D02*
X51887258Y-64477500D01*
%TO.C,C10*%
X43195563Y-85740000D02*
X43060000Y-85740000D01*
X44260000Y-86804437D02*
X44260000Y-90260000D01*
X40804437Y-85740000D02*
X40940000Y-85740000D01*
X39740000Y-90260000D02*
X40940000Y-90260000D01*
X43195563Y-85740000D02*
X44260000Y-86804437D01*
X39740000Y-86804437D02*
X39740000Y-90260000D01*
X40190000Y-85250000D02*
X40690000Y-85250000D01*
X40440000Y-85000000D02*
X40440000Y-85500000D01*
X40804437Y-85740000D02*
X39740000Y-86804437D01*
X44260000Y-90260000D02*
X43060000Y-90260000D01*
%TO.C,R5*%
X49477500Y-51237258D02*
X49477500Y-50762742D01*
X50522500Y-51237258D02*
X50522500Y-50762742D01*
%TO.C,D2*%
X41050000Y-132400000D02*
X37750000Y-132400000D01*
X41050000Y-132400000D02*
X41050000Y-127000000D01*
X37750000Y-132400000D02*
X37750000Y-127000000D01*
%TO.C,R6*%
X39477500Y-66612742D02*
X39477500Y-67087258D01*
X40522500Y-66612742D02*
X40522500Y-67087258D01*
%TO.C,C6*%
X43159420Y-120210000D02*
X43440580Y-120210000D01*
X43159420Y-119190000D02*
X43440580Y-119190000D01*
%TO.C,C5*%
X50659420Y-99190000D02*
X50940580Y-99190000D01*
X50659420Y-100210000D02*
X50940580Y-100210000D01*
%TO.C,D1*%
X41050000Y-147400000D02*
X37750000Y-147400000D01*
X41050000Y-147400000D02*
X41050000Y-142000000D01*
X37750000Y-147400000D02*
X37750000Y-142000000D01*
%TO.C,R7*%
X40977500Y-66612742D02*
X40977500Y-67087258D01*
X42022500Y-66612742D02*
X42022500Y-67087258D01*
%TO.C,C4*%
X51509420Y-67510000D02*
X51790580Y-67510000D01*
X51509420Y-66490000D02*
X51790580Y-66490000D01*
%TO.C,C7*%
X58109420Y-119190000D02*
X58390580Y-119190000D01*
X58109420Y-120210000D02*
X58390580Y-120210000D01*
%TO.C,C11*%
X45659420Y-128510000D02*
X45940580Y-128510000D01*
X45659420Y-127490000D02*
X45940580Y-127490000D01*
%TO.C,D3*%
X62250000Y-147400000D02*
X58950000Y-147400000D01*
X58950000Y-147400000D02*
X58950000Y-142000000D01*
X62250000Y-147400000D02*
X62250000Y-142000000D01*
%TO.C,R1*%
X43762742Y-59327500D02*
X44237258Y-59327500D01*
X43762742Y-60372500D02*
X44237258Y-60372500D01*
%TO.C,C13*%
X50659420Y-128510000D02*
X50940580Y-128510000D01*
X50659420Y-127490000D02*
X50940580Y-127490000D01*
%TO.C,U1*%
X63000000Y-58750000D02*
X61670000Y-58750000D01*
X35500000Y-49500000D02*
X35500000Y-91500000D01*
X61670000Y-61350000D02*
X61670000Y-91890000D01*
X38330000Y-91890000D02*
X35670000Y-91890000D01*
X38330000Y-56270000D02*
X38330000Y-76650000D01*
X64330000Y-61350000D02*
X61670000Y-61350000D01*
X64500000Y-91500000D02*
X64500000Y-49500000D01*
X61670000Y-58750000D02*
X61670000Y-60080000D01*
X38330000Y-56270000D02*
X35670000Y-56270000D01*
X37000000Y-79070000D02*
X35670000Y-79070000D01*
X38330000Y-76650000D02*
X35670000Y-76650000D01*
X38330000Y-81670000D02*
X35670000Y-81670000D01*
X38330000Y-81670000D02*
X38330000Y-91890000D01*
X64330000Y-91890000D02*
X61670000Y-91890000D01*
X63000000Y-48000000D02*
X37000000Y-48000000D01*
X37000000Y-93000000D02*
X63000000Y-93000000D01*
X37000000Y-53670000D02*
X35670000Y-53670000D01*
X35500000Y-91500000D02*
G75*
G03*
X37000000Y-93000000I1500000J0D01*
G01*
X64500000Y-49500000D02*
G75*
G03*
X63000000Y-48000000I-1500001J-1D01*
G01*
X63000000Y-93000000D02*
G75*
G03*
X64500000Y-91500000I-1J1500001D01*
G01*
X37000000Y-48000000D02*
G75*
G03*
X35500000Y-49500000I0J-1500000D01*
G01*
%TD*%
M02*
