M48
; DRILL file {KiCad (6.0.9)} date Sun 29 Jan 2023 17:20:04 CET
; FORMAT={-:-/ absolute / inch / decimal}
; #@! TF.CreationDate,2023-01-29T17:20:04+01:00
; #@! TF.GenerationSoftware,Kicad,Pcbnew,(6.0.9)
; #@! TF.FileFunction,Plated,1,2,PTH
FMAT,2
INCH
; #@! TA.AperFunction,Plated,PTH,ViaDrill
T1C0.0118
; #@! TA.AperFunction,Plated,PTH,ViaDrill
T2C0.0157
; #@! TA.AperFunction,Plated,PTH,ComponentDrill
T3C0.0394
; #@! TA.AperFunction,Plated,PTH,ComponentDrill
T4C0.0433
; #@! TA.AperFunction,Plated,PTH,ComponentDrill
T5C0.0433
; #@! TA.AperFunction,Plated,PTH,ComponentDrill
T6C0.0480
; #@! TA.AperFunction,Plated,PTH,ComponentDrill
T7C0.0559
; #@! TA.AperFunction,Plated,PTH,ComponentDrill
T8C0.0563
; #@! TA.AperFunction,Plated,PTH,ComponentDrill
T9C0.0826
%
G90
G05
T1
X1.4488Y-3.8504
X1.4528Y-1.8189
X1.4528Y-6.0472
X1.4606Y-4.6496
X1.4724Y-2.0748
X1.4843Y-4.9291
X1.5Y-5.1575
X1.5Y-5.748
X1.5118Y-4.4134
X1.5433Y-3.8504
X1.6024Y-5.1575
X1.6024Y-5.748
X1.6063Y-3.2598
X1.6063Y-3.5354
X1.6929Y-5.0984
X1.7008Y-3.2598
X1.7008Y-3.5354
X1.7008Y-3.874
X1.7087Y-4.2126
X1.752Y-2.6496
X1.7677Y-4.7126
X1.7933Y-5.563
X1.7933Y-5.6614
X1.7933Y-5.7618
X1.7953Y-2.435
X1.8228Y-3.1732
X1.8652Y-5.0394
X1.8937Y-4.3701
X1.9173Y-3.1772
X1.9213Y-5.9213
X1.9252Y-2.9764
X1.9685Y-2.0709
X1.9685Y-5.563
X1.9685Y-5.6614
X1.9685Y-5.7638
X2.0197Y-2.9331
X2.0315Y-2.7677
X2.0354Y-1.811
X2.0472Y-4.6417
X2.063Y-3.1339
X2.063Y-3.9252
X2.063Y-5.0394
X2.063Y-5.9843
X2.0945Y-4.252
X2.0945Y-4.7402
X2.0965Y-2.6378
X2.1437Y-5.563
X2.1437Y-5.6614
X2.1437Y-5.7618
X2.1969Y-2.5
X2.2008Y-2.7559
X2.2205Y-4.3661
X2.3228Y-1.937
X2.3346Y-5.1575
X2.3346Y-5.748
X2.3553Y-4.7126
X2.437Y-5.1575
X2.437Y-5.748
X2.4567Y-4.3976
X2.4685Y-4.6575
X2.4803Y-6.0433
X2.5039Y-5.5945
T2
X1.6673Y-2.3563
X1.8701Y-2.2579
X1.9488Y-4.1299
X1.9685Y-2.5595
X2.0669Y-2.2579
T3
X1.4567Y-2.1654
X1.4567Y-2.2654
X1.4567Y-2.3654
X1.4567Y-2.4654
X1.4567Y-2.5654
X1.4567Y-2.6654
X1.4567Y-2.7654
X1.4567Y-2.8654
X1.4567Y-2.9654
X1.4567Y-3.1654
X1.4567Y-3.2654
X1.4567Y-3.3654
X1.4567Y-3.4654
X1.4567Y-3.5654
X1.5748Y-4.8228
X1.6732Y-4.8228
X1.7717Y-4.8228
X1.8701Y-3.248
X1.8701Y-4.0354
X1.9685Y-3.248
X1.9685Y-4.0354
X2.0669Y-3.248
X2.0669Y-4.0354
X2.1654Y-4.8228
X2.2638Y-4.8228
X2.3622Y-4.8228
X2.4803Y-2.3654
X2.4803Y-2.4654
X2.4803Y-2.5654
X2.4803Y-2.6654
X2.4803Y-2.7654
X2.4803Y-2.8654
X2.4803Y-2.9654
X2.4803Y-3.0654
X2.4803Y-3.1654
X2.4803Y-3.2654
X2.4803Y-3.3654
X2.4803Y-3.4654
X2.4803Y-3.5654
T4
X1.8111Y-1.8899
X1.8701Y-2.4606
X1.8898Y-1.8899
X1.9685Y-1.8899
X1.9685Y-2.4606
X2.0472Y-1.8899
X2.0669Y-2.4606
X2.1259Y-1.8899
T6
X1.6732Y-5.452
X1.6732Y-6.0425
X2.2638Y-5.452
X2.2638Y-6.0425
T7
X1.6732Y-5.3299
X1.6732Y-5.9205
X2.2638Y-5.3299
X2.2638Y-5.9205
T8
X1.6732Y-5.0031
X1.6732Y-5.5937
X2.2638Y-5.0031
X2.2638Y-5.5937
T9
X1.75Y-2.1654
X2.187Y-2.1654
T5
G00X1.4843Y-4.5413
M15
G01X1.4843Y-4.5138
M16
G05
G00X1.7795Y-2.9665
M15
G01X1.7795Y-2.939
M16
G05
G00X1.7795Y-3.7539
M15
G01X1.7795Y-3.7264
M16
G05
G00X1.8622Y-4.5413
M15
G01X1.8622Y-4.5138
M16
G05
G00X2.0748Y-4.5413
M15
G01X2.0748Y-4.5138
M16
G05
G00X2.1575Y-2.9665
M15
G01X2.1575Y-2.939
M16
G05
G00X2.1575Y-3.7539
M15
G01X2.1575Y-3.7264
M16
G05
G00X2.4528Y-4.5413
M15
G01X2.4528Y-4.5138
M16
G05
T0
M30
