%TF.GenerationSoftware,KiCad,Pcbnew,(6.0.9)*%
%TF.CreationDate,2023-01-29T17:20:29+01:00*%
%TF.ProjectId,wvtbl_main_board,77767462-6c5f-46d6-9169-6e5f626f6172,rev?*%
%TF.SameCoordinates,Original*%
%TF.FileFunction,Soldermask,Bot*%
%TF.FilePolarity,Negative*%
%FSLAX46Y46*%
G04 Gerber Fmt 4.6, Leading zero omitted, Abs format (unit mm)*
G04 Created by KiCad (PCBNEW (6.0.9)) date 2023-01-29 17:20:29*
%MOMM*%
%LPD*%
G01*
G04 APERTURE LIST*
G04 Aperture macros list*
%AMRoundRect*
0 Rectangle with rounded corners*
0 $1 Rounding radius*
0 $2 $3 $4 $5 $6 $7 $8 $9 X,Y pos of 4 corners*
0 Add a 4 corners polygon primitive as box body*
4,1,4,$2,$3,$4,$5,$6,$7,$8,$9,$2,$3,0*
0 Add four circle primitives for the rounded corners*
1,1,$1+$1,$2,$3*
1,1,$1+$1,$4,$5*
1,1,$1+$1,$6,$7*
1,1,$1+$1,$8,$9*
0 Add four rect primitives between the rounded corners*
20,1,$1+$1,$2,$3,$4,$5,0*
20,1,$1+$1,$4,$5,$6,$7,0*
20,1,$1+$1,$6,$7,$8,$9,0*
20,1,$1+$1,$8,$9,$2,$3,0*%
G04 Aperture macros list end*
%ADD10O,2.720000X3.240000*%
%ADD11R,1.800000X1.800000*%
%ADD12C,1.800000*%
%ADD13R,1.930000X1.830000*%
%ADD14C,2.130000*%
%ADD15C,1.981200*%
%ADD16C,2.001520*%
%ADD17C,3.317240*%
%ADD18RoundRect,0.200000X-0.275000X0.200000X-0.275000X-0.200000X0.275000X-0.200000X0.275000X0.200000X0*%
%ADD19RoundRect,0.225000X0.250000X-0.225000X0.250000X0.225000X-0.250000X0.225000X-0.250000X-0.225000X0*%
%ADD20RoundRect,0.225000X0.225000X0.250000X-0.225000X0.250000X-0.225000X-0.250000X0.225000X-0.250000X0*%
%ADD21R,1.800000X2.500000*%
%ADD22RoundRect,0.200000X0.200000X0.275000X-0.200000X0.275000X-0.200000X-0.275000X0.200000X-0.275000X0*%
%ADD23RoundRect,0.225000X-0.225000X-0.250000X0.225000X-0.250000X0.225000X0.250000X-0.225000X0.250000X0*%
%ADD24R,3.150000X1.000000*%
%ADD25RoundRect,0.250000X0.550000X-1.050000X0.550000X1.050000X-0.550000X1.050000X-0.550000X-1.050000X0*%
%ADD26RoundRect,0.250000X-0.550000X1.050000X-0.550000X-1.050000X0.550000X-1.050000X0.550000X1.050000X0*%
%ADD27RoundRect,0.200000X-0.200000X-0.275000X0.200000X-0.275000X0.200000X0.275000X-0.200000X0.275000X0*%
%ADD28RoundRect,0.200000X0.275000X-0.200000X0.275000X0.200000X-0.275000X0.200000X-0.275000X-0.200000X0*%
%ADD29R,1.700000X1.700000*%
%ADD30O,1.700000X1.700000*%
G04 APERTURE END LIST*
D10*
%TO.C,RV2*%
X54800000Y-95000000D03*
X45200000Y-95000000D03*
D11*
X47500000Y-102500000D03*
D12*
X50000000Y-102500000D03*
X52500000Y-102500000D03*
%TD*%
D13*
%TO.C,J5*%
X57500000Y-153480000D03*
D14*
X57500000Y-142080000D03*
X57500000Y-150380000D03*
%TD*%
D15*
%TO.C,S1*%
X46002040Y-48002300D03*
X48001020Y-48002300D03*
X50000000Y-48002300D03*
X51998980Y-48002300D03*
X53997960Y-48002300D03*
D16*
X47500640Y-62498080D03*
X52499360Y-62498080D03*
X50000000Y-62498080D03*
D17*
X44450100Y-55000000D03*
X55549900Y-55000000D03*
%TD*%
D13*
%TO.C,J2*%
X42500000Y-153480000D03*
D14*
X42500000Y-142080000D03*
X42500000Y-150380000D03*
%TD*%
D10*
%TO.C,RV4*%
X52700000Y-115000000D03*
X62300000Y-115000000D03*
D11*
X55000000Y-122500000D03*
D12*
X57500000Y-122500000D03*
X60000000Y-122500000D03*
%TD*%
D10*
%TO.C,RV3*%
X47300000Y-115000000D03*
X37700000Y-115000000D03*
D11*
X40000000Y-122500000D03*
D12*
X42500000Y-122500000D03*
X45000000Y-122500000D03*
%TD*%
D13*
%TO.C,J4*%
X57500000Y-138480000D03*
D14*
X57500000Y-127080000D03*
X57500000Y-135380000D03*
%TD*%
D13*
%TO.C,J3*%
X42500000Y-138480000D03*
D14*
X42500000Y-127080000D03*
X42500000Y-135380000D03*
%TD*%
D10*
%TO.C,RV1*%
X45200000Y-75000000D03*
X54800000Y-75000000D03*
D11*
X47500000Y-82500000D03*
D12*
X50000000Y-82500000D03*
X52500000Y-82500000D03*
%TD*%
D18*
%TO.C,R4*%
X52500000Y-58175000D03*
X52500000Y-59825000D03*
%TD*%
%TO.C,R3*%
X47500000Y-58175000D03*
X47500000Y-59825000D03*
%TD*%
D19*
%TO.C,C3*%
X59000000Y-51550000D03*
X59000000Y-50000000D03*
%TD*%
D20*
%TO.C,C9*%
X51575000Y-152000000D03*
X50025000Y-152000000D03*
%TD*%
D21*
%TO.C,D4*%
X60600000Y-131000000D03*
X60600000Y-127000000D03*
%TD*%
D22*
%TO.C,R8*%
X41325000Y-72800000D03*
X39675000Y-72800000D03*
%TD*%
D23*
%TO.C,C2*%
X50025000Y-79600000D03*
X51575000Y-79600000D03*
%TD*%
D24*
%TO.C,J1*%
X52525000Y-131110000D03*
X47475000Y-131110000D03*
X52525000Y-133650000D03*
X47475000Y-133650000D03*
X52525000Y-136190000D03*
X47475000Y-136190000D03*
X52525000Y-138730000D03*
X47475000Y-138730000D03*
X52525000Y-141270000D03*
X47475000Y-141270000D03*
X52525000Y-143810000D03*
X47475000Y-143810000D03*
X52525000Y-146350000D03*
X47475000Y-146350000D03*
X52525000Y-148890000D03*
X47475000Y-148890000D03*
%TD*%
D25*
%TO.C,C8*%
X38000000Y-97800000D03*
X38000000Y-94200000D03*
%TD*%
D26*
%TO.C,C12*%
X42000000Y-79200000D03*
X42000000Y-82800000D03*
%TD*%
D23*
%TO.C,C1*%
X43225000Y-61850000D03*
X44775000Y-61850000D03*
%TD*%
D27*
%TO.C,R2*%
X50825000Y-65000000D03*
X52475000Y-65000000D03*
%TD*%
D26*
%TO.C,C10*%
X42000000Y-86200000D03*
X42000000Y-89800000D03*
%TD*%
D28*
%TO.C,R5*%
X50000000Y-51825000D03*
X50000000Y-50175000D03*
%TD*%
D21*
%TO.C,D2*%
X39400000Y-131000000D03*
X39400000Y-127000000D03*
%TD*%
D18*
%TO.C,R6*%
X40000000Y-66025000D03*
X40000000Y-67675000D03*
%TD*%
D23*
%TO.C,C6*%
X42525000Y-119700000D03*
X44075000Y-119700000D03*
%TD*%
%TO.C,C5*%
X50025000Y-99700000D03*
X51575000Y-99700000D03*
%TD*%
D21*
%TO.C,D1*%
X39400000Y-146000000D03*
X39400000Y-142000000D03*
%TD*%
D18*
%TO.C,R7*%
X41500000Y-66025000D03*
X41500000Y-67675000D03*
%TD*%
D23*
%TO.C,C4*%
X50875000Y-67000000D03*
X52425000Y-67000000D03*
%TD*%
%TO.C,C7*%
X57475000Y-119700000D03*
X59025000Y-119700000D03*
%TD*%
%TO.C,C11*%
X45025000Y-128000000D03*
X46575000Y-128000000D03*
%TD*%
D21*
%TO.C,D3*%
X60600000Y-146000000D03*
X60600000Y-142000000D03*
%TD*%
D27*
%TO.C,R1*%
X43175000Y-59850000D03*
X44825000Y-59850000D03*
%TD*%
D23*
%TO.C,C13*%
X50025000Y-128000000D03*
X51575000Y-128000000D03*
%TD*%
D29*
%TO.C,U1*%
X63000000Y-60080000D03*
D30*
X63000000Y-62620000D03*
X63000000Y-65160000D03*
X63000000Y-67700000D03*
X63000000Y-70240000D03*
X63000000Y-72780000D03*
X63000000Y-75320000D03*
X63000000Y-77860000D03*
X63000000Y-80400000D03*
X63000000Y-82940000D03*
X63000000Y-85480000D03*
X63000000Y-88020000D03*
X63000000Y-90560000D03*
X37000000Y-90560000D03*
X37000000Y-88020000D03*
X37000000Y-85480000D03*
X37000000Y-82940000D03*
D29*
X37000000Y-80400000D03*
D30*
X37000000Y-75320000D03*
X37000000Y-72780000D03*
X37000000Y-70240000D03*
X37000000Y-67700000D03*
X37000000Y-65160000D03*
X37000000Y-62620000D03*
X37000000Y-60080000D03*
X37000000Y-57540000D03*
D29*
X37000000Y-55000000D03*
%TD*%
M02*
