%TF.GenerationSoftware,KiCad,Pcbnew,(6.0.9)*%
%TF.CreationDate,2023-01-29T17:19:16+01:00*%
%TF.ProjectId,wvtbl_face_plate,77767462-6c5f-4666-9163-655f706c6174,rev?*%
%TF.SameCoordinates,Original*%
%TF.FileFunction,Legend,Top*%
%TF.FilePolarity,Positive*%
%FSLAX46Y46*%
G04 Gerber Fmt 4.6, Leading zero omitted, Abs format (unit mm)*
G04 Created by KiCad (PCBNEW (6.0.9)) date 2023-01-29 17:19:16*
%MOMM*%
%LPD*%
G01*
G04 APERTURE LIST*
%ADD10C,0.600000*%
%ADD11C,0.450000*%
%ADD12C,0.300000*%
G04 APERTURE END LIST*
D10*
X44000008Y-76000016D02*
G75*
G03*
X42500000Y-78500000I1333292J-2499984D01*
G01*
X57500018Y-98500000D02*
G75*
G03*
X56000000Y-96000000I-2833318J0D01*
G01*
X42500000Y-109000000D02*
X42500000Y-78500000D01*
X57500000Y-98500000D02*
X57500000Y-109000000D01*
%TO.C,U1*%
X46928571Y-36559523D02*
X47880952Y-40559523D01*
X48642857Y-37702380D01*
X49404761Y-40559523D01*
X50357142Y-36559523D01*
X51309523Y-36559523D02*
X52642857Y-40559523D01*
X53976190Y-36559523D01*
X54738095Y-36559523D02*
X57023809Y-36559523D01*
X55880952Y-40559523D02*
X55880952Y-36559523D01*
X59690476Y-38464285D02*
X60261904Y-38654761D01*
X60452380Y-38845238D01*
X60642857Y-39226190D01*
X60642857Y-39797619D01*
X60452380Y-40178571D01*
X60261904Y-40369047D01*
X59880952Y-40559523D01*
X58357142Y-40559523D01*
X58357142Y-36559523D01*
X59690476Y-36559523D01*
X60071428Y-36750000D01*
X60261904Y-36940476D01*
X60452380Y-37321428D01*
X60452380Y-37702380D01*
X60261904Y-38083333D01*
X60071428Y-38273809D01*
X59690476Y-38464285D01*
X58357142Y-38464285D01*
X64261904Y-40559523D02*
X62357142Y-40559523D01*
X62357142Y-36559523D01*
X36309523Y-159059523D02*
X37261904Y-163059523D01*
X38023809Y-160202380D01*
X38785714Y-163059523D01*
X39738095Y-159059523D01*
X41261904Y-163059523D02*
X41261904Y-159059523D01*
X42595238Y-159059523D02*
X44880952Y-159059523D01*
X43738095Y-163059523D02*
X43738095Y-159059523D01*
X46214285Y-163059523D02*
X46214285Y-159059523D01*
X48500000Y-163059523D01*
X48500000Y-159059523D01*
X50214285Y-162869047D02*
X50785714Y-163059523D01*
X51738095Y-163059523D01*
X52119047Y-162869047D01*
X52309523Y-162678571D01*
X52500000Y-162297619D01*
X52500000Y-161916666D01*
X52309523Y-161535714D01*
X52119047Y-161345238D01*
X51738095Y-161154761D01*
X50976190Y-160964285D01*
X50595238Y-160773809D01*
X50404761Y-160583333D01*
X50214285Y-160202380D01*
X50214285Y-159821428D01*
X50404761Y-159440476D01*
X50595238Y-159250000D01*
X50976190Y-159059523D01*
X51928571Y-159059523D01*
X52500000Y-159250000D01*
D11*
%TO.C,H103*%
X49000000Y-83357142D02*
X51000000Y-86357142D01*
X51000000Y-83357142D02*
X49000000Y-86357142D01*
%TO.C,H105*%
X50000000Y-104928571D02*
X50000000Y-106357142D01*
X49000000Y-103357142D02*
X50000000Y-104928571D01*
X51000000Y-103357142D01*
%TO.C,H109*%
X53071428Y-106714285D02*
X55357142Y-106714285D01*
X57500000Y-108857142D02*
X57500000Y-104571428D01*
X59642857Y-106714285D02*
X61928571Y-106714285D01*
X60785714Y-107857142D02*
X60785714Y-105571428D01*
D12*
%TO.C,H104*%
X41833333Y-135904761D02*
X43166666Y-137904761D01*
X43166666Y-135904761D02*
X41833333Y-137904761D01*
%TO.C,H106*%
X57500000Y-136952380D02*
X57500000Y-137904761D01*
X56833333Y-135904761D02*
X57500000Y-136952380D01*
X58166666Y-135904761D01*
%TO.C,H108*%
X55833333Y-150904761D02*
X56214285Y-150904761D01*
X56404761Y-151000000D01*
X56595238Y-151190476D01*
X56690476Y-151571428D01*
X56690476Y-152238095D01*
X56595238Y-152619047D01*
X56404761Y-152809523D01*
X56214285Y-152904761D01*
X55833333Y-152904761D01*
X55642857Y-152809523D01*
X55452380Y-152619047D01*
X55357142Y-152238095D01*
X55357142Y-151571428D01*
X55452380Y-151190476D01*
X55642857Y-151000000D01*
X55833333Y-150904761D01*
X58404761Y-151571428D02*
X58404761Y-152904761D01*
X57547619Y-151571428D02*
X57547619Y-152619047D01*
X57642857Y-152809523D01*
X57833333Y-152904761D01*
X58119047Y-152904761D01*
X58309523Y-152809523D01*
X58404761Y-152714285D01*
X59071428Y-151571428D02*
X59833333Y-151571428D01*
X59357142Y-150904761D02*
X59357142Y-152619047D01*
X59452380Y-152809523D01*
X59642857Y-152904761D01*
X59833333Y-152904761D01*
D11*
%TO.C,H107*%
X38071428Y-106714285D02*
X40357142Y-106714285D01*
X42500000Y-108857142D02*
X42500000Y-104571428D01*
X44642857Y-106714285D02*
X46928571Y-106714285D01*
X45785714Y-107857142D02*
X45785714Y-105571428D01*
%TO.C,H101*%
X45000000Y-66357142D02*
X45000000Y-63357142D01*
X46142857Y-63357142D01*
X46428571Y-63500000D01*
X46571428Y-63642857D01*
X46714285Y-63928571D01*
X46714285Y-64357142D01*
X46571428Y-64642857D01*
X46428571Y-64785714D01*
X46142857Y-64928571D01*
X45000000Y-64928571D01*
X48000000Y-66357142D02*
X48000000Y-64357142D01*
X48000000Y-63357142D02*
X47857142Y-63500000D01*
X48000000Y-63642857D01*
X48142857Y-63500000D01*
X48000000Y-63357142D01*
X48000000Y-63642857D01*
X49000000Y-64357142D02*
X50142857Y-64357142D01*
X49428571Y-63357142D02*
X49428571Y-65928571D01*
X49571428Y-66214285D01*
X49857142Y-66357142D01*
X50142857Y-66357142D01*
X52428571Y-66214285D02*
X52142857Y-66357142D01*
X51571428Y-66357142D01*
X51285714Y-66214285D01*
X51142857Y-66071428D01*
X51000000Y-65785714D01*
X51000000Y-64928571D01*
X51142857Y-64642857D01*
X51285714Y-64500000D01*
X51571428Y-64357142D01*
X52142857Y-64357142D01*
X52428571Y-64500000D01*
X53714285Y-66357142D02*
X53714285Y-63357142D01*
X55000000Y-66357142D02*
X55000000Y-64785714D01*
X54857142Y-64500000D01*
X54571428Y-64357142D01*
X54142857Y-64357142D01*
X53857142Y-64500000D01*
X53714285Y-64642857D01*
D12*
%TO.C,H102*%
X38309523Y-150904761D02*
X38976190Y-152904761D01*
X39642857Y-150904761D01*
X41738095Y-150809523D02*
X40023809Y-153380952D01*
X42785714Y-150904761D02*
X43166666Y-150904761D01*
X43357142Y-151000000D01*
X43547619Y-151190476D01*
X43642857Y-151571428D01*
X43642857Y-152238095D01*
X43547619Y-152619047D01*
X43357142Y-152809523D01*
X43166666Y-152904761D01*
X42785714Y-152904761D01*
X42595238Y-152809523D01*
X42404761Y-152619047D01*
X42309523Y-152238095D01*
X42309523Y-151571428D01*
X42404761Y-151190476D01*
X42595238Y-151000000D01*
X42785714Y-150904761D01*
X45357142Y-152809523D02*
X45166666Y-152904761D01*
X44785714Y-152904761D01*
X44595238Y-152809523D01*
X44500000Y-152714285D01*
X44404761Y-152523809D01*
X44404761Y-151952380D01*
X44500000Y-151761904D01*
X44595238Y-151666666D01*
X44785714Y-151571428D01*
X45166666Y-151571428D01*
X45357142Y-151666666D01*
X45928571Y-151571428D02*
X46690476Y-151571428D01*
X46214285Y-150904761D02*
X46214285Y-152619047D01*
X46309523Y-152809523D01*
X46500000Y-152904761D01*
X46690476Y-152904761D01*
%TD*%
M02*
