%TF.GenerationSoftware,KiCad,Pcbnew,(6.0.9)*%
%TF.CreationDate,2023-01-29T17:19:16+01:00*%
%TF.ProjectId,wvtbl_face_plate,77767462-6c5f-4666-9163-655f706c6174,rev?*%
%TF.SameCoordinates,Original*%
%TF.FileFunction,Copper,L1,Top*%
%TF.FilePolarity,Positive*%
%FSLAX46Y46*%
G04 Gerber Fmt 4.6, Leading zero omitted, Abs format (unit mm)*
G04 Created by KiCad (PCBNEW (6.0.9)) date 2023-01-29 17:19:16*
%MOMM*%
%LPD*%
G01*
G04 APERTURE LIST*
%TA.AperFunction,ComponentPad*%
%ADD10O,8.400000X5.000000*%
%TD*%
%TA.AperFunction,ComponentPad*%
%ADD11C,11.000000*%
%TD*%
%TA.AperFunction,ComponentPad*%
%ADD12C,9.000000*%
%TD*%
G04 APERTURE END LIST*
D10*
%TO.P,U1,1,GND*%
%TO.N,GND*%
X57620000Y-161250000D03*
X42380000Y-38750000D03*
%TD*%
D11*
%TO.P,H103,1,1*%
%TO.N,GND*%
X50000000Y-75000000D03*
%TD*%
%TO.P,H105,1,1*%
%TO.N,GND*%
X50000000Y-95000000D03*
%TD*%
%TO.P,H109,1,1*%
%TO.N,GND*%
X57500000Y-115000000D03*
%TD*%
D12*
%TO.P,H104,1,1*%
%TO.N,GND*%
X42500000Y-130000000D03*
%TD*%
%TO.P,H106,1,1*%
%TO.N,GND*%
X57500000Y-130000000D03*
%TD*%
%TO.P,H108,1,1*%
%TO.N,GND*%
X57500000Y-145000000D03*
%TD*%
D11*
%TO.P,H107,1,1*%
%TO.N,GND*%
X42500000Y-115000000D03*
%TD*%
%TO.P,H101,1,1*%
%TO.N,GND*%
X50000000Y-55000000D03*
%TD*%
D12*
%TO.P,H102,1,1*%
%TO.N,GND*%
X42500000Y-145000000D03*
%TD*%
%TA.AperFunction,Conductor*%
%TO.N,GND*%
G36*
X64499874Y-35751030D02*
G01*
X64500000Y-35751082D01*
X64500096Y-35751043D01*
X64500653Y-35751074D01*
X64552569Y-35756924D01*
X64552786Y-35756950D01*
X64614916Y-35765129D01*
X64617253Y-35765686D01*
X64674248Y-35785630D01*
X64674861Y-35785864D01*
X64728187Y-35807952D01*
X64729935Y-35808854D01*
X64743116Y-35817136D01*
X64781742Y-35841406D01*
X64782615Y-35842013D01*
X64827799Y-35876685D01*
X64828949Y-35877694D01*
X64872306Y-35921051D01*
X64873314Y-35922200D01*
X64907981Y-35967378D01*
X64908594Y-35968258D01*
X64932864Y-36006884D01*
X64941146Y-36020065D01*
X64942048Y-36021813D01*
X64964136Y-36075139D01*
X64964370Y-36075752D01*
X64984314Y-36132747D01*
X64984871Y-36135084D01*
X64993050Y-36197214D01*
X64993076Y-36197431D01*
X64998926Y-36249347D01*
X64998957Y-36249904D01*
X64998918Y-36250000D01*
X64998970Y-36250126D01*
X64999000Y-36250657D01*
X64999000Y-163749343D01*
X64998970Y-163749874D01*
X64998918Y-163750000D01*
X64998957Y-163750096D01*
X64998926Y-163750653D01*
X64993076Y-163802569D01*
X64993050Y-163802786D01*
X64984871Y-163864916D01*
X64984314Y-163867253D01*
X64964370Y-163924248D01*
X64964136Y-163924861D01*
X64942048Y-163978187D01*
X64941146Y-163979935D01*
X64932864Y-163993116D01*
X64908594Y-164031742D01*
X64907987Y-164032615D01*
X64873315Y-164077799D01*
X64872306Y-164078949D01*
X64828949Y-164122306D01*
X64827800Y-164123314D01*
X64782615Y-164157987D01*
X64781742Y-164158594D01*
X64743116Y-164182864D01*
X64729935Y-164191146D01*
X64728187Y-164192048D01*
X64674861Y-164214136D01*
X64674248Y-164214370D01*
X64617253Y-164234314D01*
X64614916Y-164234871D01*
X64552786Y-164243050D01*
X64552569Y-164243076D01*
X64500653Y-164248926D01*
X64500096Y-164248957D01*
X64500000Y-164248918D01*
X64499874Y-164248970D01*
X64499343Y-164249000D01*
X35500657Y-164249000D01*
X35500126Y-164248970D01*
X35500000Y-164248918D01*
X35499904Y-164248957D01*
X35499347Y-164248926D01*
X35447434Y-164243077D01*
X35447217Y-164243051D01*
X35447209Y-164243050D01*
X35385082Y-164234871D01*
X35382746Y-164234314D01*
X35325762Y-164214374D01*
X35325149Y-164214140D01*
X35313066Y-164209135D01*
X35271806Y-164192044D01*
X35270061Y-164191144D01*
X35218265Y-164158598D01*
X35217388Y-164157988D01*
X35172200Y-164123314D01*
X35171050Y-164122305D01*
X35127695Y-164078950D01*
X35126686Y-164077800D01*
X35126685Y-164077799D01*
X35092012Y-164032612D01*
X35091402Y-164031735D01*
X35058854Y-163979935D01*
X35057954Y-163978191D01*
X35057953Y-163978187D01*
X35035860Y-163924851D01*
X35035626Y-163924238D01*
X35015686Y-163867254D01*
X35015129Y-163864917D01*
X35006949Y-163802783D01*
X35006923Y-163802566D01*
X35001074Y-163750653D01*
X35001043Y-163750096D01*
X35001082Y-163750000D01*
X35001030Y-163749874D01*
X35001000Y-163749343D01*
X35001000Y-36250657D01*
X35001030Y-36250126D01*
X35001082Y-36250000D01*
X35001043Y-36249904D01*
X35001074Y-36249347D01*
X35006923Y-36197434D01*
X35006949Y-36197217D01*
X35015129Y-36135083D01*
X35015686Y-36132746D01*
X35035626Y-36075762D01*
X35035860Y-36075149D01*
X35040865Y-36063066D01*
X35057956Y-36021806D01*
X35058856Y-36020061D01*
X35091402Y-35968265D01*
X35092012Y-35967388D01*
X35126686Y-35922200D01*
X35127695Y-35921050D01*
X35171050Y-35877695D01*
X35172200Y-35876686D01*
X35172201Y-35876685D01*
X35217388Y-35842012D01*
X35218272Y-35841397D01*
X35270065Y-35808854D01*
X35271806Y-35807956D01*
X35325149Y-35785860D01*
X35325762Y-35785626D01*
X35382746Y-35765686D01*
X35385082Y-35765129D01*
X35447218Y-35756949D01*
X35447434Y-35756923D01*
X35499347Y-35751074D01*
X35499904Y-35751043D01*
X35500000Y-35751082D01*
X35500126Y-35751030D01*
X35500657Y-35751000D01*
X64499343Y-35751000D01*
X64499874Y-35751030D01*
G37*
%TD.AperFunction*%
%TD*%
M02*
