%TF.GenerationSoftware,KiCad,Pcbnew,(6.0.9)*%
%TF.CreationDate,2023-01-29T17:21:33+01:00*%
%TF.ProjectId,witns_processing_board,7769746e-735f-4707-926f-63657373696e,rev?*%
%TF.SameCoordinates,Original*%
%TF.FileFunction,Copper,L4,Bot*%
%TF.FilePolarity,Positive*%
%FSLAX46Y46*%
G04 Gerber Fmt 4.6, Leading zero omitted, Abs format (unit mm)*
G04 Created by KiCad (PCBNEW (6.0.9)) date 2023-01-29 17:21:33*
%MOMM*%
%LPD*%
G01*
G04 APERTURE LIST*
%TA.AperFunction,ComponentPad*%
%ADD10R,1.700000X1.700000*%
%TD*%
%TA.AperFunction,ComponentPad*%
%ADD11O,1.700000X1.700000*%
%TD*%
%TA.AperFunction,ViaPad*%
%ADD12C,0.700000*%
%TD*%
%TA.AperFunction,Conductor*%
%ADD13C,0.600000*%
%TD*%
%TA.AperFunction,Conductor*%
%ADD14C,0.400000*%
%TD*%
G04 APERTURE END LIST*
D10*
%TO.P,J103,1,Pin_1*%
%TO.N,+3V3*%
X63000000Y-100000000D03*
D11*
%TO.P,J103,2,Pin_2*%
%TO.N,/STM32/ENCODER_SWITCH*%
X63000000Y-102540000D03*
%TO.P,J103,3,Pin_3*%
%TO.N,/STM32/ENCODER_A*%
X63000000Y-105080000D03*
%TO.P,J103,4,Pin_4*%
%TO.N,/STM32/ENCODER_B*%
X63000000Y-107620000D03*
%TO.P,J103,5,Pin_5*%
%TO.N,GND*%
X63000000Y-110160000D03*
%TO.P,J103,6,Pin_6*%
%TO.N,/STM32/LED_RED*%
X63000000Y-112700000D03*
%TO.P,J103,7,Pin_7*%
%TO.N,/STM32/LED_GREEN*%
X63000000Y-115240000D03*
%TO.P,J103,8,Pin_8*%
%TO.N,/STM32/LED_BLUE*%
X63000000Y-117780000D03*
%TO.P,J103,9,Pin_9*%
%TO.N,GND*%
X63000000Y-120320000D03*
%TD*%
D10*
%TO.P,J102,1,Pin_1*%
%TO.N,+5V*%
X63000000Y-125400000D03*
D11*
%TO.P,J102,2,Pin_2*%
%TO.N,GND*%
X63000000Y-127940000D03*
%TO.P,J102,3,Pin_3*%
%TO.N,+12V*%
X63000000Y-130480000D03*
%TO.P,J102,4,Pin_4*%
%TO.N,GND*%
X63000000Y-133020000D03*
%TO.P,J102,5,Pin_5*%
%TO.N,-12V*%
X63000000Y-135560000D03*
%TD*%
D10*
%TO.P,J101,1,Pin_1*%
%TO.N,GND*%
X37000000Y-105080000D03*
D11*
%TO.P,J101,2,Pin_2*%
%TO.N,/POT_1*%
X37000000Y-107620000D03*
%TO.P,J101,3,Pin_3*%
%TO.N,/POT_2*%
X37000000Y-110160000D03*
%TO.P,J101,4,Pin_4*%
%TO.N,/POT_3*%
X37000000Y-112700000D03*
%TO.P,J101,5,Pin_5*%
%TO.N,/POT_4*%
X37000000Y-115240000D03*
%TO.P,J101,6,Pin_6*%
%TO.N,+3.3VA*%
X37000000Y-117780000D03*
%TO.P,J101,7,Pin_7*%
%TO.N,/Analog Front-end/RACK_CV1*%
X37000000Y-120320000D03*
%TO.P,J101,8,Pin_8*%
%TO.N,/Analog Front-end/RACK_CV2*%
X37000000Y-122860000D03*
%TO.P,J101,9,Pin_9*%
%TO.N,/Analog Front-end/RACK_CV3*%
X37000000Y-125400000D03*
%TO.P,J101,10,Pin_10*%
%TO.N,/Analog Front-end/RACK_CV4*%
X37000000Y-127940000D03*
%TO.P,J101,11,Pin_11*%
%TO.N,GND*%
X37000000Y-130480000D03*
%TO.P,J101,12,Pin_12*%
%TO.N,/Analog Front-end/RACK_OUT*%
X37000000Y-133020000D03*
%TO.P,J101,13,Pin_13*%
%TO.N,GND*%
X37000000Y-135560000D03*
%TD*%
D12*
%TO.N,GND*%
X51900000Y-115900000D03*
X42700000Y-95500000D03*
X43500000Y-93700000D03*
X44400000Y-108000000D03*
X47800000Y-131500000D03*
X41000000Y-121100000D03*
X54500000Y-110700000D03*
X44700000Y-101900000D03*
X49600000Y-134900000D03*
X52500000Y-97100000D03*
X54600000Y-106600000D03*
X42600000Y-111500000D03*
X54776589Y-124798152D03*
X58500000Y-93900000D03*
X42300000Y-117200000D03*
X39900000Y-103100000D03*
X59100000Y-128500000D03*
X60100000Y-119500000D03*
X47300000Y-111700000D03*
X49100000Y-117000000D03*
X48100000Y-136500000D03*
X50000000Y-97100000D03*
X55000000Y-116800000D03*
X43600000Y-106500000D03*
X58100000Y-114800000D03*
X47600000Y-126000000D03*
X44000000Y-136100000D03*
X51700000Y-109000000D03*
X52200000Y-106100000D03*
X40400000Y-101500000D03*
X44100000Y-104900000D03*
X52500000Y-118600000D03*
X55400000Y-109200000D03*
X52000000Y-123600000D03*
X48000000Y-121100000D03*
X57400000Y-125100000D03*
X39500000Y-97700000D03*
X48900000Y-129500000D03*
X37492568Y-93696151D03*
X53800000Y-97100000D03*
X56500000Y-116800000D03*
X60500000Y-93900000D03*
X49400000Y-103700000D03*
X46400000Y-122600000D03*
X56600000Y-112300000D03*
%TO.N,+3V3*%
X52200000Y-114500000D03*
X37500000Y-97500000D03*
X39400000Y-95800000D03*
X58300000Y-110800000D03*
X47700000Y-104600000D03*
X45700000Y-103500000D03*
X59500000Y-113300000D03*
X55000000Y-97100000D03*
%TO.N,+3.3VA*%
X52000000Y-120400000D03*
X41000000Y-117900000D03*
X42600000Y-120400000D03*
X53600000Y-122900000D03*
X48900000Y-118700000D03*
X59100000Y-130000000D03*
X53000000Y-116900000D03*
X42500000Y-136100000D03*
X47600000Y-127500000D03*
X49100000Y-115500000D03*
X59300000Y-117100000D03*
%TO.N,+5V*%
X45200000Y-96600000D03*
X46800000Y-96600000D03*
X46000000Y-96600000D03*
%TO.N,/POT_1*%
X50100000Y-108400000D03*
%TO.N,/POT_2*%
X50100000Y-109500000D03*
%TO.N,/POT_3*%
X47700000Y-110000000D03*
%TO.N,/POT_4*%
X48800000Y-111400000D03*
%TO.N,/STM32/nRST*%
X50700000Y-107600000D03*
X50700000Y-97700000D03*
%TO.N,+12V*%
X51000000Y-130400000D03*
%TO.N,-12V*%
X45800000Y-135600000D03*
%TO.N,/STM32/LED1*%
X60500000Y-100100000D03*
X54400000Y-105100000D03*
%TO.N,/STM32/LED2*%
X58500000Y-100100000D03*
X53200000Y-105100000D03*
%TO.N,/Analog Front-end/RACK_CV1*%
X48900000Y-124000000D03*
%TO.N,/Analog Front-end/RACK_CV3*%
X49000000Y-126100000D03*
%TO.N,/Analog Front-end/RACK_OUT*%
X47400000Y-130300000D03*
%TO.N,/STM32/ENCODER_SWITCH*%
X55800000Y-105000000D03*
%TO.N,/Analog Front-end/DAC_OUT*%
X41000000Y-129900000D03*
X50200000Y-113300000D03*
%TO.N,/Analog Front-end/ADC_CV4*%
X51000000Y-111000000D03*
X42600000Y-122600000D03*
%TO.N,/Analog Front-end/ADC_CV1*%
X53500000Y-110500000D03*
X53900000Y-118000000D03*
%TO.N,/Analog Front-end/ADC_CV3*%
X52200000Y-110900000D03*
X53600000Y-125100000D03*
%TD*%
D13*
%TO.N,GND*%
X57500000Y-116800000D02*
X56500000Y-116800000D01*
X58100000Y-114800000D02*
X58100000Y-116200000D01*
X58100000Y-116200000D02*
X57500000Y-116800000D01*
D14*
%TO.N,/POT_1*%
X45000000Y-108800000D02*
X45400000Y-108400000D01*
X37000000Y-107620000D02*
X38180000Y-108800000D01*
X45400000Y-108400000D02*
X50100000Y-108400000D01*
X38180000Y-108800000D02*
X45000000Y-108800000D01*
%TO.N,/POT_2*%
X49000000Y-109100000D02*
X46600000Y-109100000D01*
X45540000Y-110160000D02*
X37000000Y-110160000D01*
X50100000Y-109500000D02*
X49400000Y-109500000D01*
X49400000Y-109500000D02*
X49000000Y-109100000D01*
X46600000Y-109100000D02*
X45540000Y-110160000D01*
%TO.N,/POT_3*%
X45000000Y-112700000D02*
X37000000Y-112700000D01*
X47700000Y-110000000D02*
X45000000Y-112700000D01*
%TO.N,/POT_4*%
X48800000Y-111400000D02*
X44960000Y-115240000D01*
X44960000Y-115240000D02*
X37000000Y-115240000D01*
%TO.N,/STM32/nRST*%
X50700000Y-97700000D02*
X50700000Y-107600000D01*
%TO.N,/STM32/LED1*%
X59200000Y-101400000D02*
X60500000Y-100100000D01*
X54400000Y-105100000D02*
X58100000Y-101400000D01*
X58100000Y-101400000D02*
X59200000Y-101400000D01*
%TO.N,/STM32/LED2*%
X53200000Y-105100000D02*
X58200000Y-100100000D01*
X58200000Y-100100000D02*
X58500000Y-100100000D01*
%TO.N,/Analog Front-end/RACK_CV1*%
X48900000Y-124000000D02*
X40680000Y-124000000D01*
X40680000Y-124000000D02*
X37000000Y-120320000D01*
%TO.N,/Analog Front-end/RACK_CV3*%
X47900000Y-125000000D02*
X49000000Y-126100000D01*
X40800000Y-125000000D02*
X47900000Y-125000000D01*
X37000000Y-125400000D02*
X40400000Y-125400000D01*
X40400000Y-125400000D02*
X40800000Y-125000000D01*
%TO.N,/Analog Front-end/RACK_OUT*%
X44680000Y-133020000D02*
X37000000Y-133020000D01*
X47400000Y-130300000D02*
X44680000Y-133020000D01*
%TO.N,/STM32/ENCODER_SWITCH*%
X58260000Y-102540000D02*
X55800000Y-105000000D01*
X63000000Y-102540000D02*
X58260000Y-102540000D01*
%TO.N,/Analog Front-end/DAC_OUT*%
X50200000Y-113300000D02*
X50200000Y-126500000D01*
X41900000Y-129000000D02*
X41000000Y-129900000D01*
X50200000Y-126500000D02*
X47700000Y-129000000D01*
X47700000Y-129000000D02*
X41900000Y-129000000D01*
%TO.N,/Analog Front-end/ADC_CV4*%
X50800000Y-111000000D02*
X43900000Y-117900000D01*
X43900000Y-121300000D02*
X42600000Y-122600000D01*
X51000000Y-111000000D02*
X50800000Y-111000000D01*
X43900000Y-117900000D02*
X43900000Y-121300000D01*
%TO.N,/Analog Front-end/ADC_CV1*%
X53500000Y-110500000D02*
X53500000Y-112500000D01*
X53500000Y-112500000D02*
X53900000Y-112900000D01*
X53900000Y-112900000D02*
X53900000Y-118000000D01*
%TO.N,/Analog Front-end/ADC_CV3*%
X51000000Y-124200000D02*
X51000000Y-114000000D01*
X51900000Y-125100000D02*
X51000000Y-124200000D01*
X51000000Y-114000000D02*
X52200000Y-112800000D01*
X53600000Y-125100000D02*
X51900000Y-125100000D01*
X52200000Y-112800000D02*
X52200000Y-110900000D01*
%TD*%
%TA.AperFunction,Conductor*%
%TO.N,GND*%
G36*
X62984563Y-93302414D02*
G01*
X62989145Y-93303222D01*
X63000000Y-93305136D01*
X63010856Y-93303222D01*
X63021878Y-93303222D01*
X63021878Y-93303779D01*
X63034152Y-93303188D01*
X63177759Y-93314490D01*
X63197285Y-93317583D01*
X63361030Y-93356895D01*
X63379824Y-93363001D01*
X63535405Y-93427445D01*
X63553010Y-93436415D01*
X63696597Y-93524405D01*
X63712592Y-93536027D01*
X63840634Y-93645385D01*
X63854615Y-93659366D01*
X63963973Y-93787408D01*
X63975594Y-93803401D01*
X64063585Y-93946990D01*
X64072555Y-93964595D01*
X64100888Y-94032996D01*
X64136997Y-94120171D01*
X64143105Y-94138970D01*
X64182417Y-94302714D01*
X64185510Y-94322242D01*
X64196812Y-94465845D01*
X64196221Y-94478122D01*
X64196778Y-94478122D01*
X64196778Y-94489144D01*
X64194864Y-94500000D01*
X64196778Y-94510855D01*
X64197586Y-94515437D01*
X64199500Y-94537317D01*
X64199500Y-98782448D01*
X64179498Y-98850569D01*
X64125842Y-98897062D01*
X64055568Y-98907166D01*
X64022552Y-98897688D01*
X64021136Y-98897062D01*
X63920327Y-98852494D01*
X63894646Y-98849500D01*
X62105354Y-98849500D01*
X62101650Y-98849941D01*
X62101647Y-98849941D01*
X62096371Y-98850569D01*
X62079154Y-98852618D01*
X61976847Y-98898061D01*
X61897759Y-98977287D01*
X61852494Y-99079673D01*
X61849500Y-99105354D01*
X61849500Y-100894646D01*
X61852618Y-100920846D01*
X61898061Y-101023153D01*
X61977287Y-101102241D01*
X61987924Y-101106944D01*
X61987926Y-101106945D01*
X62024432Y-101123084D01*
X62079673Y-101147506D01*
X62105354Y-101150500D01*
X62814988Y-101150500D01*
X62883109Y-101170502D01*
X62929602Y-101224158D01*
X62939706Y-101294432D01*
X62910212Y-101359012D01*
X62850486Y-101397396D01*
X62836326Y-101400680D01*
X62706650Y-101422962D01*
X62706649Y-101422962D01*
X62700953Y-101423941D01*
X62502575Y-101497127D01*
X62497614Y-101500079D01*
X62497613Y-101500079D01*
X62480089Y-101510505D01*
X62320856Y-101605238D01*
X62161881Y-101744655D01*
X62030976Y-101910708D01*
X62028287Y-101915819D01*
X62028285Y-101915822D01*
X61998640Y-101972168D01*
X61949220Y-102023140D01*
X61887132Y-102039500D01*
X59563887Y-102039500D01*
X59495766Y-102019498D01*
X59449273Y-101965842D01*
X59439169Y-101895568D01*
X59468663Y-101830988D01*
X59481639Y-101818047D01*
X59507675Y-101795613D01*
X59515596Y-101789324D01*
X59522402Y-101784352D01*
X59526336Y-101781478D01*
X59537079Y-101770735D01*
X59543926Y-101764377D01*
X59574237Y-101738259D01*
X59581037Y-101732400D01*
X59585920Y-101724866D01*
X59591819Y-101718104D01*
X59591824Y-101718108D01*
X59600800Y-101707014D01*
X60526819Y-100780995D01*
X60587785Y-100747270D01*
X60714563Y-100718234D01*
X60721968Y-100716538D01*
X60862625Y-100645795D01*
X60888869Y-100623381D01*
X60976574Y-100548474D01*
X60976576Y-100548471D01*
X60982348Y-100543542D01*
X61074224Y-100415683D01*
X61132950Y-100269598D01*
X61155134Y-100113723D01*
X61155278Y-100100000D01*
X61136363Y-99943694D01*
X61080710Y-99796412D01*
X60991531Y-99666657D01*
X60930749Y-99612502D01*
X60879648Y-99566972D01*
X60879645Y-99566970D01*
X60873976Y-99561919D01*
X60734831Y-99488245D01*
X60718122Y-99484048D01*
X60589498Y-99451740D01*
X60589496Y-99451740D01*
X60582128Y-99449889D01*
X60574530Y-99449849D01*
X60574528Y-99449849D01*
X60507319Y-99449497D01*
X60424684Y-99449065D01*
X60417305Y-99450837D01*
X60417301Y-99450837D01*
X60278967Y-99484048D01*
X60278963Y-99484049D01*
X60271588Y-99485820D01*
X60131679Y-99558032D01*
X60125957Y-99563024D01*
X60125955Y-99563025D01*
X60018759Y-99656538D01*
X60018756Y-99656541D01*
X60013034Y-99661533D01*
X59982916Y-99704387D01*
X59938489Y-99767600D01*
X59922501Y-99790348D01*
X59865309Y-99937039D01*
X59864318Y-99944564D01*
X59864317Y-99944569D01*
X59857271Y-99998093D01*
X59828549Y-100063020D01*
X59821444Y-100070742D01*
X59029591Y-100862595D01*
X58967279Y-100896621D01*
X58940496Y-100899500D01*
X58889136Y-100899500D01*
X58821015Y-100879498D01*
X58774522Y-100825842D01*
X58764418Y-100755568D01*
X58793912Y-100690988D01*
X58832522Y-100660935D01*
X58855839Y-100649208D01*
X58862625Y-100645795D01*
X58888869Y-100623381D01*
X58976574Y-100548474D01*
X58976576Y-100548471D01*
X58982348Y-100543542D01*
X59074224Y-100415683D01*
X59132950Y-100269598D01*
X59155134Y-100113723D01*
X59155278Y-100100000D01*
X59136363Y-99943694D01*
X59080710Y-99796412D01*
X58991531Y-99666657D01*
X58930749Y-99612502D01*
X58879648Y-99566972D01*
X58879645Y-99566970D01*
X58873976Y-99561919D01*
X58734831Y-99488245D01*
X58718122Y-99484048D01*
X58589498Y-99451740D01*
X58589496Y-99451740D01*
X58582128Y-99449889D01*
X58574530Y-99449849D01*
X58574528Y-99449849D01*
X58507319Y-99449497D01*
X58424684Y-99449065D01*
X58417305Y-99450837D01*
X58417301Y-99450837D01*
X58278967Y-99484048D01*
X58278963Y-99484049D01*
X58271588Y-99485820D01*
X58131679Y-99558032D01*
X58125957Y-99563024D01*
X58125955Y-99563025D01*
X58089704Y-99594649D01*
X58057094Y-99612502D01*
X58058083Y-99614677D01*
X58058082Y-99614677D01*
X58015718Y-99633939D01*
X58006363Y-99637746D01*
X57971057Y-99650491D01*
X57971053Y-99650493D01*
X57962613Y-99653540D01*
X57955365Y-99658835D01*
X57952025Y-99660611D01*
X57938911Y-99668274D01*
X57935739Y-99670303D01*
X57927572Y-99674016D01*
X57920777Y-99679871D01*
X57920774Y-99679873D01*
X57892325Y-99704387D01*
X57884405Y-99710675D01*
X57873664Y-99718522D01*
X57862921Y-99729265D01*
X57856075Y-99735623D01*
X57818963Y-99767600D01*
X57814080Y-99775134D01*
X57808181Y-99781896D01*
X57808176Y-99781892D01*
X57799200Y-99792986D01*
X53174074Y-104418112D01*
X53114394Y-104451535D01*
X53081694Y-104459386D01*
X52978967Y-104484048D01*
X52978963Y-104484049D01*
X52971588Y-104485820D01*
X52831679Y-104558032D01*
X52825957Y-104563024D01*
X52825955Y-104563025D01*
X52718759Y-104656538D01*
X52718756Y-104656541D01*
X52713034Y-104661533D01*
X52708667Y-104667747D01*
X52632127Y-104776652D01*
X52622501Y-104790348D01*
X52565309Y-104937039D01*
X52564318Y-104944568D01*
X52546488Y-105080000D01*
X52544758Y-105093138D01*
X52562035Y-105249633D01*
X52616143Y-105397490D01*
X52620380Y-105403796D01*
X52620382Y-105403799D01*
X52640194Y-105433282D01*
X52703958Y-105528172D01*
X52820410Y-105634135D01*
X52854177Y-105652469D01*
X52952099Y-105705637D01*
X52952101Y-105705638D01*
X52958776Y-105709262D01*
X52966125Y-105711190D01*
X53103719Y-105747287D01*
X53103721Y-105747287D01*
X53111069Y-105749215D01*
X53194380Y-105750524D01*
X53260898Y-105751569D01*
X53260901Y-105751569D01*
X53268495Y-105751688D01*
X53421968Y-105716538D01*
X53562625Y-105645795D01*
X53609644Y-105605637D01*
X53676574Y-105548474D01*
X53676576Y-105548471D01*
X53682348Y-105543542D01*
X53686778Y-105537377D01*
X53686781Y-105537374D01*
X53696413Y-105523969D01*
X53752407Y-105480321D01*
X53823110Y-105473874D01*
X53886075Y-105506676D01*
X53894321Y-105516500D01*
X53894761Y-105516120D01*
X53899721Y-105521866D01*
X53903958Y-105528172D01*
X54020410Y-105634135D01*
X54054177Y-105652469D01*
X54152099Y-105705637D01*
X54152101Y-105705638D01*
X54158776Y-105709262D01*
X54166125Y-105711190D01*
X54303719Y-105747287D01*
X54303721Y-105747287D01*
X54311069Y-105749215D01*
X54394380Y-105750524D01*
X54460898Y-105751569D01*
X54460901Y-105751569D01*
X54468495Y-105751688D01*
X54621968Y-105716538D01*
X54762625Y-105645795D01*
X54809644Y-105605637D01*
X54876574Y-105548474D01*
X54876576Y-105548471D01*
X54882348Y-105543542D01*
X54974224Y-105415683D01*
X54979002Y-105403799D01*
X55005745Y-105337273D01*
X55049711Y-105281528D01*
X55116836Y-105258403D01*
X55185808Y-105275240D01*
X55227230Y-105313989D01*
X55303958Y-105428172D01*
X55326270Y-105448474D01*
X55406927Y-105521866D01*
X55420410Y-105534135D01*
X55441885Y-105545795D01*
X55552099Y-105605637D01*
X55552101Y-105605638D01*
X55558776Y-105609262D01*
X55566125Y-105611190D01*
X55703719Y-105647287D01*
X55703721Y-105647287D01*
X55711069Y-105649215D01*
X55794380Y-105650524D01*
X55860898Y-105651569D01*
X55860901Y-105651569D01*
X55868495Y-105651688D01*
X56021968Y-105616538D01*
X56162625Y-105545795D01*
X56208428Y-105506676D01*
X56276574Y-105448474D01*
X56276576Y-105448471D01*
X56282348Y-105443542D01*
X56374224Y-105315683D01*
X56394056Y-105266350D01*
X56430117Y-105176646D01*
X56430118Y-105176644D01*
X56432950Y-105169598D01*
X56442747Y-105100761D01*
X56472148Y-105036138D01*
X56478395Y-105029419D01*
X58430409Y-103077405D01*
X58492721Y-103043379D01*
X58519504Y-103040500D01*
X61883115Y-103040500D01*
X61951236Y-103060502D01*
X61992741Y-103108228D01*
X61994062Y-103107465D01*
X61996951Y-103112469D01*
X61999369Y-103117714D01*
X62121405Y-103290391D01*
X62272865Y-103437937D01*
X62277661Y-103441142D01*
X62277664Y-103441144D01*
X62392399Y-103517807D01*
X62448677Y-103555411D01*
X62453985Y-103557692D01*
X62453986Y-103557692D01*
X62637650Y-103636600D01*
X62637653Y-103636601D01*
X62642953Y-103638878D01*
X62648582Y-103640152D01*
X62648583Y-103640152D01*
X62843550Y-103684269D01*
X62843553Y-103684269D01*
X62849186Y-103685544D01*
X62854958Y-103685771D01*
X62860687Y-103686525D01*
X62860327Y-103689257D01*
X62916604Y-103708216D01*
X62960950Y-103763659D01*
X62968282Y-103834276D01*
X62936271Y-103897647D01*
X62875081Y-103933651D01*
X62865705Y-103935632D01*
X62825076Y-103942613D01*
X62706650Y-103962962D01*
X62706649Y-103962962D01*
X62700953Y-103963941D01*
X62502575Y-104037127D01*
X62497614Y-104040079D01*
X62497613Y-104040079D01*
X62366248Y-104118233D01*
X62320856Y-104145238D01*
X62161881Y-104284655D01*
X62030976Y-104450708D01*
X62028287Y-104455819D01*
X62028285Y-104455822D01*
X62010671Y-104489301D01*
X61932523Y-104637836D01*
X61869820Y-104839773D01*
X61844967Y-105049754D01*
X61858796Y-105260749D01*
X61860217Y-105266345D01*
X61860218Y-105266350D01*
X61902614Y-105433282D01*
X61910845Y-105465690D01*
X61913262Y-105470933D01*
X61940043Y-105529025D01*
X61999369Y-105657714D01*
X62121405Y-105830391D01*
X62272865Y-105977937D01*
X62277661Y-105981142D01*
X62277664Y-105981144D01*
X62377132Y-106047606D01*
X62448677Y-106095411D01*
X62453985Y-106097692D01*
X62453986Y-106097692D01*
X62637650Y-106176600D01*
X62637653Y-106176601D01*
X62642953Y-106178878D01*
X62648582Y-106180152D01*
X62648583Y-106180152D01*
X62843550Y-106224269D01*
X62843553Y-106224269D01*
X62849186Y-106225544D01*
X62854958Y-106225771D01*
X62860687Y-106226525D01*
X62860327Y-106229257D01*
X62916604Y-106248216D01*
X62960950Y-106303659D01*
X62968282Y-106374276D01*
X62936271Y-106437647D01*
X62875081Y-106473651D01*
X62865704Y-106475632D01*
X62706650Y-106502962D01*
X62706649Y-106502962D01*
X62700953Y-106503941D01*
X62502575Y-106577127D01*
X62497614Y-106580079D01*
X62497613Y-106580079D01*
X62345528Y-106670560D01*
X62320856Y-106685238D01*
X62161881Y-106824655D01*
X62030976Y-106990708D01*
X62028287Y-106995819D01*
X62028285Y-106995822D01*
X62014792Y-107021469D01*
X61932523Y-107177836D01*
X61869820Y-107379773D01*
X61844967Y-107589754D01*
X61858796Y-107800749D01*
X61860217Y-107806345D01*
X61860218Y-107806350D01*
X61893589Y-107937745D01*
X61910845Y-108005690D01*
X61999369Y-108197714D01*
X62121405Y-108370391D01*
X62272865Y-108517937D01*
X62277661Y-108521142D01*
X62277664Y-108521144D01*
X62358333Y-108575045D01*
X62448677Y-108635411D01*
X62453980Y-108637690D01*
X62453985Y-108637692D01*
X62488818Y-108652657D01*
X62506768Y-108660369D01*
X62561460Y-108705636D01*
X62582998Y-108773287D01*
X62564541Y-108841842D01*
X62511951Y-108889537D01*
X62496175Y-108895901D01*
X62476868Y-108902212D01*
X62467359Y-108906209D01*
X62278463Y-109004542D01*
X62269738Y-109010036D01*
X62099433Y-109137905D01*
X62091726Y-109144748D01*
X61944590Y-109298717D01*
X61938104Y-109306727D01*
X61818098Y-109482649D01*
X61813000Y-109491623D01*
X61723338Y-109684783D01*
X61719775Y-109694470D01*
X61664389Y-109894183D01*
X61665912Y-109902607D01*
X61678292Y-109906000D01*
X63128000Y-109906000D01*
X63196121Y-109926002D01*
X63242614Y-109979658D01*
X63254000Y-110032000D01*
X63254000Y-110288000D01*
X63233998Y-110356121D01*
X63180342Y-110402614D01*
X63128000Y-110414000D01*
X61683225Y-110414000D01*
X61669694Y-110417973D01*
X61668257Y-110427966D01*
X61698565Y-110562446D01*
X61701645Y-110572275D01*
X61781770Y-110769603D01*
X61786413Y-110778794D01*
X61897694Y-110960388D01*
X61903777Y-110968699D01*
X62043213Y-111129667D01*
X62050580Y-111136883D01*
X62214434Y-111272916D01*
X62222881Y-111278831D01*
X62406756Y-111386279D01*
X62416046Y-111390730D01*
X62500328Y-111422914D01*
X62556832Y-111465901D01*
X62581125Y-111532612D01*
X62565495Y-111601867D01*
X62509628Y-111654348D01*
X62507990Y-111655129D01*
X62502575Y-111657127D01*
X62497613Y-111660079D01*
X62497611Y-111660080D01*
X62390539Y-111723781D01*
X62320856Y-111765238D01*
X62161881Y-111904655D01*
X62030976Y-112070708D01*
X62028287Y-112075819D01*
X62028285Y-112075822D01*
X61982632Y-112162595D01*
X61932523Y-112257836D01*
X61869820Y-112459773D01*
X61844967Y-112669754D01*
X61845345Y-112675520D01*
X61857411Y-112859610D01*
X61858796Y-112880749D01*
X61860217Y-112886345D01*
X61860218Y-112886350D01*
X61893252Y-113016418D01*
X61910845Y-113085690D01*
X61913262Y-113090933D01*
X61993477Y-113264934D01*
X61999369Y-113277714D01*
X62121405Y-113450391D01*
X62272865Y-113597937D01*
X62277661Y-113601142D01*
X62277664Y-113601144D01*
X62410142Y-113689663D01*
X62448677Y-113715411D01*
X62453985Y-113717692D01*
X62453986Y-113717692D01*
X62637650Y-113796600D01*
X62637653Y-113796601D01*
X62642953Y-113798878D01*
X62648582Y-113800152D01*
X62648583Y-113800152D01*
X62843550Y-113844269D01*
X62843553Y-113844269D01*
X62849186Y-113845544D01*
X62854958Y-113845771D01*
X62860687Y-113846525D01*
X62860327Y-113849257D01*
X62916604Y-113868216D01*
X62960950Y-113923659D01*
X62968282Y-113994276D01*
X62936271Y-114057647D01*
X62875081Y-114093651D01*
X62865704Y-114095632D01*
X62706650Y-114122962D01*
X62706649Y-114122962D01*
X62700953Y-114123941D01*
X62502575Y-114197127D01*
X62497614Y-114200079D01*
X62497613Y-114200079D01*
X62480089Y-114210505D01*
X62320856Y-114305238D01*
X62161881Y-114444655D01*
X62030976Y-114610708D01*
X62028287Y-114615819D01*
X62028285Y-114615822D01*
X61999992Y-114669598D01*
X61932523Y-114797836D01*
X61903347Y-114891799D01*
X61897272Y-114911364D01*
X61857969Y-114970489D01*
X61792940Y-114998980D01*
X61776939Y-115000000D01*
X54526500Y-115000000D01*
X54458379Y-114979998D01*
X54411886Y-114926342D01*
X54400500Y-114874000D01*
X54400500Y-113293138D01*
X58844758Y-113293138D01*
X58862035Y-113449633D01*
X58916143Y-113597490D01*
X58920380Y-113603796D01*
X58920382Y-113603799D01*
X58954819Y-113655046D01*
X59003958Y-113728172D01*
X59026270Y-113748474D01*
X59079160Y-113796600D01*
X59120410Y-113834135D01*
X59149425Y-113849889D01*
X59252099Y-113905637D01*
X59252101Y-113905638D01*
X59258776Y-113909262D01*
X59266125Y-113911190D01*
X59403719Y-113947287D01*
X59403721Y-113947287D01*
X59411069Y-113949215D01*
X59494380Y-113950524D01*
X59560898Y-113951569D01*
X59560901Y-113951569D01*
X59568495Y-113951688D01*
X59721968Y-113916538D01*
X59862625Y-113845795D01*
X59963150Y-113759939D01*
X59976574Y-113748474D01*
X59976576Y-113748471D01*
X59982348Y-113743542D01*
X60074224Y-113615683D01*
X60132950Y-113469598D01*
X60155134Y-113313723D01*
X60155278Y-113300000D01*
X60153405Y-113284518D01*
X60143336Y-113201318D01*
X60136363Y-113143694D01*
X60118195Y-113095613D01*
X60083394Y-113003514D01*
X60083393Y-113003511D01*
X60080710Y-112996412D01*
X59991531Y-112866657D01*
X59923923Y-112806420D01*
X59879648Y-112766972D01*
X59879645Y-112766970D01*
X59873976Y-112761919D01*
X59734831Y-112688245D01*
X59718122Y-112684048D01*
X59589498Y-112651740D01*
X59589496Y-112651740D01*
X59582128Y-112649889D01*
X59574530Y-112649849D01*
X59574528Y-112649849D01*
X59507319Y-112649497D01*
X59424684Y-112649065D01*
X59417305Y-112650837D01*
X59417301Y-112650837D01*
X59278967Y-112684048D01*
X59278963Y-112684049D01*
X59271588Y-112685820D01*
X59131679Y-112758032D01*
X59125957Y-112763024D01*
X59125955Y-112763025D01*
X59018759Y-112856538D01*
X59018756Y-112856541D01*
X59013034Y-112861533D01*
X58997354Y-112883844D01*
X58936992Y-112969730D01*
X58922501Y-112990348D01*
X58865309Y-113137039D01*
X58859871Y-113178341D01*
X58845893Y-113284518D01*
X58844758Y-113293138D01*
X54400500Y-113293138D01*
X54400500Y-112970176D01*
X54401828Y-112958296D01*
X54401317Y-112958255D01*
X54402037Y-112949307D01*
X54404018Y-112940552D01*
X54400742Y-112887745D01*
X54400500Y-112879943D01*
X54400500Y-112864060D01*
X54399423Y-112856538D01*
X54399052Y-112853942D01*
X54398022Y-112843891D01*
X54395697Y-112806420D01*
X54395697Y-112806419D01*
X54395141Y-112797461D01*
X54392093Y-112789017D01*
X54391328Y-112785324D01*
X54387653Y-112770584D01*
X54386596Y-112766968D01*
X54385323Y-112758082D01*
X54366067Y-112715730D01*
X54362255Y-112706367D01*
X54346460Y-112662613D01*
X54341162Y-112655361D01*
X54339383Y-112652015D01*
X54331726Y-112638911D01*
X54329697Y-112635739D01*
X54325984Y-112627572D01*
X54320129Y-112620776D01*
X54320127Y-112620774D01*
X54295610Y-112592321D01*
X54289325Y-112584405D01*
X54284352Y-112577598D01*
X54284346Y-112577591D01*
X54281477Y-112573664D01*
X54270741Y-112562928D01*
X54264383Y-112556081D01*
X54238259Y-112525763D01*
X54232400Y-112518963D01*
X54224866Y-112514079D01*
X54218104Y-112508181D01*
X54218108Y-112508176D01*
X54207013Y-112499200D01*
X54037404Y-112329590D01*
X54003379Y-112267278D01*
X54000500Y-112240495D01*
X54000500Y-110958857D01*
X54024177Y-110885331D01*
X54069793Y-110821849D01*
X54074224Y-110815683D01*
X54083287Y-110793138D01*
X57644758Y-110793138D01*
X57662035Y-110949633D01*
X57664645Y-110956765D01*
X57713460Y-111090157D01*
X57716143Y-111097490D01*
X57720380Y-111103796D01*
X57720382Y-111103799D01*
X57737765Y-111129667D01*
X57803958Y-111228172D01*
X57821978Y-111244569D01*
X57913079Y-111327464D01*
X57920410Y-111334135D01*
X57932796Y-111340860D01*
X58052099Y-111405637D01*
X58052101Y-111405638D01*
X58058776Y-111409262D01*
X58066125Y-111411190D01*
X58203719Y-111447287D01*
X58203721Y-111447287D01*
X58211069Y-111449215D01*
X58294380Y-111450524D01*
X58360898Y-111451569D01*
X58360901Y-111451569D01*
X58368495Y-111451688D01*
X58521968Y-111416538D01*
X58662625Y-111345795D01*
X58718477Y-111298093D01*
X58776574Y-111248474D01*
X58776576Y-111248471D01*
X58782348Y-111243542D01*
X58874224Y-111115683D01*
X58932950Y-110969598D01*
X58947556Y-110866972D01*
X58954553Y-110817807D01*
X58954553Y-110817804D01*
X58955134Y-110813723D01*
X58955278Y-110800000D01*
X58953856Y-110788245D01*
X58946194Y-110724934D01*
X58936363Y-110643694D01*
X58897739Y-110541478D01*
X58883394Y-110503514D01*
X58883393Y-110503511D01*
X58880710Y-110496412D01*
X58791531Y-110366657D01*
X58726410Y-110308636D01*
X58679648Y-110266972D01*
X58679645Y-110266970D01*
X58673976Y-110261919D01*
X58651256Y-110249889D01*
X58552178Y-110197430D01*
X58534831Y-110188245D01*
X58525177Y-110185820D01*
X58389498Y-110151740D01*
X58389496Y-110151740D01*
X58382128Y-110149889D01*
X58374530Y-110149849D01*
X58374528Y-110149849D01*
X58307319Y-110149497D01*
X58224684Y-110149065D01*
X58217305Y-110150837D01*
X58217301Y-110150837D01*
X58078967Y-110184048D01*
X58078963Y-110184049D01*
X58071588Y-110185820D01*
X57988037Y-110228944D01*
X57943870Y-110251740D01*
X57931679Y-110258032D01*
X57925957Y-110263024D01*
X57925955Y-110263025D01*
X57818759Y-110356538D01*
X57818756Y-110356541D01*
X57813034Y-110361533D01*
X57793518Y-110389301D01*
X57742753Y-110461533D01*
X57722501Y-110490348D01*
X57665309Y-110637039D01*
X57660094Y-110676652D01*
X57645955Y-110784048D01*
X57644758Y-110793138D01*
X54083287Y-110793138D01*
X54132950Y-110669598D01*
X54145239Y-110583252D01*
X54154553Y-110517807D01*
X54154553Y-110517804D01*
X54155134Y-110513723D01*
X54155278Y-110500000D01*
X54136363Y-110343694D01*
X54131175Y-110329963D01*
X54083394Y-110203514D01*
X54083393Y-110203511D01*
X54080710Y-110196412D01*
X53991531Y-110066657D01*
X53921357Y-110004134D01*
X53879648Y-109966972D01*
X53879645Y-109966970D01*
X53873976Y-109961919D01*
X53734831Y-109888245D01*
X53699299Y-109879320D01*
X53589498Y-109851740D01*
X53589496Y-109851740D01*
X53582128Y-109849889D01*
X53574530Y-109849849D01*
X53574528Y-109849849D01*
X53507319Y-109849497D01*
X53424684Y-109849065D01*
X53417305Y-109850837D01*
X53417301Y-109850837D01*
X53278967Y-109884048D01*
X53278963Y-109884049D01*
X53271588Y-109885820D01*
X53239064Y-109902607D01*
X53171698Y-109937377D01*
X53131679Y-109958032D01*
X53125957Y-109963024D01*
X53125955Y-109963025D01*
X53018759Y-110056538D01*
X53018756Y-110056541D01*
X53013034Y-110061533D01*
X53008667Y-110067747D01*
X52926929Y-110184048D01*
X52922501Y-110190348D01*
X52865309Y-110337039D01*
X52863440Y-110351234D01*
X52862854Y-110355687D01*
X52834132Y-110420615D01*
X52774868Y-110459707D01*
X52703876Y-110460552D01*
X52654113Y-110433319D01*
X52648105Y-110427966D01*
X52573976Y-110361919D01*
X52551256Y-110349889D01*
X52486652Y-110315683D01*
X52434831Y-110288245D01*
X52350139Y-110266972D01*
X52289498Y-110251740D01*
X52289496Y-110251740D01*
X52282128Y-110249889D01*
X52274530Y-110249849D01*
X52274528Y-110249849D01*
X52207319Y-110249497D01*
X52124684Y-110249065D01*
X52117305Y-110250837D01*
X52117301Y-110250837D01*
X51978967Y-110284048D01*
X51978963Y-110284049D01*
X51971588Y-110285820D01*
X51964843Y-110289301D01*
X51964844Y-110289301D01*
X51843870Y-110351740D01*
X51831679Y-110358032D01*
X51825957Y-110363024D01*
X51825955Y-110363025D01*
X51718759Y-110456538D01*
X51718756Y-110456541D01*
X51713034Y-110461533D01*
X51666726Y-110527423D01*
X51663625Y-110531835D01*
X51608090Y-110576066D01*
X51537458Y-110583252D01*
X51476719Y-110553460D01*
X51379648Y-110466972D01*
X51379645Y-110466970D01*
X51373976Y-110461919D01*
X51234831Y-110388245D01*
X51218122Y-110384048D01*
X51089498Y-110351740D01*
X51089496Y-110351740D01*
X51082128Y-110349889D01*
X51074530Y-110349849D01*
X51074528Y-110349849D01*
X51007319Y-110349497D01*
X50924684Y-110349065D01*
X50917305Y-110350837D01*
X50917301Y-110350837D01*
X50778967Y-110384048D01*
X50778963Y-110384049D01*
X50771588Y-110385820D01*
X50764843Y-110389301D01*
X50764844Y-110389301D01*
X50671698Y-110437377D01*
X50631679Y-110458032D01*
X50625957Y-110463024D01*
X50625955Y-110463025D01*
X50518759Y-110556538D01*
X50518756Y-110556541D01*
X50513034Y-110561533D01*
X50491814Y-110591726D01*
X50477639Y-110611895D01*
X50463647Y-110628539D01*
X50462921Y-110629265D01*
X50456075Y-110635623D01*
X50418963Y-110667600D01*
X50414080Y-110675134D01*
X50408181Y-110681896D01*
X50408176Y-110681892D01*
X50399200Y-110692986D01*
X49663930Y-111428256D01*
X49601618Y-111462282D01*
X49530803Y-111457217D01*
X49473967Y-111414670D01*
X49449748Y-111354299D01*
X49441281Y-111284333D01*
X49436363Y-111243694D01*
X49427381Y-111219923D01*
X49383394Y-111103514D01*
X49383393Y-111103511D01*
X49380710Y-111096412D01*
X49291531Y-110966657D01*
X49237235Y-110918281D01*
X49179648Y-110866972D01*
X49179645Y-110866970D01*
X49173976Y-110861919D01*
X49034831Y-110788245D01*
X48997205Y-110778794D01*
X48889498Y-110751740D01*
X48889496Y-110751740D01*
X48882128Y-110749889D01*
X48874530Y-110749849D01*
X48874528Y-110749849D01*
X48807319Y-110749497D01*
X48724684Y-110749065D01*
X48717305Y-110750837D01*
X48717301Y-110750837D01*
X48578967Y-110784048D01*
X48578963Y-110784049D01*
X48571588Y-110785820D01*
X48564843Y-110789301D01*
X48564844Y-110789301D01*
X48441578Y-110852923D01*
X48431679Y-110858032D01*
X48425957Y-110863024D01*
X48425955Y-110863025D01*
X48318759Y-110956538D01*
X48318756Y-110956541D01*
X48313034Y-110961533D01*
X48308667Y-110967747D01*
X48238628Y-111067402D01*
X48222501Y-111090348D01*
X48217368Y-111103514D01*
X48171225Y-111221866D01*
X48165309Y-111237039D01*
X48164318Y-111244564D01*
X48164317Y-111244569D01*
X48157271Y-111298093D01*
X48128549Y-111363020D01*
X48121444Y-111370742D01*
X44789591Y-114702595D01*
X44727279Y-114736621D01*
X44700496Y-114739500D01*
X38114415Y-114739500D01*
X38046294Y-114719498D01*
X38001409Y-114669229D01*
X37987719Y-114641469D01*
X37985165Y-114636290D01*
X37880325Y-114495892D01*
X37862104Y-114471491D01*
X37862103Y-114471490D01*
X37858651Y-114466867D01*
X37703381Y-114323337D01*
X37524554Y-114210505D01*
X37328160Y-114132152D01*
X37322503Y-114131027D01*
X37322497Y-114131025D01*
X37125234Y-114091788D01*
X37062324Y-114058881D01*
X37027192Y-113997186D01*
X37030992Y-113926291D01*
X37072517Y-113868705D01*
X37131734Y-113843513D01*
X37264015Y-113824333D01*
X37264019Y-113824332D01*
X37269730Y-113823504D01*
X37348987Y-113796600D01*
X37464483Y-113757395D01*
X37464488Y-113757393D01*
X37469955Y-113755537D01*
X37502382Y-113737377D01*
X37649395Y-113655046D01*
X37649399Y-113655043D01*
X37654442Y-113652219D01*
X37817012Y-113517012D01*
X37952219Y-113354442D01*
X38002346Y-113264934D01*
X38053083Y-113215272D01*
X38112280Y-113200500D01*
X44929819Y-113200500D01*
X44941704Y-113201828D01*
X44941745Y-113201318D01*
X44950691Y-113202038D01*
X44959447Y-113204019D01*
X45012263Y-113200742D01*
X45020067Y-113200500D01*
X45035940Y-113200500D01*
X45046052Y-113199052D01*
X45056106Y-113198022D01*
X45084097Y-113196285D01*
X45102538Y-113195141D01*
X45110982Y-113192093D01*
X45114694Y-113191324D01*
X45129399Y-113187657D01*
X45133027Y-113186596D01*
X45141918Y-113185323D01*
X45184282Y-113166061D01*
X45193637Y-113162254D01*
X45228943Y-113149509D01*
X45228947Y-113149507D01*
X45237387Y-113146460D01*
X45244635Y-113141165D01*
X45247975Y-113139389D01*
X45261089Y-113131726D01*
X45264261Y-113129697D01*
X45272428Y-113125984D01*
X45279223Y-113120129D01*
X45279226Y-113120127D01*
X45307675Y-113095613D01*
X45315596Y-113089324D01*
X45322402Y-113084352D01*
X45326336Y-113081478D01*
X45337079Y-113070735D01*
X45343926Y-113064377D01*
X45381037Y-113032400D01*
X45385920Y-113024866D01*
X45391819Y-113018104D01*
X45391824Y-113018108D01*
X45400800Y-113007014D01*
X47726819Y-110680995D01*
X47787785Y-110647270D01*
X47914563Y-110618234D01*
X47921968Y-110616538D01*
X48062625Y-110545795D01*
X48121054Y-110495892D01*
X48176574Y-110448474D01*
X48176576Y-110448471D01*
X48182348Y-110443542D01*
X48274224Y-110315683D01*
X48332950Y-110169598D01*
X48347445Y-110067747D01*
X48354553Y-110017807D01*
X48354553Y-110017804D01*
X48355134Y-110013723D01*
X48355278Y-110000000D01*
X48353668Y-109986691D01*
X48350420Y-109959856D01*
X48336363Y-109843694D01*
X48330327Y-109827720D01*
X48308909Y-109771037D01*
X48303541Y-109700244D01*
X48337299Y-109637787D01*
X48399465Y-109603495D01*
X48426775Y-109600500D01*
X48740496Y-109600500D01*
X48808617Y-109620502D01*
X48829591Y-109637405D01*
X48996466Y-109804280D01*
X49003932Y-109813624D01*
X49004322Y-109813292D01*
X49010140Y-109820128D01*
X49014930Y-109827720D01*
X49021658Y-109833662D01*
X49021659Y-109833663D01*
X49054600Y-109862755D01*
X49060288Y-109868102D01*
X49071506Y-109879320D01*
X49075094Y-109882009D01*
X49075095Y-109882010D01*
X49079684Y-109885450D01*
X49087523Y-109891832D01*
X49099724Y-109902607D01*
X49122388Y-109922623D01*
X49130511Y-109926437D01*
X49133664Y-109928508D01*
X49146676Y-109936327D01*
X49149994Y-109938143D01*
X49157176Y-109943526D01*
X49200741Y-109959858D01*
X49210050Y-109963780D01*
X49252163Y-109983553D01*
X49261036Y-109984935D01*
X49264658Y-109986042D01*
X49279328Y-109989891D01*
X49283017Y-109990702D01*
X49291419Y-109993852D01*
X49300364Y-109994517D01*
X49300374Y-109994519D01*
X49337828Y-109997302D01*
X49347855Y-109998452D01*
X49361009Y-110000500D01*
X49376203Y-110000500D01*
X49385541Y-110000846D01*
X49434391Y-110004476D01*
X49443167Y-110002603D01*
X49452124Y-110001992D01*
X49452124Y-110001998D01*
X49466317Y-110000500D01*
X49634700Y-110000500D01*
X49702821Y-110020502D01*
X49708454Y-110024827D01*
X49708600Y-110024622D01*
X49714790Y-110029021D01*
X49720410Y-110034135D01*
X49727087Y-110037760D01*
X49727088Y-110037761D01*
X49852099Y-110105637D01*
X49852101Y-110105638D01*
X49858776Y-110109262D01*
X49866125Y-110111190D01*
X50003719Y-110147287D01*
X50003721Y-110147287D01*
X50011069Y-110149215D01*
X50094380Y-110150524D01*
X50160898Y-110151569D01*
X50160901Y-110151569D01*
X50168495Y-110151688D01*
X50321968Y-110116538D01*
X50462625Y-110045795D01*
X50505006Y-110009598D01*
X50576574Y-109948474D01*
X50576576Y-109948471D01*
X50582348Y-109943542D01*
X50674224Y-109815683D01*
X50732950Y-109669598D01*
X50744870Y-109585841D01*
X50754553Y-109517807D01*
X50754553Y-109517804D01*
X50755134Y-109513723D01*
X50755278Y-109500000D01*
X50736363Y-109343694D01*
X50721028Y-109303110D01*
X50683394Y-109203514D01*
X50683393Y-109203511D01*
X50680710Y-109196412D01*
X50591531Y-109066657D01*
X50567020Y-109044818D01*
X50529466Y-108984569D01*
X50530447Y-108913580D01*
X50569009Y-108854935D01*
X50582348Y-108843542D01*
X50674224Y-108715683D01*
X50732950Y-108569598D01*
X50755134Y-108413723D01*
X50755278Y-108400000D01*
X50751800Y-108371262D01*
X50763472Y-108301233D01*
X50811153Y-108248630D01*
X50848756Y-108233306D01*
X50885382Y-108224917D01*
X50914564Y-108218234D01*
X50914566Y-108218233D01*
X50921968Y-108216538D01*
X51062625Y-108145795D01*
X51088869Y-108123381D01*
X51176574Y-108048474D01*
X51176576Y-108048471D01*
X51182348Y-108043542D01*
X51274224Y-107915683D01*
X51280148Y-107900948D01*
X51320427Y-107800749D01*
X51332950Y-107769598D01*
X51346162Y-107676763D01*
X51354553Y-107617807D01*
X51354553Y-107617804D01*
X51355134Y-107613723D01*
X51355278Y-107600000D01*
X51336363Y-107443694D01*
X51314377Y-107385510D01*
X51283394Y-107303514D01*
X51283393Y-107303511D01*
X51280710Y-107296412D01*
X51276412Y-107290158D01*
X51276408Y-107290151D01*
X51222661Y-107211950D01*
X51200500Y-107140582D01*
X51200500Y-98158857D01*
X51224177Y-98085331D01*
X51252586Y-98045795D01*
X51274224Y-98015683D01*
X51332950Y-97869598D01*
X51355134Y-97713723D01*
X51355278Y-97700000D01*
X51336363Y-97543694D01*
X51321415Y-97504134D01*
X51283394Y-97403514D01*
X51283393Y-97403511D01*
X51280710Y-97396412D01*
X51191531Y-97266657D01*
X51131448Y-97213125D01*
X51079648Y-97166972D01*
X51079645Y-97166970D01*
X51073976Y-97161919D01*
X50944072Y-97093138D01*
X54344758Y-97093138D01*
X54362035Y-97249633D01*
X54364645Y-97256765D01*
X54413460Y-97390157D01*
X54416143Y-97397490D01*
X54420380Y-97403796D01*
X54420382Y-97403799D01*
X54460709Y-97463811D01*
X54503958Y-97528172D01*
X54620410Y-97634135D01*
X54641885Y-97645795D01*
X54752099Y-97705637D01*
X54752101Y-97705638D01*
X54758776Y-97709262D01*
X54766125Y-97711190D01*
X54903719Y-97747287D01*
X54903721Y-97747287D01*
X54911069Y-97749215D01*
X54994380Y-97750524D01*
X55060898Y-97751569D01*
X55060901Y-97751569D01*
X55068495Y-97751688D01*
X55221968Y-97716538D01*
X55362625Y-97645795D01*
X55473342Y-97551234D01*
X55476574Y-97548474D01*
X55476576Y-97548471D01*
X55482348Y-97543542D01*
X55574224Y-97415683D01*
X55632950Y-97269598D01*
X55647556Y-97166972D01*
X55654553Y-97117807D01*
X55654553Y-97117804D01*
X55655134Y-97113723D01*
X55655278Y-97100000D01*
X55653856Y-97088245D01*
X55638098Y-96958032D01*
X55636363Y-96943694D01*
X55631175Y-96929963D01*
X55583394Y-96803514D01*
X55583393Y-96803511D01*
X55580710Y-96796412D01*
X55491531Y-96666657D01*
X55421357Y-96604134D01*
X55379648Y-96566972D01*
X55379645Y-96566970D01*
X55373976Y-96561919D01*
X55234831Y-96488245D01*
X55218122Y-96484048D01*
X55089498Y-96451740D01*
X55089496Y-96451740D01*
X55082128Y-96449889D01*
X55074530Y-96449849D01*
X55074528Y-96449849D01*
X55007319Y-96449497D01*
X54924684Y-96449065D01*
X54917305Y-96450837D01*
X54917301Y-96450837D01*
X54778967Y-96484048D01*
X54778963Y-96484049D01*
X54771588Y-96485820D01*
X54631679Y-96558032D01*
X54625957Y-96563024D01*
X54625955Y-96563025D01*
X54518759Y-96656538D01*
X54518756Y-96656541D01*
X54513034Y-96661533D01*
X54508667Y-96667747D01*
X54432127Y-96776652D01*
X54422501Y-96790348D01*
X54365309Y-96937039D01*
X54361888Y-96963025D01*
X54345955Y-97084048D01*
X54344758Y-97093138D01*
X50944072Y-97093138D01*
X50934831Y-97088245D01*
X50918122Y-97084048D01*
X50789498Y-97051740D01*
X50789496Y-97051740D01*
X50782128Y-97049889D01*
X50774530Y-97049849D01*
X50774528Y-97049849D01*
X50707319Y-97049497D01*
X50624684Y-97049065D01*
X50617305Y-97050837D01*
X50617301Y-97050837D01*
X50478967Y-97084048D01*
X50478963Y-97084049D01*
X50471588Y-97085820D01*
X50331679Y-97158032D01*
X50325957Y-97163024D01*
X50325955Y-97163025D01*
X50218759Y-97256538D01*
X50218756Y-97256541D01*
X50213034Y-97261533D01*
X50122501Y-97390348D01*
X50065309Y-97537039D01*
X50064318Y-97544568D01*
X50049547Y-97656765D01*
X50044758Y-97693138D01*
X50062035Y-97849633D01*
X50116143Y-97997490D01*
X50120380Y-98003796D01*
X50120382Y-98003799D01*
X50178081Y-98089663D01*
X50199500Y-98159939D01*
X50199500Y-107140941D01*
X50176587Y-107213392D01*
X50122501Y-107290348D01*
X50065309Y-107437039D01*
X50064318Y-107444568D01*
X50045959Y-107584019D01*
X50044758Y-107593138D01*
X50047724Y-107620000D01*
X50048820Y-107629930D01*
X50036414Y-107699834D01*
X49988185Y-107751935D01*
X49952995Y-107766276D01*
X49878967Y-107784048D01*
X49878963Y-107784049D01*
X49871588Y-107785820D01*
X49731679Y-107858032D01*
X49719737Y-107868450D01*
X49655257Y-107898157D01*
X49636909Y-107899500D01*
X45470176Y-107899500D01*
X45458296Y-107898172D01*
X45458255Y-107898683D01*
X45449307Y-107897963D01*
X45440552Y-107895982D01*
X45397014Y-107898683D01*
X45387745Y-107899258D01*
X45379943Y-107899500D01*
X45364060Y-107899500D01*
X45359612Y-107900137D01*
X45359610Y-107900137D01*
X45353942Y-107900948D01*
X45343891Y-107901978D01*
X45306420Y-107904303D01*
X45306419Y-107904303D01*
X45297461Y-107904859D01*
X45289017Y-107907907D01*
X45285324Y-107908672D01*
X45270584Y-107912347D01*
X45266968Y-107913404D01*
X45258082Y-107914677D01*
X45215734Y-107933932D01*
X45206367Y-107937745D01*
X45162613Y-107953540D01*
X45155361Y-107958838D01*
X45152015Y-107960617D01*
X45138911Y-107968274D01*
X45135739Y-107970303D01*
X45127572Y-107974016D01*
X45120776Y-107979871D01*
X45120774Y-107979873D01*
X45092321Y-108004390D01*
X45084405Y-108010675D01*
X45077598Y-108015648D01*
X45077591Y-108015654D01*
X45073664Y-108018523D01*
X45062928Y-108029259D01*
X45056082Y-108035616D01*
X45018963Y-108067600D01*
X45014079Y-108075134D01*
X45008181Y-108081896D01*
X45008176Y-108081892D01*
X44999200Y-108092987D01*
X44829590Y-108262596D01*
X44767278Y-108296621D01*
X44740495Y-108299500D01*
X38439504Y-108299500D01*
X38371383Y-108279498D01*
X38350409Y-108262595D01*
X38141917Y-108054103D01*
X38107891Y-107991791D01*
X38111699Y-107924507D01*
X38121647Y-107895201D01*
X38121647Y-107895200D01*
X38123504Y-107889730D01*
X38128606Y-107854547D01*
X38153314Y-107684140D01*
X38153314Y-107684138D01*
X38153846Y-107680470D01*
X38155429Y-107620000D01*
X38136081Y-107409440D01*
X38078686Y-107205931D01*
X38067553Y-107183354D01*
X37987719Y-107021469D01*
X37985165Y-107016290D01*
X37858651Y-106846867D01*
X37703381Y-106703337D01*
X37698497Y-106700256D01*
X37698490Y-106700250D01*
X37651435Y-106670560D01*
X37604497Y-106617293D01*
X37593809Y-106547106D01*
X37622763Y-106482282D01*
X37682168Y-106443403D01*
X37718671Y-106437999D01*
X37894669Y-106437999D01*
X37901490Y-106437629D01*
X37952352Y-106432105D01*
X37967604Y-106428479D01*
X38088054Y-106383324D01*
X38103649Y-106374786D01*
X38205724Y-106298285D01*
X38218285Y-106285724D01*
X38294786Y-106183649D01*
X38303324Y-106168054D01*
X38348478Y-106047606D01*
X38352105Y-106032351D01*
X38357631Y-105981486D01*
X38358000Y-105974672D01*
X38358000Y-105352115D01*
X38353525Y-105336876D01*
X38352135Y-105335671D01*
X38344452Y-105334000D01*
X36872000Y-105334000D01*
X36803879Y-105313998D01*
X36757386Y-105260342D01*
X36746000Y-105208000D01*
X36746000Y-104807885D01*
X37254000Y-104807885D01*
X37258475Y-104823124D01*
X37259865Y-104824329D01*
X37267548Y-104826000D01*
X38339884Y-104826000D01*
X38355123Y-104821525D01*
X38356328Y-104820135D01*
X38357999Y-104812452D01*
X38357999Y-104593138D01*
X47044758Y-104593138D01*
X47062035Y-104749633D01*
X47116143Y-104897490D01*
X47120380Y-104903796D01*
X47120382Y-104903799D01*
X47137964Y-104929963D01*
X47203958Y-105028172D01*
X47320410Y-105134135D01*
X47327085Y-105137759D01*
X47452099Y-105205637D01*
X47452101Y-105205638D01*
X47458776Y-105209262D01*
X47466125Y-105211190D01*
X47603719Y-105247287D01*
X47603721Y-105247287D01*
X47611069Y-105249215D01*
X47694380Y-105250524D01*
X47760898Y-105251569D01*
X47760901Y-105251569D01*
X47768495Y-105251688D01*
X47921968Y-105216538D01*
X48062625Y-105145795D01*
X48115439Y-105100688D01*
X48176574Y-105048474D01*
X48176576Y-105048471D01*
X48182348Y-105043542D01*
X48274224Y-104915683D01*
X48332950Y-104769598D01*
X48351702Y-104637836D01*
X48354553Y-104617807D01*
X48354553Y-104617804D01*
X48355134Y-104613723D01*
X48355278Y-104600000D01*
X48336363Y-104443694D01*
X48326696Y-104418112D01*
X48283394Y-104303514D01*
X48283393Y-104303511D01*
X48280710Y-104296412D01*
X48191531Y-104166657D01*
X48130630Y-104112396D01*
X48079648Y-104066972D01*
X48079645Y-104066970D01*
X48073976Y-104061919D01*
X47934831Y-103988245D01*
X47887479Y-103976351D01*
X47789498Y-103951740D01*
X47789496Y-103951740D01*
X47782128Y-103949889D01*
X47774530Y-103949849D01*
X47774528Y-103949849D01*
X47707319Y-103949497D01*
X47624684Y-103949065D01*
X47617305Y-103950837D01*
X47617301Y-103950837D01*
X47478967Y-103984048D01*
X47478963Y-103984049D01*
X47471588Y-103985820D01*
X47464843Y-103989301D01*
X47464844Y-103989301D01*
X47350407Y-104048366D01*
X47331679Y-104058032D01*
X47325957Y-104063024D01*
X47325955Y-104063025D01*
X47218759Y-104156538D01*
X47218756Y-104156541D01*
X47213034Y-104161533D01*
X47122501Y-104290348D01*
X47065309Y-104437039D01*
X47059756Y-104479221D01*
X47049380Y-104558032D01*
X47044758Y-104593138D01*
X38357999Y-104593138D01*
X38357999Y-104185331D01*
X38357629Y-104178510D01*
X38352105Y-104127648D01*
X38348479Y-104112396D01*
X38303324Y-103991946D01*
X38294786Y-103976351D01*
X38218285Y-103874276D01*
X38205724Y-103861715D01*
X38103649Y-103785214D01*
X38088054Y-103776676D01*
X37967606Y-103731522D01*
X37952351Y-103727895D01*
X37901486Y-103722369D01*
X37894672Y-103722000D01*
X37272115Y-103722000D01*
X37256876Y-103726475D01*
X37255671Y-103727865D01*
X37254000Y-103735548D01*
X37254000Y-104807885D01*
X36746000Y-104807885D01*
X36746000Y-103740116D01*
X36741525Y-103724877D01*
X36740135Y-103723672D01*
X36732452Y-103722001D01*
X36105331Y-103722001D01*
X36098510Y-103722371D01*
X36047648Y-103727895D01*
X36032397Y-103731521D01*
X35970730Y-103754639D01*
X35899923Y-103759822D01*
X35837554Y-103725902D01*
X35803425Y-103663646D01*
X35800500Y-103636657D01*
X35800500Y-103493138D01*
X45044758Y-103493138D01*
X45062035Y-103649633D01*
X45116143Y-103797490D01*
X45120380Y-103803796D01*
X45120382Y-103803799D01*
X45159301Y-103861715D01*
X45203958Y-103928172D01*
X45320410Y-104034135D01*
X45380369Y-104066690D01*
X45452099Y-104105637D01*
X45452101Y-104105638D01*
X45458776Y-104109262D01*
X45466125Y-104111190D01*
X45603719Y-104147287D01*
X45603721Y-104147287D01*
X45611069Y-104149215D01*
X45694380Y-104150524D01*
X45760898Y-104151569D01*
X45760901Y-104151569D01*
X45768495Y-104151688D01*
X45921968Y-104116538D01*
X46062625Y-104045795D01*
X46125674Y-103991946D01*
X46176574Y-103948474D01*
X46176576Y-103948471D01*
X46182348Y-103943542D01*
X46274224Y-103815683D01*
X46332950Y-103669598D01*
X46343892Y-103592713D01*
X46354553Y-103517807D01*
X46354553Y-103517804D01*
X46355134Y-103513723D01*
X46355278Y-103500000D01*
X46354337Y-103492219D01*
X46348156Y-103441144D01*
X46336363Y-103343694D01*
X46314440Y-103285676D01*
X46283394Y-103203514D01*
X46283393Y-103203511D01*
X46280710Y-103196412D01*
X46191531Y-103066657D01*
X46127890Y-103009955D01*
X46079648Y-102966972D01*
X46079645Y-102966970D01*
X46073976Y-102961919D01*
X45934831Y-102888245D01*
X45918122Y-102884048D01*
X45789498Y-102851740D01*
X45789496Y-102851740D01*
X45782128Y-102849889D01*
X45774530Y-102849849D01*
X45774528Y-102849849D01*
X45707319Y-102849497D01*
X45624684Y-102849065D01*
X45617305Y-102850837D01*
X45617301Y-102850837D01*
X45478967Y-102884048D01*
X45478963Y-102884049D01*
X45471588Y-102885820D01*
X45331679Y-102958032D01*
X45325957Y-102963024D01*
X45325955Y-102963025D01*
X45218759Y-103056538D01*
X45218756Y-103056541D01*
X45213034Y-103061533D01*
X45208667Y-103067747D01*
X45160913Y-103135694D01*
X45122501Y-103190348D01*
X45065309Y-103337039D01*
X45062194Y-103360703D01*
X45052556Y-103433910D01*
X45044758Y-103493138D01*
X35800500Y-103493138D01*
X35800500Y-97493138D01*
X36844758Y-97493138D01*
X36862035Y-97649633D01*
X36916143Y-97797490D01*
X36920380Y-97803796D01*
X36920382Y-97803799D01*
X36946109Y-97842084D01*
X37003958Y-97928172D01*
X37120410Y-98034135D01*
X37127085Y-98037759D01*
X37252099Y-98105637D01*
X37252101Y-98105638D01*
X37258776Y-98109262D01*
X37266125Y-98111190D01*
X37403719Y-98147287D01*
X37403721Y-98147287D01*
X37411069Y-98149215D01*
X37494380Y-98150524D01*
X37560898Y-98151569D01*
X37560901Y-98151569D01*
X37568495Y-98151688D01*
X37721968Y-98116538D01*
X37862625Y-98045795D01*
X37927538Y-97990354D01*
X37976574Y-97948474D01*
X37976576Y-97948471D01*
X37982348Y-97943542D01*
X38074224Y-97815683D01*
X38132950Y-97669598D01*
X38139953Y-97620393D01*
X38154553Y-97517807D01*
X38154553Y-97517804D01*
X38155134Y-97513723D01*
X38155278Y-97500000D01*
X38136363Y-97343694D01*
X38105317Y-97261533D01*
X38083394Y-97203514D01*
X38083393Y-97203511D01*
X38080710Y-97196412D01*
X37991531Y-97066657D01*
X37941259Y-97021866D01*
X37879648Y-96966972D01*
X37879645Y-96966970D01*
X37873976Y-96961919D01*
X37734831Y-96888245D01*
X37718122Y-96884048D01*
X37589498Y-96851740D01*
X37589496Y-96851740D01*
X37582128Y-96849889D01*
X37574530Y-96849849D01*
X37574528Y-96849849D01*
X37507319Y-96849497D01*
X37424684Y-96849065D01*
X37417305Y-96850837D01*
X37417301Y-96850837D01*
X37278967Y-96884048D01*
X37278963Y-96884049D01*
X37271588Y-96885820D01*
X37260004Y-96891799D01*
X37159459Y-96943694D01*
X37131679Y-96958032D01*
X37125957Y-96963024D01*
X37125955Y-96963025D01*
X37018759Y-97056538D01*
X37018756Y-97056541D01*
X37013034Y-97061533D01*
X36922501Y-97190348D01*
X36865309Y-97337039D01*
X36844758Y-97493138D01*
X35800500Y-97493138D01*
X35800500Y-96593138D01*
X44544758Y-96593138D01*
X44562035Y-96749633D01*
X44616143Y-96897490D01*
X44620380Y-96903796D01*
X44620382Y-96903799D01*
X44637964Y-96929963D01*
X44703958Y-97028172D01*
X44820410Y-97134135D01*
X44880369Y-97166690D01*
X44952099Y-97205637D01*
X44952101Y-97205638D01*
X44958776Y-97209262D01*
X44966125Y-97211190D01*
X45103719Y-97247287D01*
X45103721Y-97247287D01*
X45111069Y-97249215D01*
X45194380Y-97250524D01*
X45260898Y-97251569D01*
X45260901Y-97251569D01*
X45268495Y-97251688D01*
X45421968Y-97216538D01*
X45530566Y-97161919D01*
X45544924Y-97154698D01*
X45614769Y-97141960D01*
X45661660Y-97156532D01*
X45752099Y-97205637D01*
X45752101Y-97205638D01*
X45758776Y-97209262D01*
X45766125Y-97211190D01*
X45903719Y-97247287D01*
X45903721Y-97247287D01*
X45911069Y-97249215D01*
X45994380Y-97250524D01*
X46060898Y-97251569D01*
X46060901Y-97251569D01*
X46068495Y-97251688D01*
X46221968Y-97216538D01*
X46330566Y-97161919D01*
X46344924Y-97154698D01*
X46414769Y-97141960D01*
X46461660Y-97156532D01*
X46552099Y-97205637D01*
X46552101Y-97205638D01*
X46558776Y-97209262D01*
X46566125Y-97211190D01*
X46703719Y-97247287D01*
X46703721Y-97247287D01*
X46711069Y-97249215D01*
X46794380Y-97250524D01*
X46860898Y-97251569D01*
X46860901Y-97251569D01*
X46868495Y-97251688D01*
X47021968Y-97216538D01*
X47162625Y-97145795D01*
X47221054Y-97095892D01*
X47276574Y-97048474D01*
X47276576Y-97048471D01*
X47282348Y-97043542D01*
X47374224Y-96915683D01*
X47432950Y-96769598D01*
X47447445Y-96667747D01*
X47454553Y-96617807D01*
X47454553Y-96617804D01*
X47455134Y-96613723D01*
X47455278Y-96600000D01*
X47436363Y-96443694D01*
X47399370Y-96345795D01*
X47383394Y-96303514D01*
X47383393Y-96303511D01*
X47380710Y-96296412D01*
X47291531Y-96166657D01*
X47205891Y-96090354D01*
X47179648Y-96066972D01*
X47179645Y-96066970D01*
X47173976Y-96061919D01*
X47034831Y-95988245D01*
X46960594Y-95969598D01*
X46889498Y-95951740D01*
X46889496Y-95951740D01*
X46882128Y-95949889D01*
X46874530Y-95949849D01*
X46874528Y-95949849D01*
X46807319Y-95949497D01*
X46724684Y-95949065D01*
X46717305Y-95950837D01*
X46717301Y-95950837D01*
X46578967Y-95984048D01*
X46578963Y-95984049D01*
X46571588Y-95985820D01*
X46457274Y-96044821D01*
X46387569Y-96058290D01*
X46340530Y-96044210D01*
X46234831Y-95988245D01*
X46160594Y-95969598D01*
X46089498Y-95951740D01*
X46089496Y-95951740D01*
X46082128Y-95949889D01*
X46074530Y-95949849D01*
X46074528Y-95949849D01*
X46007319Y-95949497D01*
X45924684Y-95949065D01*
X45917305Y-95950837D01*
X45917301Y-95950837D01*
X45778967Y-95984048D01*
X45778963Y-95984049D01*
X45771588Y-95985820D01*
X45657274Y-96044821D01*
X45587569Y-96058290D01*
X45540530Y-96044210D01*
X45434831Y-95988245D01*
X45360594Y-95969598D01*
X45289498Y-95951740D01*
X45289496Y-95951740D01*
X45282128Y-95949889D01*
X45274530Y-95949849D01*
X45274528Y-95949849D01*
X45207319Y-95949497D01*
X45124684Y-95949065D01*
X45117305Y-95950837D01*
X45117301Y-95950837D01*
X44978967Y-95984048D01*
X44978963Y-95984049D01*
X44971588Y-95985820D01*
X44831679Y-96058032D01*
X44825957Y-96063024D01*
X44825955Y-96063025D01*
X44718759Y-96156538D01*
X44718756Y-96156541D01*
X44713034Y-96161533D01*
X44708667Y-96167747D01*
X44651931Y-96248474D01*
X44622501Y-96290348D01*
X44565309Y-96437039D01*
X44563374Y-96451740D01*
X44548203Y-96566972D01*
X44544758Y-96593138D01*
X35800500Y-96593138D01*
X35800500Y-95793138D01*
X38744758Y-95793138D01*
X38762035Y-95949633D01*
X38816143Y-96097490D01*
X38820380Y-96103796D01*
X38820382Y-96103799D01*
X38855822Y-96156538D01*
X38903958Y-96228172D01*
X39020410Y-96334135D01*
X39027085Y-96337759D01*
X39152099Y-96405637D01*
X39152101Y-96405638D01*
X39158776Y-96409262D01*
X39166125Y-96411190D01*
X39303719Y-96447287D01*
X39303721Y-96447287D01*
X39311069Y-96449215D01*
X39394380Y-96450524D01*
X39460898Y-96451569D01*
X39460901Y-96451569D01*
X39468495Y-96451688D01*
X39621968Y-96416538D01*
X39762625Y-96345795D01*
X39827769Y-96290157D01*
X39876574Y-96248474D01*
X39876576Y-96248471D01*
X39882348Y-96243542D01*
X39974224Y-96115683D01*
X40032950Y-95969598D01*
X40055134Y-95813723D01*
X40055278Y-95800000D01*
X40036363Y-95643694D01*
X39980710Y-95496412D01*
X39891531Y-95366657D01*
X39844971Y-95325174D01*
X39779648Y-95266972D01*
X39779645Y-95266970D01*
X39773976Y-95261919D01*
X39634831Y-95188245D01*
X39618122Y-95184048D01*
X39489498Y-95151740D01*
X39489496Y-95151740D01*
X39482128Y-95149889D01*
X39474530Y-95149849D01*
X39474528Y-95149849D01*
X39407319Y-95149497D01*
X39324684Y-95149065D01*
X39317305Y-95150837D01*
X39317301Y-95150837D01*
X39178967Y-95184048D01*
X39178963Y-95184049D01*
X39171588Y-95185820D01*
X39031679Y-95258032D01*
X39025957Y-95263024D01*
X39025955Y-95263025D01*
X38918759Y-95356538D01*
X38918756Y-95356541D01*
X38913034Y-95361533D01*
X38822501Y-95490348D01*
X38765309Y-95637039D01*
X38744758Y-95793138D01*
X35800500Y-95793138D01*
X35800500Y-94537317D01*
X35802414Y-94515437D01*
X35803222Y-94510855D01*
X35805136Y-94500000D01*
X35803222Y-94489144D01*
X35803222Y-94478122D01*
X35803779Y-94478122D01*
X35803188Y-94465845D01*
X35814490Y-94322242D01*
X35817583Y-94302714D01*
X35856895Y-94138970D01*
X35863003Y-94120171D01*
X35899112Y-94032996D01*
X35927445Y-93964595D01*
X35936415Y-93946990D01*
X36024406Y-93803401D01*
X36036027Y-93787408D01*
X36145385Y-93659366D01*
X36159366Y-93645385D01*
X36287408Y-93536027D01*
X36303403Y-93524405D01*
X36446990Y-93436415D01*
X36464595Y-93427445D01*
X36620176Y-93363001D01*
X36638970Y-93356895D01*
X36802715Y-93317583D01*
X36822241Y-93314490D01*
X36965848Y-93303188D01*
X36978122Y-93303779D01*
X36978122Y-93303222D01*
X36989144Y-93303222D01*
X37000000Y-93305136D01*
X37015437Y-93302414D01*
X37037317Y-93300500D01*
X62962683Y-93300500D01*
X62984563Y-93302414D01*
G37*
%TD.AperFunction*%
%TA.AperFunction,Conductor*%
G36*
X47041290Y-109620502D02*
G01*
X47087783Y-109674158D01*
X47097887Y-109744432D01*
X47090564Y-109772264D01*
X47065309Y-109837039D01*
X47064318Y-109844564D01*
X47064317Y-109844569D01*
X47057271Y-109898093D01*
X47028549Y-109963020D01*
X47021444Y-109970742D01*
X44829591Y-112162595D01*
X44767279Y-112196621D01*
X44740496Y-112199500D01*
X38114415Y-112199500D01*
X38046294Y-112179498D01*
X38001409Y-112129229D01*
X37987719Y-112101469D01*
X37985165Y-112096290D01*
X37858651Y-111926867D01*
X37703381Y-111783337D01*
X37608991Y-111723781D01*
X37529434Y-111673584D01*
X37529433Y-111673584D01*
X37524554Y-111670505D01*
X37328160Y-111592152D01*
X37322503Y-111591027D01*
X37322497Y-111591025D01*
X37125234Y-111551788D01*
X37062324Y-111518881D01*
X37027192Y-111457186D01*
X37030992Y-111386291D01*
X37072517Y-111328705D01*
X37131734Y-111303513D01*
X37264015Y-111284333D01*
X37264019Y-111284332D01*
X37269730Y-111283504D01*
X37364798Y-111251233D01*
X37464483Y-111217395D01*
X37464488Y-111217393D01*
X37469955Y-111215537D01*
X37474998Y-111212713D01*
X37649395Y-111115046D01*
X37649399Y-111115043D01*
X37654442Y-111112219D01*
X37817012Y-110977012D01*
X37952219Y-110814442D01*
X38002346Y-110724934D01*
X38053083Y-110675272D01*
X38112280Y-110660500D01*
X45469819Y-110660500D01*
X45481704Y-110661828D01*
X45481745Y-110661318D01*
X45490691Y-110662038D01*
X45499447Y-110664019D01*
X45552263Y-110660742D01*
X45560067Y-110660500D01*
X45575940Y-110660500D01*
X45586052Y-110659052D01*
X45596106Y-110658022D01*
X45624097Y-110656285D01*
X45642538Y-110655141D01*
X45650982Y-110652093D01*
X45654694Y-110651324D01*
X45669399Y-110647657D01*
X45673027Y-110646596D01*
X45681918Y-110645323D01*
X45724282Y-110626061D01*
X45733637Y-110622254D01*
X45768943Y-110609509D01*
X45768947Y-110609507D01*
X45777387Y-110606460D01*
X45784635Y-110601165D01*
X45787975Y-110599389D01*
X45801089Y-110591726D01*
X45804261Y-110589697D01*
X45812428Y-110585984D01*
X45819223Y-110580129D01*
X45819226Y-110580127D01*
X45847675Y-110555613D01*
X45855596Y-110549324D01*
X45862402Y-110544352D01*
X45866336Y-110541478D01*
X45877079Y-110530735D01*
X45883926Y-110524377D01*
X45891551Y-110517807D01*
X45921037Y-110492400D01*
X45925920Y-110484866D01*
X45931819Y-110478104D01*
X45931824Y-110478108D01*
X45940800Y-110467014D01*
X46770409Y-109637405D01*
X46832721Y-109603379D01*
X46859504Y-109600500D01*
X46973169Y-109600500D01*
X47041290Y-109620502D01*
G37*
%TD.AperFunction*%
%TD*%
%TA.AperFunction,Conductor*%
%TO.N,GND*%
G36*
X53341621Y-115520002D02*
G01*
X53388114Y-115573658D01*
X53399500Y-115626000D01*
X53399500Y-116169102D01*
X53379498Y-116237223D01*
X53325842Y-116283716D01*
X53255568Y-116293820D01*
X53235487Y-116288592D01*
X53234831Y-116288245D01*
X53216800Y-116283716D01*
X53089498Y-116251740D01*
X53089496Y-116251740D01*
X53082128Y-116249889D01*
X53074530Y-116249849D01*
X53074528Y-116249849D01*
X53007319Y-116249497D01*
X52924684Y-116249065D01*
X52917305Y-116250837D01*
X52917301Y-116250837D01*
X52778967Y-116284048D01*
X52778963Y-116284049D01*
X52771588Y-116285820D01*
X52631679Y-116358032D01*
X52625957Y-116363024D01*
X52625955Y-116363025D01*
X52518759Y-116456538D01*
X52518756Y-116456541D01*
X52513034Y-116461533D01*
X52422501Y-116590348D01*
X52365309Y-116737039D01*
X52364318Y-116744568D01*
X52350563Y-116849048D01*
X52344758Y-116893138D01*
X52362035Y-117049633D01*
X52416143Y-117197490D01*
X52420380Y-117203796D01*
X52420382Y-117203799D01*
X52446109Y-117242084D01*
X52503958Y-117328172D01*
X52620410Y-117434135D01*
X52627085Y-117437759D01*
X52752099Y-117505637D01*
X52752101Y-117505638D01*
X52758776Y-117509262D01*
X52766125Y-117511190D01*
X52903719Y-117547287D01*
X52903721Y-117547287D01*
X52911069Y-117549215D01*
X52994380Y-117550524D01*
X53060898Y-117551569D01*
X53060901Y-117551569D01*
X53068495Y-117551688D01*
X53174804Y-117527340D01*
X53245669Y-117531629D01*
X53302967Y-117573551D01*
X53328505Y-117639795D01*
X53320325Y-117695929D01*
X53265309Y-117837039D01*
X53264318Y-117844568D01*
X53248285Y-117966350D01*
X53244758Y-117993138D01*
X53262035Y-118149633D01*
X53316143Y-118297490D01*
X53320380Y-118303796D01*
X53320382Y-118303799D01*
X53340194Y-118333282D01*
X53403958Y-118428172D01*
X53520410Y-118534135D01*
X53580369Y-118566690D01*
X53652099Y-118605637D01*
X53652101Y-118605638D01*
X53658776Y-118609262D01*
X53666125Y-118611190D01*
X53803719Y-118647287D01*
X53803721Y-118647287D01*
X53811069Y-118649215D01*
X53894380Y-118650524D01*
X53960898Y-118651569D01*
X53960901Y-118651569D01*
X53968495Y-118651688D01*
X54121968Y-118616538D01*
X54262625Y-118545795D01*
X54344641Y-118475747D01*
X54376574Y-118448474D01*
X54376576Y-118448471D01*
X54382348Y-118443542D01*
X54474224Y-118315683D01*
X54532950Y-118169598D01*
X54544022Y-118091799D01*
X54554553Y-118017807D01*
X54554553Y-118017804D01*
X54555134Y-118013723D01*
X54555278Y-118000000D01*
X54536363Y-117843694D01*
X54531175Y-117829963D01*
X54483394Y-117703514D01*
X54483393Y-117703511D01*
X54480710Y-117696412D01*
X54476412Y-117690158D01*
X54476408Y-117690151D01*
X54422661Y-117611950D01*
X54400500Y-117540582D01*
X54400500Y-117093138D01*
X58644758Y-117093138D01*
X58662035Y-117249633D01*
X58716143Y-117397490D01*
X58720380Y-117403796D01*
X58720382Y-117403799D01*
X58743203Y-117437759D01*
X58803958Y-117528172D01*
X58920410Y-117634135D01*
X58932796Y-117640860D01*
X59052099Y-117705637D01*
X59052101Y-117705638D01*
X59058776Y-117709262D01*
X59066125Y-117711190D01*
X59203719Y-117747287D01*
X59203721Y-117747287D01*
X59211069Y-117749215D01*
X59294380Y-117750524D01*
X59360898Y-117751569D01*
X59360901Y-117751569D01*
X59368495Y-117751688D01*
X59521968Y-117716538D01*
X59662625Y-117645795D01*
X59697907Y-117615661D01*
X59776574Y-117548474D01*
X59776576Y-117548471D01*
X59782348Y-117543542D01*
X59874224Y-117415683D01*
X59932950Y-117269598D01*
X59944228Y-117190354D01*
X59954553Y-117117807D01*
X59954553Y-117117804D01*
X59955134Y-117113723D01*
X59955278Y-117100000D01*
X59953342Y-117083997D01*
X59941868Y-116989185D01*
X59936363Y-116943694D01*
X59931175Y-116929963D01*
X59883394Y-116803514D01*
X59883393Y-116803511D01*
X59880710Y-116796412D01*
X59791531Y-116666657D01*
X59705884Y-116590348D01*
X59679648Y-116566972D01*
X59679645Y-116566970D01*
X59673976Y-116561919D01*
X59534831Y-116488245D01*
X59518122Y-116484048D01*
X59389498Y-116451740D01*
X59389496Y-116451740D01*
X59382128Y-116449889D01*
X59374530Y-116449849D01*
X59374528Y-116449849D01*
X59307319Y-116449497D01*
X59224684Y-116449065D01*
X59217305Y-116450837D01*
X59217301Y-116450837D01*
X59078967Y-116484048D01*
X59078963Y-116484049D01*
X59071588Y-116485820D01*
X58931679Y-116558032D01*
X58925957Y-116563024D01*
X58925955Y-116563025D01*
X58818759Y-116656538D01*
X58818756Y-116656541D01*
X58813034Y-116661533D01*
X58808667Y-116667747D01*
X58752007Y-116748366D01*
X58722501Y-116790348D01*
X58665309Y-116937039D01*
X58664318Y-116944568D01*
X58649547Y-117056765D01*
X58644758Y-117093138D01*
X54400500Y-117093138D01*
X54400500Y-115626000D01*
X54420502Y-115557879D01*
X54474158Y-115511386D01*
X54526500Y-115500000D01*
X61780923Y-115500000D01*
X61849044Y-115520002D01*
X61895537Y-115573658D01*
X61903045Y-115594982D01*
X61909422Y-115620089D01*
X61909424Y-115620094D01*
X61910845Y-115625690D01*
X61913262Y-115630933D01*
X61964150Y-115741318D01*
X61999369Y-115817714D01*
X62121405Y-115990391D01*
X62272865Y-116137937D01*
X62277661Y-116141142D01*
X62277664Y-116141144D01*
X62420936Y-116236875D01*
X62448677Y-116255411D01*
X62453985Y-116257692D01*
X62453986Y-116257692D01*
X62637650Y-116336600D01*
X62637653Y-116336601D01*
X62642953Y-116338878D01*
X62648582Y-116340152D01*
X62648583Y-116340152D01*
X62843550Y-116384269D01*
X62843553Y-116384269D01*
X62849186Y-116385544D01*
X62854958Y-116385771D01*
X62860687Y-116386525D01*
X62860327Y-116389257D01*
X62916604Y-116408216D01*
X62960950Y-116463659D01*
X62968282Y-116534276D01*
X62936271Y-116597647D01*
X62875081Y-116633651D01*
X62865704Y-116635632D01*
X62706650Y-116662962D01*
X62706649Y-116662962D01*
X62700953Y-116663941D01*
X62502575Y-116737127D01*
X62497614Y-116740079D01*
X62497613Y-116740079D01*
X62480089Y-116750505D01*
X62320856Y-116845238D01*
X62161881Y-116984655D01*
X62030976Y-117150708D01*
X62028287Y-117155819D01*
X62028285Y-117155822D01*
X62014792Y-117181469D01*
X61932523Y-117337836D01*
X61901496Y-117437759D01*
X61871836Y-117533282D01*
X61869820Y-117539773D01*
X61844967Y-117749754D01*
X61858796Y-117960749D01*
X61860217Y-117966345D01*
X61860218Y-117966350D01*
X61908578Y-118156765D01*
X61910845Y-118165690D01*
X61913262Y-118170933D01*
X61982835Y-118321849D01*
X61999369Y-118357714D01*
X62121405Y-118530391D01*
X62132152Y-118540860D01*
X62245798Y-118651569D01*
X62272865Y-118677937D01*
X62277661Y-118681142D01*
X62277664Y-118681144D01*
X62420936Y-118776875D01*
X62448677Y-118795411D01*
X62453980Y-118797690D01*
X62453985Y-118797692D01*
X62488818Y-118812657D01*
X62506768Y-118820369D01*
X62561460Y-118865636D01*
X62582998Y-118933287D01*
X62564541Y-119001842D01*
X62511951Y-119049537D01*
X62496175Y-119055901D01*
X62476868Y-119062212D01*
X62467359Y-119066209D01*
X62278463Y-119164542D01*
X62269738Y-119170036D01*
X62099433Y-119297905D01*
X62091726Y-119304748D01*
X61944590Y-119458717D01*
X61938104Y-119466727D01*
X61818098Y-119642649D01*
X61813000Y-119651623D01*
X61723338Y-119844783D01*
X61719775Y-119854470D01*
X61664389Y-120054183D01*
X61665912Y-120062607D01*
X61678292Y-120066000D01*
X63128000Y-120066000D01*
X63196121Y-120086002D01*
X63242614Y-120139658D01*
X63254000Y-120192000D01*
X63254000Y-121638517D01*
X63258064Y-121652359D01*
X63271478Y-121654393D01*
X63278184Y-121653534D01*
X63288262Y-121651392D01*
X63492255Y-121590191D01*
X63501842Y-121586433D01*
X63693095Y-121492739D01*
X63701945Y-121487464D01*
X63875328Y-121363792D01*
X63883200Y-121357139D01*
X63984560Y-121256131D01*
X64046931Y-121222214D01*
X64117738Y-121227402D01*
X64174499Y-121270048D01*
X64199194Y-121336611D01*
X64199500Y-121345381D01*
X64199500Y-124182448D01*
X64179498Y-124250569D01*
X64125842Y-124297062D01*
X64055568Y-124307166D01*
X64022552Y-124297688D01*
X64014871Y-124294292D01*
X63920327Y-124252494D01*
X63894646Y-124249500D01*
X62105354Y-124249500D01*
X62101650Y-124249941D01*
X62101647Y-124249941D01*
X62096371Y-124250569D01*
X62079154Y-124252618D01*
X62070514Y-124256456D01*
X62070513Y-124256456D01*
X62004131Y-124285942D01*
X61976847Y-124298061D01*
X61968628Y-124306294D01*
X61968627Y-124306295D01*
X61955023Y-124319923D01*
X61897759Y-124377287D01*
X61893056Y-124387924D01*
X61893055Y-124387926D01*
X61877716Y-124422623D01*
X61852494Y-124479673D01*
X61849500Y-124505354D01*
X61849500Y-126294646D01*
X61852618Y-126320846D01*
X61898061Y-126423153D01*
X61906294Y-126431372D01*
X61906295Y-126431373D01*
X61932363Y-126457395D01*
X61977287Y-126502241D01*
X61987924Y-126506944D01*
X61987926Y-126506945D01*
X62027257Y-126524333D01*
X62079673Y-126547506D01*
X62105354Y-126550500D01*
X62213579Y-126550500D01*
X62281700Y-126570502D01*
X62328193Y-126624158D01*
X62338297Y-126694432D01*
X62308803Y-126759012D01*
X62280719Y-126783122D01*
X62269735Y-126790039D01*
X62099433Y-126917905D01*
X62091726Y-126924748D01*
X61944590Y-127078717D01*
X61938104Y-127086727D01*
X61818098Y-127262649D01*
X61813000Y-127271623D01*
X61723338Y-127464783D01*
X61719775Y-127474470D01*
X61664389Y-127674183D01*
X61665912Y-127682607D01*
X61678292Y-127686000D01*
X63128000Y-127686000D01*
X63196121Y-127706002D01*
X63242614Y-127759658D01*
X63254000Y-127812000D01*
X63254000Y-128068000D01*
X63233998Y-128136121D01*
X63180342Y-128182614D01*
X63128000Y-128194000D01*
X61683225Y-128194000D01*
X61669694Y-128197973D01*
X61668257Y-128207966D01*
X61698565Y-128342446D01*
X61701645Y-128352275D01*
X61781770Y-128549603D01*
X61786413Y-128558794D01*
X61897694Y-128740388D01*
X61903777Y-128748699D01*
X62043213Y-128909667D01*
X62050580Y-128916883D01*
X62214434Y-129052916D01*
X62222881Y-129058831D01*
X62406756Y-129166279D01*
X62416046Y-129170730D01*
X62500328Y-129202914D01*
X62556832Y-129245901D01*
X62581125Y-129312612D01*
X62565495Y-129381867D01*
X62509628Y-129434348D01*
X62507990Y-129435129D01*
X62502575Y-129437127D01*
X62497613Y-129440079D01*
X62497611Y-129440080D01*
X62341342Y-129533050D01*
X62320856Y-129545238D01*
X62161881Y-129684655D01*
X62030976Y-129850708D01*
X62028287Y-129855819D01*
X62028285Y-129855822D01*
X62008652Y-129893138D01*
X61932523Y-130037836D01*
X61903917Y-130129962D01*
X61875386Y-130221849D01*
X61869820Y-130239773D01*
X61844967Y-130449754D01*
X61858796Y-130660749D01*
X61860217Y-130666345D01*
X61860218Y-130666350D01*
X61902614Y-130833282D01*
X61910845Y-130865690D01*
X61999369Y-131057714D01*
X62121405Y-131230391D01*
X62272865Y-131377937D01*
X62277661Y-131381142D01*
X62277664Y-131381144D01*
X62358333Y-131435045D01*
X62448677Y-131495411D01*
X62453980Y-131497690D01*
X62453985Y-131497692D01*
X62476517Y-131507372D01*
X62506768Y-131520369D01*
X62561460Y-131565636D01*
X62582998Y-131633287D01*
X62564541Y-131701842D01*
X62511951Y-131749537D01*
X62496175Y-131755901D01*
X62476868Y-131762212D01*
X62467359Y-131766209D01*
X62278463Y-131864542D01*
X62269738Y-131870036D01*
X62099433Y-131997905D01*
X62091726Y-132004748D01*
X61944590Y-132158717D01*
X61938104Y-132166727D01*
X61818098Y-132342649D01*
X61813000Y-132351623D01*
X61723338Y-132544783D01*
X61719775Y-132554470D01*
X61664389Y-132754183D01*
X61665912Y-132762607D01*
X61678292Y-132766000D01*
X63128000Y-132766000D01*
X63196121Y-132786002D01*
X63242614Y-132839658D01*
X63254000Y-132892000D01*
X63254000Y-133148000D01*
X63233998Y-133216121D01*
X63180342Y-133262614D01*
X63128000Y-133274000D01*
X61683225Y-133274000D01*
X61669694Y-133277973D01*
X61668257Y-133287966D01*
X61698565Y-133422446D01*
X61701645Y-133432275D01*
X61781770Y-133629603D01*
X61786413Y-133638794D01*
X61897694Y-133820388D01*
X61903777Y-133828699D01*
X62043213Y-133989667D01*
X62050580Y-133996883D01*
X62214434Y-134132916D01*
X62222881Y-134138831D01*
X62406756Y-134246279D01*
X62416046Y-134250730D01*
X62500328Y-134282914D01*
X62556832Y-134325901D01*
X62581125Y-134392612D01*
X62565495Y-134461867D01*
X62509628Y-134514348D01*
X62507990Y-134515129D01*
X62502575Y-134517127D01*
X62497613Y-134520079D01*
X62497611Y-134520080D01*
X62467650Y-134537905D01*
X62320856Y-134625238D01*
X62161881Y-134764655D01*
X62030976Y-134930708D01*
X62028287Y-134935819D01*
X62028285Y-134935822D01*
X62000704Y-134988245D01*
X61932523Y-135117836D01*
X61915420Y-135172917D01*
X61874869Y-135303514D01*
X61869820Y-135319773D01*
X61844967Y-135529754D01*
X61858796Y-135740749D01*
X61860217Y-135746345D01*
X61860218Y-135746350D01*
X61900206Y-135903799D01*
X61910845Y-135945690D01*
X61913262Y-135950933D01*
X61948870Y-136028172D01*
X61999369Y-136137714D01*
X62121405Y-136310391D01*
X62125539Y-136314418D01*
X62210815Y-136397490D01*
X62272865Y-136457937D01*
X62277661Y-136461142D01*
X62277664Y-136461144D01*
X62386933Y-136534155D01*
X62448677Y-136575411D01*
X62453985Y-136577692D01*
X62453986Y-136577692D01*
X62637650Y-136656600D01*
X62637653Y-136656601D01*
X62642953Y-136658878D01*
X62648582Y-136660152D01*
X62648583Y-136660152D01*
X62843550Y-136704269D01*
X62843553Y-136704269D01*
X62849186Y-136705544D01*
X62854957Y-136705771D01*
X62854959Y-136705771D01*
X62916989Y-136708208D01*
X63060470Y-136713846D01*
X63066179Y-136713018D01*
X63066183Y-136713018D01*
X63264015Y-136684333D01*
X63264019Y-136684332D01*
X63269730Y-136683504D01*
X63348987Y-136656600D01*
X63464483Y-136617395D01*
X63464488Y-136617393D01*
X63469955Y-136615537D01*
X63474998Y-136612713D01*
X63649395Y-136515046D01*
X63649399Y-136515043D01*
X63654442Y-136512219D01*
X63817012Y-136377012D01*
X63952219Y-136214442D01*
X63963567Y-136194179D01*
X64014304Y-136144518D01*
X64083836Y-136130172D01*
X64150086Y-136155694D01*
X64192021Y-136212983D01*
X64199500Y-136255747D01*
X64199500Y-136462680D01*
X64197586Y-136484556D01*
X64196778Y-136489139D01*
X64196778Y-136489145D01*
X64194864Y-136500000D01*
X64196778Y-136510856D01*
X64196778Y-136521878D01*
X64196221Y-136521878D01*
X64196812Y-136534152D01*
X64187757Y-136649208D01*
X64185510Y-136677758D01*
X64182417Y-136697285D01*
X64150510Y-136830191D01*
X64143107Y-136861025D01*
X64136999Y-136879824D01*
X64072555Y-137035405D01*
X64063585Y-137053010D01*
X63979331Y-137190500D01*
X63975595Y-137196597D01*
X63963973Y-137212592D01*
X63854615Y-137340634D01*
X63840634Y-137354615D01*
X63712592Y-137463973D01*
X63696599Y-137475594D01*
X63553010Y-137563585D01*
X63535405Y-137572555D01*
X63379824Y-137636999D01*
X63361030Y-137643105D01*
X63197286Y-137682417D01*
X63177759Y-137685510D01*
X63034152Y-137696812D01*
X63021878Y-137696221D01*
X63021878Y-137696778D01*
X63010856Y-137696778D01*
X63000000Y-137694864D01*
X62989145Y-137696778D01*
X62984563Y-137697586D01*
X62962683Y-137699500D01*
X37037317Y-137699500D01*
X37015437Y-137697586D01*
X37010855Y-137696778D01*
X37000000Y-137694864D01*
X36989144Y-137696778D01*
X36978122Y-137696778D01*
X36978122Y-137696221D01*
X36965848Y-137696812D01*
X36822241Y-137685510D01*
X36802714Y-137682417D01*
X36638970Y-137643105D01*
X36620176Y-137636999D01*
X36464595Y-137572555D01*
X36446990Y-137563585D01*
X36303401Y-137475594D01*
X36287408Y-137463973D01*
X36159366Y-137354615D01*
X36145385Y-137340634D01*
X36036027Y-137212592D01*
X36024405Y-137196597D01*
X36020669Y-137190500D01*
X35936415Y-137053010D01*
X35927445Y-137035405D01*
X35863001Y-136879824D01*
X35856893Y-136861025D01*
X35849491Y-136830191D01*
X35817583Y-136697285D01*
X35814490Y-136677757D01*
X35808881Y-136606484D01*
X35823477Y-136537004D01*
X35873320Y-136486445D01*
X35942585Y-136470859D01*
X36009280Y-136495195D01*
X36029732Y-136514103D01*
X36043221Y-136529675D01*
X36050580Y-136536883D01*
X36214434Y-136672916D01*
X36222881Y-136678831D01*
X36406756Y-136786279D01*
X36416042Y-136790729D01*
X36615001Y-136866703D01*
X36624899Y-136869579D01*
X36728250Y-136890606D01*
X36742299Y-136889410D01*
X36746000Y-136879065D01*
X36746000Y-136878517D01*
X37254000Y-136878517D01*
X37258064Y-136892359D01*
X37271478Y-136894393D01*
X37278184Y-136893534D01*
X37288262Y-136891392D01*
X37492255Y-136830191D01*
X37501842Y-136826433D01*
X37693095Y-136732739D01*
X37701945Y-136727464D01*
X37875328Y-136603792D01*
X37883200Y-136597139D01*
X38034052Y-136446812D01*
X38040730Y-136438965D01*
X38165003Y-136266020D01*
X38170313Y-136257183D01*
X38251389Y-136093138D01*
X41844758Y-136093138D01*
X41862035Y-136249633D01*
X41916143Y-136397490D01*
X41920380Y-136403796D01*
X41920382Y-136403799D01*
X41944013Y-136438965D01*
X42003958Y-136528172D01*
X42120410Y-136634135D01*
X42127085Y-136637759D01*
X42252099Y-136705637D01*
X42252101Y-136705638D01*
X42258776Y-136709262D01*
X42266125Y-136711190D01*
X42403719Y-136747287D01*
X42403721Y-136747287D01*
X42411069Y-136749215D01*
X42494380Y-136750524D01*
X42560898Y-136751569D01*
X42560901Y-136751569D01*
X42568495Y-136751688D01*
X42721968Y-136716538D01*
X42862625Y-136645795D01*
X42919594Y-136597139D01*
X42976574Y-136548474D01*
X42976576Y-136548471D01*
X42982348Y-136543542D01*
X43074224Y-136415683D01*
X43132950Y-136269598D01*
X43150751Y-136144518D01*
X43154553Y-136117807D01*
X43154553Y-136117804D01*
X43155134Y-136113723D01*
X43155278Y-136100000D01*
X43136363Y-135943694D01*
X43131175Y-135929963D01*
X43083394Y-135803514D01*
X43083393Y-135803511D01*
X43080710Y-135796412D01*
X42991531Y-135666657D01*
X42921357Y-135604134D01*
X42909016Y-135593138D01*
X45144758Y-135593138D01*
X45162035Y-135749633D01*
X45216143Y-135897490D01*
X45220380Y-135903796D01*
X45220382Y-135903799D01*
X45237964Y-135929963D01*
X45303958Y-136028172D01*
X45420410Y-136134135D01*
X45439533Y-136144518D01*
X45552099Y-136205637D01*
X45552101Y-136205638D01*
X45558776Y-136209262D01*
X45566125Y-136211190D01*
X45703719Y-136247287D01*
X45703721Y-136247287D01*
X45711069Y-136249215D01*
X45794380Y-136250524D01*
X45860898Y-136251569D01*
X45860901Y-136251569D01*
X45868495Y-136251688D01*
X46021968Y-136216538D01*
X46162625Y-136145795D01*
X46221054Y-136095892D01*
X46276574Y-136048474D01*
X46276576Y-136048471D01*
X46282348Y-136043542D01*
X46374224Y-135915683D01*
X46432950Y-135769598D01*
X46447445Y-135667747D01*
X46454553Y-135617807D01*
X46454553Y-135617804D01*
X46455134Y-135613723D01*
X46455278Y-135600000D01*
X46436363Y-135443694D01*
X46391705Y-135325510D01*
X46383394Y-135303514D01*
X46383393Y-135303511D01*
X46380710Y-135296412D01*
X46291531Y-135166657D01*
X46230994Y-135112720D01*
X46179648Y-135066972D01*
X46179645Y-135066970D01*
X46173976Y-135061919D01*
X46034831Y-134988245D01*
X45907612Y-134956290D01*
X45889498Y-134951740D01*
X45889496Y-134951740D01*
X45882128Y-134949889D01*
X45874530Y-134949849D01*
X45874528Y-134949849D01*
X45807319Y-134949497D01*
X45724684Y-134949065D01*
X45717305Y-134950837D01*
X45717301Y-134950837D01*
X45578967Y-134984048D01*
X45578963Y-134984049D01*
X45571588Y-134985820D01*
X45431679Y-135058032D01*
X45425957Y-135063024D01*
X45425955Y-135063025D01*
X45318759Y-135156538D01*
X45318756Y-135156541D01*
X45313034Y-135161533D01*
X45222501Y-135290348D01*
X45165309Y-135437039D01*
X45163440Y-135451234D01*
X45148203Y-135566972D01*
X45144758Y-135593138D01*
X42909016Y-135593138D01*
X42879648Y-135566972D01*
X42879645Y-135566970D01*
X42873976Y-135561919D01*
X42734831Y-135488245D01*
X42718122Y-135484048D01*
X42589498Y-135451740D01*
X42589496Y-135451740D01*
X42582128Y-135449889D01*
X42574530Y-135449849D01*
X42574528Y-135449849D01*
X42507319Y-135449497D01*
X42424684Y-135449065D01*
X42417305Y-135450837D01*
X42417301Y-135450837D01*
X42278967Y-135484048D01*
X42278963Y-135484049D01*
X42271588Y-135485820D01*
X42131679Y-135558032D01*
X42125957Y-135563024D01*
X42125955Y-135563025D01*
X42018759Y-135656538D01*
X42018756Y-135656541D01*
X42013034Y-135661533D01*
X42008667Y-135667747D01*
X41932127Y-135776652D01*
X41922501Y-135790348D01*
X41865309Y-135937039D01*
X41864318Y-135944568D01*
X41848296Y-136066267D01*
X41844758Y-136093138D01*
X38251389Y-136093138D01*
X38264670Y-136066267D01*
X38268469Y-136056672D01*
X38330377Y-135852910D01*
X38332555Y-135842837D01*
X38333986Y-135831962D01*
X38331775Y-135817778D01*
X38318617Y-135814000D01*
X37272115Y-135814000D01*
X37256876Y-135818475D01*
X37255671Y-135819865D01*
X37254000Y-135827548D01*
X37254000Y-136878517D01*
X36746000Y-136878517D01*
X36746000Y-135432000D01*
X36766002Y-135363879D01*
X36819658Y-135317386D01*
X36872000Y-135306000D01*
X38318344Y-135306000D01*
X38331875Y-135302027D01*
X38333180Y-135292947D01*
X38291214Y-135125875D01*
X38287894Y-135116124D01*
X38202972Y-134920814D01*
X38198105Y-134911739D01*
X38082426Y-134732926D01*
X38076136Y-134724757D01*
X37932806Y-134567240D01*
X37925273Y-134560215D01*
X37758139Y-134428222D01*
X37749552Y-134422517D01*
X37563117Y-134319599D01*
X37553705Y-134315369D01*
X37502178Y-134297122D01*
X37444642Y-134255528D01*
X37418726Y-134189430D01*
X37432660Y-134119814D01*
X37482672Y-134068415D01*
X37523802Y-134045381D01*
X37654442Y-133972219D01*
X37817012Y-133837012D01*
X37952219Y-133674442D01*
X38002346Y-133584934D01*
X38053083Y-133535272D01*
X38112280Y-133520500D01*
X44609819Y-133520500D01*
X44621704Y-133521828D01*
X44621745Y-133521318D01*
X44630691Y-133522038D01*
X44639447Y-133524019D01*
X44692263Y-133520742D01*
X44700067Y-133520500D01*
X44715940Y-133520500D01*
X44726052Y-133519052D01*
X44736106Y-133518022D01*
X44764097Y-133516285D01*
X44782538Y-133515141D01*
X44790982Y-133512093D01*
X44794694Y-133511324D01*
X44809399Y-133507657D01*
X44813027Y-133506596D01*
X44821918Y-133505323D01*
X44864282Y-133486061D01*
X44873637Y-133482254D01*
X44908943Y-133469509D01*
X44908947Y-133469507D01*
X44917387Y-133466460D01*
X44924635Y-133461165D01*
X44927975Y-133459389D01*
X44941089Y-133451726D01*
X44944261Y-133449697D01*
X44952428Y-133445984D01*
X44959223Y-133440129D01*
X44959226Y-133440127D01*
X44987675Y-133415613D01*
X44995596Y-133409324D01*
X45002402Y-133404352D01*
X45006336Y-133401478D01*
X45017079Y-133390735D01*
X45023926Y-133384377D01*
X45054237Y-133358259D01*
X45061037Y-133352400D01*
X45065920Y-133344866D01*
X45071819Y-133338104D01*
X45071824Y-133338108D01*
X45080800Y-133327014D01*
X47426817Y-130980996D01*
X47487782Y-130947271D01*
X47614565Y-130918234D01*
X47614569Y-130918233D01*
X47621968Y-130916538D01*
X47762625Y-130845795D01*
X47790642Y-130821866D01*
X47876574Y-130748474D01*
X47876576Y-130748471D01*
X47882348Y-130743542D01*
X47974224Y-130615683D01*
X47978263Y-130605637D01*
X48004303Y-130540860D01*
X48032950Y-130469598D01*
X48043832Y-130393138D01*
X50344758Y-130393138D01*
X50362035Y-130549633D01*
X50416143Y-130697490D01*
X50420380Y-130703796D01*
X50420382Y-130703799D01*
X50447089Y-130743542D01*
X50503958Y-130828172D01*
X50620410Y-130934135D01*
X50680369Y-130966690D01*
X50752099Y-131005637D01*
X50752101Y-131005638D01*
X50758776Y-131009262D01*
X50766125Y-131011190D01*
X50903719Y-131047287D01*
X50903721Y-131047287D01*
X50911069Y-131049215D01*
X50994380Y-131050524D01*
X51060898Y-131051569D01*
X51060901Y-131051569D01*
X51068495Y-131051688D01*
X51221968Y-131016538D01*
X51362625Y-130945795D01*
X51400877Y-130913125D01*
X51476574Y-130848474D01*
X51476576Y-130848471D01*
X51482348Y-130843542D01*
X51574224Y-130715683D01*
X51632950Y-130569598D01*
X51648253Y-130462072D01*
X51654553Y-130417807D01*
X51654553Y-130417804D01*
X51655134Y-130413723D01*
X51655278Y-130400000D01*
X51636363Y-130243694D01*
X51628176Y-130222027D01*
X51583394Y-130103514D01*
X51583393Y-130103511D01*
X51580710Y-130096412D01*
X51509731Y-129993138D01*
X58444758Y-129993138D01*
X58462035Y-130149633D01*
X58516143Y-130297490D01*
X58520380Y-130303796D01*
X58520382Y-130303799D01*
X58540194Y-130333282D01*
X58603958Y-130428172D01*
X58720410Y-130534135D01*
X58762089Y-130556765D01*
X58852099Y-130605637D01*
X58852101Y-130605638D01*
X58858776Y-130609262D01*
X58866125Y-130611190D01*
X59003719Y-130647287D01*
X59003721Y-130647287D01*
X59011069Y-130649215D01*
X59094380Y-130650524D01*
X59160898Y-130651569D01*
X59160901Y-130651569D01*
X59168495Y-130651688D01*
X59321968Y-130616538D01*
X59462625Y-130545795D01*
X59539661Y-130480000D01*
X59576574Y-130448474D01*
X59576576Y-130448471D01*
X59582348Y-130443542D01*
X59674224Y-130315683D01*
X59732950Y-130169598D01*
X59751946Y-130036124D01*
X59754553Y-130017807D01*
X59754553Y-130017804D01*
X59755134Y-130013723D01*
X59755278Y-130000000D01*
X59736363Y-129843694D01*
X59713825Y-129784048D01*
X59683394Y-129703514D01*
X59683393Y-129703511D01*
X59680710Y-129696412D01*
X59591531Y-129566657D01*
X59520510Y-129503379D01*
X59479648Y-129466972D01*
X59479645Y-129466970D01*
X59473976Y-129461919D01*
X59334831Y-129388245D01*
X59309439Y-129381867D01*
X59189498Y-129351740D01*
X59189496Y-129351740D01*
X59182128Y-129349889D01*
X59174530Y-129349849D01*
X59174528Y-129349849D01*
X59107319Y-129349497D01*
X59024684Y-129349065D01*
X59017305Y-129350837D01*
X59017301Y-129350837D01*
X58878967Y-129384048D01*
X58878963Y-129384049D01*
X58871588Y-129385820D01*
X58849642Y-129397147D01*
X58766461Y-129440080D01*
X58731679Y-129458032D01*
X58725957Y-129463024D01*
X58725955Y-129463025D01*
X58618759Y-129556538D01*
X58618756Y-129556541D01*
X58613034Y-129561533D01*
X58587805Y-129597430D01*
X58548802Y-129652926D01*
X58522501Y-129690348D01*
X58465309Y-129837039D01*
X58459756Y-129879221D01*
X58445944Y-129984131D01*
X58444758Y-129993138D01*
X51509731Y-129993138D01*
X51491531Y-129966657D01*
X51426499Y-129908715D01*
X51379648Y-129866972D01*
X51379645Y-129866970D01*
X51373976Y-129861919D01*
X51344234Y-129846171D01*
X51241543Y-129791799D01*
X51241544Y-129791799D01*
X51234831Y-129788245D01*
X51150139Y-129766972D01*
X51089498Y-129751740D01*
X51089496Y-129751740D01*
X51082128Y-129749889D01*
X51074530Y-129749849D01*
X51074528Y-129749849D01*
X51007319Y-129749497D01*
X50924684Y-129749065D01*
X50917305Y-129750837D01*
X50917301Y-129750837D01*
X50778967Y-129784048D01*
X50778963Y-129784049D01*
X50771588Y-129785820D01*
X50764843Y-129789301D01*
X50764844Y-129789301D01*
X50659459Y-129843694D01*
X50631679Y-129858032D01*
X50625957Y-129863024D01*
X50625955Y-129863025D01*
X50518759Y-129956538D01*
X50518756Y-129956541D01*
X50513034Y-129961533D01*
X50490822Y-129993138D01*
X50439662Y-130065931D01*
X50422501Y-130090348D01*
X50365309Y-130237039D01*
X50364318Y-130244568D01*
X50354676Y-130317807D01*
X50344758Y-130393138D01*
X48043832Y-130393138D01*
X48044904Y-130385607D01*
X48054553Y-130317807D01*
X48054553Y-130317804D01*
X48055134Y-130313723D01*
X48055278Y-130300000D01*
X48036363Y-130143694D01*
X48005523Y-130062078D01*
X47983394Y-130003514D01*
X47983393Y-130003511D01*
X47980710Y-129996412D01*
X47891531Y-129866657D01*
X47844971Y-129825174D01*
X47779648Y-129766972D01*
X47779645Y-129766970D01*
X47773976Y-129761919D01*
X47721454Y-129734110D01*
X47670611Y-129684558D01*
X47654629Y-129615383D01*
X47678583Y-129548550D01*
X47734867Y-129505276D01*
X47772610Y-129496998D01*
X47787264Y-129496089D01*
X47802538Y-129495141D01*
X47810982Y-129492093D01*
X47814694Y-129491324D01*
X47829399Y-129487657D01*
X47833027Y-129486596D01*
X47841918Y-129485323D01*
X47884282Y-129466061D01*
X47893637Y-129462254D01*
X47928943Y-129449509D01*
X47928947Y-129449507D01*
X47937387Y-129446460D01*
X47944635Y-129441165D01*
X47947975Y-129439389D01*
X47961089Y-129431726D01*
X47964261Y-129429697D01*
X47972428Y-129425984D01*
X47979223Y-129420129D01*
X47979226Y-129420127D01*
X48007675Y-129395613D01*
X48015596Y-129389324D01*
X48015628Y-129389301D01*
X48026336Y-129381478D01*
X48037079Y-129370735D01*
X48043926Y-129364377D01*
X48060740Y-129349889D01*
X48081037Y-129332400D01*
X48085920Y-129324866D01*
X48091819Y-129318104D01*
X48091824Y-129318108D01*
X48100800Y-129307014D01*
X50504278Y-126903535D01*
X50513624Y-126896068D01*
X50513292Y-126895678D01*
X50520128Y-126889860D01*
X50527720Y-126885070D01*
X50562764Y-126845390D01*
X50568110Y-126839703D01*
X50579320Y-126828493D01*
X50582010Y-126824904D01*
X50585444Y-126820323D01*
X50591827Y-126812482D01*
X50616679Y-126784342D01*
X50622623Y-126777612D01*
X50626438Y-126769487D01*
X50628520Y-126766317D01*
X50636323Y-126753330D01*
X50638143Y-126750006D01*
X50643526Y-126742824D01*
X50659857Y-126699261D01*
X50663783Y-126689947D01*
X50679737Y-126655966D01*
X50679738Y-126655963D01*
X50683553Y-126647837D01*
X50684935Y-126638963D01*
X50686039Y-126635350D01*
X50689885Y-126620693D01*
X50690699Y-126616990D01*
X50693852Y-126608580D01*
X50697302Y-126562157D01*
X50698453Y-126552139D01*
X50698708Y-126550500D01*
X50700500Y-126538991D01*
X50700500Y-126523796D01*
X50700846Y-126514459D01*
X50703811Y-126474556D01*
X50704476Y-126465608D01*
X50702603Y-126456832D01*
X50701992Y-126447875D01*
X50701998Y-126447875D01*
X50700500Y-126433682D01*
X50700500Y-124912504D01*
X50720502Y-124844383D01*
X50774158Y-124797890D01*
X50844432Y-124787786D01*
X50909012Y-124817280D01*
X50915595Y-124823409D01*
X51496466Y-125404280D01*
X51503932Y-125413624D01*
X51504322Y-125413292D01*
X51510140Y-125420128D01*
X51514930Y-125427720D01*
X51521658Y-125433662D01*
X51521659Y-125433663D01*
X51554600Y-125462755D01*
X51560288Y-125468102D01*
X51571506Y-125479320D01*
X51575094Y-125482009D01*
X51575095Y-125482010D01*
X51579684Y-125485450D01*
X51587523Y-125491832D01*
X51622388Y-125522623D01*
X51630511Y-125526437D01*
X51633664Y-125528508D01*
X51646676Y-125536327D01*
X51649994Y-125538143D01*
X51657176Y-125543526D01*
X51700741Y-125559858D01*
X51710050Y-125563780D01*
X51752163Y-125583553D01*
X51761036Y-125584935D01*
X51764658Y-125586042D01*
X51779328Y-125589891D01*
X51783017Y-125590702D01*
X51791419Y-125593852D01*
X51800364Y-125594517D01*
X51800374Y-125594519D01*
X51837828Y-125597302D01*
X51847855Y-125598452D01*
X51861009Y-125600500D01*
X51876203Y-125600500D01*
X51885541Y-125600846D01*
X51934391Y-125604476D01*
X51943167Y-125602603D01*
X51952124Y-125601992D01*
X51952124Y-125601998D01*
X51966317Y-125600500D01*
X53134700Y-125600500D01*
X53202821Y-125620502D01*
X53208454Y-125624827D01*
X53208600Y-125624622D01*
X53214790Y-125629021D01*
X53220410Y-125634135D01*
X53227087Y-125637760D01*
X53227088Y-125637761D01*
X53352099Y-125705637D01*
X53352101Y-125705638D01*
X53358776Y-125709262D01*
X53366125Y-125711190D01*
X53503719Y-125747287D01*
X53503721Y-125747287D01*
X53511069Y-125749215D01*
X53594380Y-125750524D01*
X53660898Y-125751569D01*
X53660901Y-125751569D01*
X53668495Y-125751688D01*
X53821968Y-125716538D01*
X53962625Y-125645795D01*
X53992239Y-125620502D01*
X54076574Y-125548474D01*
X54076576Y-125548471D01*
X54082348Y-125543542D01*
X54174224Y-125415683D01*
X54232950Y-125269598D01*
X54255134Y-125113723D01*
X54255278Y-125100000D01*
X54236363Y-124943694D01*
X54218576Y-124896621D01*
X54183394Y-124803514D01*
X54183393Y-124803511D01*
X54180710Y-124796412D01*
X54091531Y-124666657D01*
X54029647Y-124611520D01*
X53979648Y-124566972D01*
X53979645Y-124566970D01*
X53973976Y-124561919D01*
X53834831Y-124488245D01*
X53816151Y-124483553D01*
X53689498Y-124451740D01*
X53689496Y-124451740D01*
X53682128Y-124449889D01*
X53674530Y-124449849D01*
X53674528Y-124449849D01*
X53607319Y-124449497D01*
X53524684Y-124449065D01*
X53517305Y-124450837D01*
X53517301Y-124450837D01*
X53378967Y-124484048D01*
X53378963Y-124484049D01*
X53371588Y-124485820D01*
X53231679Y-124558032D01*
X53219737Y-124568450D01*
X53155257Y-124598157D01*
X53136909Y-124599500D01*
X52159504Y-124599500D01*
X52091383Y-124579498D01*
X52070409Y-124562595D01*
X51537405Y-124029591D01*
X51503379Y-123967279D01*
X51500500Y-123940496D01*
X51500500Y-122893138D01*
X52944758Y-122893138D01*
X52962035Y-123049633D01*
X53016143Y-123197490D01*
X53020380Y-123203796D01*
X53020382Y-123203799D01*
X53048532Y-123245690D01*
X53103958Y-123328172D01*
X53220410Y-123434135D01*
X53272827Y-123462595D01*
X53352099Y-123505637D01*
X53352101Y-123505638D01*
X53358776Y-123509262D01*
X53366125Y-123511190D01*
X53503719Y-123547287D01*
X53503721Y-123547287D01*
X53511069Y-123549215D01*
X53594380Y-123550524D01*
X53660898Y-123551569D01*
X53660901Y-123551569D01*
X53668495Y-123551688D01*
X53821968Y-123516538D01*
X53962625Y-123445795D01*
X53988869Y-123423381D01*
X54076574Y-123348474D01*
X54076576Y-123348471D01*
X54082348Y-123343542D01*
X54174224Y-123215683D01*
X54178263Y-123205637D01*
X54230114Y-123076652D01*
X54232950Y-123069598D01*
X54239953Y-123020393D01*
X54254553Y-122917807D01*
X54254553Y-122917804D01*
X54255134Y-122913723D01*
X54255278Y-122900000D01*
X54236363Y-122743694D01*
X54220140Y-122700761D01*
X54183394Y-122603514D01*
X54183393Y-122603511D01*
X54180710Y-122596412D01*
X54091531Y-122466657D01*
X54036736Y-122417836D01*
X53979648Y-122366972D01*
X53979645Y-122366970D01*
X53973976Y-122361919D01*
X53834831Y-122288245D01*
X53825177Y-122285820D01*
X53689498Y-122251740D01*
X53689496Y-122251740D01*
X53682128Y-122249889D01*
X53674530Y-122249849D01*
X53674528Y-122249849D01*
X53607319Y-122249497D01*
X53524684Y-122249065D01*
X53517305Y-122250837D01*
X53517301Y-122250837D01*
X53378967Y-122284048D01*
X53378963Y-122284049D01*
X53371588Y-122285820D01*
X53231679Y-122358032D01*
X53225957Y-122363024D01*
X53225955Y-122363025D01*
X53118759Y-122456538D01*
X53118756Y-122456541D01*
X53113034Y-122461533D01*
X53022501Y-122590348D01*
X52965309Y-122737039D01*
X52960095Y-122776646D01*
X52949121Y-122860000D01*
X52944758Y-122893138D01*
X51500500Y-122893138D01*
X51500500Y-121080816D01*
X51520502Y-121012695D01*
X51574158Y-120966202D01*
X51644432Y-120956098D01*
X51686619Y-120970084D01*
X51758776Y-121009262D01*
X51766125Y-121011190D01*
X51903719Y-121047287D01*
X51903721Y-121047287D01*
X51911069Y-121049215D01*
X51994380Y-121050524D01*
X52060898Y-121051569D01*
X52060901Y-121051569D01*
X52068495Y-121051688D01*
X52221968Y-121016538D01*
X52362625Y-120945795D01*
X52418921Y-120897714D01*
X52476574Y-120848474D01*
X52476576Y-120848471D01*
X52482348Y-120843542D01*
X52574224Y-120715683D01*
X52579471Y-120702632D01*
X52592657Y-120669829D01*
X52625566Y-120587966D01*
X61668257Y-120587966D01*
X61698565Y-120722446D01*
X61701645Y-120732275D01*
X61781770Y-120929603D01*
X61786413Y-120938794D01*
X61897694Y-121120388D01*
X61903777Y-121128699D01*
X62043213Y-121289667D01*
X62050580Y-121296883D01*
X62214434Y-121432916D01*
X62222881Y-121438831D01*
X62406756Y-121546279D01*
X62416042Y-121550729D01*
X62615001Y-121626703D01*
X62624899Y-121629579D01*
X62728250Y-121650606D01*
X62742299Y-121649410D01*
X62746000Y-121639065D01*
X62746000Y-120592115D01*
X62741525Y-120576876D01*
X62740135Y-120575671D01*
X62732452Y-120574000D01*
X61683225Y-120574000D01*
X61669694Y-120577973D01*
X61668257Y-120587966D01*
X52625566Y-120587966D01*
X52632950Y-120569598D01*
X52655134Y-120413723D01*
X52655278Y-120400000D01*
X52636363Y-120243694D01*
X52616830Y-120192000D01*
X52583394Y-120103514D01*
X52583393Y-120103511D01*
X52580710Y-120096412D01*
X52491531Y-119966657D01*
X52391841Y-119877836D01*
X52379648Y-119866972D01*
X52379645Y-119866970D01*
X52373976Y-119861919D01*
X52359908Y-119854470D01*
X52241543Y-119791799D01*
X52241544Y-119791799D01*
X52234831Y-119788245D01*
X52123095Y-119760179D01*
X52089498Y-119751740D01*
X52089496Y-119751740D01*
X52082128Y-119749889D01*
X52074530Y-119749849D01*
X52074528Y-119749849D01*
X52007319Y-119749497D01*
X51924684Y-119749065D01*
X51917305Y-119750837D01*
X51917301Y-119750837D01*
X51778967Y-119784048D01*
X51778963Y-119784049D01*
X51771588Y-119785820D01*
X51684289Y-119830878D01*
X51614583Y-119844347D01*
X51548659Y-119817992D01*
X51507450Y-119760179D01*
X51500500Y-119718912D01*
X51500500Y-115626000D01*
X51520502Y-115557879D01*
X51574158Y-115511386D01*
X51626500Y-115500000D01*
X53273500Y-115500000D01*
X53341621Y-115520002D01*
G37*
%TD.AperFunction*%
%TA.AperFunction,Conductor*%
G36*
X47708616Y-125520502D02*
G01*
X47729590Y-125537404D01*
X48320845Y-126128658D01*
X48354870Y-126190971D01*
X48356989Y-126203927D01*
X48362035Y-126249633D01*
X48416143Y-126397490D01*
X48420380Y-126403796D01*
X48420382Y-126403799D01*
X48440463Y-126433682D01*
X48503958Y-126528172D01*
X48535791Y-126557138D01*
X48611790Y-126626291D01*
X48620410Y-126634135D01*
X48672138Y-126662221D01*
X48752099Y-126705637D01*
X48752101Y-126705638D01*
X48758776Y-126709262D01*
X48766125Y-126711190D01*
X48903719Y-126747287D01*
X48903721Y-126747287D01*
X48911069Y-126749215D01*
X48940316Y-126749674D01*
X49008114Y-126770742D01*
X49053759Y-126825121D01*
X49062759Y-126895544D01*
X49027433Y-126964753D01*
X48463930Y-127528256D01*
X48401618Y-127562282D01*
X48330803Y-127557217D01*
X48273967Y-127514670D01*
X48249748Y-127454299D01*
X48237275Y-127351233D01*
X48236363Y-127343694D01*
X48180710Y-127196412D01*
X48091531Y-127066657D01*
X48039452Y-127020256D01*
X47979648Y-126966972D01*
X47979645Y-126966970D01*
X47973976Y-126961919D01*
X47834831Y-126888245D01*
X47818122Y-126884048D01*
X47689498Y-126851740D01*
X47689496Y-126851740D01*
X47682128Y-126849889D01*
X47674530Y-126849849D01*
X47674528Y-126849849D01*
X47607319Y-126849497D01*
X47524684Y-126849065D01*
X47517305Y-126850837D01*
X47517301Y-126850837D01*
X47378967Y-126884048D01*
X47378963Y-126884049D01*
X47371588Y-126885820D01*
X47231679Y-126958032D01*
X47225957Y-126963024D01*
X47225955Y-126963025D01*
X47118759Y-127056538D01*
X47118756Y-127056541D01*
X47113034Y-127061533D01*
X47108667Y-127067747D01*
X47039004Y-127166867D01*
X47022501Y-127190348D01*
X46965309Y-127337039D01*
X46964318Y-127344568D01*
X46947216Y-127474470D01*
X46944758Y-127493138D01*
X46962035Y-127649633D01*
X47016143Y-127797490D01*
X47103958Y-127928172D01*
X47220410Y-128034135D01*
X47227085Y-128037759D01*
X47352099Y-128105637D01*
X47352101Y-128105638D01*
X47358776Y-128109262D01*
X47366125Y-128111190D01*
X47503719Y-128147287D01*
X47503721Y-128147287D01*
X47511069Y-128149215D01*
X47540316Y-128149674D01*
X47608114Y-128170742D01*
X47653759Y-128225121D01*
X47662759Y-128295544D01*
X47627433Y-128364753D01*
X47529591Y-128462595D01*
X47467279Y-128496621D01*
X47440496Y-128499500D01*
X41970175Y-128499500D01*
X41958295Y-128498172D01*
X41958254Y-128498683D01*
X41949309Y-128497963D01*
X41940552Y-128495982D01*
X41887746Y-128499258D01*
X41879944Y-128499500D01*
X41864060Y-128499500D01*
X41859612Y-128500137D01*
X41859610Y-128500137D01*
X41853942Y-128500948D01*
X41843891Y-128501978D01*
X41806419Y-128504303D01*
X41806417Y-128504303D01*
X41797462Y-128504859D01*
X41789025Y-128507905D01*
X41785325Y-128508671D01*
X41770601Y-128512343D01*
X41766973Y-128513404D01*
X41758082Y-128514677D01*
X41715718Y-128533939D01*
X41706363Y-128537746D01*
X41671057Y-128550491D01*
X41671053Y-128550493D01*
X41662613Y-128553540D01*
X41655365Y-128558835D01*
X41652025Y-128560611D01*
X41638911Y-128568274D01*
X41635739Y-128570303D01*
X41627572Y-128574016D01*
X41620777Y-128579871D01*
X41620774Y-128579873D01*
X41592325Y-128604387D01*
X41584405Y-128610675D01*
X41573664Y-128618522D01*
X41562921Y-128629265D01*
X41556075Y-128635623D01*
X41518963Y-128667600D01*
X41514080Y-128675134D01*
X41508181Y-128681896D01*
X41508176Y-128681892D01*
X41499200Y-128692986D01*
X40974074Y-129218112D01*
X40914394Y-129251535D01*
X40874688Y-129261068D01*
X40778967Y-129284048D01*
X40778963Y-129284049D01*
X40771588Y-129285820D01*
X40764843Y-129289301D01*
X40764844Y-129289301D01*
X40643870Y-129351740D01*
X40631679Y-129358032D01*
X40625957Y-129363024D01*
X40625955Y-129363025D01*
X40518759Y-129456538D01*
X40518756Y-129456541D01*
X40513034Y-129461533D01*
X40483624Y-129503379D01*
X40433783Y-129574296D01*
X40422501Y-129590348D01*
X40365309Y-129737039D01*
X40361888Y-129763025D01*
X40348101Y-129867747D01*
X40344758Y-129893138D01*
X40362035Y-130049633D01*
X40416143Y-130197490D01*
X40420380Y-130203796D01*
X40420382Y-130203799D01*
X40460709Y-130263811D01*
X40503958Y-130328172D01*
X40526270Y-130348474D01*
X40606927Y-130421866D01*
X40620410Y-130434135D01*
X40659796Y-130455520D01*
X40752099Y-130505637D01*
X40752101Y-130505638D01*
X40758776Y-130509262D01*
X40766125Y-130511190D01*
X40903719Y-130547287D01*
X40903721Y-130547287D01*
X40911069Y-130549215D01*
X40994380Y-130550524D01*
X41060898Y-130551569D01*
X41060901Y-130551569D01*
X41068495Y-130551688D01*
X41221968Y-130516538D01*
X41362625Y-130445795D01*
X41421054Y-130395892D01*
X41476574Y-130348474D01*
X41476576Y-130348471D01*
X41482348Y-130343542D01*
X41574224Y-130215683D01*
X41584406Y-130190354D01*
X41630117Y-130076646D01*
X41630118Y-130076644D01*
X41632950Y-130069598D01*
X41642747Y-130000761D01*
X41672148Y-129936138D01*
X41678395Y-129929419D01*
X42070409Y-129537405D01*
X42132721Y-129503379D01*
X42159504Y-129500500D01*
X47011798Y-129500500D01*
X47079919Y-129520502D01*
X47126412Y-129574158D01*
X47136516Y-129644432D01*
X47107022Y-129709012D01*
X47069587Y-129738466D01*
X47038430Y-129754547D01*
X47038427Y-129754549D01*
X47031679Y-129758032D01*
X47025957Y-129763024D01*
X47025955Y-129763025D01*
X46918759Y-129856538D01*
X46918756Y-129856541D01*
X46913034Y-129861533D01*
X46890822Y-129893138D01*
X46834752Y-129972917D01*
X46822501Y-129990348D01*
X46765309Y-130137039D01*
X46764318Y-130144564D01*
X46764317Y-130144569D01*
X46757271Y-130198093D01*
X46728549Y-130263020D01*
X46721444Y-130270742D01*
X44509591Y-132482595D01*
X44447279Y-132516621D01*
X44420496Y-132519500D01*
X38114415Y-132519500D01*
X38046294Y-132499498D01*
X38001409Y-132449229D01*
X37987719Y-132421469D01*
X37985165Y-132416290D01*
X37858651Y-132246867D01*
X37720716Y-132119361D01*
X37707622Y-132107257D01*
X37707620Y-132107255D01*
X37703381Y-132103337D01*
X37698498Y-132100256D01*
X37529434Y-131993584D01*
X37529433Y-131993584D01*
X37524554Y-131990505D01*
X37500643Y-131980966D01*
X37444785Y-131937147D01*
X37421483Y-131870083D01*
X37438138Y-131801068D01*
X37489461Y-131752013D01*
X37501348Y-131746627D01*
X37501842Y-131746433D01*
X37693095Y-131652739D01*
X37701945Y-131647464D01*
X37875328Y-131523792D01*
X37883200Y-131517139D01*
X38034052Y-131366812D01*
X38040730Y-131358965D01*
X38165003Y-131186020D01*
X38170313Y-131177183D01*
X38264670Y-130986267D01*
X38268469Y-130976672D01*
X38330377Y-130772910D01*
X38332555Y-130762837D01*
X38333986Y-130751962D01*
X38331775Y-130737778D01*
X38318617Y-130734000D01*
X36872000Y-130734000D01*
X36803879Y-130713998D01*
X36757386Y-130660342D01*
X36746000Y-130608000D01*
X36746000Y-130352000D01*
X36766002Y-130283879D01*
X36819658Y-130237386D01*
X36872000Y-130226000D01*
X38318344Y-130226000D01*
X38331875Y-130222027D01*
X38333180Y-130212947D01*
X38291214Y-130045875D01*
X38287894Y-130036124D01*
X38202972Y-129840814D01*
X38198105Y-129831739D01*
X38082426Y-129652926D01*
X38076136Y-129644757D01*
X37932806Y-129487240D01*
X37925273Y-129480215D01*
X37758139Y-129348222D01*
X37749552Y-129342517D01*
X37563117Y-129239599D01*
X37553705Y-129235369D01*
X37502178Y-129217122D01*
X37444642Y-129175528D01*
X37418726Y-129109430D01*
X37432660Y-129039814D01*
X37482672Y-128988415D01*
X37523802Y-128965381D01*
X37654442Y-128892219D01*
X37817012Y-128757012D01*
X37952219Y-128594442D01*
X37955043Y-128589399D01*
X37955046Y-128589395D01*
X38052713Y-128414998D01*
X38052714Y-128414996D01*
X38055537Y-128409955D01*
X38057393Y-128404488D01*
X38057395Y-128404483D01*
X38121647Y-128215200D01*
X38123504Y-128209730D01*
X38132262Y-128149334D01*
X38153314Y-128004140D01*
X38153314Y-128004138D01*
X38153846Y-128000470D01*
X38155429Y-127940000D01*
X38136081Y-127729440D01*
X38078686Y-127525931D01*
X38066238Y-127500688D01*
X37987719Y-127341469D01*
X37985165Y-127336290D01*
X37886017Y-127203514D01*
X37862104Y-127171491D01*
X37862103Y-127171490D01*
X37858651Y-127166867D01*
X37720716Y-127039361D01*
X37707622Y-127027257D01*
X37707620Y-127027255D01*
X37703381Y-127023337D01*
X37698498Y-127020256D01*
X37529434Y-126913584D01*
X37529433Y-126913584D01*
X37524554Y-126910505D01*
X37328160Y-126832152D01*
X37322503Y-126831027D01*
X37322497Y-126831025D01*
X37125234Y-126791788D01*
X37062324Y-126758881D01*
X37027192Y-126697186D01*
X37030992Y-126626291D01*
X37072517Y-126568705D01*
X37131734Y-126543513D01*
X37264015Y-126524333D01*
X37264019Y-126524332D01*
X37269730Y-126523504D01*
X37359822Y-126492922D01*
X37464483Y-126457395D01*
X37464488Y-126457393D01*
X37469955Y-126455537D01*
X37474998Y-126452713D01*
X37649395Y-126355046D01*
X37649399Y-126355043D01*
X37654442Y-126352219D01*
X37817012Y-126217012D01*
X37952219Y-126054442D01*
X38002346Y-125964934D01*
X38053083Y-125915272D01*
X38112280Y-125900500D01*
X40329819Y-125900500D01*
X40341704Y-125901828D01*
X40341745Y-125901318D01*
X40350691Y-125902038D01*
X40359447Y-125904019D01*
X40412263Y-125900742D01*
X40420067Y-125900500D01*
X40435940Y-125900500D01*
X40446052Y-125899052D01*
X40456106Y-125898022D01*
X40484097Y-125896285D01*
X40502538Y-125895141D01*
X40510982Y-125892093D01*
X40514694Y-125891324D01*
X40529399Y-125887657D01*
X40533027Y-125886596D01*
X40541918Y-125885323D01*
X40584282Y-125866061D01*
X40593637Y-125862254D01*
X40628943Y-125849509D01*
X40628947Y-125849507D01*
X40637387Y-125846460D01*
X40644635Y-125841165D01*
X40647975Y-125839389D01*
X40661089Y-125831726D01*
X40664261Y-125829697D01*
X40672428Y-125825984D01*
X40679223Y-125820129D01*
X40679226Y-125820127D01*
X40707675Y-125795613D01*
X40715596Y-125789324D01*
X40722402Y-125784352D01*
X40726336Y-125781478D01*
X40737079Y-125770735D01*
X40743926Y-125764377D01*
X40758790Y-125751569D01*
X40781037Y-125732400D01*
X40785920Y-125724866D01*
X40791819Y-125718104D01*
X40791824Y-125718108D01*
X40800800Y-125707014D01*
X40970409Y-125537405D01*
X41032721Y-125503379D01*
X41059504Y-125500500D01*
X47640495Y-125500500D01*
X47708616Y-125520502D01*
G37*
%TD.AperFunction*%
%TA.AperFunction,Conductor*%
G36*
X48400782Y-115520002D02*
G01*
X48447275Y-115573658D01*
X48457899Y-115612173D01*
X48462035Y-115649633D01*
X48516143Y-115797490D01*
X48520380Y-115803796D01*
X48520382Y-115803799D01*
X48532902Y-115822430D01*
X48603958Y-115928172D01*
X48629194Y-115951135D01*
X48705962Y-116020988D01*
X48720410Y-116034135D01*
X48741885Y-116045795D01*
X48852099Y-116105637D01*
X48852101Y-116105638D01*
X48858776Y-116109262D01*
X48866125Y-116111190D01*
X49003719Y-116147287D01*
X49003721Y-116147287D01*
X49011069Y-116149215D01*
X49094380Y-116150524D01*
X49160898Y-116151569D01*
X49160901Y-116151569D01*
X49168495Y-116151688D01*
X49321968Y-116116538D01*
X49462625Y-116045795D01*
X49491672Y-116020987D01*
X49556459Y-115991957D01*
X49626659Y-116002562D01*
X49679981Y-116049436D01*
X49699500Y-116116799D01*
X49699500Y-118308966D01*
X49679498Y-118377087D01*
X49625842Y-118423580D01*
X49555568Y-118433684D01*
X49490988Y-118404190D01*
X49469661Y-118380334D01*
X49395838Y-118272922D01*
X49395833Y-118272916D01*
X49391531Y-118266657D01*
X49290512Y-118176652D01*
X49279648Y-118166972D01*
X49279645Y-118166970D01*
X49273976Y-118161919D01*
X49236515Y-118142084D01*
X49141543Y-118091799D01*
X49141544Y-118091799D01*
X49134831Y-118088245D01*
X49088677Y-118076652D01*
X48989498Y-118051740D01*
X48989496Y-118051740D01*
X48982128Y-118049889D01*
X48974530Y-118049849D01*
X48974528Y-118049849D01*
X48907319Y-118049497D01*
X48824684Y-118049065D01*
X48817305Y-118050837D01*
X48817301Y-118050837D01*
X48678967Y-118084048D01*
X48678963Y-118084049D01*
X48671588Y-118085820D01*
X48531679Y-118158032D01*
X48525957Y-118163024D01*
X48525955Y-118163025D01*
X48418759Y-118256538D01*
X48418756Y-118256541D01*
X48413034Y-118261533D01*
X48408667Y-118267747D01*
X48340655Y-118364518D01*
X48322501Y-118390348D01*
X48265309Y-118537039D01*
X48258508Y-118588700D01*
X48250231Y-118651569D01*
X48244758Y-118693138D01*
X48262035Y-118849633D01*
X48316143Y-118997490D01*
X48403958Y-119128172D01*
X48520410Y-119234135D01*
X48527085Y-119237759D01*
X48652099Y-119305637D01*
X48652101Y-119305638D01*
X48658776Y-119309262D01*
X48666125Y-119311190D01*
X48803719Y-119347287D01*
X48803721Y-119347287D01*
X48811069Y-119349215D01*
X48894380Y-119350524D01*
X48960898Y-119351569D01*
X48960901Y-119351569D01*
X48968495Y-119351688D01*
X49121968Y-119316538D01*
X49262625Y-119245795D01*
X49302016Y-119212152D01*
X49376574Y-119148474D01*
X49376576Y-119148471D01*
X49382348Y-119143542D01*
X49471178Y-119019923D01*
X49527172Y-118976275D01*
X49597875Y-118969829D01*
X49660840Y-119002632D01*
X49696074Y-119064268D01*
X49699500Y-119093449D01*
X49699500Y-123608966D01*
X49679498Y-123677087D01*
X49625842Y-123723580D01*
X49555568Y-123733684D01*
X49490988Y-123704190D01*
X49469661Y-123680334D01*
X49395838Y-123572922D01*
X49395833Y-123572916D01*
X49391531Y-123566657D01*
X49331448Y-123513125D01*
X49279648Y-123466972D01*
X49279645Y-123466970D01*
X49273976Y-123461919D01*
X49134831Y-123388245D01*
X49118122Y-123384048D01*
X48989498Y-123351740D01*
X48989496Y-123351740D01*
X48982128Y-123349889D01*
X48974530Y-123349849D01*
X48974528Y-123349849D01*
X48907319Y-123349497D01*
X48824684Y-123349065D01*
X48817305Y-123350837D01*
X48817301Y-123350837D01*
X48678967Y-123384048D01*
X48678963Y-123384049D01*
X48671588Y-123385820D01*
X48531679Y-123458032D01*
X48519737Y-123468450D01*
X48455257Y-123498157D01*
X48436909Y-123499500D01*
X42701026Y-123499500D01*
X42632905Y-123479498D01*
X42598097Y-123439328D01*
X42579832Y-123468171D01*
X42515450Y-123498095D01*
X42496685Y-123499500D01*
X40939504Y-123499500D01*
X40871383Y-123479498D01*
X40850409Y-123462595D01*
X38141917Y-120754103D01*
X38107891Y-120691791D01*
X38111699Y-120624507D01*
X38121647Y-120595201D01*
X38121647Y-120595200D01*
X38123504Y-120589730D01*
X38125401Y-120576652D01*
X38153314Y-120384140D01*
X38153314Y-120384138D01*
X38153846Y-120380470D01*
X38155429Y-120320000D01*
X38136081Y-120109440D01*
X38078686Y-119905931D01*
X38059474Y-119866972D01*
X37987719Y-119721469D01*
X37985165Y-119716290D01*
X37858651Y-119546867D01*
X37720716Y-119419361D01*
X37707622Y-119407257D01*
X37707620Y-119407255D01*
X37703381Y-119403337D01*
X37698498Y-119400256D01*
X37529434Y-119293584D01*
X37529433Y-119293584D01*
X37524554Y-119290505D01*
X37328160Y-119212152D01*
X37322503Y-119211027D01*
X37322497Y-119211025D01*
X37125234Y-119171788D01*
X37062324Y-119138881D01*
X37027192Y-119077186D01*
X37030992Y-119006291D01*
X37072517Y-118948705D01*
X37131734Y-118923513D01*
X37264015Y-118904333D01*
X37264019Y-118904332D01*
X37269730Y-118903504D01*
X37348987Y-118876600D01*
X37464483Y-118837395D01*
X37464488Y-118837393D01*
X37469955Y-118835537D01*
X37474998Y-118832713D01*
X37649395Y-118735046D01*
X37649399Y-118735043D01*
X37654442Y-118732219D01*
X37817012Y-118597012D01*
X37952219Y-118434442D01*
X37955043Y-118429399D01*
X37955046Y-118429395D01*
X38052713Y-118254998D01*
X38052714Y-118254996D01*
X38055537Y-118249955D01*
X38057393Y-118244488D01*
X38057395Y-118244483D01*
X38104173Y-118106676D01*
X38123504Y-118049730D01*
X38130116Y-118004134D01*
X38146210Y-117893138D01*
X40344758Y-117893138D01*
X40362035Y-118049633D01*
X40416143Y-118197490D01*
X40420380Y-118203796D01*
X40420382Y-118203799D01*
X40447721Y-118244483D01*
X40503958Y-118328172D01*
X40525974Y-118348205D01*
X40606927Y-118421866D01*
X40620410Y-118434135D01*
X40641885Y-118445795D01*
X40752099Y-118505637D01*
X40752101Y-118505638D01*
X40758776Y-118509262D01*
X40766125Y-118511190D01*
X40903719Y-118547287D01*
X40903721Y-118547287D01*
X40911069Y-118549215D01*
X40994380Y-118550524D01*
X41060898Y-118551569D01*
X41060901Y-118551569D01*
X41068495Y-118551688D01*
X41221968Y-118516538D01*
X41362625Y-118445795D01*
X41390642Y-118421866D01*
X41476574Y-118348474D01*
X41476576Y-118348471D01*
X41482348Y-118343542D01*
X41574224Y-118215683D01*
X41632950Y-118069598D01*
X41649669Y-117952125D01*
X41654553Y-117917807D01*
X41654553Y-117917804D01*
X41655134Y-117913723D01*
X41655278Y-117900000D01*
X41636363Y-117743694D01*
X41599370Y-117645795D01*
X41583394Y-117603514D01*
X41583393Y-117603511D01*
X41580710Y-117596412D01*
X41491531Y-117466657D01*
X41405891Y-117390354D01*
X41379648Y-117366972D01*
X41379645Y-117366970D01*
X41373976Y-117361919D01*
X41234831Y-117288245D01*
X41160594Y-117269598D01*
X41089498Y-117251740D01*
X41089496Y-117251740D01*
X41082128Y-117249889D01*
X41074530Y-117249849D01*
X41074528Y-117249849D01*
X41007319Y-117249497D01*
X40924684Y-117249065D01*
X40917305Y-117250837D01*
X40917301Y-117250837D01*
X40778967Y-117284048D01*
X40778963Y-117284049D01*
X40771588Y-117285820D01*
X40764843Y-117289301D01*
X40764844Y-117289301D01*
X40679632Y-117333282D01*
X40631679Y-117358032D01*
X40625957Y-117363024D01*
X40625955Y-117363025D01*
X40518759Y-117456538D01*
X40518756Y-117456541D01*
X40513034Y-117461533D01*
X40508667Y-117467747D01*
X40427154Y-117583728D01*
X40422501Y-117590348D01*
X40365309Y-117737039D01*
X40359744Y-117779307D01*
X40351209Y-117844140D01*
X40344758Y-117893138D01*
X38146210Y-117893138D01*
X38153314Y-117844140D01*
X38153314Y-117844138D01*
X38153846Y-117840470D01*
X38155429Y-117780000D01*
X38136081Y-117569440D01*
X38131075Y-117551688D01*
X38105648Y-117461533D01*
X38078686Y-117365931D01*
X38074955Y-117358364D01*
X37987719Y-117181469D01*
X37985165Y-117176290D01*
X37858651Y-117006867D01*
X37703381Y-116863337D01*
X37524554Y-116750505D01*
X37328160Y-116672152D01*
X37322503Y-116671027D01*
X37322497Y-116671025D01*
X37125234Y-116631788D01*
X37062324Y-116598881D01*
X37027192Y-116537186D01*
X37030992Y-116466291D01*
X37072517Y-116408705D01*
X37131734Y-116383513D01*
X37264015Y-116364333D01*
X37264019Y-116364332D01*
X37269730Y-116363504D01*
X37348987Y-116336600D01*
X37464483Y-116297395D01*
X37464488Y-116297393D01*
X37469955Y-116295537D01*
X37474998Y-116292713D01*
X37649395Y-116195046D01*
X37649399Y-116195043D01*
X37654442Y-116192219D01*
X37817012Y-116057012D01*
X37952219Y-115894442D01*
X38002346Y-115804934D01*
X38053083Y-115755272D01*
X38112280Y-115740500D01*
X44889819Y-115740500D01*
X44901704Y-115741828D01*
X44901745Y-115741318D01*
X44910691Y-115742038D01*
X44919447Y-115744019D01*
X44972263Y-115740742D01*
X44980067Y-115740500D01*
X44995940Y-115740500D01*
X45006052Y-115739052D01*
X45016107Y-115738022D01*
X45044154Y-115736282D01*
X45113383Y-115752027D01*
X45163109Y-115802701D01*
X45177545Y-115872215D01*
X45152107Y-115938498D01*
X45141051Y-115951135D01*
X43595720Y-117496466D01*
X43586376Y-117503932D01*
X43586708Y-117504322D01*
X43579872Y-117510140D01*
X43572280Y-117514930D01*
X43566338Y-117521658D01*
X43566337Y-117521659D01*
X43537245Y-117554600D01*
X43531898Y-117560288D01*
X43520680Y-117571506D01*
X43517991Y-117575094D01*
X43517990Y-117575095D01*
X43514550Y-117579684D01*
X43508168Y-117587523D01*
X43477377Y-117622388D01*
X43473563Y-117630511D01*
X43471492Y-117633664D01*
X43463673Y-117646676D01*
X43461856Y-117649995D01*
X43456474Y-117657176D01*
X43453325Y-117665577D01*
X43453324Y-117665578D01*
X43440144Y-117700736D01*
X43436217Y-117710053D01*
X43420263Y-117744034D01*
X43420262Y-117744037D01*
X43416447Y-117752163D01*
X43415065Y-117761037D01*
X43413961Y-117764650D01*
X43410115Y-117779307D01*
X43409301Y-117783010D01*
X43406148Y-117791420D01*
X43402698Y-117837843D01*
X43401548Y-117847856D01*
X43399500Y-117861009D01*
X43399500Y-117876204D01*
X43399154Y-117885541D01*
X43395524Y-117934392D01*
X43397397Y-117943168D01*
X43398008Y-117952125D01*
X43398002Y-117952125D01*
X43399500Y-117966318D01*
X43399500Y-120008966D01*
X43379498Y-120077087D01*
X43325842Y-120123580D01*
X43255568Y-120133684D01*
X43190988Y-120104190D01*
X43169661Y-120080334D01*
X43095838Y-119972922D01*
X43095833Y-119972916D01*
X43091531Y-119966657D01*
X42991841Y-119877836D01*
X42979648Y-119866972D01*
X42979645Y-119866970D01*
X42973976Y-119861919D01*
X42959908Y-119854470D01*
X42841543Y-119791799D01*
X42841544Y-119791799D01*
X42834831Y-119788245D01*
X42723095Y-119760179D01*
X42689498Y-119751740D01*
X42689496Y-119751740D01*
X42682128Y-119749889D01*
X42674530Y-119749849D01*
X42674528Y-119749849D01*
X42607319Y-119749497D01*
X42524684Y-119749065D01*
X42517305Y-119750837D01*
X42517301Y-119750837D01*
X42378967Y-119784048D01*
X42378963Y-119784049D01*
X42371588Y-119785820D01*
X42364843Y-119789301D01*
X42364844Y-119789301D01*
X42257349Y-119844783D01*
X42231679Y-119858032D01*
X42225957Y-119863024D01*
X42225955Y-119863025D01*
X42118759Y-119956538D01*
X42118756Y-119956541D01*
X42113034Y-119961533D01*
X42108667Y-119967747D01*
X42041998Y-120062607D01*
X42022501Y-120090348D01*
X41965309Y-120237039D01*
X41964318Y-120244568D01*
X41945943Y-120384140D01*
X41944758Y-120393138D01*
X41962035Y-120549633D01*
X42016143Y-120697490D01*
X42020380Y-120703796D01*
X42020382Y-120703799D01*
X42060709Y-120763811D01*
X42103958Y-120828172D01*
X42126270Y-120848474D01*
X42169934Y-120888205D01*
X42220410Y-120934135D01*
X42227085Y-120937759D01*
X42352099Y-121005637D01*
X42352101Y-121005638D01*
X42358776Y-121009262D01*
X42366125Y-121011190D01*
X42503719Y-121047287D01*
X42503721Y-121047287D01*
X42511069Y-121049215D01*
X42594380Y-121050524D01*
X42660898Y-121051569D01*
X42660901Y-121051569D01*
X42668495Y-121051688D01*
X42821968Y-121016538D01*
X42962625Y-120945795D01*
X43018921Y-120897714D01*
X43076574Y-120848474D01*
X43076576Y-120848471D01*
X43082348Y-120843542D01*
X43171178Y-120719923D01*
X43227172Y-120676275D01*
X43297875Y-120669829D01*
X43360840Y-120702632D01*
X43396074Y-120764268D01*
X43399500Y-120793449D01*
X43399500Y-121040496D01*
X43379498Y-121108617D01*
X43362595Y-121129591D01*
X42574074Y-121918112D01*
X42514394Y-121951535D01*
X42455560Y-121965660D01*
X42378967Y-121984048D01*
X42378963Y-121984049D01*
X42371588Y-121985820D01*
X42231679Y-122058032D01*
X42225957Y-122063024D01*
X42225955Y-122063025D01*
X42118759Y-122156538D01*
X42118756Y-122156541D01*
X42113034Y-122161533D01*
X42108667Y-122167747D01*
X42026929Y-122284048D01*
X42022501Y-122290348D01*
X41965309Y-122437039D01*
X41962742Y-122456538D01*
X41945944Y-122584131D01*
X41944758Y-122593138D01*
X41962035Y-122749633D01*
X42016143Y-122897490D01*
X42020380Y-122903796D01*
X42020382Y-122903799D01*
X42034051Y-122924140D01*
X42103958Y-123028172D01*
X42220410Y-123134135D01*
X42227085Y-123137759D01*
X42352099Y-123205637D01*
X42352101Y-123205638D01*
X42358776Y-123209262D01*
X42366125Y-123211190D01*
X42503719Y-123247287D01*
X42503721Y-123247287D01*
X42511069Y-123249215D01*
X42515151Y-123249279D01*
X42578559Y-123277726D01*
X42598144Y-123307757D01*
X42605802Y-123290988D01*
X42665528Y-123252604D01*
X42672897Y-123250680D01*
X42814563Y-123218234D01*
X42821968Y-123216538D01*
X42962625Y-123145795D01*
X42988869Y-123123381D01*
X43076574Y-123048474D01*
X43076576Y-123048471D01*
X43082348Y-123043542D01*
X43174224Y-122915683D01*
X43186315Y-122885607D01*
X43230117Y-122776646D01*
X43230118Y-122776644D01*
X43232950Y-122769598D01*
X43242747Y-122700761D01*
X43272148Y-122636138D01*
X43278395Y-122629419D01*
X44204280Y-121703534D01*
X44213624Y-121696068D01*
X44213292Y-121695678D01*
X44220128Y-121689860D01*
X44227720Y-121685070D01*
X44262756Y-121645399D01*
X44268102Y-121639712D01*
X44279321Y-121628493D01*
X44285450Y-121620316D01*
X44291832Y-121612477D01*
X44316684Y-121584337D01*
X44316685Y-121584336D01*
X44322623Y-121577612D01*
X44326434Y-121569494D01*
X44328506Y-121566341D01*
X44336329Y-121553320D01*
X44338141Y-121550011D01*
X44343527Y-121542824D01*
X44359857Y-121499263D01*
X44363784Y-121489943D01*
X44366542Y-121484069D01*
X44383553Y-121447837D01*
X44384934Y-121438965D01*
X44386042Y-121435342D01*
X44389888Y-121420683D01*
X44390701Y-121416986D01*
X44393852Y-121408580D01*
X44397302Y-121362157D01*
X44398453Y-121352139D01*
X44399505Y-121345381D01*
X44400500Y-121338991D01*
X44400500Y-121323796D01*
X44400846Y-121314459D01*
X44403811Y-121274556D01*
X44404476Y-121265608D01*
X44402603Y-121256832D01*
X44401992Y-121247875D01*
X44401998Y-121247875D01*
X44400500Y-121233682D01*
X44400500Y-118159504D01*
X44420502Y-118091383D01*
X44437405Y-118070409D01*
X46970909Y-115536905D01*
X47033221Y-115502879D01*
X47060004Y-115500000D01*
X48332661Y-115500000D01*
X48400782Y-115520002D01*
G37*
%TD.AperFunction*%
%TD*%
M02*
