%TF.GenerationSoftware,KiCad,Pcbnew,(6.0.9)*%
%TF.CreationDate,2023-01-29T17:21:33+01:00*%
%TF.ProjectId,witns_processing_board,7769746e-735f-4707-926f-63657373696e,rev?*%
%TF.SameCoordinates,Original*%
%TF.FileFunction,Copper,L1,Top*%
%TF.FilePolarity,Positive*%
%FSLAX46Y46*%
G04 Gerber Fmt 4.6, Leading zero omitted, Abs format (unit mm)*
G04 Created by KiCad (PCBNEW (6.0.9)) date 2023-01-29 17:21:33*
%MOMM*%
%LPD*%
G01*
G04 APERTURE LIST*
G04 Aperture macros list*
%AMRoundRect*
0 Rectangle with rounded corners*
0 $1 Rounding radius*
0 $2 $3 $4 $5 $6 $7 $8 $9 X,Y pos of 4 corners*
0 Add a 4 corners polygon primitive as box body*
4,1,4,$2,$3,$4,$5,$6,$7,$8,$9,$2,$3,0*
0 Add four circle primitives for the rounded corners*
1,1,$1+$1,$2,$3*
1,1,$1+$1,$4,$5*
1,1,$1+$1,$6,$7*
1,1,$1+$1,$8,$9*
0 Add four rect primitives between the rounded corners*
20,1,$1+$1,$2,$3,$4,$5,0*
20,1,$1+$1,$4,$5,$6,$7,0*
20,1,$1+$1,$6,$7,$8,$9,0*
20,1,$1+$1,$8,$9,$2,$3,0*%
G04 Aperture macros list end*
%TA.AperFunction,SMDPad,CuDef*%
%ADD10RoundRect,0.200000X0.200000X0.275000X-0.200000X0.275000X-0.200000X-0.275000X0.200000X-0.275000X0*%
%TD*%
%TA.AperFunction,SMDPad,CuDef*%
%ADD11RoundRect,0.150000X-0.825000X-0.150000X0.825000X-0.150000X0.825000X0.150000X-0.825000X0.150000X0*%
%TD*%
%TA.AperFunction,SMDPad,CuDef*%
%ADD12RoundRect,0.200000X0.275000X-0.200000X0.275000X0.200000X-0.275000X0.200000X-0.275000X-0.200000X0*%
%TD*%
%TA.AperFunction,SMDPad,CuDef*%
%ADD13RoundRect,0.218750X-0.256250X0.218750X-0.256250X-0.218750X0.256250X-0.218750X0.256250X0.218750X0*%
%TD*%
%TA.AperFunction,SMDPad,CuDef*%
%ADD14RoundRect,0.200000X-0.275000X0.200000X-0.275000X-0.200000X0.275000X-0.200000X0.275000X0.200000X0*%
%TD*%
%TA.AperFunction,SMDPad,CuDef*%
%ADD15RoundRect,0.125000X-0.625000X-0.125000X0.625000X-0.125000X0.625000X0.125000X-0.625000X0.125000X0*%
%TD*%
%TA.AperFunction,SMDPad,CuDef*%
%ADD16RoundRect,0.125000X-0.125000X-0.625000X0.125000X-0.625000X0.125000X0.625000X-0.125000X0.625000X0*%
%TD*%
%TA.AperFunction,SMDPad,CuDef*%
%ADD17RoundRect,0.150000X0.150000X-0.825000X0.150000X0.825000X-0.150000X0.825000X-0.150000X-0.825000X0*%
%TD*%
%TA.AperFunction,SMDPad,CuDef*%
%ADD18RoundRect,0.225000X0.225000X0.250000X-0.225000X0.250000X-0.225000X-0.250000X0.225000X-0.250000X0*%
%TD*%
%TA.AperFunction,SMDPad,CuDef*%
%ADD19RoundRect,0.237500X0.237500X-0.300000X0.237500X0.300000X-0.237500X0.300000X-0.237500X-0.300000X0*%
%TD*%
%TA.AperFunction,SMDPad,CuDef*%
%ADD20RoundRect,0.225000X-0.225000X-0.250000X0.225000X-0.250000X0.225000X0.250000X-0.225000X0.250000X0*%
%TD*%
%TA.AperFunction,SMDPad,CuDef*%
%ADD21RoundRect,0.237500X-0.237500X0.300000X-0.237500X-0.300000X0.237500X-0.300000X0.237500X0.300000X0*%
%TD*%
%TA.AperFunction,SMDPad,CuDef*%
%ADD22RoundRect,0.237500X0.300000X0.237500X-0.300000X0.237500X-0.300000X-0.237500X0.300000X-0.237500X0*%
%TD*%
%TA.AperFunction,SMDPad,CuDef*%
%ADD23RoundRect,0.225000X0.250000X-0.225000X0.250000X0.225000X-0.250000X0.225000X-0.250000X-0.225000X0*%
%TD*%
%TA.AperFunction,SMDPad,CuDef*%
%ADD24RoundRect,0.150000X0.512500X0.150000X-0.512500X0.150000X-0.512500X-0.150000X0.512500X-0.150000X0*%
%TD*%
%TA.AperFunction,SMDPad,CuDef*%
%ADD25R,0.900000X1.700000*%
%TD*%
%TA.AperFunction,SMDPad,CuDef*%
%ADD26R,0.740000X2.400000*%
%TD*%
%TA.AperFunction,SMDPad,CuDef*%
%ADD27RoundRect,0.200000X-0.200000X-0.275000X0.200000X-0.275000X0.200000X0.275000X-0.200000X0.275000X0*%
%TD*%
%TA.AperFunction,SMDPad,CuDef*%
%ADD28RoundRect,0.237500X0.237500X-0.287500X0.237500X0.287500X-0.237500X0.287500X-0.237500X-0.287500X0*%
%TD*%
%TA.AperFunction,SMDPad,CuDef*%
%ADD29R,1.300000X1.000000*%
%TD*%
%TA.AperFunction,SMDPad,CuDef*%
%ADD30RoundRect,0.237500X0.237500X-0.250000X0.237500X0.250000X-0.237500X0.250000X-0.237500X-0.250000X0*%
%TD*%
%TA.AperFunction,SMDPad,CuDef*%
%ADD31RoundRect,0.250000X0.275000X0.350000X-0.275000X0.350000X-0.275000X-0.350000X0.275000X-0.350000X0*%
%TD*%
%TA.AperFunction,SMDPad,CuDef*%
%ADD32RoundRect,0.237500X-0.300000X-0.237500X0.300000X-0.237500X0.300000X0.237500X-0.300000X0.237500X0*%
%TD*%
%TA.AperFunction,SMDPad,CuDef*%
%ADD33RoundRect,0.250001X-0.624999X0.462499X-0.624999X-0.462499X0.624999X-0.462499X0.624999X0.462499X0*%
%TD*%
%TA.AperFunction,ComponentPad*%
%ADD34R,1.700000X1.700000*%
%TD*%
%TA.AperFunction,ComponentPad*%
%ADD35O,1.700000X1.700000*%
%TD*%
%TA.AperFunction,ViaPad*%
%ADD36C,0.700000*%
%TD*%
%TA.AperFunction,Conductor*%
%ADD37C,0.400000*%
%TD*%
%TA.AperFunction,Conductor*%
%ADD38C,0.600000*%
%TD*%
%TA.AperFunction,Conductor*%
%ADD39C,0.500000*%
%TD*%
%TA.AperFunction,Conductor*%
%ADD40C,0.700000*%
%TD*%
%TA.AperFunction,Conductor*%
%ADD41C,0.300000*%
%TD*%
G04 APERTURE END LIST*
D10*
%TO.P,R310,1*%
%TO.N,+3.3VA*%
X59325000Y-118000000D03*
%TO.P,R310,2*%
%TO.N,/Analog Front-end/MCP2B+*%
X57675000Y-118000000D03*
%TD*%
D11*
%TO.P,U303,1*%
%TO.N,/Analog Front-end/TL072_OUT*%
X46025000Y-131095000D03*
%TO.P,U303,2,-*%
%TO.N,/Analog Front-end/TL072-*%
X46025000Y-132365000D03*
%TO.P,U303,3,+*%
%TO.N,/Analog Front-end/TL072+*%
X46025000Y-133635000D03*
%TO.P,U303,4,V-*%
%TO.N,-12V*%
X46025000Y-134905000D03*
%TO.P,U303,5,+*%
%TO.N,GND*%
X50975000Y-134905000D03*
%TO.P,U303,6,-*%
%TO.N,/Analog Front-end/UNUSED*%
X50975000Y-133635000D03*
%TO.P,U303,7*%
X50975000Y-132365000D03*
%TO.P,U303,8,V+*%
%TO.N,+12V*%
X50975000Y-131095000D03*
%TD*%
D12*
%TO.P,R319,1*%
%TO.N,GND*%
X44000000Y-135325000D03*
%TO.P,R319,2*%
%TO.N,/Analog Front-end/TL072+*%
X44000000Y-133675000D03*
%TD*%
D13*
%TO.P,D202,1,K*%
%TO.N,/STM32/LED2_MID*%
X58500000Y-97712500D03*
%TO.P,D202,2,A*%
%TO.N,/STM32/LED2*%
X58500000Y-99287500D03*
%TD*%
D14*
%TO.P,R317,1*%
%TO.N,/Analog Front-end/DAC_OUT*%
X41000000Y-130675000D03*
%TO.P,R317,2*%
%TO.N,/Analog Front-end/TL072-*%
X41000000Y-132325000D03*
%TD*%
D15*
%TO.P,U201,1,VDD*%
%TO.N,+3V3*%
X48825000Y-105200000D03*
%TO.P,U201,2,PF0-OSC_IN*%
%TO.N,/STM32/OSC_IN*%
X48825000Y-106000000D03*
%TO.P,U201,3,PF1-OSC_OUT*%
%TO.N,/STM32/OSC_OUT*%
X48825000Y-106800000D03*
%TO.P,U201,4,PG10-NRST*%
%TO.N,/STM32/nRST*%
X48825000Y-107600000D03*
%TO.P,U201,5,PA0*%
%TO.N,/POT_1*%
X48825000Y-108400000D03*
%TO.P,U201,6,PA1*%
%TO.N,/POT_2*%
X48825000Y-109200000D03*
%TO.P,U201,7,PA2*%
%TO.N,/POT_3*%
X48825000Y-110000000D03*
%TO.P,U201,8,PA3*%
%TO.N,/POT_4*%
X48825000Y-110800000D03*
D16*
%TO.P,U201,9,PA4*%
%TO.N,/Analog Front-end/DAC_OUT*%
X50200000Y-112175000D03*
%TO.P,U201,10,PA5*%
%TO.N,/Analog Front-end/ADC_CV4*%
X51000000Y-112175000D03*
%TO.P,U201,11,PA6*%
%TO.N,/Analog Front-end/ADC_CV2*%
X51800000Y-112175000D03*
%TO.P,U201,12,PA7*%
%TO.N,/Analog Front-end/ADC_CV3*%
X52600000Y-112175000D03*
%TO.P,U201,13,PB0*%
%TO.N,/Analog Front-end/ADC_CV1*%
X53400000Y-112175000D03*
%TO.P,U201,14,VSSA*%
%TO.N,GND*%
X54200000Y-112175000D03*
%TO.P,U201,15,VDDA*%
%TO.N,+3.3VA*%
X55000000Y-112175000D03*
%TO.P,U201,16,VSS*%
%TO.N,GND*%
X55800000Y-112175000D03*
D15*
%TO.P,U201,17,VDD*%
%TO.N,+3V3*%
X57175000Y-110800000D03*
%TO.P,U201,18,PA8*%
%TO.N,/STM32/LED_BLUE*%
X57175000Y-110000000D03*
%TO.P,U201,19,PA9*%
%TO.N,/STM32/LED_GREEN*%
X57175000Y-109200000D03*
%TO.P,U201,20,PA10*%
%TO.N,/STM32/LED_RED*%
X57175000Y-108400000D03*
%TO.P,U201,21,PA11*%
%TO.N,/STM32/ENCODER_B*%
X57175000Y-107600000D03*
%TO.P,U201,22,PA12*%
%TO.N,/STM32/ENCODER_A*%
X57175000Y-106800000D03*
%TO.P,U201,23,PA13*%
%TO.N,/STM32/SWDIO*%
X57175000Y-106000000D03*
%TO.P,U201,24,PA14*%
%TO.N,/STM32/SWCLK*%
X57175000Y-105200000D03*
D16*
%TO.P,U201,25,PA15*%
%TO.N,/STM32/ENCODER_SWITCH*%
X55800000Y-103825000D03*
%TO.P,U201,26,PB3*%
%TO.N,/STM32/SWO*%
X55000000Y-103825000D03*
%TO.P,U201,27,PB4*%
%TO.N,/STM32/LED1*%
X54200000Y-103825000D03*
%TO.P,U201,28,PB5*%
%TO.N,/STM32/LED2*%
X53400000Y-103825000D03*
%TO.P,U201,29,PB6*%
%TO.N,/STM32/VCP_TX*%
X52600000Y-103825000D03*
%TO.P,U201,30,PB7*%
%TO.N,/STM32/VCP_RX*%
X51800000Y-103825000D03*
%TO.P,U201,31,PB8-BOOT0*%
%TO.N,/STM32/BOOT0*%
X51000000Y-103825000D03*
%TO.P,U201,32,VSS*%
%TO.N,GND*%
X50200000Y-103825000D03*
%TD*%
D17*
%TO.P,U302,1*%
%TO.N,/Analog Front-end/ADC_CV3*%
X53595000Y-126475000D03*
%TO.P,U302,2,-*%
%TO.N,/Analog Front-end/MCP2A-*%
X54865000Y-126475000D03*
%TO.P,U302,3,+*%
%TO.N,/Analog Front-end/MCP2A+*%
X56135000Y-126475000D03*
%TO.P,U302,4,V-*%
%TO.N,GND*%
X57405000Y-126475000D03*
%TO.P,U302,5,+*%
%TO.N,/Analog Front-end/MCP2B+*%
X57405000Y-121525000D03*
%TO.P,U302,6,-*%
%TO.N,/Analog Front-end/MCP2B-*%
X56135000Y-121525000D03*
%TO.P,U302,7*%
%TO.N,/Analog Front-end/ADC_CV1*%
X54865000Y-121525000D03*
%TO.P,U302,8,V+*%
%TO.N,+3.3VA*%
X53595000Y-121525000D03*
%TD*%
D10*
%TO.P,R316,1*%
%TO.N,/Analog Front-end/MCP2A-*%
X55325000Y-130000000D03*
%TO.P,R316,2*%
%TO.N,/Analog Front-end/ADC_CV3*%
X53675000Y-130000000D03*
%TD*%
%TO.P,R313,1*%
%TO.N,GND*%
X59325000Y-119500000D03*
%TO.P,R313,2*%
%TO.N,/Analog Front-end/MCP2B+*%
X57675000Y-119500000D03*
%TD*%
D12*
%TO.P,R318,1*%
%TO.N,+3.3VA*%
X42500000Y-135325000D03*
%TO.P,R318,2*%
%TO.N,/Analog Front-end/TL072+*%
X42500000Y-133675000D03*
%TD*%
D18*
%TO.P,C306,1*%
%TO.N,/Analog Front-end/MCP2B-*%
X56275000Y-119500000D03*
%TO.P,C306,2*%
%TO.N,/Analog Front-end/ADC_CV1*%
X54725000Y-119500000D03*
%TD*%
D10*
%TO.P,R307,1*%
%TO.N,/Analog Front-end/MCP1B-*%
X45325000Y-115500000D03*
%TO.P,R307,2*%
%TO.N,/Analog Front-end/ADC_CV2*%
X43675000Y-115500000D03*
%TD*%
D18*
%TO.P,C203,1*%
%TO.N,GND*%
X42775000Y-106500000D03*
%TO.P,C203,2*%
%TO.N,/STM32/XTAL_OUT*%
X41225000Y-106500000D03*
%TD*%
D12*
%TO.P,R301,1*%
%TO.N,/Analog Front-end/RACK_CV2*%
X41000000Y-123825000D03*
%TO.P,R301,2*%
%TO.N,/Analog Front-end/MCP1B-*%
X41000000Y-122175000D03*
%TD*%
D13*
%TO.P,L201,1*%
%TO.N,+3V3*%
X53000000Y-114462500D03*
%TO.P,L201,2*%
%TO.N,+3.3VA*%
X53000000Y-116037500D03*
%TD*%
D12*
%TO.P,R320,1*%
%TO.N,/Analog Front-end/TL072-*%
X44000000Y-132325000D03*
%TO.P,R320,2*%
%TO.N,/Analog Front-end/TL072_OUT*%
X44000000Y-130675000D03*
%TD*%
D18*
%TO.P,C301,1*%
%TO.N,/Analog Front-end/MCP1B-*%
X45275000Y-117000000D03*
%TO.P,C301,2*%
%TO.N,/Analog Front-end/ADC_CV2*%
X43725000Y-117000000D03*
%TD*%
D10*
%TO.P,R308,1*%
%TO.N,/Analog Front-end/MCP1A-*%
X43825000Y-127500000D03*
%TO.P,R308,2*%
%TO.N,/Analog Front-end/ADC_CV4*%
X42175000Y-127500000D03*
%TD*%
D19*
%TO.P,C401,1*%
%TO.N,/Power Supply/BU33_IN*%
X43500000Y-96362500D03*
%TO.P,C401,2*%
%TO.N,GND*%
X43500000Y-94637500D03*
%TD*%
D10*
%TO.P,R312,1*%
%TO.N,+3.3VA*%
X58325000Y-130000000D03*
%TO.P,R312,2*%
%TO.N,/Analog Front-end/MCP2A+*%
X56675000Y-130000000D03*
%TD*%
D18*
%TO.P,C307,1*%
%TO.N,/Analog Front-end/MCP2A-*%
X55275000Y-128500000D03*
%TO.P,C307,2*%
%TO.N,/Analog Front-end/ADC_CV3*%
X53725000Y-128500000D03*
%TD*%
D20*
%TO.P,C202,1*%
%TO.N,GND*%
X41225000Y-101500000D03*
%TO.P,C202,2*%
%TO.N,/STM32/OSC_IN*%
X42775000Y-101500000D03*
%TD*%
D18*
%TO.P,C303,1*%
%TO.N,/Analog Front-end/MCP1A-*%
X43775000Y-126000000D03*
%TO.P,C303,2*%
%TO.N,/Analog Front-end/ADC_CV4*%
X42225000Y-126000000D03*
%TD*%
D12*
%TO.P,R309,1*%
%TO.N,/Analog Front-end/RACK_CV1*%
X52000000Y-126325000D03*
%TO.P,R309,2*%
%TO.N,/Analog Front-end/MCP2B-*%
X52000000Y-124675000D03*
%TD*%
D19*
%TO.P,C402,1*%
%TO.N,+3V3*%
X37500000Y-96362500D03*
%TO.P,C402,2*%
%TO.N,GND*%
X37500000Y-94637500D03*
%TD*%
D21*
%TO.P,C207,1*%
%TO.N,+3.3VA*%
X56500000Y-114137500D03*
%TO.P,C207,2*%
%TO.N,GND*%
X56500000Y-115862500D03*
%TD*%
D12*
%TO.P,R202,1*%
%TO.N,/STM32/LED2_MID*%
X58500000Y-96325000D03*
%TO.P,R202,2*%
%TO.N,GND*%
X58500000Y-94675000D03*
%TD*%
D22*
%TO.P,C206,1*%
%TO.N,+3V3*%
X59362500Y-112500000D03*
%TO.P,C206,2*%
%TO.N,GND*%
X57637500Y-112500000D03*
%TD*%
D17*
%TO.P,U301,1*%
%TO.N,/Analog Front-end/ADC_CV4*%
X42595000Y-123975000D03*
%TO.P,U301,2,-*%
%TO.N,/Analog Front-end/MCP1A-*%
X43865000Y-123975000D03*
%TO.P,U301,3,+*%
%TO.N,/Analog Front-end/MCP1A+*%
X45135000Y-123975000D03*
%TO.P,U301,4,V-*%
%TO.N,GND*%
X46405000Y-123975000D03*
%TO.P,U301,5,+*%
%TO.N,/Analog Front-end/MCP1B+*%
X46405000Y-119025000D03*
%TO.P,U301,6,-*%
%TO.N,/Analog Front-end/MCP1B-*%
X45135000Y-119025000D03*
%TO.P,U301,7*%
%TO.N,/Analog Front-end/ADC_CV2*%
X43865000Y-119025000D03*
%TO.P,U301,8,V+*%
%TO.N,+3.3VA*%
X42595000Y-119025000D03*
%TD*%
D23*
%TO.P,C302,1*%
%TO.N,GND*%
X48000000Y-120275000D03*
%TO.P,C302,2*%
%TO.N,+3.3VA*%
X48000000Y-118725000D03*
%TD*%
D20*
%TO.P,C308,1*%
%TO.N,GND*%
X49725000Y-129500000D03*
%TO.P,C308,2*%
%TO.N,+12V*%
X51275000Y-129500000D03*
%TD*%
D23*
%TO.P,C310,1*%
%TO.N,/Analog Front-end/TL072-*%
X42500000Y-132275000D03*
%TO.P,C310,2*%
%TO.N,/Analog Front-end/TL072_OUT*%
X42500000Y-130725000D03*
%TD*%
D10*
%TO.P,R304,1*%
%TO.N,+3.3VA*%
X46825000Y-127500000D03*
%TO.P,R304,2*%
%TO.N,/Analog Front-end/MCP1A+*%
X45175000Y-127500000D03*
%TD*%
D20*
%TO.P,C309,1*%
%TO.N,-12V*%
X45725000Y-136500000D03*
%TO.P,C309,2*%
%TO.N,GND*%
X47275000Y-136500000D03*
%TD*%
D24*
%TO.P,U401,1,IN*%
%TO.N,/Power Supply/BU33_IN*%
X41637500Y-96450000D03*
%TO.P,U401,2,GND*%
%TO.N,GND*%
X41637500Y-95500000D03*
%TO.P,U401,3,STBY*%
%TO.N,/Power Supply/BU33_IN*%
X41637500Y-94550000D03*
%TO.P,U401,4,NC*%
%TO.N,unconnected-(U401-Pad4)*%
X39362500Y-94550000D03*
%TO.P,U401,5,OUT*%
%TO.N,+3V3*%
X39362500Y-96450000D03*
%TD*%
D13*
%TO.P,D201,1,K*%
%TO.N,/STM32/LED1_MID*%
X60500000Y-97712500D03*
%TO.P,D201,2,A*%
%TO.N,/STM32/LED1*%
X60500000Y-99287500D03*
%TD*%
D12*
%TO.P,R201,1*%
%TO.N,/STM32/LED1_MID*%
X60500000Y-96325000D03*
%TO.P,R201,2*%
%TO.N,GND*%
X60500000Y-94675000D03*
%TD*%
D10*
%TO.P,R314,1*%
%TO.N,GND*%
X58325000Y-128500000D03*
%TO.P,R314,2*%
%TO.N,/Analog Front-end/MCP2A+*%
X56675000Y-128500000D03*
%TD*%
D23*
%TO.P,C304,1*%
%TO.N,GND*%
X52000000Y-122775000D03*
%TO.P,C304,2*%
%TO.N,+3.3VA*%
X52000000Y-121225000D03*
%TD*%
D10*
%TO.P,R315,1*%
%TO.N,/Analog Front-end/MCP2B-*%
X56325000Y-118000000D03*
%TO.P,R315,2*%
%TO.N,/Analog Front-end/ADC_CV1*%
X54675000Y-118000000D03*
%TD*%
D25*
%TO.P,SW201,1,1*%
%TO.N,GND*%
X41800000Y-111500000D03*
%TO.P,SW201,2,2*%
%TO.N,/STM32/nRST*%
X45200000Y-111500000D03*
%TD*%
D26*
%TO.P,J201,1,Pin_1*%
%TO.N,unconnected-(J201-Pad1)*%
X56310000Y-95550000D03*
%TO.P,J201,2,Pin_2*%
%TO.N,unconnected-(J201-Pad2)*%
X56310000Y-99450000D03*
%TO.P,J201,3,Pin_3*%
%TO.N,+3V3*%
X55040000Y-95550000D03*
%TO.P,J201,4,Pin_4*%
%TO.N,/STM32/SWDIO*%
X55040000Y-99450000D03*
%TO.P,J201,5,Pin_5*%
%TO.N,GND*%
X53770000Y-95550000D03*
%TO.P,J201,6,Pin_6*%
%TO.N,/STM32/SWCLK*%
X53770000Y-99450000D03*
%TO.P,J201,7,Pin_7*%
%TO.N,GND*%
X52500000Y-95550000D03*
%TO.P,J201,8,Pin_8*%
%TO.N,/STM32/SWO*%
X52500000Y-99450000D03*
%TO.P,J201,9,Pin_9*%
%TO.N,unconnected-(J201-Pad9)*%
X51230000Y-95550000D03*
%TO.P,J201,10,Pin_10*%
%TO.N,unconnected-(J201-Pad10)*%
X51230000Y-99450000D03*
%TO.P,J201,11,Pin_11*%
%TO.N,GND*%
X49960000Y-95550000D03*
%TO.P,J201,12,Pin_12*%
%TO.N,/STM32/nRST*%
X49960000Y-99450000D03*
%TO.P,J201,13,Pin_13*%
%TO.N,/STM32/VCP_RX*%
X48690000Y-95550000D03*
%TO.P,J201,14,Pin_14*%
%TO.N,/STM32/VCP_TX*%
X48690000Y-99450000D03*
%TD*%
D27*
%TO.P,R311,1*%
%TO.N,/Analog Front-end/RACK_CV3*%
X53675000Y-131500000D03*
%TO.P,R311,2*%
%TO.N,/Analog Front-end/MCP2A-*%
X55325000Y-131500000D03*
%TD*%
D28*
%TO.P,D401,1,K*%
%TO.N,/Power Supply/PWR_LED_MID*%
X37500000Y-100375000D03*
%TO.P,D401,2,A*%
%TO.N,+3V3*%
X37500000Y-98625000D03*
%TD*%
D29*
%TO.P,Y201,1,1*%
%TO.N,/STM32/XTAL_OUT*%
X40900000Y-104900000D03*
%TO.P,Y201,2,2*%
%TO.N,GND*%
X43100000Y-104900000D03*
%TO.P,Y201,3,3*%
%TO.N,/STM32/OSC_IN*%
X43100000Y-103100000D03*
%TO.P,Y201,4,4*%
%TO.N,GND*%
X40900000Y-103100000D03*
%TD*%
D27*
%TO.P,R203,1*%
%TO.N,/STM32/XTAL_OUT*%
X45175000Y-106500000D03*
%TO.P,R203,2*%
%TO.N,/STM32/OSC_OUT*%
X46825000Y-106500000D03*
%TD*%
D10*
%TO.P,R204,1*%
%TO.N,/STM32/BOOT0*%
X46325000Y-101000000D03*
%TO.P,R204,2*%
%TO.N,GND*%
X44675000Y-101000000D03*
%TD*%
D23*
%TO.P,C305,1*%
%TO.N,GND*%
X41000000Y-120275000D03*
%TO.P,C305,2*%
%TO.N,+3.3VA*%
X41000000Y-118725000D03*
%TD*%
D27*
%TO.P,R303,1*%
%TO.N,/Analog Front-end/RACK_CV4*%
X42175000Y-129000000D03*
%TO.P,R303,2*%
%TO.N,/Analog Front-end/MCP1A-*%
X43825000Y-129000000D03*
%TD*%
%TO.P,R321,1*%
%TO.N,/Analog Front-end/TL072_OUT*%
X45675000Y-129500000D03*
%TO.P,R321,2*%
%TO.N,/Analog Front-end/RACK_OUT*%
X47325000Y-129500000D03*
%TD*%
D30*
%TO.P,R401,1*%
%TO.N,/Power Supply/PWR_LED_MID*%
X39500000Y-100412500D03*
%TO.P,R401,2*%
%TO.N,GND*%
X39500000Y-98587500D03*
%TD*%
D21*
%TO.P,C208,1*%
%TO.N,+3.3VA*%
X55000000Y-114137500D03*
%TO.P,C208,2*%
%TO.N,GND*%
X55000000Y-115862500D03*
%TD*%
D31*
%TO.P,FB401,1*%
%TO.N,/Power Supply/FUSE*%
X43650000Y-98500000D03*
%TO.P,FB401,2*%
%TO.N,/Power Supply/BU33_IN*%
X41350000Y-98500000D03*
%TD*%
D10*
%TO.P,R302,1*%
%TO.N,+3.3VA*%
X48325000Y-115500000D03*
%TO.P,R302,2*%
%TO.N,/Analog Front-end/MCP1B+*%
X46675000Y-115500000D03*
%TD*%
D32*
%TO.P,C205,1*%
%TO.N,+3V3*%
X46637500Y-103500000D03*
%TO.P,C205,2*%
%TO.N,GND*%
X48362500Y-103500000D03*
%TD*%
D10*
%TO.P,R306,1*%
%TO.N,GND*%
X46825000Y-126000000D03*
%TO.P,R306,2*%
%TO.N,/Analog Front-end/MCP1A+*%
X45175000Y-126000000D03*
%TD*%
D18*
%TO.P,C201,1*%
%TO.N,/STM32/nRST*%
X46775000Y-108000000D03*
%TO.P,C201,2*%
%TO.N,GND*%
X45225000Y-108000000D03*
%TD*%
D22*
%TO.P,C204,1*%
%TO.N,+3V3*%
X59862500Y-114000000D03*
%TO.P,C204,2*%
%TO.N,GND*%
X58137500Y-114000000D03*
%TD*%
D10*
%TO.P,R305,1*%
%TO.N,GND*%
X48325000Y-117000000D03*
%TO.P,R305,2*%
%TO.N,/Analog Front-end/MCP1B+*%
X46675000Y-117000000D03*
%TD*%
D33*
%TO.P,F401,1*%
%TO.N,+5V*%
X46000000Y-95512500D03*
%TO.P,F401,2*%
%TO.N,/Power Supply/FUSE*%
X46000000Y-98487500D03*
%TD*%
D34*
%TO.P,J103,1,Pin_1*%
%TO.N,+3V3*%
X63000000Y-100000000D03*
D35*
%TO.P,J103,2,Pin_2*%
%TO.N,/STM32/ENCODER_SWITCH*%
X63000000Y-102540000D03*
%TO.P,J103,3,Pin_3*%
%TO.N,/STM32/ENCODER_A*%
X63000000Y-105080000D03*
%TO.P,J103,4,Pin_4*%
%TO.N,/STM32/ENCODER_B*%
X63000000Y-107620000D03*
%TO.P,J103,5,Pin_5*%
%TO.N,GND*%
X63000000Y-110160000D03*
%TO.P,J103,6,Pin_6*%
%TO.N,/STM32/LED_RED*%
X63000000Y-112700000D03*
%TO.P,J103,7,Pin_7*%
%TO.N,/STM32/LED_GREEN*%
X63000000Y-115240000D03*
%TO.P,J103,8,Pin_8*%
%TO.N,/STM32/LED_BLUE*%
X63000000Y-117780000D03*
%TO.P,J103,9,Pin_9*%
%TO.N,GND*%
X63000000Y-120320000D03*
%TD*%
D34*
%TO.P,J102,1,Pin_1*%
%TO.N,+5V*%
X63000000Y-125400000D03*
D35*
%TO.P,J102,2,Pin_2*%
%TO.N,GND*%
X63000000Y-127940000D03*
%TO.P,J102,3,Pin_3*%
%TO.N,+12V*%
X63000000Y-130480000D03*
%TO.P,J102,4,Pin_4*%
%TO.N,GND*%
X63000000Y-133020000D03*
%TO.P,J102,5,Pin_5*%
%TO.N,-12V*%
X63000000Y-135560000D03*
%TD*%
D34*
%TO.P,J101,1,Pin_1*%
%TO.N,GND*%
X37000000Y-105080000D03*
D35*
%TO.P,J101,2,Pin_2*%
%TO.N,/POT_1*%
X37000000Y-107620000D03*
%TO.P,J101,3,Pin_3*%
%TO.N,/POT_2*%
X37000000Y-110160000D03*
%TO.P,J101,4,Pin_4*%
%TO.N,/POT_3*%
X37000000Y-112700000D03*
%TO.P,J101,5,Pin_5*%
%TO.N,/POT_4*%
X37000000Y-115240000D03*
%TO.P,J101,6,Pin_6*%
%TO.N,+3.3VA*%
X37000000Y-117780000D03*
%TO.P,J101,7,Pin_7*%
%TO.N,/Analog Front-end/RACK_CV1*%
X37000000Y-120320000D03*
%TO.P,J101,8,Pin_8*%
%TO.N,/Analog Front-end/RACK_CV2*%
X37000000Y-122860000D03*
%TO.P,J101,9,Pin_9*%
%TO.N,/Analog Front-end/RACK_CV3*%
X37000000Y-125400000D03*
%TO.P,J101,10,Pin_10*%
%TO.N,/Analog Front-end/RACK_CV4*%
X37000000Y-127940000D03*
%TO.P,J101,11,Pin_11*%
%TO.N,GND*%
X37000000Y-130480000D03*
%TO.P,J101,12,Pin_12*%
%TO.N,/Analog Front-end/RACK_OUT*%
X37000000Y-133020000D03*
%TO.P,J101,13,Pin_13*%
%TO.N,GND*%
X37000000Y-135560000D03*
%TD*%
D36*
%TO.N,GND*%
X51900000Y-115900000D03*
X42700000Y-95500000D03*
X43500000Y-93700000D03*
X44400000Y-108000000D03*
X47800000Y-131500000D03*
X41000000Y-121100000D03*
X54500000Y-110700000D03*
X44700000Y-101900000D03*
X49600000Y-134900000D03*
X52500000Y-97100000D03*
X54600000Y-106600000D03*
X42600000Y-111500000D03*
X54776589Y-124798152D03*
X58500000Y-93900000D03*
X42300000Y-117200000D03*
X39900000Y-103100000D03*
X59100000Y-128500000D03*
X60100000Y-119500000D03*
X47300000Y-111700000D03*
X49100000Y-117000000D03*
X48100000Y-136500000D03*
X50000000Y-97100000D03*
X55000000Y-116800000D03*
X43600000Y-106500000D03*
X58100000Y-114800000D03*
X47600000Y-126000000D03*
X44000000Y-136100000D03*
X51700000Y-109000000D03*
X52200000Y-106100000D03*
X40400000Y-101500000D03*
X44100000Y-104900000D03*
X52500000Y-118600000D03*
X55400000Y-109200000D03*
X52000000Y-123600000D03*
X48000000Y-121100000D03*
X57400000Y-125100000D03*
X39500000Y-97700000D03*
X48900000Y-129500000D03*
X37492568Y-93696151D03*
X53800000Y-97100000D03*
X56500000Y-116800000D03*
X60500000Y-93900000D03*
X49400000Y-103700000D03*
X46400000Y-122600000D03*
X56600000Y-112300000D03*
%TO.N,+3V3*%
X52200000Y-114500000D03*
X37500000Y-97500000D03*
X39400000Y-95800000D03*
X58300000Y-110800000D03*
X47700000Y-104600000D03*
X45700000Y-103500000D03*
X59500000Y-113300000D03*
X55000000Y-97100000D03*
%TO.N,+3.3VA*%
X52000000Y-120400000D03*
X41000000Y-117900000D03*
X42600000Y-120400000D03*
X53600000Y-122900000D03*
X48900000Y-118700000D03*
X59100000Y-130000000D03*
X53000000Y-116900000D03*
X42500000Y-136100000D03*
X47600000Y-127500000D03*
X49100000Y-115500000D03*
X59300000Y-117100000D03*
%TO.N,+5V*%
X45200000Y-96600000D03*
X46800000Y-96600000D03*
X46000000Y-96600000D03*
%TO.N,/POT_1*%
X50100000Y-108400000D03*
%TO.N,/POT_2*%
X50100000Y-109500000D03*
%TO.N,/POT_3*%
X47700000Y-110000000D03*
%TO.N,/POT_4*%
X48800000Y-111400000D03*
%TO.N,/STM32/nRST*%
X50700000Y-107600000D03*
X50700000Y-97700000D03*
%TO.N,+12V*%
X51000000Y-130400000D03*
%TO.N,-12V*%
X45800000Y-135600000D03*
%TO.N,/STM32/LED1*%
X60500000Y-100100000D03*
X54400000Y-105100000D03*
%TO.N,/STM32/LED2*%
X58500000Y-100100000D03*
X53200000Y-105100000D03*
%TO.N,/Analog Front-end/RACK_CV1*%
X48900000Y-124000000D03*
%TO.N,/Analog Front-end/RACK_CV3*%
X49000000Y-126100000D03*
%TO.N,/Analog Front-end/RACK_OUT*%
X47400000Y-130300000D03*
%TO.N,/STM32/ENCODER_SWITCH*%
X55800000Y-105000000D03*
%TO.N,/Analog Front-end/DAC_OUT*%
X41000000Y-129900000D03*
X50200000Y-113300000D03*
%TO.N,/Analog Front-end/ADC_CV4*%
X51000000Y-111000000D03*
X42600000Y-122600000D03*
%TO.N,/Analog Front-end/ADC_CV1*%
X53500000Y-110500000D03*
X53900000Y-118000000D03*
%TO.N,/Analog Front-end/ADC_CV3*%
X52200000Y-110900000D03*
X53600000Y-125100000D03*
%TD*%
D37*
%TO.N,GND*%
X49525000Y-103825000D02*
X49400000Y-103700000D01*
X54200000Y-111000000D02*
X54200000Y-112175000D01*
D38*
X53770000Y-97070000D02*
X53800000Y-97100000D01*
X37492568Y-93696151D02*
X37492568Y-94630068D01*
D39*
X50970000Y-134900000D02*
X50975000Y-134905000D01*
D38*
X48000000Y-121100000D02*
X48000000Y-120275000D01*
D39*
X56475000Y-112175000D02*
X56600000Y-112300000D01*
D38*
X44700000Y-101900000D02*
X44700000Y-101025000D01*
D37*
X50200000Y-103825000D02*
X49525000Y-103825000D01*
D38*
X39900000Y-103100000D02*
X40900000Y-103100000D01*
X49400000Y-103700000D02*
X48562500Y-103700000D01*
X46825000Y-126000000D02*
X47600000Y-126000000D01*
X44700000Y-101025000D02*
X44675000Y-101000000D01*
D39*
X49600000Y-134900000D02*
X50970000Y-134900000D01*
D38*
X48562500Y-103700000D02*
X48362500Y-103500000D01*
X43500000Y-93700000D02*
X43500000Y-94637500D01*
X58500000Y-93900000D02*
X58500000Y-94675000D01*
D39*
X57405000Y-125105000D02*
X57400000Y-125100000D01*
D38*
X40400000Y-101500000D02*
X41225000Y-101500000D01*
D39*
X57405000Y-126475000D02*
X57405000Y-125105000D01*
D38*
X48100000Y-136500000D02*
X47275000Y-136500000D01*
X55000000Y-116800000D02*
X55000000Y-115862500D01*
X58100000Y-114037500D02*
X58137500Y-114000000D01*
X44100000Y-104900000D02*
X43100000Y-104900000D01*
X37492568Y-94630068D02*
X37500000Y-94637500D01*
X53770000Y-95550000D02*
X53770000Y-97070000D01*
D37*
X54500000Y-110700000D02*
X54200000Y-111000000D01*
D38*
X41000000Y-121100000D02*
X41000000Y-120275000D01*
X58100000Y-114800000D02*
X58100000Y-114037500D01*
X42600000Y-111500000D02*
X41800000Y-111500000D01*
X59100000Y-128500000D02*
X58325000Y-128500000D01*
X52500000Y-95550000D02*
X52500000Y-97100000D01*
X42700000Y-95500000D02*
X41637500Y-95500000D01*
X56500000Y-116800000D02*
X56500000Y-115862500D01*
X60500000Y-93900000D02*
X60500000Y-94675000D01*
D39*
X55800000Y-112175000D02*
X56475000Y-112175000D01*
D38*
X56800000Y-112500000D02*
X56600000Y-112300000D01*
X49960000Y-97060000D02*
X50000000Y-97100000D01*
X52000000Y-123600000D02*
X52000000Y-122775000D01*
D39*
X46405000Y-123975000D02*
X46405000Y-122605000D01*
D38*
X48900000Y-129500000D02*
X49725000Y-129500000D01*
X49960000Y-95550000D02*
X49960000Y-97060000D01*
X49100000Y-117000000D02*
X48325000Y-117000000D01*
X43600000Y-106500000D02*
X42775000Y-106500000D01*
X39500000Y-97700000D02*
X39500000Y-98587500D01*
X60100000Y-119500000D02*
X59325000Y-119500000D01*
X57637500Y-112500000D02*
X56800000Y-112500000D01*
X44400000Y-108000000D02*
X45225000Y-108000000D01*
D39*
X46405000Y-122605000D02*
X46400000Y-122600000D01*
D38*
X44000000Y-136100000D02*
X44000000Y-135325000D01*
D37*
%TO.N,+3V3*%
X58300000Y-110800000D02*
X57175000Y-110800000D01*
D38*
X45700000Y-103500000D02*
X46637500Y-103500000D01*
X37500000Y-97500000D02*
X37500000Y-96362500D01*
X52200000Y-114500000D02*
X52962500Y-114500000D01*
X59862500Y-114000000D02*
X59862500Y-113662500D01*
X52962500Y-114500000D02*
X53000000Y-114462500D01*
X59362500Y-113162500D02*
X59500000Y-113300000D01*
X55040000Y-95550000D02*
X55040000Y-97060000D01*
X39400000Y-96412500D02*
X39362500Y-96450000D01*
X55040000Y-97060000D02*
X55000000Y-97100000D01*
X37500000Y-97500000D02*
X37500000Y-98625000D01*
D37*
X48825000Y-105200000D02*
X48300000Y-105200000D01*
D38*
X39400000Y-95800000D02*
X39400000Y-96412500D01*
X59362500Y-112500000D02*
X59362500Y-113162500D01*
D37*
X48300000Y-105200000D02*
X47700000Y-104600000D01*
D38*
X59862500Y-113662500D02*
X59500000Y-113300000D01*
%TO.N,+3.3VA*%
X54925000Y-114212500D02*
X55000000Y-114137500D01*
X52000000Y-120400000D02*
X52000000Y-121225000D01*
X41000000Y-117900000D02*
X41000000Y-118725000D01*
D37*
X55000000Y-112175000D02*
X55000000Y-114137500D01*
D39*
X53595000Y-122895000D02*
X53600000Y-122900000D01*
D38*
X49100000Y-115500000D02*
X48325000Y-115500000D01*
X42500000Y-136100000D02*
X42500000Y-135325000D01*
X53462500Y-116037500D02*
X54025000Y-115475000D01*
X48025000Y-118700000D02*
X48000000Y-118725000D01*
X56500000Y-114137500D02*
X55000000Y-114137500D01*
X48900000Y-118700000D02*
X48025000Y-118700000D01*
D39*
X53595000Y-121525000D02*
X53595000Y-122895000D01*
D38*
X53000000Y-116037500D02*
X53462500Y-116037500D01*
X54025000Y-115475000D02*
X54025000Y-114587500D01*
X59300000Y-117975000D02*
X59325000Y-118000000D01*
X47600000Y-127500000D02*
X46825000Y-127500000D01*
X54475000Y-114137500D02*
X55000000Y-114137500D01*
D39*
X42595000Y-120395000D02*
X42600000Y-120400000D01*
D38*
X54025000Y-114587500D02*
X54475000Y-114137500D01*
X53000000Y-116900000D02*
X53000000Y-116037500D01*
X59100000Y-130000000D02*
X58325000Y-130000000D01*
D39*
X42595000Y-119025000D02*
X42595000Y-120395000D01*
D38*
X59300000Y-117100000D02*
X59300000Y-117975000D01*
D40*
%TO.N,+5V*%
X46000000Y-95800000D02*
X45200000Y-96600000D01*
X46000000Y-95800000D02*
X46800000Y-96600000D01*
D38*
X46000000Y-95512500D02*
X46000000Y-96600000D01*
D40*
X45200000Y-96600000D02*
X46800000Y-96600000D01*
X46000000Y-95512500D02*
X46000000Y-95800000D01*
D41*
%TO.N,/POT_1*%
X48825000Y-108400000D02*
X50100000Y-108400000D01*
%TO.N,/POT_2*%
X49800000Y-109200000D02*
X50100000Y-109500000D01*
X48825000Y-109200000D02*
X49800000Y-109200000D01*
%TO.N,/POT_3*%
X48825000Y-110000000D02*
X47700000Y-110000000D01*
D37*
%TO.N,/POT_4*%
X48825000Y-110800000D02*
X48825000Y-111375000D01*
X48825000Y-111375000D02*
X48800000Y-111400000D01*
%TO.N,/STM32/nRST*%
X46775000Y-108000000D02*
X46775000Y-111025000D01*
D41*
X47500000Y-108000000D02*
X46775000Y-108000000D01*
X48825000Y-107600000D02*
X50700000Y-107600000D01*
X47900000Y-107600000D02*
X47500000Y-108000000D01*
D37*
X49960000Y-99450000D02*
X49960000Y-98440000D01*
X49960000Y-98440000D02*
X50700000Y-97700000D01*
X46300000Y-111500000D02*
X45200000Y-111500000D01*
X46775000Y-111025000D02*
X46300000Y-111500000D01*
D41*
X48825000Y-107600000D02*
X47900000Y-107600000D01*
D37*
%TO.N,/STM32/OSC_IN*%
X42775000Y-102775000D02*
X43100000Y-103100000D01*
D41*
X48825000Y-106000000D02*
X47900000Y-106000000D01*
X46600000Y-104700000D02*
X45500000Y-104700000D01*
X45500000Y-104700000D02*
X43900000Y-103100000D01*
X43900000Y-103100000D02*
X43100000Y-103100000D01*
X47900000Y-106000000D02*
X46600000Y-104700000D01*
X42775000Y-101500000D02*
X42775000Y-102775000D01*
D38*
%TO.N,+12V*%
X51275000Y-129500000D02*
X51275000Y-130125000D01*
X51275000Y-130125000D02*
X51000000Y-130400000D01*
X50975000Y-130425000D02*
X51000000Y-130400000D01*
X50975000Y-131095000D02*
X50975000Y-130425000D01*
%TO.N,-12V*%
X45800000Y-136425000D02*
X45725000Y-136500000D01*
X46025000Y-135375000D02*
X45800000Y-135600000D01*
X45800000Y-135600000D02*
X45800000Y-136425000D01*
X46025000Y-134905000D02*
X46025000Y-135375000D01*
D37*
%TO.N,/Power Supply/BU33_IN*%
X40500000Y-94800000D02*
X40500000Y-96150000D01*
X41637500Y-94550000D02*
X40750000Y-94550000D01*
D39*
X41350000Y-98500000D02*
X41350000Y-96737500D01*
D37*
X40500000Y-96150000D02*
X40800000Y-96450000D01*
D39*
X41637500Y-96450000D02*
X43412500Y-96450000D01*
X43412500Y-96450000D02*
X43500000Y-96362500D01*
D37*
X40750000Y-94550000D02*
X40500000Y-94800000D01*
D39*
X41350000Y-96737500D02*
X41637500Y-96450000D01*
D37*
X40800000Y-96450000D02*
X41637500Y-96450000D01*
%TO.N,/STM32/LED1*%
X54200000Y-103825000D02*
X54200000Y-104900000D01*
D39*
X60500000Y-99287500D02*
X60500000Y-100100000D01*
D37*
X54200000Y-104900000D02*
X54400000Y-105100000D01*
D39*
%TO.N,/STM32/LED2*%
X58500000Y-99287500D02*
X58500000Y-100100000D01*
D37*
X53400000Y-104900000D02*
X53200000Y-105100000D01*
X53400000Y-103825000D02*
X53400000Y-104900000D01*
D40*
%TO.N,/Power Supply/FUSE*%
X43650000Y-98500000D02*
X45987500Y-98500000D01*
X45987500Y-98500000D02*
X46000000Y-98487500D01*
D37*
%TO.N,/Analog Front-end/RACK_CV1*%
X51225000Y-126325000D02*
X48900000Y-124000000D01*
X52000000Y-126325000D02*
X51225000Y-126325000D01*
D39*
%TO.N,/Analog Front-end/RACK_CV2*%
X39625000Y-123825000D02*
X41000000Y-123825000D01*
X38660000Y-122860000D02*
X39625000Y-123825000D01*
X37000000Y-122860000D02*
X38660000Y-122860000D01*
D37*
%TO.N,/Analog Front-end/RACK_CV3*%
X53400000Y-131500000D02*
X53675000Y-131500000D01*
X49000000Y-126100000D02*
X50900000Y-128000000D01*
X52700000Y-128800000D02*
X52700000Y-130800000D01*
X52700000Y-130800000D02*
X53400000Y-131500000D01*
X51900000Y-128000000D02*
X52700000Y-128800000D01*
X50900000Y-128000000D02*
X51900000Y-128000000D01*
%TO.N,/Analog Front-end/RACK_CV4*%
X39040000Y-127940000D02*
X37000000Y-127940000D01*
X42175000Y-129000000D02*
X40100000Y-129000000D01*
X40100000Y-129000000D02*
X39040000Y-127940000D01*
%TO.N,/Analog Front-end/RACK_OUT*%
X47325000Y-129500000D02*
X47325000Y-130225000D01*
X47325000Y-130225000D02*
X47400000Y-130300000D01*
D41*
%TO.N,/STM32/LED_RED*%
X59000000Y-108400000D02*
X63000000Y-112400000D01*
X57175000Y-108400000D02*
X59000000Y-108400000D01*
X63000000Y-112400000D02*
X63000000Y-112700000D01*
%TO.N,/STM32/LED_GREEN*%
X61500000Y-111800000D02*
X58900000Y-109200000D01*
X61500000Y-113740000D02*
X61500000Y-111800000D01*
X58900000Y-109200000D02*
X57175000Y-109200000D01*
X63000000Y-115240000D02*
X61500000Y-113740000D01*
%TO.N,/STM32/LED_BLUE*%
X57175000Y-110000000D02*
X58800000Y-110000000D01*
X58800000Y-110000000D02*
X60900000Y-112100000D01*
X60900000Y-112100000D02*
X60900000Y-115680000D01*
X60900000Y-115680000D02*
X63000000Y-117780000D01*
%TO.N,/STM32/ENCODER_A*%
X61120000Y-105080000D02*
X63000000Y-105080000D01*
X57175000Y-106800000D02*
X59400000Y-106800000D01*
X59400000Y-106800000D02*
X61120000Y-105080000D01*
%TO.N,/STM32/ENCODER_B*%
X57195000Y-107620000D02*
X63000000Y-107620000D01*
X57175000Y-107600000D02*
X57195000Y-107620000D01*
%TO.N,/STM32/ENCODER_SWITCH*%
X55800000Y-103825000D02*
X55800000Y-105000000D01*
%TO.N,/STM32/SWDIO*%
X57175000Y-106000000D02*
X58100000Y-106000000D01*
X58400000Y-103200000D02*
X56600000Y-101400000D01*
X56600000Y-101400000D02*
X55600000Y-101400000D01*
X58400000Y-105700000D02*
X58400000Y-103200000D01*
X55040000Y-100840000D02*
X55040000Y-99450000D01*
X58100000Y-106000000D02*
X58400000Y-105700000D01*
X55600000Y-101400000D02*
X55040000Y-100840000D01*
%TO.N,/STM32/SWCLK*%
X56200000Y-102000000D02*
X54300000Y-102000000D01*
X53800000Y-101500000D02*
X53800000Y-99480000D01*
X57175000Y-102975000D02*
X56200000Y-102000000D01*
X54300000Y-102000000D02*
X53800000Y-101500000D01*
X57175000Y-105200000D02*
X57175000Y-102975000D01*
X53800000Y-99480000D02*
X53770000Y-99450000D01*
%TO.N,/STM32/SWO*%
X52500000Y-99450000D02*
X52500000Y-101300000D01*
X52500000Y-101300000D02*
X53800000Y-102600000D01*
X53800000Y-102600000D02*
X54700000Y-102600000D01*
X54700000Y-102600000D02*
X55000000Y-102900000D01*
X55000000Y-102900000D02*
X55000000Y-103825000D01*
%TO.N,/STM32/VCP_RX*%
X51200000Y-101900000D02*
X48870000Y-101900000D01*
X51800000Y-103825000D02*
X51800000Y-102500000D01*
X47900000Y-100930000D02*
X47900000Y-97800000D01*
X47900000Y-97800000D02*
X48690000Y-97010000D01*
X48690000Y-97010000D02*
X48690000Y-95550000D01*
X48870000Y-101900000D02*
X47900000Y-100930000D01*
X51800000Y-102500000D02*
X51200000Y-101900000D01*
%TO.N,/STM32/VCP_TX*%
X52600000Y-103825000D02*
X52600000Y-102400000D01*
X49200000Y-101400000D02*
X48690000Y-100890000D01*
X51600000Y-101400000D02*
X49200000Y-101400000D01*
X52600000Y-102400000D02*
X51600000Y-101400000D01*
X48690000Y-100890000D02*
X48690000Y-99450000D01*
%TO.N,/STM32/OSC_OUT*%
X48825000Y-106800000D02*
X47800000Y-106800000D01*
X47500000Y-106500000D02*
X46825000Y-106500000D01*
X47800000Y-106800000D02*
X47500000Y-106500000D01*
%TO.N,/STM32/BOOT0*%
X46300000Y-101025000D02*
X46325000Y-101000000D01*
X50700000Y-102400000D02*
X46900000Y-102400000D01*
X51000000Y-102700000D02*
X50700000Y-102400000D01*
X46900000Y-102400000D02*
X46300000Y-101800000D01*
X51000000Y-103825000D02*
X51000000Y-102700000D01*
X46300000Y-101800000D02*
X46300000Y-101025000D01*
D37*
%TO.N,/Analog Front-end/DAC_OUT*%
X41000000Y-130675000D02*
X41000000Y-129900000D01*
D41*
X50200000Y-112175000D02*
X50200000Y-113300000D01*
D37*
%TO.N,/Analog Front-end/TL072-*%
X43950000Y-132275000D02*
X44000000Y-132325000D01*
X44040000Y-132365000D02*
X44000000Y-132325000D01*
X41050000Y-132275000D02*
X41000000Y-132325000D01*
X42500000Y-132275000D02*
X41050000Y-132275000D01*
X46025000Y-132365000D02*
X44040000Y-132365000D01*
X42500000Y-132275000D02*
X43950000Y-132275000D01*
%TO.N,/Analog Front-end/TL072_OUT*%
X46025000Y-131095000D02*
X44895000Y-131095000D01*
X43950000Y-130725000D02*
X44000000Y-130675000D01*
X44475000Y-130675000D02*
X44000000Y-130675000D01*
X44895000Y-131095000D02*
X44475000Y-130675000D01*
X46025000Y-129850000D02*
X45675000Y-129500000D01*
X42500000Y-130725000D02*
X43950000Y-130725000D01*
X46025000Y-131095000D02*
X46025000Y-129850000D01*
%TO.N,/Analog Front-end/TL072+*%
X46025000Y-133635000D02*
X44040000Y-133635000D01*
X44040000Y-133635000D02*
X44000000Y-133675000D01*
X44000000Y-133675000D02*
X42500000Y-133675000D01*
%TO.N,/Analog Front-end/MCP2B-*%
X52425000Y-124675000D02*
X53300000Y-123800000D01*
X52000000Y-124675000D02*
X52425000Y-124675000D01*
X56135000Y-123165000D02*
X56135000Y-121525000D01*
X56325000Y-118000000D02*
X56325000Y-119450000D01*
X55500000Y-123800000D02*
X56135000Y-123165000D01*
X56135000Y-121525000D02*
X56135000Y-119640000D01*
X56325000Y-119450000D02*
X56275000Y-119500000D01*
X53300000Y-123800000D02*
X55500000Y-123800000D01*
X56135000Y-119640000D02*
X56275000Y-119500000D01*
%TO.N,/Analog Front-end/ADC_CV2*%
X43675000Y-114825000D02*
X44300000Y-114200000D01*
X43675000Y-116950000D02*
X43725000Y-117000000D01*
X51800000Y-113300000D02*
X51800000Y-112175000D01*
X43865000Y-117140000D02*
X43725000Y-117000000D01*
X44300000Y-114200000D02*
X50900000Y-114200000D01*
X43675000Y-115500000D02*
X43675000Y-114825000D01*
X43865000Y-119025000D02*
X43865000Y-117140000D01*
X50900000Y-114200000D02*
X51800000Y-113300000D01*
X43675000Y-115500000D02*
X43675000Y-116950000D01*
%TO.N,/Analog Front-end/MCP2A-*%
X55275000Y-128500000D02*
X55275000Y-129950000D01*
X55325000Y-130000000D02*
X55325000Y-131500000D01*
X54865000Y-126475000D02*
X54865000Y-127465000D01*
X55275000Y-127875000D02*
X55275000Y-128500000D01*
X54865000Y-127465000D02*
X55275000Y-127875000D01*
X55275000Y-129950000D02*
X55325000Y-130000000D01*
%TO.N,/Analog Front-end/ADC_CV4*%
X42175000Y-127500000D02*
X42175000Y-126050000D01*
X42595000Y-123975000D02*
X42595000Y-122605000D01*
D41*
X51000000Y-111000000D02*
X51000000Y-112175000D01*
D37*
X42595000Y-122605000D02*
X42600000Y-122600000D01*
X42595000Y-123975000D02*
X42595000Y-125630000D01*
X42175000Y-126050000D02*
X42225000Y-126000000D01*
X42595000Y-125630000D02*
X42225000Y-126000000D01*
%TO.N,/Analog Front-end/MCP2B+*%
X57405000Y-119770000D02*
X57675000Y-119500000D01*
X57675000Y-119500000D02*
X57675000Y-118000000D01*
X57405000Y-121525000D02*
X57405000Y-119770000D01*
%TO.N,/Analog Front-end/MCP2A+*%
X56675000Y-130000000D02*
X56675000Y-128500000D01*
X56675000Y-127975000D02*
X56675000Y-128500000D01*
X56135000Y-127435000D02*
X56675000Y-127975000D01*
X56135000Y-126475000D02*
X56135000Y-127435000D01*
%TO.N,/Analog Front-end/MCP1B-*%
X44200000Y-121400000D02*
X45135000Y-120465000D01*
X42300000Y-121400000D02*
X44200000Y-121400000D01*
X45275000Y-115550000D02*
X45325000Y-115500000D01*
X41525000Y-122175000D02*
X42300000Y-121400000D01*
X41000000Y-122175000D02*
X41525000Y-122175000D01*
X45135000Y-119025000D02*
X45135000Y-117140000D01*
X45135000Y-120465000D02*
X45135000Y-119025000D01*
X45135000Y-117140000D02*
X45275000Y-117000000D01*
X45275000Y-117000000D02*
X45275000Y-115550000D01*
%TO.N,/Analog Front-end/ADC_CV1*%
X53900000Y-118000000D02*
X54675000Y-118000000D01*
X54865000Y-119640000D02*
X54725000Y-119500000D01*
D41*
X53400000Y-110600000D02*
X53400000Y-112175000D01*
D37*
X54865000Y-121525000D02*
X54865000Y-119640000D01*
D41*
X53500000Y-110500000D02*
X53400000Y-110600000D01*
D37*
X54725000Y-119500000D02*
X54725000Y-118050000D01*
X54725000Y-118050000D02*
X54675000Y-118000000D01*
%TO.N,/Analog Front-end/MCP1A-*%
X43825000Y-127500000D02*
X43825000Y-129000000D01*
X43775000Y-126000000D02*
X43775000Y-127450000D01*
X43865000Y-123975000D02*
X43865000Y-125910000D01*
X43775000Y-127450000D02*
X43825000Y-127500000D01*
X43865000Y-125910000D02*
X43775000Y-126000000D01*
%TO.N,/Analog Front-end/ADC_CV3*%
X53595000Y-128370000D02*
X53725000Y-128500000D01*
X53595000Y-125105000D02*
X53600000Y-125100000D01*
D41*
X52600000Y-111300000D02*
X52200000Y-110900000D01*
D37*
X53725000Y-128500000D02*
X53725000Y-129950000D01*
X53725000Y-129950000D02*
X53675000Y-130000000D01*
D41*
X52600000Y-112175000D02*
X52600000Y-111300000D01*
D37*
X53595000Y-126475000D02*
X53595000Y-125105000D01*
X53595000Y-126475000D02*
X53595000Y-128370000D01*
%TO.N,/Analog Front-end/MCP1B+*%
X46675000Y-115500000D02*
X46675000Y-117000000D01*
X46405000Y-117270000D02*
X46675000Y-117000000D01*
X46405000Y-119025000D02*
X46405000Y-117270000D01*
%TO.N,/Analog Front-end/MCP1A+*%
X45175000Y-126000000D02*
X45175000Y-127500000D01*
X45135000Y-125960000D02*
X45175000Y-126000000D01*
X45135000Y-123975000D02*
X45135000Y-125960000D01*
D39*
%TO.N,/Power Supply/PWR_LED_MID*%
X39500000Y-100412500D02*
X37537500Y-100412500D01*
X37537500Y-100412500D02*
X37500000Y-100375000D01*
D37*
%TO.N,/STM32/LED1_MID*%
X60500000Y-96325000D02*
X60500000Y-97712500D01*
%TO.N,/STM32/LED2_MID*%
X58500000Y-96325000D02*
X58500000Y-97712500D01*
D41*
%TO.N,/STM32/XTAL_OUT*%
X41600000Y-107700000D02*
X41200000Y-107300000D01*
D37*
X41225000Y-105225000D02*
X40900000Y-104900000D01*
X41200000Y-106525000D02*
X41225000Y-106500000D01*
D41*
X41225000Y-106500000D02*
X41225000Y-105225000D01*
X41200000Y-107300000D02*
X41200000Y-106525000D01*
X44800000Y-106500000D02*
X43600000Y-107700000D01*
X45175000Y-106500000D02*
X44800000Y-106500000D01*
X43600000Y-107700000D02*
X41600000Y-107700000D01*
D37*
%TO.N,/Analog Front-end/UNUSED*%
X50975000Y-132365000D02*
X50975000Y-133635000D01*
%TD*%
M02*
