M48
; DRILL file {KiCad (6.0.9)} date Sun 29 Jan 2023 17:21:31 CET
; FORMAT={-:-/ absolute / inch / decimal}
; #@! TF.CreationDate,2023-01-29T17:21:31+01:00
; #@! TF.GenerationSoftware,Kicad,Pcbnew,(6.0.9)
; #@! TF.FileFunction,Plated,1,4,PTH
FMAT,2
INCH
; #@! TA.AperFunction,Plated,PTH,ViaDrill
T1C0.0118
; #@! TA.AperFunction,Plated,PTH,ComponentDrill
T2C0.0394
%
G90
G05
T1
X1.4761Y-3.6888
X1.4764Y-3.8386
X1.5512Y-3.7717
X1.5551Y-3.8465
X1.5709Y-4.0591
X1.5906Y-3.9961
X1.6142Y-4.6417
X1.6142Y-4.7677
X1.6142Y-5.1142
X1.6654Y-4.6142
X1.6732Y-5.3583
X1.6772Y-4.3898
X1.6772Y-4.7402
X1.6772Y-4.8268
X1.6811Y-3.7598
X1.7126Y-3.689
X1.7165Y-4.1929
X1.7323Y-5.3583
X1.7362Y-4.1299
X1.748Y-4.252
X1.7598Y-4.0118
X1.7795Y-3.8031
X1.7992Y-4.0748
X1.8031Y-5.3386
X1.811Y-3.8031
X1.8268Y-4.8268
X1.8425Y-3.8031
X1.8622Y-4.3976
X1.8661Y-5.1299
X1.874Y-4.9606
X1.874Y-5.0197
X1.878Y-4.1181
X1.878Y-4.3307
X1.8819Y-5.1772
X1.8898Y-4.7677
X1.8937Y-5.374
X1.9213Y-4.3858
X1.9252Y-4.6732
X1.9252Y-4.8819
X1.9252Y-5.0984
X1.9291Y-4.9646
X1.9331Y-4.5472
X1.9331Y-4.6063
X1.9449Y-4.0827
X1.9528Y-5.311
X1.9685Y-3.8228
X1.9724Y-4.2677
X1.9724Y-4.311
X1.9764Y-4.4606
X1.9961Y-3.8465
X1.9961Y-4.2362
X2.0079Y-4.3701
X2.0079Y-5.1339
X2.0354Y-4.2913
X2.0433Y-4.563
X2.0472Y-4.7402
X2.0472Y-4.8661
X2.0551Y-4.1772
X2.0551Y-4.3661
X2.0551Y-4.5079
X2.0669Y-3.8228
X2.0669Y-4.6693
X2.0866Y-4.6024
X2.0945Y-4.1378
X2.1063Y-4.3504
X2.1102Y-4.8386
X2.1102Y-4.9252
X2.1181Y-3.8228
X2.122Y-4.6457
X2.1417Y-4.1378
X2.1457Y-4.3583
X2.1496Y-4.1969
X2.1566Y-4.9133
X2.1654Y-3.8228
X2.1654Y-4.5984
X2.1811Y-4.2992
X2.1969Y-4.1339
X2.2244Y-4.5984
X2.2283Y-4.4213
X2.2598Y-4.9252
X2.2874Y-4.5197
X2.2953Y-4.3622
X2.3031Y-3.6969
X2.3031Y-3.9409
X2.3268Y-5.0591
X2.3268Y-5.1181
X2.3346Y-4.6102
X2.3425Y-4.4606
X2.3661Y-4.7047
X2.3819Y-3.6969
X2.3819Y-3.9409
T2
X1.4567Y-4.137
X1.4567Y-4.237
X1.4567Y-4.337
X1.4567Y-4.437
X1.4567Y-4.537
X1.4567Y-4.637
X1.4567Y-4.737
X1.4567Y-4.837
X1.4567Y-4.937
X1.4567Y-5.037
X1.4567Y-5.137
X1.4567Y-5.237
X1.4567Y-5.337
X2.4803Y-3.937
X2.4803Y-4.037
X2.4803Y-4.137
X2.4803Y-4.237
X2.4803Y-4.337
X2.4803Y-4.437
X2.4803Y-4.537
X2.4803Y-4.637
X2.4803Y-4.737
X2.4803Y-4.937
X2.4803Y-5.037
X2.4803Y-5.137
X2.4803Y-5.237
X2.4803Y-5.337
T0
M30
