%TF.GenerationSoftware,KiCad,Pcbnew,(6.0.9)*%
%TF.CreationDate,2023-01-29T17:21:33+01:00*%
%TF.ProjectId,witns_processing_board,7769746e-735f-4707-926f-63657373696e,rev?*%
%TF.SameCoordinates,Original*%
%TF.FileFunction,Copper,L3,Inr*%
%TF.FilePolarity,Positive*%
%FSLAX46Y46*%
G04 Gerber Fmt 4.6, Leading zero omitted, Abs format (unit mm)*
G04 Created by KiCad (PCBNEW (6.0.9)) date 2023-01-29 17:21:33*
%MOMM*%
%LPD*%
G01*
G04 APERTURE LIST*
%TA.AperFunction,ComponentPad*%
%ADD10R,1.700000X1.700000*%
%TD*%
%TA.AperFunction,ComponentPad*%
%ADD11O,1.700000X1.700000*%
%TD*%
%TA.AperFunction,ViaPad*%
%ADD12C,0.700000*%
%TD*%
%TA.AperFunction,Conductor*%
%ADD13C,0.700000*%
%TD*%
%TA.AperFunction,Conductor*%
%ADD14C,0.600000*%
%TD*%
G04 APERTURE END LIST*
D10*
%TO.N,+3V3*%
%TO.C,J103*%
X63000000Y-100000000D03*
D11*
%TO.N,/STM32/ENCODER_SWITCH*%
X63000000Y-102540000D03*
%TO.N,/STM32/ENCODER_A*%
X63000000Y-105080000D03*
%TO.N,/STM32/ENCODER_B*%
X63000000Y-107620000D03*
%TO.N,GND*%
X63000000Y-110160000D03*
%TO.N,/STM32/LED_RED*%
X63000000Y-112700000D03*
%TO.N,/STM32/LED_GREEN*%
X63000000Y-115240000D03*
%TO.N,/STM32/LED_BLUE*%
X63000000Y-117780000D03*
%TO.N,GND*%
X63000000Y-120320000D03*
%TD*%
D10*
%TO.N,+5V*%
%TO.C,J102*%
X63000000Y-125400000D03*
D11*
%TO.N,GND*%
X63000000Y-127940000D03*
%TO.N,+12V*%
X63000000Y-130480000D03*
%TO.N,GND*%
X63000000Y-133020000D03*
%TO.N,-12V*%
X63000000Y-135560000D03*
%TD*%
D10*
%TO.N,GND*%
%TO.C,J101*%
X37000000Y-105080000D03*
D11*
%TO.N,/POT_1*%
X37000000Y-107620000D03*
%TO.N,/POT_2*%
X37000000Y-110160000D03*
%TO.N,/POT_3*%
X37000000Y-112700000D03*
%TO.N,/POT_4*%
X37000000Y-115240000D03*
%TO.N,+3.3VA*%
X37000000Y-117780000D03*
%TO.N,/Analog Front-end/RACK_CV1*%
X37000000Y-120320000D03*
%TO.N,/Analog Front-end/RACK_CV2*%
X37000000Y-122860000D03*
%TO.N,/Analog Front-end/RACK_CV3*%
X37000000Y-125400000D03*
%TO.N,/Analog Front-end/RACK_CV4*%
X37000000Y-127940000D03*
%TO.N,GND*%
X37000000Y-130480000D03*
%TO.N,/Analog Front-end/RACK_OUT*%
X37000000Y-133020000D03*
%TO.N,GND*%
X37000000Y-135560000D03*
%TD*%
D12*
%TO.N,GND*%
X51900000Y-115900000D03*
X42700000Y-95500000D03*
X43500000Y-93700000D03*
X44400000Y-108000000D03*
X47800000Y-131500000D03*
X41000000Y-121100000D03*
X54500000Y-110700000D03*
X44700000Y-101900000D03*
X49600000Y-134900000D03*
X52500000Y-97100000D03*
X54600000Y-106600000D03*
X42600000Y-111500000D03*
X54776589Y-124798152D03*
X58500000Y-93900000D03*
X42300000Y-117200000D03*
X39900000Y-103100000D03*
X59100000Y-128500000D03*
X60100000Y-119500000D03*
X47300000Y-111700000D03*
X49100000Y-117000000D03*
X48100000Y-136500000D03*
X50000000Y-97100000D03*
X55000000Y-116800000D03*
X43600000Y-106500000D03*
X58100000Y-114800000D03*
X47600000Y-126000000D03*
X44000000Y-136100000D03*
X51700000Y-109000000D03*
X52200000Y-106100000D03*
X40400000Y-101500000D03*
X44100000Y-104900000D03*
X52500000Y-118600000D03*
X55400000Y-109200000D03*
X52000000Y-123600000D03*
X48000000Y-121100000D03*
X57400000Y-125100000D03*
X39500000Y-97700000D03*
X48900000Y-129500000D03*
X37492568Y-93696151D03*
X53800000Y-97100000D03*
X56500000Y-116800000D03*
X60500000Y-93900000D03*
X49400000Y-103700000D03*
X46400000Y-122600000D03*
X56600000Y-112300000D03*
%TO.N,+3V3*%
X52200000Y-114500000D03*
X37500000Y-97500000D03*
X39400000Y-95800000D03*
X58300000Y-110800000D03*
X47700000Y-104600000D03*
X45700000Y-103500000D03*
X59500000Y-113300000D03*
X55000000Y-97100000D03*
%TO.N,+3.3VA*%
X52000000Y-120400000D03*
X41000000Y-117900000D03*
X42600000Y-120400000D03*
X53600000Y-122900000D03*
X48900000Y-118700000D03*
X59100000Y-130000000D03*
X53000000Y-116900000D03*
X42500000Y-136100000D03*
X47600000Y-127500000D03*
X49100000Y-115500000D03*
X59300000Y-117100000D03*
%TO.N,+5V*%
X45200000Y-96600000D03*
X46800000Y-96600000D03*
X46000000Y-96600000D03*
%TO.N,/POT_1*%
X50100000Y-108400000D03*
%TO.N,/POT_2*%
X50100000Y-109500000D03*
%TO.N,/POT_3*%
X47700000Y-110000000D03*
%TO.N,/POT_4*%
X48800000Y-111400000D03*
%TO.N,/STM32/nRST*%
X50700000Y-107600000D03*
X50700000Y-97700000D03*
%TO.N,+12V*%
X51000000Y-130400000D03*
%TO.N,-12V*%
X45800000Y-135600000D03*
%TO.N,/STM32/LED1*%
X60500000Y-100100000D03*
X54400000Y-105100000D03*
%TO.N,/STM32/LED2*%
X58500000Y-100100000D03*
X53200000Y-105100000D03*
%TO.N,/Analog Front-end/RACK_CV1*%
X48900000Y-124000000D03*
%TO.N,/Analog Front-end/RACK_CV3*%
X49000000Y-126100000D03*
%TO.N,/Analog Front-end/RACK_OUT*%
X47400000Y-130300000D03*
%TO.N,/STM32/ENCODER_SWITCH*%
X55800000Y-105000000D03*
%TO.N,/Analog Front-end/DAC_OUT*%
X41000000Y-129900000D03*
X50200000Y-113300000D03*
%TO.N,/Analog Front-end/ADC_CV4*%
X51000000Y-111000000D03*
X42600000Y-122600000D03*
%TO.N,/Analog Front-end/ADC_CV1*%
X53500000Y-110500000D03*
X53900000Y-118000000D03*
%TO.N,/Analog Front-end/ADC_CV3*%
X52200000Y-110900000D03*
X53600000Y-125100000D03*
%TD*%
D13*
%TO.N,+5V*%
X49000000Y-101400000D02*
X59700000Y-101400000D01*
X61300000Y-123700000D02*
X63000000Y-125400000D01*
X46000000Y-97400000D02*
X46800000Y-96600000D01*
X46000000Y-97500000D02*
X46000000Y-98400000D01*
X46000000Y-96600000D02*
X46000000Y-97500000D01*
X46000000Y-98400000D02*
X49000000Y-101400000D01*
X46000000Y-97400000D02*
X46000000Y-97500000D01*
X59700000Y-101400000D02*
X61300000Y-103000000D01*
X61300000Y-103000000D02*
X61300000Y-123700000D01*
X45200000Y-96600000D02*
X46000000Y-97400000D01*
D14*
%TO.N,+12V*%
X61980000Y-131500000D02*
X63000000Y-130480000D01*
X51000000Y-130400000D02*
X52100000Y-131500000D01*
X52100000Y-131500000D02*
X61980000Y-131500000D01*
%TO.N,-12V*%
X45800000Y-135600000D02*
X48800000Y-135600000D01*
X50100000Y-136900000D02*
X61660000Y-136900000D01*
X61660000Y-136900000D02*
X63000000Y-135560000D01*
X48800000Y-135600000D02*
X50100000Y-136900000D01*
%TD*%
%TA.AperFunction,Conductor*%
%TO.N,+3V3*%
G36*
X42841290Y-93320502D02*
G01*
X42887783Y-93374158D01*
X42897887Y-93444432D01*
X42890564Y-93472264D01*
X42865309Y-93537039D01*
X42844758Y-93693138D01*
X42862035Y-93849633D01*
X42916143Y-93997490D01*
X42920380Y-94003796D01*
X42920382Y-94003799D01*
X42940002Y-94032996D01*
X43003958Y-94128172D01*
X43120410Y-94234135D01*
X43127085Y-94237759D01*
X43252099Y-94305637D01*
X43252101Y-94305638D01*
X43258776Y-94309262D01*
X43266125Y-94311190D01*
X43403719Y-94347287D01*
X43403721Y-94347287D01*
X43411069Y-94349215D01*
X43494380Y-94350524D01*
X43560898Y-94351569D01*
X43560901Y-94351569D01*
X43568495Y-94351688D01*
X43721968Y-94316538D01*
X43862625Y-94245795D01*
X43927538Y-94190354D01*
X43976574Y-94148474D01*
X43976576Y-94148471D01*
X43982348Y-94143542D01*
X44074224Y-94015683D01*
X44132950Y-93869598D01*
X44144647Y-93787408D01*
X44154553Y-93717807D01*
X44154553Y-93717804D01*
X44155134Y-93713723D01*
X44155278Y-93700000D01*
X44153071Y-93681758D01*
X44142913Y-93597819D01*
X44136363Y-93543694D01*
X44129720Y-93526114D01*
X44108909Y-93471037D01*
X44103541Y-93400244D01*
X44137299Y-93337787D01*
X44199465Y-93303495D01*
X44226775Y-93300500D01*
X57883649Y-93300500D01*
X57951770Y-93320502D01*
X57998263Y-93374158D01*
X58008367Y-93444432D01*
X57986736Y-93498951D01*
X57960679Y-93536027D01*
X57922501Y-93590348D01*
X57865309Y-93737039D01*
X57864318Y-93744568D01*
X57848364Y-93865749D01*
X57844758Y-93893138D01*
X57862035Y-94049633D01*
X57916143Y-94197490D01*
X57920380Y-94203796D01*
X57920382Y-94203799D01*
X57946016Y-94241946D01*
X58003958Y-94328172D01*
X58120410Y-94434135D01*
X58127085Y-94437759D01*
X58252099Y-94505637D01*
X58252101Y-94505638D01*
X58258776Y-94509262D01*
X58266125Y-94511190D01*
X58403719Y-94547287D01*
X58403721Y-94547287D01*
X58411069Y-94549215D01*
X58494380Y-94550524D01*
X58560898Y-94551569D01*
X58560901Y-94551569D01*
X58568495Y-94551688D01*
X58721968Y-94516538D01*
X58862625Y-94445795D01*
X58888869Y-94423381D01*
X58976574Y-94348474D01*
X58976576Y-94348471D01*
X58982348Y-94343542D01*
X59074224Y-94215683D01*
X59132950Y-94069598D01*
X59155134Y-93913723D01*
X59155278Y-93900000D01*
X59136363Y-93743694D01*
X59121415Y-93704134D01*
X59083394Y-93603514D01*
X59083393Y-93603511D01*
X59080710Y-93596412D01*
X59032395Y-93526114D01*
X59012982Y-93497868D01*
X58990882Y-93430398D01*
X59008767Y-93361691D01*
X59060959Y-93313561D01*
X59116822Y-93300500D01*
X59883649Y-93300500D01*
X59951770Y-93320502D01*
X59998263Y-93374158D01*
X60008367Y-93444432D01*
X59986736Y-93498951D01*
X59960679Y-93536027D01*
X59922501Y-93590348D01*
X59865309Y-93737039D01*
X59864318Y-93744568D01*
X59848364Y-93865749D01*
X59844758Y-93893138D01*
X59862035Y-94049633D01*
X59916143Y-94197490D01*
X59920380Y-94203796D01*
X59920382Y-94203799D01*
X59946016Y-94241946D01*
X60003958Y-94328172D01*
X60120410Y-94434135D01*
X60127085Y-94437759D01*
X60252099Y-94505637D01*
X60252101Y-94505638D01*
X60258776Y-94509262D01*
X60266125Y-94511190D01*
X60403719Y-94547287D01*
X60403721Y-94547287D01*
X60411069Y-94549215D01*
X60494380Y-94550524D01*
X60560898Y-94551569D01*
X60560901Y-94551569D01*
X60568495Y-94551688D01*
X60721968Y-94516538D01*
X60862625Y-94445795D01*
X60888869Y-94423381D01*
X60976574Y-94348474D01*
X60976576Y-94348471D01*
X60982348Y-94343542D01*
X61074224Y-94215683D01*
X61132950Y-94069598D01*
X61155134Y-93913723D01*
X61155278Y-93900000D01*
X61136363Y-93743694D01*
X61121415Y-93704134D01*
X61083394Y-93603514D01*
X61083393Y-93603511D01*
X61080710Y-93596412D01*
X61032395Y-93526114D01*
X61012982Y-93497868D01*
X60990882Y-93430398D01*
X61008767Y-93361691D01*
X61060959Y-93313561D01*
X61116822Y-93300500D01*
X62962683Y-93300500D01*
X62984563Y-93302414D01*
X62989145Y-93303222D01*
X63000000Y-93305136D01*
X63010856Y-93303222D01*
X63021878Y-93303222D01*
X63021878Y-93303779D01*
X63034152Y-93303188D01*
X63177759Y-93314490D01*
X63197285Y-93317583D01*
X63361030Y-93356895D01*
X63379824Y-93363001D01*
X63535405Y-93427445D01*
X63553010Y-93436415D01*
X63655060Y-93498951D01*
X63696597Y-93524405D01*
X63712591Y-93536026D01*
X63730397Y-93551234D01*
X63840634Y-93645385D01*
X63854615Y-93659366D01*
X63963973Y-93787408D01*
X63975594Y-93803401D01*
X64063585Y-93946990D01*
X64072555Y-93964595D01*
X64136997Y-94120171D01*
X64143105Y-94138970D01*
X64182195Y-94301788D01*
X64182417Y-94302714D01*
X64185510Y-94322241D01*
X64195503Y-94449208D01*
X64196812Y-94465845D01*
X64196221Y-94478122D01*
X64196778Y-94478122D01*
X64196778Y-94489144D01*
X64194864Y-94500000D01*
X64196778Y-94510855D01*
X64197586Y-94515437D01*
X64199500Y-94537317D01*
X64199500Y-98556657D01*
X64179498Y-98624778D01*
X64125842Y-98671271D01*
X64055568Y-98681375D01*
X64029270Y-98674639D01*
X63967605Y-98651522D01*
X63952351Y-98647895D01*
X63901486Y-98642369D01*
X63894672Y-98642000D01*
X63272115Y-98642000D01*
X63256876Y-98646475D01*
X63255671Y-98647865D01*
X63254000Y-98655548D01*
X63254000Y-100128000D01*
X63233998Y-100196121D01*
X63180342Y-100242614D01*
X63128000Y-100254000D01*
X61660116Y-100254000D01*
X61644877Y-100258475D01*
X61643672Y-100259865D01*
X61642001Y-100267548D01*
X61642001Y-100894669D01*
X61642371Y-100901490D01*
X61647895Y-100952352D01*
X61651521Y-100967604D01*
X61696676Y-101088054D01*
X61705214Y-101103649D01*
X61781715Y-101205724D01*
X61794276Y-101218285D01*
X61896351Y-101294786D01*
X61911946Y-101303324D01*
X62032394Y-101348478D01*
X62047649Y-101352105D01*
X62098514Y-101357631D01*
X62105328Y-101358000D01*
X62278205Y-101358000D01*
X62346326Y-101378002D01*
X62392819Y-101431658D01*
X62402923Y-101501932D01*
X62373429Y-101566512D01*
X62342628Y-101592285D01*
X62320856Y-101605238D01*
X62161881Y-101744655D01*
X62030976Y-101910708D01*
X62028287Y-101915819D01*
X62028285Y-101915822D01*
X61980941Y-102005809D01*
X61932523Y-102097836D01*
X61869820Y-102299773D01*
X61869141Y-102305508D01*
X61869141Y-102305509D01*
X61863301Y-102354849D01*
X61835430Y-102420146D01*
X61776681Y-102460010D01*
X61705707Y-102461783D01*
X61649079Y-102429133D01*
X60217248Y-100997302D01*
X60209407Y-100988685D01*
X60205202Y-100982060D01*
X60154183Y-100934150D01*
X60151342Y-100931396D01*
X60141058Y-100921112D01*
X60107032Y-100858800D01*
X60112097Y-100787985D01*
X60154644Y-100731149D01*
X60221164Y-100706338D01*
X60262126Y-100710141D01*
X60403719Y-100747287D01*
X60403721Y-100747287D01*
X60411069Y-100749215D01*
X60494380Y-100750524D01*
X60560898Y-100751569D01*
X60560901Y-100751569D01*
X60568495Y-100751688D01*
X60721968Y-100716538D01*
X60862625Y-100645795D01*
X60946162Y-100574448D01*
X60976574Y-100548474D01*
X60976576Y-100548471D01*
X60982348Y-100543542D01*
X61074224Y-100415683D01*
X61132950Y-100269598D01*
X61155134Y-100113723D01*
X61155278Y-100100000D01*
X61136363Y-99943694D01*
X61080710Y-99796412D01*
X61033612Y-99727885D01*
X61642000Y-99727885D01*
X61646475Y-99743124D01*
X61647865Y-99744329D01*
X61655548Y-99746000D01*
X62727885Y-99746000D01*
X62743124Y-99741525D01*
X62744329Y-99740135D01*
X62746000Y-99732452D01*
X62746000Y-98660116D01*
X62741525Y-98644877D01*
X62740135Y-98643672D01*
X62732452Y-98642001D01*
X62105331Y-98642001D01*
X62098510Y-98642371D01*
X62047648Y-98647895D01*
X62032396Y-98651521D01*
X61911946Y-98696676D01*
X61896351Y-98705214D01*
X61794276Y-98781715D01*
X61781715Y-98794276D01*
X61705214Y-98896351D01*
X61696676Y-98911946D01*
X61651522Y-99032394D01*
X61647895Y-99047649D01*
X61642369Y-99098514D01*
X61642000Y-99105328D01*
X61642000Y-99727885D01*
X61033612Y-99727885D01*
X60991531Y-99666657D01*
X60944971Y-99625174D01*
X60879648Y-99566972D01*
X60879645Y-99566970D01*
X60873976Y-99561919D01*
X60734831Y-99488245D01*
X60718122Y-99484048D01*
X60589498Y-99451740D01*
X60589496Y-99451740D01*
X60582128Y-99449889D01*
X60574530Y-99449849D01*
X60574528Y-99449849D01*
X60507319Y-99449497D01*
X60424684Y-99449065D01*
X60417305Y-99450837D01*
X60417301Y-99450837D01*
X60278967Y-99484048D01*
X60278963Y-99484049D01*
X60271588Y-99485820D01*
X60131679Y-99558032D01*
X60125957Y-99563024D01*
X60125955Y-99563025D01*
X60018759Y-99656538D01*
X60018756Y-99656541D01*
X60013034Y-99661533D01*
X59922501Y-99790348D01*
X59865309Y-99937039D01*
X59844758Y-100093138D01*
X59862035Y-100249633D01*
X59916143Y-100397490D01*
X59920380Y-100403796D01*
X59920382Y-100403799D01*
X59960709Y-100463811D01*
X60003958Y-100528172D01*
X60009573Y-100533281D01*
X60009578Y-100533287D01*
X60054813Y-100574448D01*
X60091735Y-100635088D01*
X60090012Y-100706064D01*
X60050189Y-100764841D01*
X59984911Y-100792757D01*
X59938678Y-100789682D01*
X59920957Y-100785132D01*
X59902250Y-100778727D01*
X59890200Y-100773512D01*
X59890195Y-100773510D01*
X59882926Y-100770365D01*
X59837930Y-100763238D01*
X59826310Y-100760831D01*
X59789860Y-100751472D01*
X59789855Y-100751471D01*
X59782177Y-100749500D01*
X59761116Y-100749500D01*
X59741404Y-100747949D01*
X59737224Y-100747287D01*
X59720595Y-100744653D01*
X59712704Y-100745399D01*
X59675235Y-100748941D01*
X59663377Y-100749500D01*
X59078756Y-100749500D01*
X59010635Y-100729498D01*
X58964142Y-100675842D01*
X58954038Y-100605568D01*
X58983192Y-100544149D01*
X58982348Y-100543542D01*
X58985683Y-100538901D01*
X59074224Y-100415683D01*
X59132950Y-100269598D01*
X59155134Y-100113723D01*
X59155278Y-100100000D01*
X59136363Y-99943694D01*
X59080710Y-99796412D01*
X58991531Y-99666657D01*
X58944971Y-99625174D01*
X58879648Y-99566972D01*
X58879645Y-99566970D01*
X58873976Y-99561919D01*
X58734831Y-99488245D01*
X58718122Y-99484048D01*
X58589498Y-99451740D01*
X58589496Y-99451740D01*
X58582128Y-99449889D01*
X58574530Y-99449849D01*
X58574528Y-99449849D01*
X58507319Y-99449497D01*
X58424684Y-99449065D01*
X58417305Y-99450837D01*
X58417301Y-99450837D01*
X58278967Y-99484048D01*
X58278963Y-99484049D01*
X58271588Y-99485820D01*
X58131679Y-99558032D01*
X58125957Y-99563024D01*
X58125955Y-99563025D01*
X58018759Y-99656538D01*
X58018756Y-99656541D01*
X58013034Y-99661533D01*
X57922501Y-99790348D01*
X57865309Y-99937039D01*
X57844758Y-100093138D01*
X57862035Y-100249633D01*
X57916143Y-100397490D01*
X57920380Y-100403796D01*
X57920382Y-100403799D01*
X57960709Y-100463811D01*
X58003958Y-100528172D01*
X58009575Y-100533283D01*
X58014542Y-100539038D01*
X58012627Y-100540691D01*
X58043227Y-100590953D01*
X58041500Y-100661928D01*
X58001675Y-100720703D01*
X57936396Y-100748617D01*
X57921503Y-100749500D01*
X49321636Y-100749500D01*
X49253515Y-100729498D01*
X49232541Y-100712595D01*
X46687405Y-98167459D01*
X46653379Y-98105147D01*
X46650500Y-98078364D01*
X46650500Y-97721636D01*
X46670502Y-97653515D01*
X46687405Y-97632541D01*
X47226808Y-97093138D01*
X49344758Y-97093138D01*
X49362035Y-97249633D01*
X49364645Y-97256765D01*
X49413460Y-97390157D01*
X49416143Y-97397490D01*
X49420380Y-97403796D01*
X49420382Y-97403799D01*
X49460709Y-97463811D01*
X49503958Y-97528172D01*
X49620410Y-97634135D01*
X49680369Y-97666690D01*
X49752099Y-97705637D01*
X49752101Y-97705638D01*
X49758776Y-97709262D01*
X49766125Y-97711190D01*
X49903719Y-97747287D01*
X49903721Y-97747287D01*
X49911069Y-97749215D01*
X49941641Y-97749695D01*
X50009438Y-97770764D01*
X50055083Y-97825142D01*
X50061437Y-97844219D01*
X50062035Y-97849633D01*
X50116143Y-97997490D01*
X50120380Y-98003796D01*
X50120382Y-98003799D01*
X50160709Y-98063811D01*
X50203958Y-98128172D01*
X50320410Y-98234135D01*
X50327085Y-98237759D01*
X50452099Y-98305637D01*
X50452101Y-98305638D01*
X50458776Y-98309262D01*
X50466125Y-98311190D01*
X50603719Y-98347287D01*
X50603721Y-98347287D01*
X50611069Y-98349215D01*
X50694380Y-98350524D01*
X50760898Y-98351569D01*
X50760901Y-98351569D01*
X50768495Y-98351688D01*
X50921968Y-98316538D01*
X51062625Y-98245795D01*
X51154345Y-98167459D01*
X51176574Y-98148474D01*
X51176576Y-98148471D01*
X51182348Y-98143542D01*
X51274224Y-98015683D01*
X51332950Y-97869598D01*
X51349972Y-97749992D01*
X51354553Y-97717807D01*
X51354553Y-97717804D01*
X51355134Y-97713723D01*
X51355278Y-97700000D01*
X51336363Y-97543694D01*
X51328115Y-97521866D01*
X51283394Y-97403514D01*
X51283393Y-97403511D01*
X51280710Y-97396412D01*
X51191531Y-97266657D01*
X51144971Y-97225174D01*
X51079648Y-97166972D01*
X51079645Y-97166970D01*
X51073976Y-97161919D01*
X50944072Y-97093138D01*
X51844758Y-97093138D01*
X51862035Y-97249633D01*
X51864645Y-97256765D01*
X51913460Y-97390157D01*
X51916143Y-97397490D01*
X51920380Y-97403796D01*
X51920382Y-97403799D01*
X51960709Y-97463811D01*
X52003958Y-97528172D01*
X52120410Y-97634135D01*
X52180369Y-97666690D01*
X52252099Y-97705637D01*
X52252101Y-97705638D01*
X52258776Y-97709262D01*
X52266125Y-97711190D01*
X52403719Y-97747287D01*
X52403721Y-97747287D01*
X52411069Y-97749215D01*
X52494380Y-97750524D01*
X52560898Y-97751569D01*
X52560901Y-97751569D01*
X52568495Y-97751688D01*
X52721968Y-97716538D01*
X52862625Y-97645795D01*
X52973342Y-97551234D01*
X52976574Y-97548474D01*
X52976576Y-97548471D01*
X52982348Y-97543542D01*
X52992106Y-97529963D01*
X53048090Y-97452054D01*
X53104084Y-97408406D01*
X53174788Y-97401960D01*
X53237752Y-97434763D01*
X53254987Y-97455295D01*
X53303958Y-97528172D01*
X53420410Y-97634135D01*
X53480369Y-97666690D01*
X53552099Y-97705637D01*
X53552101Y-97705638D01*
X53558776Y-97709262D01*
X53566125Y-97711190D01*
X53703719Y-97747287D01*
X53703721Y-97747287D01*
X53711069Y-97749215D01*
X53794380Y-97750524D01*
X53860898Y-97751569D01*
X53860901Y-97751569D01*
X53868495Y-97751688D01*
X54021968Y-97716538D01*
X54162625Y-97645795D01*
X54273342Y-97551234D01*
X54276574Y-97548474D01*
X54276576Y-97548471D01*
X54282348Y-97543542D01*
X54374224Y-97415683D01*
X54432950Y-97269598D01*
X54447556Y-97166972D01*
X54454553Y-97117807D01*
X54454553Y-97117804D01*
X54455134Y-97113723D01*
X54455278Y-97100000D01*
X54453856Y-97088245D01*
X54445011Y-97015161D01*
X54436363Y-96943694D01*
X54431175Y-96929963D01*
X54383394Y-96803514D01*
X54383393Y-96803511D01*
X54380710Y-96796412D01*
X54291531Y-96666657D01*
X54221347Y-96604125D01*
X54179648Y-96566972D01*
X54179645Y-96566970D01*
X54173976Y-96561919D01*
X54164894Y-96557110D01*
X54041543Y-96491799D01*
X54041544Y-96491799D01*
X54034831Y-96488245D01*
X54018122Y-96484048D01*
X53889498Y-96451740D01*
X53889496Y-96451740D01*
X53882128Y-96449889D01*
X53874530Y-96449849D01*
X53874528Y-96449849D01*
X53807319Y-96449497D01*
X53724684Y-96449065D01*
X53717305Y-96450837D01*
X53717301Y-96450837D01*
X53578967Y-96484048D01*
X53578963Y-96484049D01*
X53571588Y-96485820D01*
X53431679Y-96558032D01*
X53425957Y-96563024D01*
X53425955Y-96563025D01*
X53318759Y-96656538D01*
X53318756Y-96656541D01*
X53313034Y-96661533D01*
X53289759Y-96694650D01*
X53252949Y-96747025D01*
X53197414Y-96791256D01*
X53126782Y-96798442D01*
X53063478Y-96766301D01*
X53046022Y-96745941D01*
X52995836Y-96672920D01*
X52995834Y-96672917D01*
X52991531Y-96666657D01*
X52921347Y-96604125D01*
X52879648Y-96566972D01*
X52879645Y-96566970D01*
X52873976Y-96561919D01*
X52864894Y-96557110D01*
X52741543Y-96491799D01*
X52741544Y-96491799D01*
X52734831Y-96488245D01*
X52718122Y-96484048D01*
X52589498Y-96451740D01*
X52589496Y-96451740D01*
X52582128Y-96449889D01*
X52574530Y-96449849D01*
X52574528Y-96449849D01*
X52507319Y-96449497D01*
X52424684Y-96449065D01*
X52417305Y-96450837D01*
X52417301Y-96450837D01*
X52278967Y-96484048D01*
X52278963Y-96484049D01*
X52271588Y-96485820D01*
X52131679Y-96558032D01*
X52125957Y-96563024D01*
X52125955Y-96563025D01*
X52018759Y-96656538D01*
X52018756Y-96656541D01*
X52013034Y-96661533D01*
X51989759Y-96694650D01*
X51934868Y-96772752D01*
X51922501Y-96790348D01*
X51865309Y-96937039D01*
X51864318Y-96944568D01*
X51845955Y-97084048D01*
X51844758Y-97093138D01*
X50944072Y-97093138D01*
X50934831Y-97088245D01*
X50918122Y-97084048D01*
X50789498Y-97051740D01*
X50789496Y-97051740D01*
X50782128Y-97049889D01*
X50774529Y-97049849D01*
X50774527Y-97049849D01*
X50759615Y-97049771D01*
X50691600Y-97029412D01*
X50645389Y-96975514D01*
X50637911Y-96953826D01*
X50637277Y-96951243D01*
X50636363Y-96943694D01*
X50600168Y-96847907D01*
X50583394Y-96803514D01*
X50583393Y-96803511D01*
X50580710Y-96796412D01*
X50491531Y-96666657D01*
X50421347Y-96604125D01*
X50379648Y-96566972D01*
X50379645Y-96566970D01*
X50373976Y-96561919D01*
X50364894Y-96557110D01*
X50241543Y-96491799D01*
X50241544Y-96491799D01*
X50234831Y-96488245D01*
X50218122Y-96484048D01*
X50089498Y-96451740D01*
X50089496Y-96451740D01*
X50082128Y-96449889D01*
X50074530Y-96449849D01*
X50074528Y-96449849D01*
X50007319Y-96449497D01*
X49924684Y-96449065D01*
X49917305Y-96450837D01*
X49917301Y-96450837D01*
X49778967Y-96484048D01*
X49778963Y-96484049D01*
X49771588Y-96485820D01*
X49631679Y-96558032D01*
X49625957Y-96563024D01*
X49625955Y-96563025D01*
X49518759Y-96656538D01*
X49518756Y-96656541D01*
X49513034Y-96661533D01*
X49489759Y-96694650D01*
X49434868Y-96772752D01*
X49422501Y-96790348D01*
X49365309Y-96937039D01*
X49364318Y-96944568D01*
X49345955Y-97084048D01*
X49344758Y-97093138D01*
X47226808Y-97093138D01*
X47238110Y-97081836D01*
X47245363Y-97075130D01*
X47282348Y-97043542D01*
X47320509Y-96990436D01*
X47323242Y-96986777D01*
X47359505Y-96940027D01*
X47359508Y-96940022D01*
X47364363Y-96933763D01*
X47367509Y-96926493D01*
X47368556Y-96924723D01*
X47370328Y-96921105D01*
X47374224Y-96915683D01*
X47377058Y-96908634D01*
X47377061Y-96908628D01*
X47400246Y-96850952D01*
X47401516Y-96847907D01*
X47426488Y-96790201D01*
X47426488Y-96790200D01*
X47429636Y-96782926D01*
X47430877Y-96775094D01*
X47431231Y-96773875D01*
X47432950Y-96769598D01*
X47434777Y-96756766D01*
X47443463Y-96695726D01*
X47443757Y-96693767D01*
X47447059Y-96672920D01*
X47455347Y-96620595D01*
X47454872Y-96615566D01*
X47455134Y-96613723D01*
X47455278Y-96600000D01*
X47454783Y-96595905D01*
X47454782Y-96595896D01*
X47446894Y-96530711D01*
X47446540Y-96527432D01*
X47440625Y-96464858D01*
X47440624Y-96464855D01*
X47439879Y-96456971D01*
X47437195Y-96449516D01*
X47436917Y-96448272D01*
X47436363Y-96443694D01*
X47409959Y-96373816D01*
X47409274Y-96371961D01*
X47397554Y-96339406D01*
X47384206Y-96302332D01*
X47381370Y-96298159D01*
X47380710Y-96296412D01*
X47378250Y-96292832D01*
X47333707Y-96228021D01*
X47333335Y-96227477D01*
X47296279Y-96172952D01*
X47291825Y-96166398D01*
X47236266Y-96117415D01*
X47235948Y-96117133D01*
X47177216Y-96064805D01*
X47177213Y-96064803D01*
X47173976Y-96061919D01*
X47172327Y-96061046D01*
X47168541Y-96057708D01*
X47144131Y-96045270D01*
X47102539Y-96024078D01*
X47100783Y-96023165D01*
X47091468Y-96018233D01*
X47034831Y-95988245D01*
X47030364Y-95987123D01*
X47029161Y-95986690D01*
X47022100Y-95983092D01*
X47014371Y-95981364D01*
X47014367Y-95981363D01*
X46953002Y-95967647D01*
X46949803Y-95966888D01*
X46882128Y-95949889D01*
X46875456Y-95949854D01*
X46871499Y-95949164D01*
X46869442Y-95948970D01*
X46861704Y-95947240D01*
X46794655Y-95949347D01*
X46790054Y-95949407D01*
X46724684Y-95949065D01*
X46717297Y-95950838D01*
X46711387Y-95951522D01*
X46707568Y-95951803D01*
X46705353Y-95952154D01*
X46697431Y-95952403D01*
X46636760Y-95970029D01*
X46631030Y-95971549D01*
X46578972Y-95984047D01*
X46578970Y-95984048D01*
X46571588Y-95985820D01*
X46564839Y-95989304D01*
X46557721Y-95991951D01*
X46557643Y-95991742D01*
X46551435Y-95994218D01*
X46547212Y-95996045D01*
X46539602Y-95998256D01*
X46532785Y-96002288D01*
X46532777Y-96002291D01*
X46488604Y-96028415D01*
X46482259Y-96031925D01*
X46460365Y-96043226D01*
X46390658Y-96056697D01*
X46348925Y-96045270D01*
X46294152Y-96019496D01*
X46288848Y-96016846D01*
X46286862Y-96015794D01*
X46267006Y-96005281D01*
X46241548Y-95991801D01*
X46241545Y-95991800D01*
X46234831Y-95988245D01*
X46227460Y-95986394D01*
X46220372Y-95983673D01*
X46220452Y-95983464D01*
X46214144Y-95981212D01*
X46209783Y-95979795D01*
X46202613Y-95976421D01*
X46144420Y-95965320D01*
X46137354Y-95963761D01*
X46082128Y-95949889D01*
X46074528Y-95949849D01*
X46074344Y-95949826D01*
X46051629Y-95947619D01*
X46041170Y-95945624D01*
X45986000Y-95949095D01*
X45977455Y-95949342D01*
X45924684Y-95949065D01*
X45913343Y-95951787D01*
X45891853Y-95955018D01*
X45887515Y-95955291D01*
X45877140Y-95955944D01*
X45828381Y-95971786D01*
X45818871Y-95974468D01*
X45778976Y-95984046D01*
X45778974Y-95984047D01*
X45771588Y-95985820D01*
X45764840Y-95989303D01*
X45764834Y-95989305D01*
X45757581Y-95993049D01*
X45738727Y-96000916D01*
X45720829Y-96006732D01*
X45714132Y-96010982D01*
X45680946Y-96032042D01*
X45671228Y-96037619D01*
X45660512Y-96043150D01*
X45590807Y-96056623D01*
X45539172Y-96039833D01*
X45533764Y-96035638D01*
X45526493Y-96032491D01*
X45526487Y-96032488D01*
X45486734Y-96015286D01*
X45477815Y-96011003D01*
X45441548Y-95991801D01*
X45441545Y-95991800D01*
X45434831Y-95988245D01*
X45419531Y-95984402D01*
X45400190Y-95977836D01*
X45396921Y-95976421D01*
X45382926Y-95970365D01*
X45336279Y-95962977D01*
X45325303Y-95960734D01*
X45282128Y-95949889D01*
X45274530Y-95949849D01*
X45274528Y-95949849D01*
X45262262Y-95949785D01*
X45243220Y-95948237D01*
X45220595Y-95944653D01*
X45212703Y-95945399D01*
X45212700Y-95945399D01*
X45177581Y-95948719D01*
X45165065Y-95949276D01*
X45152168Y-95949209D01*
X45124684Y-95949065D01*
X45117300Y-95950838D01*
X45117297Y-95950838D01*
X45101376Y-95954660D01*
X45083825Y-95957581D01*
X45064868Y-95959374D01*
X45064865Y-95959375D01*
X45056971Y-95960121D01*
X45020130Y-95973385D01*
X45006873Y-95977349D01*
X44971588Y-95985820D01*
X44964841Y-95989302D01*
X44964839Y-95989303D01*
X44946640Y-95998696D01*
X44931532Y-96005281D01*
X44909789Y-96013109D01*
X44909787Y-96013110D01*
X44902332Y-96015794D01*
X44873296Y-96035527D01*
X44860277Y-96043272D01*
X44831679Y-96058032D01*
X44825956Y-96063025D01*
X44825951Y-96063028D01*
X44807425Y-96079189D01*
X44795419Y-96088452D01*
X44766398Y-96108175D01*
X44761161Y-96114115D01*
X44761152Y-96114123D01*
X44745868Y-96131459D01*
X44734189Y-96143077D01*
X44718760Y-96156537D01*
X44718757Y-96156540D01*
X44713034Y-96161533D01*
X44708667Y-96167747D01*
X44708664Y-96167750D01*
X44692172Y-96191216D01*
X44683598Y-96202092D01*
X44662953Y-96225509D01*
X44662951Y-96225512D01*
X44657708Y-96231459D01*
X44645462Y-96255493D01*
X44636286Y-96270734D01*
X44622501Y-96290348D01*
X44619742Y-96297423D01*
X44619741Y-96297426D01*
X44607831Y-96327974D01*
X44602705Y-96339406D01*
X44586693Y-96370832D01*
X44583092Y-96377900D01*
X44581363Y-96385637D01*
X44581362Y-96385639D01*
X44578097Y-96400248D01*
X44572526Y-96418529D01*
X44565309Y-96437039D01*
X44561647Y-96464858D01*
X44559501Y-96481154D01*
X44557546Y-96492187D01*
X44547240Y-96538296D01*
X44547489Y-96546220D01*
X44547831Y-96557110D01*
X44546815Y-96577511D01*
X44545749Y-96585605D01*
X44545749Y-96585611D01*
X44544758Y-96593138D01*
X44545592Y-96600690D01*
X44550093Y-96641470D01*
X44550792Y-96651334D01*
X44552403Y-96702569D01*
X44556514Y-96716719D01*
X44560755Y-96738039D01*
X44562035Y-96749633D01*
X44564644Y-96756764D01*
X44564645Y-96756766D01*
X44580168Y-96799184D01*
X44582839Y-96807332D01*
X44595512Y-96850952D01*
X44598256Y-96860398D01*
X44602289Y-96867217D01*
X44603673Y-96869557D01*
X44613447Y-96890189D01*
X44613534Y-96890359D01*
X44616143Y-96897490D01*
X44637964Y-96929963D01*
X44647885Y-96944728D01*
X44651752Y-96950856D01*
X44681919Y-97001865D01*
X44687532Y-97007478D01*
X44690372Y-97011139D01*
X44694589Y-97016264D01*
X44694758Y-97016118D01*
X44699724Y-97021871D01*
X44703958Y-97028172D01*
X44726919Y-97049065D01*
X44749167Y-97069309D01*
X44753462Y-97073408D01*
X45312595Y-97632541D01*
X45346621Y-97694853D01*
X45349500Y-97721636D01*
X45349500Y-98319000D01*
X45348951Y-98330640D01*
X45347240Y-98338296D01*
X45347489Y-98346219D01*
X45349438Y-98408230D01*
X45349500Y-98412188D01*
X45349500Y-98440925D01*
X45349995Y-98444842D01*
X45350039Y-98445191D01*
X45350971Y-98457024D01*
X45352403Y-98502569D01*
X45354615Y-98510183D01*
X45354616Y-98510188D01*
X45358278Y-98522792D01*
X45362289Y-98542156D01*
X45364929Y-98563058D01*
X45367848Y-98570429D01*
X45367848Y-98570431D01*
X45381702Y-98605420D01*
X45385541Y-98616631D01*
X45398256Y-98660398D01*
X45406678Y-98674639D01*
X45408981Y-98678533D01*
X45417676Y-98696281D01*
X45425432Y-98715871D01*
X45452218Y-98752738D01*
X45458725Y-98762646D01*
X45477883Y-98795042D01*
X45477887Y-98795047D01*
X45481919Y-98801865D01*
X45496812Y-98816758D01*
X45509653Y-98831792D01*
X45522037Y-98848837D01*
X45528145Y-98853890D01*
X45557143Y-98877879D01*
X45565923Y-98885869D01*
X48482752Y-101802698D01*
X48490593Y-101811315D01*
X48494798Y-101817940D01*
X48500577Y-101823367D01*
X48500578Y-101823368D01*
X48545816Y-101865849D01*
X48548658Y-101868604D01*
X48568966Y-101888912D01*
X48572103Y-101891345D01*
X48572372Y-101891554D01*
X48581402Y-101899266D01*
X48614607Y-101930448D01*
X48633070Y-101940599D01*
X48649590Y-101951450D01*
X48666237Y-101964363D01*
X48708046Y-101982455D01*
X48718706Y-101987677D01*
X48758632Y-102009627D01*
X48779037Y-102014866D01*
X48797742Y-102021270D01*
X48817074Y-102029636D01*
X48824900Y-102030876D01*
X48824905Y-102030877D01*
X48862076Y-102036765D01*
X48873696Y-102039171D01*
X48910142Y-102048528D01*
X48917823Y-102050500D01*
X48938884Y-102050500D01*
X48958596Y-102052051D01*
X48979405Y-102055347D01*
X48987297Y-102054601D01*
X49024767Y-102051059D01*
X49036625Y-102050500D01*
X59378364Y-102050500D01*
X59446485Y-102070502D01*
X59467459Y-102087405D01*
X60612595Y-103232541D01*
X60646621Y-103294853D01*
X60649500Y-103321636D01*
X60649500Y-114874000D01*
X60629498Y-114942121D01*
X60575842Y-114988614D01*
X60523500Y-115000000D01*
X58873825Y-115000000D01*
X58805704Y-114979998D01*
X58759211Y-114926342D01*
X58749082Y-114856247D01*
X58754553Y-114817807D01*
X58754553Y-114817804D01*
X58755134Y-114813723D01*
X58755278Y-114800000D01*
X58736363Y-114643694D01*
X58727178Y-114619386D01*
X58683394Y-114503514D01*
X58683393Y-114503511D01*
X58680710Y-114496412D01*
X58591531Y-114366657D01*
X58519281Y-114302284D01*
X58479648Y-114266972D01*
X58479645Y-114266970D01*
X58473976Y-114261919D01*
X58334831Y-114188245D01*
X58318122Y-114184048D01*
X58189498Y-114151740D01*
X58189496Y-114151740D01*
X58182128Y-114149889D01*
X58174530Y-114149849D01*
X58174528Y-114149849D01*
X58107319Y-114149497D01*
X58024684Y-114149065D01*
X58017305Y-114150837D01*
X58017301Y-114150837D01*
X57878967Y-114184048D01*
X57878963Y-114184049D01*
X57871588Y-114185820D01*
X57731679Y-114258032D01*
X57725957Y-114263024D01*
X57725955Y-114263025D01*
X57618759Y-114356538D01*
X57618756Y-114356541D01*
X57613034Y-114361533D01*
X57608667Y-114367747D01*
X57535734Y-114471520D01*
X57522501Y-114490348D01*
X57465309Y-114637039D01*
X57444758Y-114793138D01*
X57452159Y-114860173D01*
X57439753Y-114930077D01*
X57391523Y-114982178D01*
X57326920Y-115000000D01*
X49564705Y-115000000D01*
X49496584Y-114979998D01*
X49480891Y-114968080D01*
X49473976Y-114961919D01*
X49334831Y-114888245D01*
X49223071Y-114860173D01*
X49189498Y-114851740D01*
X49189496Y-114851740D01*
X49182128Y-114849889D01*
X49174530Y-114849849D01*
X49174528Y-114849849D01*
X49107319Y-114849497D01*
X49024684Y-114849065D01*
X49017305Y-114850837D01*
X49017301Y-114850837D01*
X48878967Y-114884048D01*
X48878963Y-114884049D01*
X48871588Y-114885820D01*
X48731679Y-114958032D01*
X48719164Y-114968949D01*
X48654685Y-114998657D01*
X48636336Y-115000000D01*
X38223157Y-115000000D01*
X38155036Y-114979998D01*
X38108543Y-114926342D01*
X38101893Y-114908217D01*
X38078686Y-114825931D01*
X38070632Y-114809598D01*
X37987719Y-114641469D01*
X37985165Y-114636290D01*
X37886017Y-114503514D01*
X37862104Y-114471491D01*
X37862103Y-114471490D01*
X37858651Y-114466867D01*
X37750244Y-114366657D01*
X37707622Y-114327257D01*
X37707620Y-114327255D01*
X37703381Y-114323337D01*
X37524554Y-114210505D01*
X37328160Y-114132152D01*
X37322503Y-114131027D01*
X37322497Y-114131025D01*
X37125234Y-114091788D01*
X37062324Y-114058881D01*
X37027192Y-113997186D01*
X37030992Y-113926291D01*
X37072517Y-113868705D01*
X37131734Y-113843513D01*
X37264015Y-113824333D01*
X37264019Y-113824332D01*
X37269730Y-113823504D01*
X37348987Y-113796600D01*
X37464483Y-113757395D01*
X37464488Y-113757393D01*
X37469955Y-113755537D01*
X37502382Y-113737377D01*
X37649395Y-113655046D01*
X37649399Y-113655043D01*
X37654442Y-113652219D01*
X37817012Y-113517012D01*
X37952219Y-113354442D01*
X37955043Y-113349399D01*
X37955046Y-113349395D01*
X37986551Y-113293138D01*
X49544758Y-113293138D01*
X49562035Y-113449633D01*
X49616143Y-113597490D01*
X49620380Y-113603796D01*
X49620382Y-113603799D01*
X49654819Y-113655046D01*
X49703958Y-113728172D01*
X49726270Y-113748474D01*
X49779160Y-113796600D01*
X49820410Y-113834135D01*
X49848171Y-113849208D01*
X49952099Y-113905637D01*
X49952101Y-113905638D01*
X49958776Y-113909262D01*
X49966125Y-113911190D01*
X50103719Y-113947287D01*
X50103721Y-113947287D01*
X50111069Y-113949215D01*
X50194380Y-113950524D01*
X50260898Y-113951569D01*
X50260901Y-113951569D01*
X50268495Y-113951688D01*
X50421968Y-113916538D01*
X50562625Y-113845795D01*
X50620225Y-113796600D01*
X50676574Y-113748474D01*
X50676576Y-113748471D01*
X50682348Y-113743542D01*
X50774224Y-113615683D01*
X50832950Y-113469598D01*
X50855134Y-113313723D01*
X50855278Y-113300000D01*
X50853405Y-113284518D01*
X50839541Y-113169955D01*
X50836363Y-113143694D01*
X50780710Y-112996412D01*
X50691531Y-112866657D01*
X50644971Y-112825174D01*
X50579648Y-112766972D01*
X50579645Y-112766970D01*
X50573976Y-112761919D01*
X50434831Y-112688245D01*
X50361215Y-112669754D01*
X50289498Y-112651740D01*
X50289496Y-112651740D01*
X50282128Y-112649889D01*
X50274530Y-112649849D01*
X50274528Y-112649849D01*
X50207319Y-112649497D01*
X50124684Y-112649065D01*
X50117305Y-112650837D01*
X50117301Y-112650837D01*
X49978967Y-112684048D01*
X49978963Y-112684049D01*
X49971588Y-112685820D01*
X49964843Y-112689301D01*
X49964844Y-112689301D01*
X49871698Y-112737377D01*
X49831679Y-112758032D01*
X49825957Y-112763024D01*
X49825955Y-112763025D01*
X49718759Y-112856538D01*
X49718756Y-112856541D01*
X49713034Y-112861533D01*
X49708667Y-112867747D01*
X49636992Y-112969730D01*
X49622501Y-112990348D01*
X49565309Y-113137039D01*
X49560745Y-113171709D01*
X49545893Y-113284518D01*
X49544758Y-113293138D01*
X37986551Y-113293138D01*
X38052713Y-113174998D01*
X38052714Y-113174996D01*
X38055537Y-113169955D01*
X38057393Y-113164488D01*
X38057395Y-113164483D01*
X38116570Y-112990157D01*
X38123504Y-112969730D01*
X38126138Y-112951569D01*
X38153314Y-112764140D01*
X38153314Y-112764138D01*
X38153846Y-112760470D01*
X38155429Y-112700000D01*
X38136081Y-112489440D01*
X38132475Y-112476652D01*
X38097231Y-112351688D01*
X38078686Y-112285931D01*
X38060577Y-112249208D01*
X37987719Y-112101469D01*
X37985165Y-112096290D01*
X37869100Y-111940860D01*
X37862104Y-111931491D01*
X37862103Y-111931490D01*
X37858651Y-111926867D01*
X37751883Y-111828172D01*
X37707622Y-111787257D01*
X37707620Y-111787255D01*
X37703381Y-111783337D01*
X37599523Y-111717807D01*
X37529434Y-111673584D01*
X37529433Y-111673584D01*
X37524554Y-111670505D01*
X37328160Y-111592152D01*
X37322503Y-111591027D01*
X37322497Y-111591025D01*
X37125234Y-111551788D01*
X37062324Y-111518881D01*
X37047665Y-111493138D01*
X41944758Y-111493138D01*
X41962035Y-111649633D01*
X42016143Y-111797490D01*
X42020380Y-111803796D01*
X42020382Y-111803799D01*
X42040194Y-111833282D01*
X42103958Y-111928172D01*
X42220410Y-112034135D01*
X42279424Y-112066177D01*
X42352099Y-112105637D01*
X42352101Y-112105638D01*
X42358776Y-112109262D01*
X42366125Y-112111190D01*
X42503719Y-112147287D01*
X42503721Y-112147287D01*
X42511069Y-112149215D01*
X42594380Y-112150524D01*
X42660898Y-112151569D01*
X42660901Y-112151569D01*
X42668495Y-112151688D01*
X42821968Y-112116538D01*
X42962625Y-112045795D01*
X43027769Y-111990157D01*
X43076574Y-111948474D01*
X43076576Y-111948471D01*
X43082348Y-111943542D01*
X43174224Y-111815683D01*
X43223487Y-111693138D01*
X46644758Y-111693138D01*
X46662035Y-111849633D01*
X46664645Y-111856765D01*
X46713460Y-111990157D01*
X46716143Y-111997490D01*
X46720380Y-112003796D01*
X46720382Y-112003799D01*
X46748603Y-112045795D01*
X46803958Y-112128172D01*
X46920410Y-112234135D01*
X46927085Y-112237759D01*
X47052099Y-112305637D01*
X47052101Y-112305638D01*
X47058776Y-112309262D01*
X47066125Y-112311190D01*
X47203719Y-112347287D01*
X47203721Y-112347287D01*
X47211069Y-112349215D01*
X47294380Y-112350524D01*
X47360898Y-112351569D01*
X47360901Y-112351569D01*
X47368495Y-112351688D01*
X47521968Y-112316538D01*
X47568494Y-112293138D01*
X55944758Y-112293138D01*
X55962035Y-112449633D01*
X56016143Y-112597490D01*
X56020380Y-112603796D01*
X56020382Y-112603799D01*
X56050800Y-112649065D01*
X56103958Y-112728172D01*
X56220410Y-112834135D01*
X56227085Y-112837759D01*
X56352099Y-112905637D01*
X56352101Y-112905638D01*
X56358776Y-112909262D01*
X56366125Y-112911190D01*
X56503719Y-112947287D01*
X56503721Y-112947287D01*
X56511069Y-112949215D01*
X56594380Y-112950524D01*
X56660898Y-112951569D01*
X56660901Y-112951569D01*
X56668495Y-112951688D01*
X56821968Y-112916538D01*
X56962625Y-112845795D01*
X57058231Y-112764140D01*
X57076574Y-112748474D01*
X57076576Y-112748471D01*
X57082348Y-112743542D01*
X57174224Y-112615683D01*
X57232950Y-112469598D01*
X57255134Y-112313723D01*
X57255278Y-112300000D01*
X57253576Y-112285931D01*
X57250176Y-112257836D01*
X57236363Y-112143694D01*
X57200956Y-112049992D01*
X57183394Y-112003514D01*
X57183393Y-112003511D01*
X57180710Y-111996412D01*
X57091531Y-111866657D01*
X57034319Y-111815683D01*
X56979648Y-111766972D01*
X56979645Y-111766970D01*
X56973976Y-111761919D01*
X56834831Y-111688245D01*
X56776463Y-111673584D01*
X56689498Y-111651740D01*
X56689496Y-111651740D01*
X56682128Y-111649889D01*
X56674530Y-111649849D01*
X56674528Y-111649849D01*
X56607319Y-111649497D01*
X56524684Y-111649065D01*
X56517305Y-111650837D01*
X56517301Y-111650837D01*
X56378967Y-111684048D01*
X56378963Y-111684049D01*
X56371588Y-111685820D01*
X56231679Y-111758032D01*
X56225957Y-111763024D01*
X56225955Y-111763025D01*
X56118759Y-111856538D01*
X56118756Y-111856541D01*
X56113034Y-111861533D01*
X56083696Y-111903277D01*
X56051931Y-111948474D01*
X56022501Y-111990348D01*
X55965309Y-112137039D01*
X55958508Y-112188700D01*
X55949406Y-112257836D01*
X55944758Y-112293138D01*
X47568494Y-112293138D01*
X47662625Y-112245795D01*
X47688869Y-112223381D01*
X47776574Y-112148474D01*
X47776576Y-112148471D01*
X47782348Y-112143542D01*
X47874224Y-112015683D01*
X47878263Y-112005637D01*
X47930114Y-111876652D01*
X47932950Y-111869598D01*
X47947556Y-111766972D01*
X47954553Y-111717807D01*
X47954553Y-111717804D01*
X47955134Y-111713723D01*
X47955278Y-111700000D01*
X47955436Y-111700002D01*
X47971319Y-111632365D01*
X48022340Y-111582995D01*
X48091953Y-111569046D01*
X48158056Y-111594947D01*
X48199225Y-111651259D01*
X48216143Y-111697490D01*
X48220380Y-111703796D01*
X48220382Y-111703799D01*
X48254485Y-111754549D01*
X48303958Y-111828172D01*
X48326270Y-111848474D01*
X48412423Y-111926867D01*
X48420410Y-111934135D01*
X48441885Y-111945795D01*
X48552099Y-112005637D01*
X48552101Y-112005638D01*
X48558776Y-112009262D01*
X48566125Y-112011190D01*
X48703719Y-112047287D01*
X48703721Y-112047287D01*
X48711069Y-112049215D01*
X48794380Y-112050524D01*
X48860898Y-112051569D01*
X48860901Y-112051569D01*
X48868495Y-112051688D01*
X49021968Y-112016538D01*
X49162625Y-111945795D01*
X49215249Y-111900850D01*
X49276574Y-111848474D01*
X49276576Y-111848471D01*
X49282348Y-111843542D01*
X49374224Y-111715683D01*
X49432950Y-111569598D01*
X49448044Y-111463540D01*
X49454553Y-111417807D01*
X49454553Y-111417804D01*
X49455134Y-111413723D01*
X49455278Y-111400000D01*
X49436363Y-111243694D01*
X49430820Y-111229025D01*
X49383394Y-111103514D01*
X49383393Y-111103511D01*
X49380710Y-111096412D01*
X49309731Y-110993138D01*
X50344758Y-110993138D01*
X50362035Y-111149633D01*
X50416143Y-111297490D01*
X50420380Y-111303796D01*
X50420382Y-111303799D01*
X50437964Y-111329963D01*
X50503958Y-111428172D01*
X50620410Y-111534135D01*
X50671863Y-111562072D01*
X50752099Y-111605637D01*
X50752101Y-111605638D01*
X50758776Y-111609262D01*
X50766125Y-111611190D01*
X50903719Y-111647287D01*
X50903721Y-111647287D01*
X50911069Y-111649215D01*
X50994380Y-111650524D01*
X51060898Y-111651569D01*
X51060901Y-111651569D01*
X51068495Y-111651688D01*
X51221968Y-111616538D01*
X51362625Y-111545795D01*
X51421054Y-111495892D01*
X51476574Y-111448474D01*
X51476576Y-111448471D01*
X51482348Y-111443542D01*
X51489721Y-111433282D01*
X51537565Y-111366701D01*
X51593559Y-111323053D01*
X51664263Y-111316607D01*
X51724687Y-111347034D01*
X51814789Y-111429021D01*
X51814793Y-111429024D01*
X51820410Y-111434135D01*
X51874567Y-111463540D01*
X51952099Y-111505637D01*
X51952101Y-111505638D01*
X51958776Y-111509262D01*
X51966125Y-111511190D01*
X52103719Y-111547287D01*
X52103721Y-111547287D01*
X52111069Y-111549215D01*
X52194380Y-111550524D01*
X52260898Y-111551569D01*
X52260901Y-111551569D01*
X52268495Y-111551688D01*
X52421968Y-111516538D01*
X52562625Y-111445795D01*
X52621054Y-111395892D01*
X52676574Y-111348474D01*
X52676576Y-111348471D01*
X52682348Y-111343542D01*
X52774224Y-111215683D01*
X52832950Y-111069598D01*
X52836846Y-111042222D01*
X52866246Y-110977599D01*
X52925917Y-110939130D01*
X52996914Y-110939028D01*
X53046389Y-110966782D01*
X53114789Y-111029021D01*
X53114793Y-111029024D01*
X53120410Y-111034135D01*
X53149425Y-111049889D01*
X53252099Y-111105637D01*
X53252101Y-111105638D01*
X53258776Y-111109262D01*
X53266125Y-111111190D01*
X53403719Y-111147287D01*
X53403721Y-111147287D01*
X53411069Y-111149215D01*
X53494380Y-111150524D01*
X53560898Y-111151569D01*
X53560901Y-111151569D01*
X53568495Y-111151688D01*
X53721968Y-111116538D01*
X53827648Y-111063386D01*
X53897490Y-111050648D01*
X53963134Y-111077693D01*
X53988839Y-111105673D01*
X54003958Y-111128172D01*
X54120410Y-111234135D01*
X54161671Y-111256538D01*
X54252099Y-111305637D01*
X54252101Y-111305638D01*
X54258776Y-111309262D01*
X54266125Y-111311190D01*
X54403719Y-111347287D01*
X54403721Y-111347287D01*
X54411069Y-111349215D01*
X54494380Y-111350524D01*
X54560898Y-111351569D01*
X54560901Y-111351569D01*
X54568495Y-111351688D01*
X54721968Y-111316538D01*
X54862625Y-111245795D01*
X54927769Y-111190157D01*
X54976574Y-111148474D01*
X54976576Y-111148471D01*
X54982348Y-111143542D01*
X55074224Y-111015683D01*
X55132950Y-110869598D01*
X55145673Y-110780203D01*
X55154553Y-110717807D01*
X55154553Y-110717804D01*
X55155134Y-110713723D01*
X55155278Y-110700000D01*
X55136363Y-110543694D01*
X55105317Y-110461533D01*
X55083394Y-110403514D01*
X55083393Y-110403511D01*
X55080710Y-110396412D01*
X54991531Y-110266657D01*
X54905884Y-110190348D01*
X54879648Y-110166972D01*
X54879645Y-110166970D01*
X54873976Y-110161919D01*
X54854429Y-110151569D01*
X54774525Y-110109262D01*
X54734831Y-110088245D01*
X54718122Y-110084048D01*
X54589498Y-110051740D01*
X54589496Y-110051740D01*
X54582128Y-110049889D01*
X54574530Y-110049849D01*
X54574528Y-110049849D01*
X54507319Y-110049497D01*
X54424684Y-110049065D01*
X54417305Y-110050837D01*
X54417301Y-110050837D01*
X54278967Y-110084048D01*
X54278963Y-110084049D01*
X54271588Y-110085820D01*
X54264843Y-110089301D01*
X54264844Y-110089301D01*
X54173296Y-110136552D01*
X54103588Y-110150021D01*
X54037665Y-110123666D01*
X54011666Y-110095953D01*
X53995836Y-110072920D01*
X53995834Y-110072917D01*
X53991531Y-110066657D01*
X53921357Y-110004134D01*
X53879648Y-109966972D01*
X53879645Y-109966970D01*
X53873976Y-109961919D01*
X53861281Y-109955197D01*
X53810239Y-109928172D01*
X53734831Y-109888245D01*
X53718122Y-109884048D01*
X53589498Y-109851740D01*
X53589496Y-109851740D01*
X53582128Y-109849889D01*
X53574530Y-109849849D01*
X53574528Y-109849849D01*
X53507319Y-109849497D01*
X53424684Y-109849065D01*
X53417305Y-109850837D01*
X53417301Y-109850837D01*
X53278967Y-109884048D01*
X53278963Y-109884049D01*
X53271588Y-109885820D01*
X53264843Y-109889301D01*
X53264844Y-109889301D01*
X53171698Y-109937377D01*
X53131679Y-109958032D01*
X53125957Y-109963024D01*
X53125955Y-109963025D01*
X53018759Y-110056538D01*
X53018756Y-110056541D01*
X53013034Y-110061533D01*
X52993518Y-110089301D01*
X52932127Y-110176652D01*
X52922501Y-110190348D01*
X52865309Y-110337039D01*
X52863374Y-110351740D01*
X52862854Y-110355687D01*
X52834132Y-110420615D01*
X52774868Y-110459707D01*
X52703876Y-110460552D01*
X52654113Y-110433319D01*
X52573976Y-110361919D01*
X52551256Y-110349889D01*
X52486652Y-110315683D01*
X52434831Y-110288245D01*
X52418122Y-110284048D01*
X52289498Y-110251740D01*
X52289496Y-110251740D01*
X52282128Y-110249889D01*
X52274530Y-110249849D01*
X52274528Y-110249849D01*
X52207319Y-110249497D01*
X52124684Y-110249065D01*
X52117305Y-110250837D01*
X52117301Y-110250837D01*
X51978967Y-110284048D01*
X51978963Y-110284049D01*
X51971588Y-110285820D01*
X51960004Y-110291799D01*
X51843870Y-110351740D01*
X51831679Y-110358032D01*
X51825957Y-110363024D01*
X51825955Y-110363025D01*
X51718759Y-110456538D01*
X51718756Y-110456541D01*
X51713034Y-110461533D01*
X51708667Y-110467747D01*
X51663625Y-110531835D01*
X51608090Y-110576066D01*
X51537458Y-110583252D01*
X51476719Y-110553460D01*
X51379648Y-110466972D01*
X51379645Y-110466970D01*
X51373976Y-110461919D01*
X51234831Y-110388245D01*
X51150127Y-110366969D01*
X51089498Y-110351740D01*
X51089496Y-110351740D01*
X51082128Y-110349889D01*
X51074530Y-110349849D01*
X51074528Y-110349849D01*
X51007319Y-110349497D01*
X50924684Y-110349065D01*
X50917305Y-110350837D01*
X50917301Y-110350837D01*
X50778967Y-110384048D01*
X50778963Y-110384049D01*
X50771588Y-110385820D01*
X50704174Y-110420615D01*
X50671698Y-110437377D01*
X50631679Y-110458032D01*
X50625957Y-110463024D01*
X50625955Y-110463025D01*
X50518759Y-110556538D01*
X50518756Y-110556541D01*
X50513034Y-110561533D01*
X50422501Y-110690348D01*
X50365309Y-110837039D01*
X50360094Y-110876652D01*
X50346804Y-110977599D01*
X50344758Y-110993138D01*
X49309731Y-110993138D01*
X49291531Y-110966657D01*
X49236731Y-110917832D01*
X49179648Y-110866972D01*
X49179645Y-110866970D01*
X49173976Y-110861919D01*
X49151256Y-110849889D01*
X49084308Y-110814442D01*
X49034831Y-110788245D01*
X49002814Y-110780203D01*
X48889498Y-110751740D01*
X48889496Y-110751740D01*
X48882128Y-110749889D01*
X48874530Y-110749849D01*
X48874528Y-110749849D01*
X48807319Y-110749497D01*
X48724684Y-110749065D01*
X48717305Y-110750837D01*
X48717301Y-110750837D01*
X48578967Y-110784048D01*
X48578963Y-110784049D01*
X48571588Y-110785820D01*
X48564843Y-110789301D01*
X48564844Y-110789301D01*
X48441578Y-110852923D01*
X48431679Y-110858032D01*
X48425957Y-110863024D01*
X48425955Y-110863025D01*
X48318759Y-110956538D01*
X48318756Y-110956541D01*
X48313034Y-110961533D01*
X48290822Y-110993138D01*
X48226929Y-111084048D01*
X48222501Y-111090348D01*
X48165309Y-111237039D01*
X48164318Y-111244568D01*
X48145944Y-111384131D01*
X48144758Y-111393138D01*
X48145591Y-111400687D01*
X48145512Y-111408283D01*
X48142217Y-111408249D01*
X48132391Y-111463540D01*
X48084149Y-111515629D01*
X48015405Y-111533367D01*
X47947983Y-111511123D01*
X47901705Y-111451974D01*
X47900660Y-111449208D01*
X47880710Y-111396412D01*
X47791531Y-111266657D01*
X47720661Y-111203514D01*
X47679648Y-111166972D01*
X47679645Y-111166970D01*
X47673976Y-111161919D01*
X47654429Y-111151569D01*
X47585449Y-111115046D01*
X47534831Y-111088245D01*
X47525177Y-111085820D01*
X47389498Y-111051740D01*
X47389496Y-111051740D01*
X47382128Y-111049889D01*
X47374530Y-111049849D01*
X47374528Y-111049849D01*
X47307319Y-111049497D01*
X47224684Y-111049065D01*
X47217305Y-111050837D01*
X47217301Y-111050837D01*
X47078967Y-111084048D01*
X47078963Y-111084049D01*
X47071588Y-111085820D01*
X47026170Y-111109262D01*
X46971698Y-111137377D01*
X46931679Y-111158032D01*
X46925957Y-111163024D01*
X46925955Y-111163025D01*
X46818759Y-111256538D01*
X46818756Y-111256541D01*
X46813034Y-111261533D01*
X46782037Y-111305637D01*
X46751931Y-111348474D01*
X46722501Y-111390348D01*
X46665309Y-111537039D01*
X46660094Y-111576652D01*
X46645955Y-111684048D01*
X46644758Y-111693138D01*
X43223487Y-111693138D01*
X43232950Y-111669598D01*
X43243574Y-111594947D01*
X43254553Y-111517807D01*
X43254553Y-111517804D01*
X43255134Y-111513723D01*
X43255278Y-111500000D01*
X43236363Y-111343694D01*
X43216208Y-111290354D01*
X43183394Y-111203514D01*
X43183393Y-111203511D01*
X43180710Y-111196412D01*
X43091531Y-111066657D01*
X43026410Y-111008636D01*
X42979648Y-110966972D01*
X42979645Y-110966970D01*
X42973976Y-110961919D01*
X42955802Y-110952296D01*
X42841543Y-110891799D01*
X42841544Y-110891799D01*
X42834831Y-110888245D01*
X42750139Y-110866972D01*
X42689498Y-110851740D01*
X42689496Y-110851740D01*
X42682128Y-110849889D01*
X42674530Y-110849849D01*
X42674528Y-110849849D01*
X42607319Y-110849497D01*
X42524684Y-110849065D01*
X42517305Y-110850837D01*
X42517301Y-110850837D01*
X42378967Y-110884048D01*
X42378963Y-110884049D01*
X42371588Y-110885820D01*
X42323982Y-110910391D01*
X42252422Y-110947326D01*
X42231679Y-110958032D01*
X42225957Y-110963024D01*
X42225955Y-110963025D01*
X42118759Y-111056538D01*
X42118756Y-111056541D01*
X42113034Y-111061533D01*
X42091763Y-111091799D01*
X42031396Y-111177692D01*
X42022501Y-111190348D01*
X41965309Y-111337039D01*
X41961404Y-111366701D01*
X41948655Y-111463540D01*
X41944758Y-111493138D01*
X37047665Y-111493138D01*
X37027192Y-111457186D01*
X37030992Y-111386291D01*
X37072517Y-111328705D01*
X37131734Y-111303513D01*
X37264015Y-111284333D01*
X37264019Y-111284332D01*
X37269730Y-111283504D01*
X37326676Y-111264173D01*
X37464483Y-111217395D01*
X37464488Y-111217393D01*
X37469955Y-111215537D01*
X37492879Y-111202699D01*
X37649395Y-111115046D01*
X37649399Y-111115043D01*
X37654442Y-111112219D01*
X37817012Y-110977012D01*
X37952219Y-110814442D01*
X37955043Y-110809399D01*
X37955046Y-110809395D01*
X38052713Y-110634998D01*
X38052714Y-110634996D01*
X38055537Y-110629955D01*
X38057393Y-110624488D01*
X38057395Y-110624483D01*
X38121647Y-110435200D01*
X38123504Y-110429730D01*
X38124645Y-110421866D01*
X38153314Y-110224140D01*
X38153314Y-110224138D01*
X38153846Y-110220470D01*
X38155429Y-110160000D01*
X38140096Y-109993138D01*
X47044758Y-109993138D01*
X47062035Y-110149633D01*
X47116143Y-110297490D01*
X47120380Y-110303796D01*
X47120382Y-110303799D01*
X47137964Y-110329963D01*
X47203958Y-110428172D01*
X47320410Y-110534135D01*
X47356002Y-110553460D01*
X47452099Y-110605637D01*
X47452101Y-110605638D01*
X47458776Y-110609262D01*
X47466125Y-110611190D01*
X47603719Y-110647287D01*
X47603721Y-110647287D01*
X47611069Y-110649215D01*
X47694380Y-110650524D01*
X47760898Y-110651569D01*
X47760901Y-110651569D01*
X47768495Y-110651688D01*
X47921968Y-110616538D01*
X48062625Y-110545795D01*
X48088869Y-110523381D01*
X48176574Y-110448474D01*
X48176576Y-110448471D01*
X48182348Y-110443542D01*
X48274224Y-110315683D01*
X48332950Y-110169598D01*
X48347445Y-110067747D01*
X48354553Y-110017807D01*
X48354553Y-110017804D01*
X48355134Y-110013723D01*
X48355278Y-110000000D01*
X48336363Y-109843694D01*
X48331175Y-109829963D01*
X48283394Y-109703514D01*
X48283393Y-109703511D01*
X48280710Y-109696412D01*
X48191531Y-109566657D01*
X48120981Y-109503799D01*
X48109016Y-109493138D01*
X49444758Y-109493138D01*
X49462035Y-109649633D01*
X49516143Y-109797490D01*
X49520380Y-109803796D01*
X49520382Y-109803799D01*
X49537964Y-109829963D01*
X49603958Y-109928172D01*
X49720410Y-110034135D01*
X49749425Y-110049889D01*
X49852099Y-110105637D01*
X49852101Y-110105638D01*
X49858776Y-110109262D01*
X49866125Y-110111190D01*
X50003719Y-110147287D01*
X50003721Y-110147287D01*
X50011069Y-110149215D01*
X50094380Y-110150524D01*
X50160898Y-110151569D01*
X50160901Y-110151569D01*
X50168495Y-110151688D01*
X50321968Y-110116538D01*
X50462625Y-110045795D01*
X50521054Y-109995892D01*
X50576574Y-109948474D01*
X50576576Y-109948471D01*
X50582348Y-109943542D01*
X50674224Y-109815683D01*
X50678263Y-109805637D01*
X50719316Y-109703514D01*
X50732950Y-109669598D01*
X50745899Y-109578611D01*
X50754553Y-109517807D01*
X50754553Y-109517804D01*
X50755134Y-109513723D01*
X50755278Y-109500000D01*
X50736363Y-109343694D01*
X50731175Y-109329963D01*
X50683394Y-109203514D01*
X50683393Y-109203511D01*
X50680710Y-109196412D01*
X50591531Y-109066657D01*
X50567020Y-109044818D01*
X50534807Y-108993138D01*
X51044758Y-108993138D01*
X51062035Y-109149633D01*
X51116143Y-109297490D01*
X51120380Y-109303796D01*
X51120382Y-109303799D01*
X51137964Y-109329963D01*
X51203958Y-109428172D01*
X51320410Y-109534135D01*
X51370753Y-109561469D01*
X51452099Y-109605637D01*
X51452101Y-109605638D01*
X51458776Y-109609262D01*
X51466125Y-109611190D01*
X51603719Y-109647287D01*
X51603721Y-109647287D01*
X51611069Y-109649215D01*
X51694380Y-109650524D01*
X51760898Y-109651569D01*
X51760901Y-109651569D01*
X51768495Y-109651688D01*
X51921968Y-109616538D01*
X52062625Y-109545795D01*
X52121054Y-109495892D01*
X52176574Y-109448474D01*
X52176576Y-109448471D01*
X52182348Y-109443542D01*
X52274224Y-109315683D01*
X52323487Y-109193138D01*
X54744758Y-109193138D01*
X54762035Y-109349633D01*
X54816143Y-109497490D01*
X54820380Y-109503796D01*
X54820382Y-109503799D01*
X54848603Y-109545795D01*
X54903958Y-109628172D01*
X54924965Y-109647287D01*
X55002498Y-109717836D01*
X55020410Y-109734135D01*
X55048171Y-109749208D01*
X55152099Y-109805637D01*
X55152101Y-109805638D01*
X55158776Y-109809262D01*
X55166125Y-109811190D01*
X55303719Y-109847287D01*
X55303721Y-109847287D01*
X55311069Y-109849215D01*
X55394380Y-109850524D01*
X55460898Y-109851569D01*
X55460901Y-109851569D01*
X55468495Y-109851688D01*
X55621968Y-109816538D01*
X55762625Y-109745795D01*
X55827769Y-109690157D01*
X55876574Y-109648474D01*
X55876576Y-109648471D01*
X55882348Y-109643542D01*
X55974224Y-109515683D01*
X55982084Y-109496132D01*
X56026008Y-109386867D01*
X56032950Y-109369598D01*
X56046790Y-109272351D01*
X56054553Y-109217807D01*
X56054553Y-109217804D01*
X56055134Y-109213723D01*
X56055278Y-109200000D01*
X56036363Y-109043694D01*
X56021415Y-109004134D01*
X55983394Y-108903514D01*
X55983393Y-108903511D01*
X55980710Y-108896412D01*
X55891531Y-108766657D01*
X55837905Y-108718878D01*
X55779648Y-108666972D01*
X55779645Y-108666970D01*
X55773976Y-108661919D01*
X55754429Y-108651569D01*
X55674525Y-108609262D01*
X55634831Y-108588245D01*
X55588677Y-108576652D01*
X55489498Y-108551740D01*
X55489496Y-108551740D01*
X55482128Y-108549889D01*
X55474530Y-108549849D01*
X55474528Y-108549849D01*
X55407319Y-108549497D01*
X55324684Y-108549065D01*
X55317305Y-108550837D01*
X55317301Y-108550837D01*
X55178967Y-108584048D01*
X55178963Y-108584049D01*
X55171588Y-108585820D01*
X55031679Y-108658032D01*
X55025957Y-108663024D01*
X55025955Y-108663025D01*
X54918759Y-108756538D01*
X54918756Y-108756541D01*
X54913034Y-108761533D01*
X54822501Y-108890348D01*
X54765309Y-109037039D01*
X54763038Y-109054292D01*
X54745944Y-109184131D01*
X54744758Y-109193138D01*
X52323487Y-109193138D01*
X52332950Y-109169598D01*
X52347445Y-109067747D01*
X52354553Y-109017807D01*
X52354553Y-109017804D01*
X52355134Y-109013723D01*
X52355278Y-109000000D01*
X52336363Y-108843694D01*
X52328115Y-108821866D01*
X52283394Y-108703514D01*
X52283393Y-108703511D01*
X52280710Y-108696412D01*
X52191531Y-108566657D01*
X52144971Y-108525174D01*
X52079648Y-108466972D01*
X52079645Y-108466970D01*
X52073976Y-108461919D01*
X51934831Y-108388245D01*
X51879783Y-108374418D01*
X51789498Y-108351740D01*
X51789496Y-108351740D01*
X51782128Y-108349889D01*
X51774530Y-108349849D01*
X51774528Y-108349849D01*
X51707319Y-108349497D01*
X51624684Y-108349065D01*
X51617305Y-108350837D01*
X51617301Y-108350837D01*
X51478967Y-108384048D01*
X51478963Y-108384049D01*
X51471588Y-108385820D01*
X51417527Y-108413723D01*
X51365254Y-108440703D01*
X51331679Y-108458032D01*
X51325957Y-108463024D01*
X51325955Y-108463025D01*
X51218759Y-108556538D01*
X51218756Y-108556541D01*
X51213034Y-108561533D01*
X51193518Y-108589301D01*
X51131605Y-108677395D01*
X51122501Y-108690348D01*
X51065309Y-108837039D01*
X51064318Y-108844568D01*
X51049380Y-108958032D01*
X51044758Y-108993138D01*
X50534807Y-108993138D01*
X50529466Y-108984569D01*
X50530447Y-108913580D01*
X50569009Y-108854935D01*
X50582348Y-108843542D01*
X50674224Y-108715683D01*
X50732950Y-108569598D01*
X50747556Y-108466972D01*
X50754553Y-108417807D01*
X50754553Y-108417804D01*
X50755134Y-108413723D01*
X50755278Y-108400000D01*
X50751800Y-108371262D01*
X50763472Y-108301233D01*
X50811153Y-108248630D01*
X50848756Y-108233306D01*
X50885382Y-108224917D01*
X50914564Y-108218234D01*
X50914566Y-108218233D01*
X50921968Y-108216538D01*
X51062625Y-108145795D01*
X51127545Y-108090348D01*
X51176574Y-108048474D01*
X51176576Y-108048471D01*
X51182348Y-108043542D01*
X51274224Y-107915683D01*
X51286955Y-107884015D01*
X51330114Y-107776652D01*
X51332950Y-107769598D01*
X51346162Y-107676763D01*
X51354553Y-107617807D01*
X51354553Y-107617804D01*
X51355134Y-107613723D01*
X51355278Y-107600000D01*
X51336363Y-107443694D01*
X51313825Y-107384048D01*
X51283394Y-107303514D01*
X51283393Y-107303511D01*
X51280710Y-107296412D01*
X51191531Y-107166657D01*
X51131448Y-107113125D01*
X51079648Y-107066972D01*
X51079645Y-107066970D01*
X51073976Y-107061919D01*
X50934831Y-106988245D01*
X50806983Y-106956132D01*
X50789498Y-106951740D01*
X50789496Y-106951740D01*
X50782128Y-106949889D01*
X50774530Y-106949849D01*
X50774528Y-106949849D01*
X50707319Y-106949497D01*
X50624684Y-106949065D01*
X50617305Y-106950837D01*
X50617301Y-106950837D01*
X50478967Y-106984048D01*
X50478963Y-106984049D01*
X50471588Y-106985820D01*
X50412553Y-107016290D01*
X50371698Y-107037377D01*
X50331679Y-107058032D01*
X50325957Y-107063024D01*
X50325955Y-107063025D01*
X50218759Y-107156538D01*
X50218756Y-107156541D01*
X50213034Y-107161533D01*
X50122501Y-107290348D01*
X50065309Y-107437039D01*
X50061888Y-107463025D01*
X50048101Y-107567747D01*
X50044758Y-107593138D01*
X50047724Y-107620000D01*
X50048820Y-107629930D01*
X50036414Y-107699834D01*
X49988185Y-107751935D01*
X49952995Y-107766276D01*
X49878967Y-107784048D01*
X49878963Y-107784049D01*
X49871588Y-107785820D01*
X49788037Y-107828944D01*
X49759459Y-107843694D01*
X49731679Y-107858032D01*
X49725957Y-107863024D01*
X49725955Y-107863025D01*
X49618759Y-107956538D01*
X49618756Y-107956541D01*
X49613034Y-107961533D01*
X49590822Y-107993138D01*
X49551931Y-108048474D01*
X49522501Y-108090348D01*
X49465309Y-108237039D01*
X49463052Y-108254180D01*
X49445955Y-108384048D01*
X49444758Y-108393138D01*
X49462035Y-108549633D01*
X49464645Y-108556765D01*
X49513460Y-108690157D01*
X49516143Y-108697490D01*
X49520380Y-108703796D01*
X49520382Y-108703799D01*
X49545815Y-108741647D01*
X49603958Y-108828172D01*
X49609573Y-108833281D01*
X49609578Y-108833287D01*
X49634736Y-108856179D01*
X49671658Y-108916819D01*
X49669935Y-108987795D01*
X49632765Y-109044321D01*
X49613034Y-109061533D01*
X49608667Y-109067747D01*
X49532127Y-109176652D01*
X49522501Y-109190348D01*
X49465309Y-109337039D01*
X49460094Y-109376652D01*
X49448203Y-109466972D01*
X49444758Y-109493138D01*
X48109016Y-109493138D01*
X48079648Y-109466972D01*
X48079645Y-109466970D01*
X48073976Y-109461919D01*
X47934831Y-109388245D01*
X47860594Y-109369598D01*
X47789498Y-109351740D01*
X47789496Y-109351740D01*
X47782128Y-109349889D01*
X47774530Y-109349849D01*
X47774528Y-109349849D01*
X47707319Y-109349497D01*
X47624684Y-109349065D01*
X47617305Y-109350837D01*
X47617301Y-109350837D01*
X47478967Y-109384048D01*
X47478963Y-109384049D01*
X47471588Y-109385820D01*
X47460004Y-109391799D01*
X47371698Y-109437377D01*
X47331679Y-109458032D01*
X47325957Y-109463024D01*
X47325955Y-109463025D01*
X47218759Y-109556538D01*
X47218756Y-109556541D01*
X47213034Y-109561533D01*
X47195950Y-109585841D01*
X47127197Y-109683667D01*
X47122501Y-109690348D01*
X47065309Y-109837039D01*
X47063374Y-109851740D01*
X47048203Y-109966972D01*
X47044758Y-109993138D01*
X38140096Y-109993138D01*
X38136081Y-109949440D01*
X38128305Y-109921866D01*
X38107784Y-109849105D01*
X38078686Y-109745931D01*
X38057769Y-109703514D01*
X37987719Y-109561469D01*
X37985165Y-109556290D01*
X37911792Y-109458032D01*
X37862104Y-109391491D01*
X37862103Y-109391490D01*
X37858651Y-109386867D01*
X37754244Y-109290354D01*
X37707622Y-109247257D01*
X37707620Y-109247255D01*
X37703381Y-109243337D01*
X37586512Y-109169598D01*
X37529434Y-109133584D01*
X37529433Y-109133584D01*
X37524554Y-109130505D01*
X37328160Y-109052152D01*
X37322503Y-109051027D01*
X37322497Y-109051025D01*
X37125234Y-109011788D01*
X37062324Y-108978881D01*
X37027192Y-108917186D01*
X37030992Y-108846291D01*
X37072517Y-108788705D01*
X37131734Y-108763513D01*
X37264015Y-108744333D01*
X37264019Y-108744332D01*
X37269730Y-108743504D01*
X37348987Y-108716600D01*
X37464483Y-108677395D01*
X37464488Y-108677393D01*
X37469955Y-108675537D01*
X37500620Y-108658364D01*
X37649395Y-108575046D01*
X37649399Y-108575043D01*
X37654442Y-108572219D01*
X37817012Y-108437012D01*
X37952219Y-108274442D01*
X37955043Y-108269399D01*
X37955046Y-108269395D01*
X38052713Y-108094998D01*
X38052714Y-108094996D01*
X38055537Y-108089955D01*
X38057393Y-108084488D01*
X38057395Y-108084483D01*
X38088402Y-107993138D01*
X43744758Y-107993138D01*
X43762035Y-108149633D01*
X43816143Y-108297490D01*
X43820380Y-108303796D01*
X43820382Y-108303799D01*
X43850800Y-108349065D01*
X43903958Y-108428172D01*
X43926270Y-108448474D01*
X44002609Y-108517937D01*
X44020410Y-108534135D01*
X44049425Y-108549889D01*
X44152099Y-108605637D01*
X44152101Y-108605638D01*
X44158776Y-108609262D01*
X44166125Y-108611190D01*
X44303719Y-108647287D01*
X44303721Y-108647287D01*
X44311069Y-108649215D01*
X44394380Y-108650524D01*
X44460898Y-108651569D01*
X44460901Y-108651569D01*
X44468495Y-108651688D01*
X44621968Y-108616538D01*
X44762625Y-108545795D01*
X44799958Y-108513910D01*
X44876574Y-108448474D01*
X44876576Y-108448471D01*
X44882348Y-108443542D01*
X44974224Y-108315683D01*
X45032950Y-108169598D01*
X45044285Y-108089955D01*
X45054553Y-108017807D01*
X45054553Y-108017804D01*
X45055134Y-108013723D01*
X45055278Y-108000000D01*
X45036363Y-107843694D01*
X45005521Y-107762072D01*
X44983394Y-107703514D01*
X44983393Y-107703511D01*
X44980710Y-107696412D01*
X44891531Y-107566657D01*
X44844971Y-107525174D01*
X44779648Y-107466972D01*
X44779645Y-107466970D01*
X44773976Y-107461919D01*
X44634831Y-107388245D01*
X44618122Y-107384048D01*
X44489498Y-107351740D01*
X44489496Y-107351740D01*
X44482128Y-107349889D01*
X44474530Y-107349849D01*
X44474528Y-107349849D01*
X44407319Y-107349497D01*
X44324684Y-107349065D01*
X44317305Y-107350837D01*
X44317301Y-107350837D01*
X44178967Y-107384048D01*
X44178963Y-107384049D01*
X44171588Y-107385820D01*
X44164843Y-107389301D01*
X44164844Y-107389301D01*
X44059459Y-107443694D01*
X44031679Y-107458032D01*
X44025957Y-107463024D01*
X44025955Y-107463025D01*
X43918759Y-107556538D01*
X43918756Y-107556541D01*
X43913034Y-107561533D01*
X43893200Y-107589754D01*
X43832049Y-107676763D01*
X43822501Y-107690348D01*
X43765309Y-107837039D01*
X43764318Y-107844568D01*
X43748101Y-107967747D01*
X43744758Y-107993138D01*
X38088402Y-107993138D01*
X38121647Y-107895200D01*
X38123504Y-107889730D01*
X38130053Y-107844568D01*
X38153314Y-107684140D01*
X38153315Y-107684131D01*
X38153846Y-107680470D01*
X38155429Y-107620000D01*
X38136081Y-107409440D01*
X38130104Y-107388245D01*
X38100740Y-107284131D01*
X38078686Y-107205931D01*
X38062406Y-107172917D01*
X37987719Y-107021469D01*
X37985165Y-107016290D01*
X37858651Y-106846867D01*
X37750926Y-106747287D01*
X37707622Y-106707257D01*
X37707620Y-106707255D01*
X37703381Y-106703337D01*
X37606301Y-106642084D01*
X37529434Y-106593584D01*
X37529433Y-106593584D01*
X37524554Y-106590505D01*
X37328160Y-106512152D01*
X37322503Y-106511027D01*
X37322497Y-106511025D01*
X37232570Y-106493138D01*
X42944758Y-106493138D01*
X42962035Y-106649633D01*
X43016143Y-106797490D01*
X43020380Y-106803796D01*
X43020382Y-106803799D01*
X43049323Y-106846867D01*
X43103958Y-106928172D01*
X43126270Y-106948474D01*
X43206927Y-107021866D01*
X43220410Y-107034135D01*
X43280369Y-107066690D01*
X43352099Y-107105637D01*
X43352101Y-107105638D01*
X43358776Y-107109262D01*
X43366125Y-107111190D01*
X43503719Y-107147287D01*
X43503721Y-107147287D01*
X43511069Y-107149215D01*
X43594380Y-107150524D01*
X43660898Y-107151569D01*
X43660901Y-107151569D01*
X43668495Y-107151688D01*
X43821968Y-107116538D01*
X43962625Y-107045795D01*
X44025473Y-106992118D01*
X44076574Y-106948474D01*
X44076576Y-106948471D01*
X44082348Y-106943542D01*
X44174224Y-106815683D01*
X44232950Y-106669598D01*
X44243832Y-106593138D01*
X44254553Y-106517807D01*
X44254553Y-106517804D01*
X44255134Y-106513723D01*
X44255278Y-106500000D01*
X44236363Y-106343694D01*
X44221180Y-106303514D01*
X44183394Y-106203514D01*
X44183393Y-106203511D01*
X44180710Y-106196412D01*
X44109731Y-106093138D01*
X51544758Y-106093138D01*
X51562035Y-106249633D01*
X51616143Y-106397490D01*
X51620380Y-106403796D01*
X51620382Y-106403799D01*
X51637964Y-106429963D01*
X51703958Y-106528172D01*
X51820410Y-106634135D01*
X51841885Y-106645795D01*
X51952099Y-106705637D01*
X51952101Y-106705638D01*
X51958776Y-106709262D01*
X51966125Y-106711190D01*
X52103719Y-106747287D01*
X52103721Y-106747287D01*
X52111069Y-106749215D01*
X52194380Y-106750524D01*
X52260898Y-106751569D01*
X52260901Y-106751569D01*
X52268495Y-106751688D01*
X52421968Y-106716538D01*
X52562625Y-106645795D01*
X52621054Y-106595892D01*
X52676574Y-106548474D01*
X52676576Y-106548471D01*
X52682348Y-106543542D01*
X52774224Y-106415683D01*
X52832950Y-106269598D01*
X52845283Y-106182938D01*
X52854553Y-106117807D01*
X52854553Y-106117804D01*
X52855134Y-106113723D01*
X52855278Y-106100000D01*
X52836363Y-105943694D01*
X52810851Y-105876178D01*
X52805483Y-105805384D01*
X52839241Y-105742927D01*
X52901407Y-105708635D01*
X52960689Y-105709764D01*
X52986511Y-105716538D01*
X53103719Y-105747287D01*
X53103721Y-105747287D01*
X53111069Y-105749215D01*
X53194380Y-105750524D01*
X53260898Y-105751569D01*
X53260901Y-105751569D01*
X53268495Y-105751688D01*
X53421968Y-105716538D01*
X53562625Y-105645795D01*
X53609644Y-105605637D01*
X53676574Y-105548474D01*
X53676576Y-105548471D01*
X53682348Y-105543542D01*
X53686778Y-105537377D01*
X53686781Y-105537374D01*
X53696413Y-105523969D01*
X53752407Y-105480321D01*
X53823110Y-105473874D01*
X53886075Y-105506676D01*
X53894321Y-105516500D01*
X53894761Y-105516120D01*
X53899721Y-105521866D01*
X53903958Y-105528172D01*
X54020410Y-105634135D01*
X54061671Y-105656538D01*
X54152099Y-105705637D01*
X54152101Y-105705638D01*
X54158776Y-105709262D01*
X54166125Y-105711190D01*
X54303719Y-105747287D01*
X54303721Y-105747287D01*
X54311069Y-105749215D01*
X54318669Y-105749334D01*
X54326187Y-105750364D01*
X54325800Y-105753191D01*
X54380905Y-105770315D01*
X54426550Y-105824693D01*
X54435551Y-105895117D01*
X54405049Y-105959227D01*
X54368920Y-105987197D01*
X54231679Y-106058032D01*
X54225957Y-106063024D01*
X54225955Y-106063025D01*
X54118759Y-106156538D01*
X54118756Y-106156541D01*
X54113034Y-106161533D01*
X54088521Y-106196412D01*
X54032127Y-106276652D01*
X54022501Y-106290348D01*
X53965309Y-106437039D01*
X53964318Y-106444568D01*
X53946866Y-106577127D01*
X53944758Y-106593138D01*
X53962035Y-106749633D01*
X54016143Y-106897490D01*
X54020380Y-106903796D01*
X54020382Y-106903799D01*
X54040194Y-106933282D01*
X54103958Y-107028172D01*
X54220410Y-107134135D01*
X54261671Y-107156538D01*
X54352099Y-107205637D01*
X54352101Y-107205638D01*
X54358776Y-107209262D01*
X54366125Y-107211190D01*
X54503719Y-107247287D01*
X54503721Y-107247287D01*
X54511069Y-107249215D01*
X54594380Y-107250524D01*
X54660898Y-107251569D01*
X54660901Y-107251569D01*
X54668495Y-107251688D01*
X54821968Y-107216538D01*
X54962625Y-107145795D01*
X55054915Y-107066972D01*
X55076574Y-107048474D01*
X55076576Y-107048471D01*
X55082348Y-107043542D01*
X55174224Y-106915683D01*
X55232950Y-106769598D01*
X55244956Y-106685238D01*
X55254553Y-106617807D01*
X55254553Y-106617804D01*
X55255134Y-106613723D01*
X55255278Y-106600000D01*
X55236363Y-106443694D01*
X55231175Y-106429963D01*
X55183394Y-106303514D01*
X55183393Y-106303511D01*
X55180710Y-106296412D01*
X55091531Y-106166657D01*
X55032119Y-106113723D01*
X54979648Y-106066972D01*
X54979645Y-106066970D01*
X54973976Y-106061919D01*
X54834831Y-105988245D01*
X54825177Y-105985820D01*
X54689498Y-105951740D01*
X54689496Y-105951740D01*
X54682128Y-105949889D01*
X54674527Y-105949849D01*
X54671920Y-105949520D01*
X54606843Y-105921139D01*
X54567440Y-105862081D01*
X54566222Y-105791095D01*
X54603575Y-105730718D01*
X54631095Y-105711948D01*
X54731333Y-105661533D01*
X54762625Y-105645795D01*
X54809644Y-105605637D01*
X54876574Y-105548474D01*
X54876576Y-105548471D01*
X54882348Y-105543542D01*
X54974224Y-105415683D01*
X54999653Y-105352428D01*
X55005745Y-105337273D01*
X55049711Y-105281528D01*
X55116836Y-105258403D01*
X55185808Y-105275240D01*
X55227230Y-105313989D01*
X55303958Y-105428172D01*
X55420410Y-105534135D01*
X55480369Y-105566690D01*
X55552099Y-105605637D01*
X55552101Y-105605638D01*
X55558776Y-105609262D01*
X55566125Y-105611190D01*
X55703719Y-105647287D01*
X55703721Y-105647287D01*
X55711069Y-105649215D01*
X55794380Y-105650524D01*
X55860898Y-105651569D01*
X55860901Y-105651569D01*
X55868495Y-105651688D01*
X56021968Y-105616538D01*
X56162625Y-105545795D01*
X56228771Y-105489301D01*
X56276574Y-105448474D01*
X56276576Y-105448471D01*
X56282348Y-105443542D01*
X56374224Y-105315683D01*
X56432950Y-105169598D01*
X56455134Y-105013723D01*
X56455278Y-105000000D01*
X56436363Y-104843694D01*
X56405031Y-104760775D01*
X56383394Y-104703514D01*
X56383393Y-104703511D01*
X56380710Y-104696412D01*
X56291531Y-104566657D01*
X56215158Y-104498611D01*
X56179648Y-104466972D01*
X56179645Y-104466970D01*
X56173976Y-104461919D01*
X56151256Y-104449889D01*
X56041543Y-104391799D01*
X56041544Y-104391799D01*
X56034831Y-104388245D01*
X55950139Y-104366972D01*
X55889498Y-104351740D01*
X55889496Y-104351740D01*
X55882128Y-104349889D01*
X55874530Y-104349849D01*
X55874528Y-104349849D01*
X55807319Y-104349497D01*
X55724684Y-104349065D01*
X55717305Y-104350837D01*
X55717301Y-104350837D01*
X55578967Y-104384048D01*
X55578963Y-104384049D01*
X55571588Y-104385820D01*
X55564843Y-104389301D01*
X55564844Y-104389301D01*
X55443870Y-104451740D01*
X55431679Y-104458032D01*
X55425957Y-104463024D01*
X55425955Y-104463025D01*
X55318759Y-104556538D01*
X55318756Y-104556541D01*
X55313034Y-104561533D01*
X55288521Y-104596412D01*
X55233227Y-104675087D01*
X55222501Y-104690348D01*
X55201362Y-104744568D01*
X55195043Y-104760775D01*
X55151662Y-104816976D01*
X55084783Y-104840803D01*
X55015639Y-104824689D01*
X54973810Y-104786372D01*
X54895836Y-104672920D01*
X54895834Y-104672917D01*
X54891531Y-104666657D01*
X54805670Y-104590157D01*
X54779648Y-104566972D01*
X54779645Y-104566970D01*
X54773976Y-104561919D01*
X54634831Y-104488245D01*
X54587236Y-104476290D01*
X54489498Y-104451740D01*
X54489496Y-104451740D01*
X54482128Y-104449889D01*
X54474530Y-104449849D01*
X54474528Y-104449849D01*
X54407319Y-104449497D01*
X54324684Y-104449065D01*
X54317305Y-104450837D01*
X54317301Y-104450837D01*
X54178967Y-104484048D01*
X54178963Y-104484049D01*
X54171588Y-104485820D01*
X54031679Y-104558032D01*
X54025957Y-104563024D01*
X54025955Y-104563025D01*
X53918759Y-104656538D01*
X53918756Y-104656541D01*
X53913034Y-104661533D01*
X53908669Y-104667743D01*
X53908666Y-104667747D01*
X53903508Y-104675087D01*
X53847973Y-104719319D01*
X53777341Y-104726504D01*
X53714037Y-104694362D01*
X53696585Y-104674008D01*
X53695841Y-104672925D01*
X53695832Y-104672914D01*
X53691531Y-104666657D01*
X53605670Y-104590157D01*
X53579648Y-104566972D01*
X53579645Y-104566970D01*
X53573976Y-104561919D01*
X53434831Y-104488245D01*
X53387236Y-104476290D01*
X53289498Y-104451740D01*
X53289496Y-104451740D01*
X53282128Y-104449889D01*
X53274530Y-104449849D01*
X53274528Y-104449849D01*
X53207319Y-104449497D01*
X53124684Y-104449065D01*
X53117305Y-104450837D01*
X53117301Y-104450837D01*
X52978967Y-104484048D01*
X52978963Y-104484049D01*
X52971588Y-104485820D01*
X52831679Y-104558032D01*
X52825957Y-104563024D01*
X52825955Y-104563025D01*
X52718759Y-104656538D01*
X52718756Y-104656541D01*
X52713034Y-104661533D01*
X52622501Y-104790348D01*
X52565309Y-104937039D01*
X52564318Y-104944568D01*
X52546488Y-105080000D01*
X52544758Y-105093138D01*
X52562035Y-105249633D01*
X52564645Y-105256765D01*
X52589595Y-105324945D01*
X52594221Y-105395791D01*
X52559811Y-105457891D01*
X52497289Y-105491530D01*
X52435244Y-105486600D01*
X52434831Y-105488245D01*
X52289498Y-105451740D01*
X52289496Y-105451740D01*
X52282128Y-105449889D01*
X52274530Y-105449849D01*
X52274528Y-105449849D01*
X52207319Y-105449497D01*
X52124684Y-105449065D01*
X52117305Y-105450837D01*
X52117301Y-105450837D01*
X51978967Y-105484048D01*
X51978963Y-105484049D01*
X51971588Y-105485820D01*
X51912146Y-105516500D01*
X51843930Y-105551709D01*
X51831679Y-105558032D01*
X51825957Y-105563024D01*
X51825955Y-105563025D01*
X51718759Y-105656538D01*
X51718756Y-105656541D01*
X51713034Y-105661533D01*
X51682037Y-105705637D01*
X51632763Y-105775747D01*
X51622501Y-105790348D01*
X51565309Y-105937039D01*
X51561888Y-105963025D01*
X51548101Y-106067747D01*
X51544758Y-106093138D01*
X44109731Y-106093138D01*
X44091531Y-106066657D01*
X44044971Y-106025174D01*
X43979648Y-105966972D01*
X43979645Y-105966970D01*
X43973976Y-105961919D01*
X43951256Y-105949889D01*
X43913622Y-105929963D01*
X43834831Y-105888245D01*
X43771335Y-105872296D01*
X43689498Y-105851740D01*
X43689496Y-105851740D01*
X43682128Y-105849889D01*
X43674530Y-105849849D01*
X43674528Y-105849849D01*
X43607319Y-105849497D01*
X43524684Y-105849065D01*
X43517305Y-105850837D01*
X43517301Y-105850837D01*
X43378967Y-105884048D01*
X43378963Y-105884049D01*
X43371588Y-105885820D01*
X43349904Y-105897012D01*
X43243870Y-105951740D01*
X43231679Y-105958032D01*
X43225957Y-105963024D01*
X43225955Y-105963025D01*
X43118759Y-106056538D01*
X43118756Y-106056541D01*
X43113034Y-106061533D01*
X43091569Y-106092074D01*
X43027709Y-106182938D01*
X43022501Y-106190348D01*
X42965309Y-106337039D01*
X42964318Y-106344568D01*
X42947063Y-106475632D01*
X42944758Y-106493138D01*
X37232570Y-106493138D01*
X37166916Y-106480079D01*
X37104006Y-106447172D01*
X37068874Y-106385477D01*
X37072674Y-106314582D01*
X37114199Y-106256996D01*
X37180266Y-106231002D01*
X37191497Y-106230500D01*
X37894646Y-106230500D01*
X37898350Y-106230059D01*
X37898353Y-106230059D01*
X37905746Y-106229179D01*
X37920846Y-106227382D01*
X37929557Y-106223513D01*
X38012518Y-106186663D01*
X38023153Y-106181939D01*
X38032160Y-106172917D01*
X38094023Y-106110945D01*
X38102241Y-106102713D01*
X38118182Y-106066657D01*
X38133265Y-106032538D01*
X38147506Y-106000327D01*
X38150500Y-105974646D01*
X38150500Y-104893138D01*
X43444758Y-104893138D01*
X43462035Y-105049633D01*
X43516143Y-105197490D01*
X43520380Y-105203796D01*
X43520382Y-105203799D01*
X43546109Y-105242084D01*
X43603958Y-105328172D01*
X43720410Y-105434135D01*
X43749425Y-105449889D01*
X43852099Y-105505637D01*
X43852101Y-105505638D01*
X43858776Y-105509262D01*
X43866125Y-105511190D01*
X44003719Y-105547287D01*
X44003721Y-105547287D01*
X44011069Y-105549215D01*
X44094380Y-105550524D01*
X44160898Y-105551569D01*
X44160901Y-105551569D01*
X44168495Y-105551688D01*
X44321968Y-105516538D01*
X44462625Y-105445795D01*
X44575103Y-105349730D01*
X44576574Y-105348474D01*
X44576576Y-105348471D01*
X44582348Y-105343542D01*
X44674224Y-105215683D01*
X44732950Y-105069598D01*
X44755134Y-104913723D01*
X44755278Y-104900000D01*
X44736363Y-104743694D01*
X44729867Y-104726504D01*
X44683394Y-104603514D01*
X44683393Y-104603511D01*
X44680710Y-104596412D01*
X44591531Y-104466657D01*
X44544971Y-104425174D01*
X44479648Y-104366972D01*
X44479645Y-104366970D01*
X44473976Y-104361919D01*
X44454429Y-104351569D01*
X44381821Y-104313125D01*
X44334831Y-104288245D01*
X44325177Y-104285820D01*
X44189498Y-104251740D01*
X44189496Y-104251740D01*
X44182128Y-104249889D01*
X44174530Y-104249849D01*
X44174528Y-104249849D01*
X44107319Y-104249497D01*
X44024684Y-104249065D01*
X44017305Y-104250837D01*
X44017301Y-104250837D01*
X43878967Y-104284048D01*
X43878963Y-104284049D01*
X43871588Y-104285820D01*
X43812073Y-104316538D01*
X43743870Y-104351740D01*
X43731679Y-104358032D01*
X43725957Y-104363024D01*
X43725955Y-104363025D01*
X43618759Y-104456538D01*
X43618756Y-104456541D01*
X43613034Y-104461533D01*
X43593518Y-104489301D01*
X43534752Y-104572917D01*
X43522501Y-104590348D01*
X43465309Y-104737039D01*
X43464318Y-104744568D01*
X43452144Y-104837039D01*
X43444758Y-104893138D01*
X38150500Y-104893138D01*
X38150500Y-104185354D01*
X38147382Y-104159154D01*
X38140448Y-104143542D01*
X38106663Y-104067482D01*
X38101939Y-104056847D01*
X38093444Y-104048366D01*
X38030945Y-103985977D01*
X38022713Y-103977759D01*
X38012076Y-103973056D01*
X38012074Y-103973055D01*
X37928992Y-103936325D01*
X37928993Y-103936325D01*
X37920327Y-103932494D01*
X37894646Y-103929500D01*
X36105354Y-103929500D01*
X36101650Y-103929941D01*
X36101647Y-103929941D01*
X36094254Y-103930821D01*
X36079154Y-103932618D01*
X35977645Y-103977706D01*
X35907273Y-103987078D01*
X35843002Y-103956916D01*
X35805241Y-103896794D01*
X35800500Y-103862554D01*
X35800500Y-103093138D01*
X39244758Y-103093138D01*
X39262035Y-103249633D01*
X39264645Y-103256765D01*
X39313460Y-103390157D01*
X39316143Y-103397490D01*
X39320380Y-103403796D01*
X39320382Y-103403799D01*
X39340616Y-103433910D01*
X39403958Y-103528172D01*
X39520410Y-103634135D01*
X39531492Y-103640152D01*
X39652099Y-103705637D01*
X39652101Y-103705638D01*
X39658776Y-103709262D01*
X39666125Y-103711190D01*
X39803719Y-103747287D01*
X39803721Y-103747287D01*
X39811069Y-103749215D01*
X39894380Y-103750524D01*
X39960898Y-103751569D01*
X39960901Y-103751569D01*
X39968495Y-103751688D01*
X40121968Y-103716538D01*
X40168494Y-103693138D01*
X48744758Y-103693138D01*
X48762035Y-103849633D01*
X48816143Y-103997490D01*
X48820380Y-104003796D01*
X48820382Y-104003799D01*
X48841435Y-104035129D01*
X48903958Y-104128172D01*
X49020410Y-104234135D01*
X49049425Y-104249889D01*
X49152099Y-104305637D01*
X49152101Y-104305638D01*
X49158776Y-104309262D01*
X49166125Y-104311190D01*
X49303719Y-104347287D01*
X49303721Y-104347287D01*
X49311069Y-104349215D01*
X49394380Y-104350524D01*
X49460898Y-104351569D01*
X49460901Y-104351569D01*
X49468495Y-104351688D01*
X49621968Y-104316538D01*
X49762625Y-104245795D01*
X49829023Y-104189086D01*
X49876574Y-104148474D01*
X49876576Y-104148471D01*
X49882348Y-104143542D01*
X49974224Y-104015683D01*
X50032950Y-103869598D01*
X50055134Y-103713723D01*
X50055278Y-103700000D01*
X50036363Y-103543694D01*
X49996401Y-103437937D01*
X49983394Y-103403514D01*
X49983393Y-103403511D01*
X49980710Y-103396412D01*
X49891531Y-103266657D01*
X49810479Y-103194442D01*
X49779648Y-103166972D01*
X49779645Y-103166970D01*
X49773976Y-103161919D01*
X49634831Y-103088245D01*
X49569420Y-103071815D01*
X49489498Y-103051740D01*
X49489496Y-103051740D01*
X49482128Y-103049889D01*
X49474530Y-103049849D01*
X49474528Y-103049849D01*
X49407319Y-103049497D01*
X49324684Y-103049065D01*
X49317305Y-103050837D01*
X49317301Y-103050837D01*
X49178967Y-103084048D01*
X49178963Y-103084049D01*
X49171588Y-103085820D01*
X49031679Y-103158032D01*
X49025957Y-103163024D01*
X49025955Y-103163025D01*
X48918759Y-103256538D01*
X48918756Y-103256541D01*
X48913034Y-103261533D01*
X48822501Y-103390348D01*
X48765309Y-103537039D01*
X48764318Y-103544568D01*
X48745758Y-103685544D01*
X48744758Y-103693138D01*
X40168494Y-103693138D01*
X40262625Y-103645795D01*
X40324776Y-103592713D01*
X40376574Y-103548474D01*
X40376576Y-103548471D01*
X40382348Y-103543542D01*
X40474224Y-103415683D01*
X40532950Y-103269598D01*
X40547556Y-103166972D01*
X40554553Y-103117807D01*
X40554553Y-103117804D01*
X40555134Y-103113723D01*
X40555278Y-103100000D01*
X40553856Y-103088245D01*
X40549114Y-103049065D01*
X40536363Y-102943694D01*
X40531175Y-102929963D01*
X40483394Y-102803514D01*
X40483393Y-102803511D01*
X40480710Y-102796412D01*
X40391531Y-102666657D01*
X40290035Y-102576227D01*
X40279648Y-102566972D01*
X40279645Y-102566970D01*
X40273976Y-102561919D01*
X40254429Y-102551569D01*
X40219270Y-102532954D01*
X40134831Y-102488245D01*
X40118122Y-102484048D01*
X39989498Y-102451740D01*
X39989496Y-102451740D01*
X39982128Y-102449889D01*
X39974530Y-102449849D01*
X39974528Y-102449849D01*
X39907319Y-102449497D01*
X39824684Y-102449065D01*
X39817305Y-102450837D01*
X39817301Y-102450837D01*
X39678967Y-102484048D01*
X39678963Y-102484049D01*
X39671588Y-102485820D01*
X39622434Y-102511190D01*
X39544988Y-102551163D01*
X39531679Y-102558032D01*
X39525957Y-102563024D01*
X39525955Y-102563025D01*
X39418759Y-102656538D01*
X39418756Y-102656541D01*
X39413034Y-102661533D01*
X39322501Y-102790348D01*
X39265309Y-102937039D01*
X39264318Y-102944568D01*
X39245955Y-103084048D01*
X39244758Y-103093138D01*
X35800500Y-103093138D01*
X35800500Y-101493138D01*
X39744758Y-101493138D01*
X39762035Y-101649633D01*
X39816143Y-101797490D01*
X39820380Y-101803796D01*
X39820382Y-101803799D01*
X39860709Y-101863811D01*
X39903958Y-101928172D01*
X39947191Y-101967511D01*
X40006272Y-102021270D01*
X40020410Y-102034135D01*
X40062089Y-102056765D01*
X40152099Y-102105637D01*
X40152101Y-102105638D01*
X40158776Y-102109262D01*
X40166125Y-102111190D01*
X40303719Y-102147287D01*
X40303721Y-102147287D01*
X40311069Y-102149215D01*
X40394380Y-102150524D01*
X40460898Y-102151569D01*
X40460901Y-102151569D01*
X40468495Y-102151688D01*
X40621968Y-102116538D01*
X40762625Y-102045795D01*
X40830673Y-101987677D01*
X40876574Y-101948474D01*
X40876576Y-101948471D01*
X40882348Y-101943542D01*
X40918567Y-101893138D01*
X44044758Y-101893138D01*
X44062035Y-102049633D01*
X44116143Y-102197490D01*
X44120380Y-102203796D01*
X44120382Y-102203799D01*
X44160709Y-102263811D01*
X44203958Y-102328172D01*
X44320410Y-102434135D01*
X44349425Y-102449889D01*
X44452099Y-102505637D01*
X44452101Y-102505638D01*
X44458776Y-102509262D01*
X44466125Y-102511190D01*
X44603719Y-102547287D01*
X44603721Y-102547287D01*
X44611069Y-102549215D01*
X44694380Y-102550524D01*
X44760898Y-102551569D01*
X44760901Y-102551569D01*
X44768495Y-102551688D01*
X44921968Y-102516538D01*
X45062625Y-102445795D01*
X45092656Y-102420146D01*
X45176574Y-102348474D01*
X45176576Y-102348471D01*
X45182348Y-102343542D01*
X45274224Y-102215683D01*
X45332950Y-102069598D01*
X45352211Y-101934264D01*
X45354553Y-101917807D01*
X45354553Y-101917804D01*
X45355134Y-101913723D01*
X45355278Y-101900000D01*
X45336363Y-101743694D01*
X45305521Y-101662072D01*
X45283394Y-101603514D01*
X45283393Y-101603511D01*
X45280710Y-101596412D01*
X45191531Y-101466657D01*
X45135072Y-101416354D01*
X45079648Y-101366972D01*
X45079645Y-101366970D01*
X45073976Y-101361919D01*
X45066575Y-101358000D01*
X45004930Y-101325361D01*
X44934831Y-101288245D01*
X44918122Y-101284048D01*
X44789498Y-101251740D01*
X44789496Y-101251740D01*
X44782128Y-101249889D01*
X44774530Y-101249849D01*
X44774528Y-101249849D01*
X44707319Y-101249497D01*
X44624684Y-101249065D01*
X44617305Y-101250837D01*
X44617301Y-101250837D01*
X44478967Y-101284048D01*
X44478963Y-101284049D01*
X44471588Y-101285820D01*
X44405020Y-101320178D01*
X44350190Y-101348478D01*
X44331679Y-101358032D01*
X44325957Y-101363024D01*
X44325955Y-101363025D01*
X44218759Y-101456538D01*
X44218756Y-101456541D01*
X44213034Y-101461533D01*
X44122501Y-101590348D01*
X44065309Y-101737039D01*
X44063710Y-101749185D01*
X44048351Y-101865849D01*
X44044758Y-101893138D01*
X40918567Y-101893138D01*
X40974224Y-101815683D01*
X41032950Y-101669598D01*
X41055134Y-101513723D01*
X41055278Y-101500000D01*
X41036363Y-101343694D01*
X41001617Y-101251740D01*
X40983394Y-101203514D01*
X40983393Y-101203511D01*
X40980710Y-101196412D01*
X40891531Y-101066657D01*
X40806399Y-100990807D01*
X40779648Y-100966972D01*
X40779645Y-100966970D01*
X40773976Y-100961919D01*
X40634831Y-100888245D01*
X40618122Y-100884048D01*
X40489498Y-100851740D01*
X40489496Y-100851740D01*
X40482128Y-100849889D01*
X40474530Y-100849849D01*
X40474528Y-100849849D01*
X40407319Y-100849497D01*
X40324684Y-100849065D01*
X40317305Y-100850837D01*
X40317301Y-100850837D01*
X40178967Y-100884048D01*
X40178963Y-100884049D01*
X40171588Y-100885820D01*
X40031679Y-100958032D01*
X40025957Y-100963024D01*
X40025955Y-100963025D01*
X39918759Y-101056538D01*
X39918756Y-101056541D01*
X39913034Y-101061533D01*
X39822501Y-101190348D01*
X39765309Y-101337039D01*
X39761888Y-101363025D01*
X39748101Y-101467747D01*
X39744758Y-101493138D01*
X35800500Y-101493138D01*
X35800500Y-97693138D01*
X38844758Y-97693138D01*
X38862035Y-97849633D01*
X38916143Y-97997490D01*
X38920380Y-98003796D01*
X38920382Y-98003799D01*
X38960709Y-98063811D01*
X39003958Y-98128172D01*
X39120410Y-98234135D01*
X39127085Y-98237759D01*
X39252099Y-98305637D01*
X39252101Y-98305638D01*
X39258776Y-98309262D01*
X39266125Y-98311190D01*
X39403719Y-98347287D01*
X39403721Y-98347287D01*
X39411069Y-98349215D01*
X39494380Y-98350524D01*
X39560898Y-98351569D01*
X39560901Y-98351569D01*
X39568495Y-98351688D01*
X39721968Y-98316538D01*
X39862625Y-98245795D01*
X39954345Y-98167459D01*
X39976574Y-98148474D01*
X39976576Y-98148471D01*
X39982348Y-98143542D01*
X40074224Y-98015683D01*
X40132950Y-97869598D01*
X40149972Y-97749992D01*
X40154553Y-97717807D01*
X40154553Y-97717804D01*
X40155134Y-97713723D01*
X40155278Y-97700000D01*
X40136363Y-97543694D01*
X40128115Y-97521866D01*
X40083394Y-97403514D01*
X40083393Y-97403511D01*
X40080710Y-97396412D01*
X39991531Y-97266657D01*
X39944971Y-97225174D01*
X39879648Y-97166972D01*
X39879645Y-97166970D01*
X39873976Y-97161919D01*
X39734831Y-97088245D01*
X39718122Y-97084048D01*
X39589498Y-97051740D01*
X39589496Y-97051740D01*
X39582128Y-97049889D01*
X39574530Y-97049849D01*
X39574528Y-97049849D01*
X39507319Y-97049497D01*
X39424684Y-97049065D01*
X39417305Y-97050837D01*
X39417301Y-97050837D01*
X39278967Y-97084048D01*
X39278963Y-97084049D01*
X39271588Y-97085820D01*
X39131679Y-97158032D01*
X39125957Y-97163024D01*
X39125955Y-97163025D01*
X39018759Y-97256538D01*
X39018756Y-97256541D01*
X39013034Y-97261533D01*
X38922501Y-97390348D01*
X38865309Y-97537039D01*
X38864318Y-97544568D01*
X38849975Y-97653515D01*
X38844758Y-97693138D01*
X35800500Y-97693138D01*
X35800500Y-95493138D01*
X42044758Y-95493138D01*
X42062035Y-95649633D01*
X42116143Y-95797490D01*
X42120380Y-95803796D01*
X42120382Y-95803799D01*
X42160709Y-95863811D01*
X42203958Y-95928172D01*
X42233932Y-95955446D01*
X42301410Y-96016846D01*
X42320410Y-96034135D01*
X42373624Y-96063028D01*
X42452099Y-96105637D01*
X42452101Y-96105638D01*
X42458776Y-96109262D01*
X42466125Y-96111190D01*
X42603719Y-96147287D01*
X42603721Y-96147287D01*
X42611069Y-96149215D01*
X42694380Y-96150524D01*
X42760898Y-96151569D01*
X42760901Y-96151569D01*
X42768495Y-96151688D01*
X42921968Y-96116538D01*
X43062625Y-96045795D01*
X43097752Y-96015794D01*
X43176574Y-95948474D01*
X43176576Y-95948471D01*
X43182348Y-95943542D01*
X43274224Y-95815683D01*
X43332950Y-95669598D01*
X43355134Y-95513723D01*
X43355278Y-95500000D01*
X43336363Y-95343694D01*
X43280710Y-95196412D01*
X43191531Y-95066657D01*
X43144971Y-95025174D01*
X43079648Y-94966972D01*
X43079645Y-94966970D01*
X43073976Y-94961919D01*
X42934831Y-94888245D01*
X42918122Y-94884048D01*
X42789498Y-94851740D01*
X42789496Y-94851740D01*
X42782128Y-94849889D01*
X42774530Y-94849849D01*
X42774528Y-94849849D01*
X42707319Y-94849497D01*
X42624684Y-94849065D01*
X42617305Y-94850837D01*
X42617301Y-94850837D01*
X42478967Y-94884048D01*
X42478963Y-94884049D01*
X42471588Y-94885820D01*
X42331679Y-94958032D01*
X42325957Y-94963024D01*
X42325955Y-94963025D01*
X42218759Y-95056538D01*
X42218756Y-95056541D01*
X42213034Y-95061533D01*
X42122501Y-95190348D01*
X42065309Y-95337039D01*
X42044758Y-95493138D01*
X35800500Y-95493138D01*
X35800500Y-94537317D01*
X35802414Y-94515437D01*
X35803222Y-94510855D01*
X35805136Y-94500000D01*
X35803222Y-94489144D01*
X35803222Y-94478122D01*
X35803779Y-94478122D01*
X35803188Y-94465845D01*
X35804498Y-94449208D01*
X35814490Y-94322241D01*
X35817583Y-94302714D01*
X35817805Y-94301788D01*
X35856895Y-94138970D01*
X35863003Y-94120171D01*
X35927445Y-93964595D01*
X35936415Y-93946990D01*
X36024406Y-93803401D01*
X36036027Y-93787408D01*
X36145385Y-93659366D01*
X36159366Y-93645385D01*
X36269603Y-93551234D01*
X36287409Y-93536026D01*
X36303403Y-93524405D01*
X36344940Y-93498951D01*
X36446990Y-93436415D01*
X36464595Y-93427445D01*
X36620176Y-93363001D01*
X36638970Y-93356895D01*
X36721961Y-93336970D01*
X36792868Y-93340517D01*
X36850602Y-93381837D01*
X36876832Y-93447810D01*
X36868767Y-93505258D01*
X36857877Y-93533190D01*
X36851170Y-93584131D01*
X36848619Y-93603514D01*
X36837326Y-93689289D01*
X36854603Y-93845784D01*
X36908711Y-93993641D01*
X36912948Y-93999947D01*
X36912950Y-93999950D01*
X36941263Y-94042084D01*
X36996526Y-94124323D01*
X37112978Y-94230286D01*
X37132453Y-94240860D01*
X37244667Y-94301788D01*
X37244669Y-94301789D01*
X37251344Y-94305413D01*
X37258693Y-94307341D01*
X37396287Y-94343438D01*
X37396289Y-94343438D01*
X37403637Y-94345366D01*
X37486948Y-94346675D01*
X37553466Y-94347720D01*
X37553469Y-94347720D01*
X37561063Y-94347839D01*
X37714536Y-94312689D01*
X37855193Y-94241946D01*
X37894194Y-94208636D01*
X37969142Y-94144625D01*
X37969144Y-94144622D01*
X37974916Y-94139693D01*
X38066792Y-94011834D01*
X38125518Y-93865749D01*
X38141816Y-93751234D01*
X38147121Y-93713958D01*
X38147121Y-93713955D01*
X38147702Y-93709874D01*
X38147770Y-93703405D01*
X38147803Y-93700285D01*
X38147803Y-93700279D01*
X38147846Y-93696151D01*
X38128931Y-93539845D01*
X38102931Y-93471037D01*
X38097563Y-93400244D01*
X38131321Y-93337787D01*
X38193487Y-93303495D01*
X38220797Y-93300500D01*
X42773169Y-93300500D01*
X42841290Y-93320502D01*
G37*
%TD.AperFunction*%
%TD*%
%TA.AperFunction,Conductor*%
%TO.N,+3.3VA*%
G36*
X51241485Y-115520002D02*
G01*
X51287978Y-115573658D01*
X51298082Y-115643932D01*
X51290759Y-115671763D01*
X51265309Y-115737039D01*
X51264318Y-115744568D01*
X51247254Y-115874180D01*
X51244758Y-115893138D01*
X51262035Y-116049633D01*
X51316143Y-116197490D01*
X51320380Y-116203796D01*
X51320382Y-116203799D01*
X51352907Y-116252201D01*
X51403958Y-116328172D01*
X51446253Y-116366657D01*
X51493260Y-116409430D01*
X51520410Y-116434135D01*
X51574786Y-116463659D01*
X51652099Y-116505637D01*
X51652101Y-116505638D01*
X51658776Y-116509262D01*
X51666125Y-116511190D01*
X51803719Y-116547287D01*
X51803721Y-116547287D01*
X51811069Y-116549215D01*
X51894380Y-116550524D01*
X51960898Y-116551569D01*
X51960901Y-116551569D01*
X51968495Y-116551688D01*
X52121968Y-116516538D01*
X52262625Y-116445795D01*
X52306052Y-116408705D01*
X52376574Y-116348474D01*
X52376576Y-116348471D01*
X52382348Y-116343542D01*
X52474224Y-116215683D01*
X52482521Y-116195045D01*
X52501004Y-116149065D01*
X52532950Y-116069598D01*
X52552000Y-115935747D01*
X52554553Y-115917807D01*
X52554553Y-115917804D01*
X52555134Y-115913723D01*
X52555278Y-115900000D01*
X52554606Y-115894442D01*
X52545320Y-115817714D01*
X52536363Y-115743694D01*
X52523614Y-115709955D01*
X52508720Y-115670537D01*
X52503352Y-115599744D01*
X52537110Y-115537287D01*
X52599276Y-115502995D01*
X52626586Y-115500000D01*
X60523500Y-115500000D01*
X60591621Y-115520002D01*
X60638114Y-115573658D01*
X60649500Y-115626000D01*
X60649500Y-118845569D01*
X60629498Y-118913690D01*
X60575842Y-118960183D01*
X60505568Y-118970287D01*
X60464541Y-118956923D01*
X60341544Y-118891799D01*
X60341541Y-118891798D01*
X60334831Y-118888245D01*
X60288470Y-118876600D01*
X60189498Y-118851740D01*
X60189496Y-118851740D01*
X60182128Y-118849889D01*
X60174530Y-118849849D01*
X60174528Y-118849849D01*
X60107319Y-118849497D01*
X60024684Y-118849065D01*
X60017305Y-118850837D01*
X60017301Y-118850837D01*
X59878967Y-118884048D01*
X59878963Y-118884049D01*
X59871588Y-118885820D01*
X59731679Y-118958032D01*
X59725957Y-118963024D01*
X59725955Y-118963025D01*
X59618759Y-119056538D01*
X59618756Y-119056541D01*
X59613034Y-119061533D01*
X59608667Y-119067747D01*
X59532844Y-119175632D01*
X59522501Y-119190348D01*
X59465309Y-119337039D01*
X59464318Y-119344568D01*
X59456065Y-119407257D01*
X59444758Y-119493138D01*
X59462035Y-119649633D01*
X59516143Y-119797490D01*
X59603958Y-119928172D01*
X59720410Y-120034135D01*
X59727085Y-120037759D01*
X59852099Y-120105637D01*
X59852101Y-120105638D01*
X59858776Y-120109262D01*
X59866125Y-120111190D01*
X60003719Y-120147287D01*
X60003721Y-120147287D01*
X60011069Y-120149215D01*
X60094380Y-120150524D01*
X60160898Y-120151569D01*
X60160901Y-120151569D01*
X60168495Y-120151688D01*
X60321968Y-120116538D01*
X60462625Y-120045795D01*
X60463512Y-120047559D01*
X60521581Y-120029544D01*
X60589998Y-120048506D01*
X60637303Y-120101447D01*
X60649500Y-120155529D01*
X60649500Y-123619000D01*
X60648951Y-123630640D01*
X60647240Y-123638296D01*
X60647489Y-123646219D01*
X60649438Y-123708230D01*
X60649500Y-123712188D01*
X60649500Y-123740925D01*
X60649995Y-123744842D01*
X60650039Y-123745191D01*
X60650971Y-123757024D01*
X60652403Y-123802569D01*
X60654615Y-123810183D01*
X60654616Y-123810188D01*
X60658278Y-123822792D01*
X60662289Y-123842156D01*
X60664929Y-123863058D01*
X60667848Y-123870429D01*
X60667848Y-123870431D01*
X60681702Y-123905420D01*
X60685541Y-123916631D01*
X60698256Y-123960398D01*
X60708981Y-123978533D01*
X60717676Y-123996281D01*
X60720539Y-124003513D01*
X60721732Y-124006525D01*
X60725432Y-124015871D01*
X60752218Y-124052738D01*
X60758725Y-124062646D01*
X60777883Y-124095042D01*
X60777887Y-124095047D01*
X60781919Y-124101865D01*
X60796812Y-124116758D01*
X60809653Y-124131792D01*
X60822037Y-124148837D01*
X60828145Y-124153890D01*
X60857143Y-124177879D01*
X60865923Y-124185869D01*
X61812595Y-125132541D01*
X61846621Y-125194853D01*
X61849500Y-125221636D01*
X61849500Y-126294646D01*
X61852618Y-126320846D01*
X61898061Y-126423153D01*
X61906294Y-126431372D01*
X61906295Y-126431373D01*
X61932363Y-126457395D01*
X61977287Y-126502241D01*
X61987924Y-126506944D01*
X61987926Y-126506945D01*
X62021677Y-126521866D01*
X62079673Y-126547506D01*
X62105354Y-126550500D01*
X62814988Y-126550500D01*
X62883109Y-126570502D01*
X62929602Y-126624158D01*
X62939706Y-126694432D01*
X62910212Y-126759012D01*
X62850486Y-126797396D01*
X62836326Y-126800680D01*
X62706650Y-126822962D01*
X62706649Y-126822962D01*
X62700953Y-126823941D01*
X62502575Y-126897127D01*
X62497614Y-126900079D01*
X62497613Y-126900079D01*
X62480089Y-126910505D01*
X62320856Y-127005238D01*
X62161881Y-127144655D01*
X62030976Y-127310708D01*
X62028287Y-127315819D01*
X62028285Y-127315822D01*
X62014792Y-127341469D01*
X61932523Y-127497836D01*
X61869820Y-127699773D01*
X61844967Y-127909754D01*
X61858796Y-128120749D01*
X61860217Y-128126345D01*
X61860218Y-128126350D01*
X61882784Y-128215200D01*
X61910845Y-128325690D01*
X61913262Y-128330933D01*
X61988039Y-128493138D01*
X61999369Y-128517714D01*
X62121405Y-128690391D01*
X62272865Y-128837937D01*
X62277661Y-128841142D01*
X62277664Y-128841144D01*
X62398473Y-128921866D01*
X62448677Y-128955411D01*
X62453985Y-128957692D01*
X62453986Y-128957692D01*
X62637650Y-129036600D01*
X62637653Y-129036601D01*
X62642953Y-129038878D01*
X62648582Y-129040152D01*
X62648583Y-129040152D01*
X62843550Y-129084269D01*
X62843553Y-129084269D01*
X62849186Y-129085544D01*
X62854958Y-129085771D01*
X62860687Y-129086525D01*
X62860327Y-129089257D01*
X62916604Y-129108216D01*
X62960950Y-129163659D01*
X62968282Y-129234276D01*
X62936271Y-129297647D01*
X62875081Y-129333651D01*
X62865705Y-129335632D01*
X62825076Y-129342613D01*
X62706650Y-129362962D01*
X62706649Y-129362962D01*
X62700953Y-129363941D01*
X62502575Y-129437127D01*
X62497614Y-129440079D01*
X62497613Y-129440079D01*
X62366964Y-129517807D01*
X62320856Y-129545238D01*
X62161881Y-129684655D01*
X62030976Y-129850708D01*
X62028287Y-129855819D01*
X62028285Y-129855822D01*
X62007108Y-129896073D01*
X61932523Y-130037836D01*
X61907559Y-130118233D01*
X61875386Y-130221849D01*
X61869820Y-130239773D01*
X61844967Y-130449754D01*
X61858796Y-130660749D01*
X61860219Y-130666351D01*
X61863684Y-130679994D01*
X61861068Y-130750942D01*
X61830657Y-130800108D01*
X61768170Y-130862595D01*
X61705858Y-130896621D01*
X61679075Y-130899500D01*
X52400925Y-130899500D01*
X52332804Y-130879498D01*
X52311830Y-130862595D01*
X51621189Y-130171954D01*
X51592418Y-130127397D01*
X51586294Y-130111190D01*
X51580710Y-130096412D01*
X51491531Y-129966657D01*
X51421357Y-129904134D01*
X51379648Y-129866972D01*
X51379645Y-129866970D01*
X51373976Y-129861919D01*
X51344234Y-129846171D01*
X51286652Y-129815683D01*
X51234831Y-129788245D01*
X51217919Y-129783997D01*
X51089498Y-129751740D01*
X51089496Y-129751740D01*
X51082128Y-129749889D01*
X51074530Y-129749849D01*
X51074528Y-129749849D01*
X51007319Y-129749497D01*
X50924684Y-129749065D01*
X50917305Y-129750837D01*
X50917301Y-129750837D01*
X50778967Y-129784048D01*
X50778963Y-129784049D01*
X50771588Y-129785820D01*
X50760004Y-129791799D01*
X50647557Y-129849837D01*
X50631679Y-129858032D01*
X50625957Y-129863024D01*
X50625955Y-129863025D01*
X50518759Y-129956538D01*
X50518756Y-129956541D01*
X50513034Y-129961533D01*
X50488521Y-129996412D01*
X50432127Y-130076652D01*
X50422501Y-130090348D01*
X50365309Y-130237039D01*
X50364318Y-130244568D01*
X50354676Y-130317807D01*
X50344758Y-130393138D01*
X50362035Y-130549633D01*
X50416143Y-130697490D01*
X50420380Y-130703796D01*
X50420382Y-130703799D01*
X50451054Y-130749443D01*
X50503958Y-130828172D01*
X50620410Y-130934135D01*
X50680888Y-130966972D01*
X50745460Y-131002032D01*
X50774433Y-131023668D01*
X51641703Y-131890938D01*
X51652570Y-131903328D01*
X51671718Y-131928282D01*
X51678264Y-131933305D01*
X51750021Y-131988366D01*
X51752809Y-131990505D01*
X51797159Y-132024536D01*
X51943238Y-132085044D01*
X51951426Y-132086122D01*
X52021619Y-132095363D01*
X52100000Y-132105682D01*
X52108188Y-132104604D01*
X52131173Y-132101578D01*
X52147619Y-132100500D01*
X61932381Y-132100500D01*
X61948827Y-132101578D01*
X61980000Y-132105682D01*
X61988188Y-132104604D01*
X61996446Y-132104604D01*
X61996446Y-132108145D01*
X62050518Y-132116594D01*
X62103602Y-132163738D01*
X62122772Y-132232098D01*
X62101940Y-132299969D01*
X62095731Y-132308565D01*
X62034556Y-132386165D01*
X62034549Y-132386175D01*
X62030976Y-132390708D01*
X62028287Y-132395819D01*
X62028285Y-132395822D01*
X62014792Y-132421469D01*
X61932523Y-132577836D01*
X61869820Y-132779773D01*
X61844967Y-132989754D01*
X61858796Y-133200749D01*
X61860217Y-133206345D01*
X61860218Y-133206350D01*
X61882784Y-133295200D01*
X61910845Y-133405690D01*
X61999369Y-133597714D01*
X62121405Y-133770391D01*
X62272865Y-133917937D01*
X62277661Y-133921142D01*
X62277664Y-133921144D01*
X62420936Y-134016875D01*
X62448677Y-134035411D01*
X62453985Y-134037692D01*
X62453986Y-134037692D01*
X62637650Y-134116600D01*
X62637653Y-134116601D01*
X62642953Y-134118878D01*
X62648582Y-134120152D01*
X62648583Y-134120152D01*
X62843550Y-134164269D01*
X62843553Y-134164269D01*
X62849186Y-134165544D01*
X62854958Y-134165771D01*
X62860687Y-134166525D01*
X62860327Y-134169257D01*
X62916604Y-134188216D01*
X62960950Y-134243659D01*
X62968282Y-134314276D01*
X62936271Y-134377647D01*
X62875081Y-134413651D01*
X62865704Y-134415632D01*
X62706650Y-134442962D01*
X62706649Y-134442962D01*
X62700953Y-134443941D01*
X62502575Y-134517127D01*
X62497614Y-134520079D01*
X62497613Y-134520079D01*
X62480089Y-134530505D01*
X62320856Y-134625238D01*
X62161881Y-134764655D01*
X62030976Y-134930708D01*
X62028287Y-134935819D01*
X62028285Y-134935822D01*
X62014792Y-134961469D01*
X61932523Y-135117836D01*
X61869820Y-135319773D01*
X61844967Y-135529754D01*
X61858796Y-135740749D01*
X61861053Y-135749633D01*
X61863684Y-135759994D01*
X61861068Y-135830942D01*
X61830657Y-135880108D01*
X61448170Y-136262595D01*
X61385858Y-136296621D01*
X61359075Y-136299500D01*
X50400925Y-136299500D01*
X50332804Y-136279498D01*
X50311830Y-136262595D01*
X49773271Y-135724036D01*
X49739245Y-135661724D01*
X49744310Y-135590909D01*
X49786857Y-135534073D01*
X49817520Y-135517557D01*
X49821968Y-135516538D01*
X49962625Y-135445795D01*
X50068702Y-135355197D01*
X50076574Y-135348474D01*
X50076576Y-135348471D01*
X50082348Y-135343542D01*
X50174224Y-135215683D01*
X50232950Y-135069598D01*
X50245899Y-134978611D01*
X50254553Y-134917807D01*
X50254553Y-134917804D01*
X50255134Y-134913723D01*
X50255278Y-134900000D01*
X50236363Y-134743694D01*
X50199923Y-134647257D01*
X50183394Y-134603514D01*
X50183393Y-134603511D01*
X50180710Y-134596412D01*
X50091531Y-134466657D01*
X49991629Y-134377647D01*
X49979648Y-134366972D01*
X49979645Y-134366970D01*
X49973976Y-134361919D01*
X49834831Y-134288245D01*
X49818122Y-134284048D01*
X49689498Y-134251740D01*
X49689496Y-134251740D01*
X49682128Y-134249889D01*
X49674530Y-134249849D01*
X49674528Y-134249849D01*
X49607319Y-134249497D01*
X49524684Y-134249065D01*
X49517305Y-134250837D01*
X49517301Y-134250837D01*
X49378967Y-134284048D01*
X49378963Y-134284049D01*
X49371588Y-134285820D01*
X49231679Y-134358032D01*
X49225957Y-134363024D01*
X49225955Y-134363025D01*
X49118759Y-134456538D01*
X49118756Y-134456541D01*
X49113034Y-134461533D01*
X49108667Y-134467747D01*
X49062396Y-134533584D01*
X49022501Y-134590348D01*
X48965309Y-134737039D01*
X48964318Y-134744567D01*
X48945644Y-134886406D01*
X48916921Y-134951333D01*
X48857656Y-134990424D01*
X48816446Y-134993865D01*
X48816446Y-134995396D01*
X48808188Y-134995396D01*
X48800000Y-134994318D01*
X48791812Y-134995396D01*
X48768827Y-134998422D01*
X48752381Y-134999500D01*
X46084957Y-134999500D01*
X46040540Y-134991268D01*
X46034831Y-134988245D01*
X45986372Y-134976073D01*
X45889498Y-134951740D01*
X45889496Y-134951740D01*
X45882128Y-134949889D01*
X45874530Y-134949849D01*
X45874528Y-134949849D01*
X45807319Y-134949497D01*
X45724684Y-134949065D01*
X45717305Y-134950837D01*
X45717301Y-134950837D01*
X45578967Y-134984048D01*
X45578963Y-134984049D01*
X45571588Y-134985820D01*
X45431679Y-135058032D01*
X45425957Y-135063024D01*
X45425955Y-135063025D01*
X45318759Y-135156538D01*
X45318756Y-135156541D01*
X45313034Y-135161533D01*
X45222501Y-135290348D01*
X45165309Y-135437039D01*
X45163374Y-135451740D01*
X45148203Y-135566972D01*
X45144758Y-135593138D01*
X45162035Y-135749633D01*
X45216143Y-135897490D01*
X45303958Y-136028172D01*
X45420410Y-136134135D01*
X45427085Y-136137759D01*
X45552099Y-136205637D01*
X45552101Y-136205638D01*
X45558776Y-136209262D01*
X45566125Y-136211190D01*
X45703719Y-136247287D01*
X45703721Y-136247287D01*
X45711069Y-136249215D01*
X45794380Y-136250524D01*
X45860898Y-136251569D01*
X45860901Y-136251569D01*
X45868495Y-136251688D01*
X46021968Y-136216538D01*
X46028754Y-136213125D01*
X46035901Y-136210552D01*
X46036334Y-136211755D01*
X46083757Y-136200500D01*
X47339609Y-136200500D01*
X47407730Y-136220502D01*
X47454223Y-136274158D01*
X47464531Y-136342946D01*
X47445888Y-136484556D01*
X47444758Y-136493138D01*
X47462035Y-136649633D01*
X47516143Y-136797490D01*
X47520380Y-136803796D01*
X47520382Y-136803799D01*
X47558837Y-136861025D01*
X47603958Y-136928172D01*
X47720410Y-137034135D01*
X47780369Y-137066690D01*
X47852099Y-137105637D01*
X47852101Y-137105638D01*
X47858776Y-137109262D01*
X47866125Y-137111190D01*
X48003719Y-137147287D01*
X48003721Y-137147287D01*
X48011069Y-137149215D01*
X48094380Y-137150524D01*
X48160898Y-137151569D01*
X48160901Y-137151569D01*
X48168495Y-137151688D01*
X48321968Y-137116538D01*
X48462625Y-137045795D01*
X48554878Y-136967004D01*
X48576574Y-136948474D01*
X48576576Y-136948471D01*
X48582348Y-136943542D01*
X48674224Y-136815683D01*
X48732950Y-136669598D01*
X48734021Y-136662071D01*
X48735986Y-136654739D01*
X48738763Y-136655483D01*
X48762619Y-136603031D01*
X48822286Y-136564555D01*
X48893282Y-136564445D01*
X48947066Y-136596301D01*
X49641703Y-137290938D01*
X49652570Y-137303328D01*
X49671718Y-137328282D01*
X49678264Y-137333305D01*
X49697643Y-137348175D01*
X49768027Y-137402182D01*
X49797159Y-137424536D01*
X49875754Y-137457091D01*
X49931035Y-137501639D01*
X49953456Y-137569003D01*
X49935898Y-137637794D01*
X49883936Y-137686172D01*
X49827536Y-137699500D01*
X37037317Y-137699500D01*
X37015437Y-137697586D01*
X37010855Y-137696778D01*
X37000000Y-137694864D01*
X36989144Y-137696778D01*
X36978122Y-137696778D01*
X36978122Y-137696221D01*
X36965848Y-137696812D01*
X36822241Y-137685510D01*
X36802714Y-137682417D01*
X36638970Y-137643105D01*
X36620176Y-137636999D01*
X36464595Y-137572555D01*
X36446990Y-137563585D01*
X36303401Y-137475594D01*
X36287408Y-137463973D01*
X36159366Y-137354615D01*
X36145385Y-137340634D01*
X36036027Y-137212592D01*
X36024405Y-137196597D01*
X35996812Y-137151569D01*
X35936415Y-137053010D01*
X35927445Y-137035405D01*
X35863001Y-136879824D01*
X35856893Y-136861025D01*
X35846008Y-136815683D01*
X35817583Y-136697285D01*
X35814490Y-136677758D01*
X35812678Y-136654739D01*
X35803188Y-136534152D01*
X35803779Y-136521878D01*
X35803222Y-136521878D01*
X35803222Y-136510856D01*
X35805136Y-136500000D01*
X35803222Y-136489145D01*
X35803222Y-136489139D01*
X35802414Y-136484556D01*
X35800500Y-136462680D01*
X35800500Y-136252923D01*
X35820502Y-136184802D01*
X35874158Y-136138309D01*
X35944432Y-136128205D01*
X36009012Y-136157699D01*
X36029397Y-136180203D01*
X36121405Y-136310391D01*
X36125539Y-136314418D01*
X36210815Y-136397490D01*
X36272865Y-136457937D01*
X36277661Y-136461142D01*
X36277664Y-136461144D01*
X36386933Y-136534155D01*
X36448677Y-136575411D01*
X36453985Y-136577692D01*
X36453986Y-136577692D01*
X36637650Y-136656600D01*
X36637653Y-136656601D01*
X36642953Y-136658878D01*
X36648582Y-136660152D01*
X36648583Y-136660152D01*
X36843550Y-136704269D01*
X36843553Y-136704269D01*
X36849186Y-136705544D01*
X36854957Y-136705771D01*
X36854959Y-136705771D01*
X36916989Y-136708208D01*
X37060470Y-136713846D01*
X37066179Y-136713018D01*
X37066183Y-136713018D01*
X37264015Y-136684333D01*
X37264019Y-136684332D01*
X37269730Y-136683504D01*
X37348987Y-136656600D01*
X37464483Y-136617395D01*
X37464488Y-136617393D01*
X37469955Y-136615537D01*
X37492286Y-136603031D01*
X37649395Y-136515046D01*
X37649399Y-136515043D01*
X37654442Y-136512219D01*
X37817012Y-136377012D01*
X37952219Y-136214442D01*
X37955043Y-136209399D01*
X37955046Y-136209395D01*
X38020153Y-136093138D01*
X43344758Y-136093138D01*
X43362035Y-136249633D01*
X43416143Y-136397490D01*
X43420380Y-136403796D01*
X43420382Y-136403799D01*
X43454056Y-136453910D01*
X43503958Y-136528172D01*
X43620410Y-136634135D01*
X43641885Y-136645795D01*
X43752099Y-136705637D01*
X43752101Y-136705638D01*
X43758776Y-136709262D01*
X43766125Y-136711190D01*
X43903719Y-136747287D01*
X43903721Y-136747287D01*
X43911069Y-136749215D01*
X43994380Y-136750524D01*
X44060898Y-136751569D01*
X44060901Y-136751569D01*
X44068495Y-136751688D01*
X44221968Y-136716538D01*
X44362625Y-136645795D01*
X44420575Y-136596301D01*
X44476574Y-136548474D01*
X44476576Y-136548471D01*
X44482348Y-136543542D01*
X44574224Y-136415683D01*
X44632950Y-136269598D01*
X44645673Y-136180203D01*
X44654553Y-136117807D01*
X44654553Y-136117804D01*
X44655134Y-136113723D01*
X44655278Y-136100000D01*
X44636363Y-135943694D01*
X44593300Y-135829730D01*
X44583394Y-135803514D01*
X44583393Y-135803511D01*
X44580710Y-135796412D01*
X44491531Y-135666657D01*
X44435531Y-135616763D01*
X44379648Y-135566972D01*
X44379645Y-135566970D01*
X44373976Y-135561919D01*
X44234831Y-135488245D01*
X44218122Y-135484048D01*
X44089498Y-135451740D01*
X44089496Y-135451740D01*
X44082128Y-135449889D01*
X44074530Y-135449849D01*
X44074528Y-135449849D01*
X44007319Y-135449497D01*
X43924684Y-135449065D01*
X43917305Y-135450837D01*
X43917301Y-135450837D01*
X43778967Y-135484048D01*
X43778963Y-135484049D01*
X43771588Y-135485820D01*
X43631679Y-135558032D01*
X43625957Y-135563024D01*
X43625955Y-135563025D01*
X43518759Y-135656538D01*
X43518756Y-135656541D01*
X43513034Y-135661533D01*
X43508667Y-135667747D01*
X43446104Y-135756765D01*
X43422501Y-135790348D01*
X43365309Y-135937039D01*
X43344758Y-136093138D01*
X38020153Y-136093138D01*
X38052713Y-136034998D01*
X38052714Y-136034996D01*
X38055537Y-136029955D01*
X38057393Y-136024488D01*
X38057395Y-136024483D01*
X38121647Y-135835200D01*
X38123504Y-135829730D01*
X38127306Y-135803514D01*
X38153314Y-135624140D01*
X38153314Y-135624138D01*
X38153846Y-135620470D01*
X38155429Y-135560000D01*
X38136081Y-135349440D01*
X38078686Y-135145931D01*
X38067553Y-135123354D01*
X37987719Y-134961469D01*
X37985165Y-134956290D01*
X37858651Y-134786867D01*
X37703381Y-134643337D01*
X37524554Y-134530505D01*
X37328160Y-134452152D01*
X37322503Y-134451027D01*
X37322497Y-134451025D01*
X37125234Y-134411788D01*
X37062324Y-134378881D01*
X37027192Y-134317186D01*
X37030992Y-134246291D01*
X37072517Y-134188705D01*
X37131734Y-134163513D01*
X37264015Y-134144333D01*
X37264019Y-134144332D01*
X37269730Y-134143504D01*
X37348987Y-134116600D01*
X37464483Y-134077395D01*
X37464488Y-134077393D01*
X37469955Y-134075537D01*
X37474998Y-134072713D01*
X37649395Y-133975046D01*
X37649399Y-133975043D01*
X37654442Y-133972219D01*
X37817012Y-133837012D01*
X37952219Y-133674442D01*
X37955043Y-133669399D01*
X37955046Y-133669395D01*
X38052713Y-133494998D01*
X38052714Y-133494996D01*
X38055537Y-133489955D01*
X38057393Y-133484488D01*
X38057395Y-133484483D01*
X38121647Y-133295200D01*
X38123504Y-133289730D01*
X38153846Y-133080470D01*
X38155429Y-133020000D01*
X38136081Y-132809440D01*
X38078686Y-132605931D01*
X38067553Y-132583354D01*
X37987719Y-132421469D01*
X37985165Y-132416290D01*
X37858651Y-132246867D01*
X37750926Y-132147287D01*
X37707622Y-132107257D01*
X37707620Y-132107255D01*
X37703381Y-132103337D01*
X37674696Y-132085238D01*
X37529434Y-131993584D01*
X37529433Y-131993584D01*
X37524554Y-131990505D01*
X37328160Y-131912152D01*
X37322503Y-131911027D01*
X37322497Y-131911025D01*
X37125234Y-131871788D01*
X37062324Y-131838881D01*
X37027192Y-131777186D01*
X37030992Y-131706291D01*
X37072517Y-131648705D01*
X37131734Y-131623513D01*
X37264015Y-131604333D01*
X37264019Y-131604332D01*
X37269730Y-131603504D01*
X37348987Y-131576600D01*
X37464483Y-131537395D01*
X37464488Y-131537393D01*
X37469955Y-131535537D01*
X37474998Y-131532713D01*
X37649395Y-131435046D01*
X37649399Y-131435043D01*
X37654442Y-131432219D01*
X37817012Y-131297012D01*
X37952219Y-131134442D01*
X37955043Y-131129399D01*
X37955046Y-131129395D01*
X38052713Y-130954998D01*
X38052714Y-130954996D01*
X38055537Y-130949955D01*
X38057393Y-130944488D01*
X38057395Y-130944483D01*
X38121647Y-130755200D01*
X38123504Y-130749730D01*
X38124402Y-130743542D01*
X38153314Y-130544140D01*
X38153314Y-130544138D01*
X38153846Y-130540470D01*
X38155429Y-130480000D01*
X38136081Y-130269440D01*
X38129067Y-130244568D01*
X38102174Y-130149215D01*
X38078686Y-130065931D01*
X38070440Y-130049208D01*
X37993474Y-129893138D01*
X40344758Y-129893138D01*
X40362035Y-130049633D01*
X40416143Y-130197490D01*
X40420380Y-130203796D01*
X40420382Y-130203799D01*
X40437964Y-130229963D01*
X40503958Y-130328172D01*
X40620410Y-130434135D01*
X40659796Y-130455520D01*
X40752099Y-130505637D01*
X40752101Y-130505638D01*
X40758776Y-130509262D01*
X40766125Y-130511190D01*
X40903719Y-130547287D01*
X40903721Y-130547287D01*
X40911069Y-130549215D01*
X40994380Y-130550524D01*
X41060898Y-130551569D01*
X41060901Y-130551569D01*
X41068495Y-130551688D01*
X41221968Y-130516538D01*
X41362625Y-130445795D01*
X41415439Y-130400688D01*
X41476574Y-130348474D01*
X41476576Y-130348471D01*
X41482348Y-130343542D01*
X41518567Y-130293138D01*
X46744758Y-130293138D01*
X46762035Y-130449633D01*
X46816143Y-130597490D01*
X46820380Y-130603796D01*
X46820382Y-130603799D01*
X46854776Y-130654982D01*
X46903958Y-130728172D01*
X46960349Y-130779484D01*
X47006927Y-130821866D01*
X47020410Y-130834135D01*
X47027085Y-130837759D01*
X47152099Y-130905637D01*
X47152101Y-130905638D01*
X47158776Y-130909262D01*
X47166122Y-130911189D01*
X47166129Y-130911192D01*
X47204022Y-130921133D01*
X47264837Y-130957767D01*
X47296192Y-131021464D01*
X47288131Y-131092002D01*
X47275134Y-131115459D01*
X47232763Y-131175747D01*
X47222501Y-131190348D01*
X47165309Y-131337039D01*
X47144758Y-131493138D01*
X47162035Y-131649633D01*
X47216143Y-131797490D01*
X47220380Y-131803796D01*
X47220382Y-131803799D01*
X47243127Y-131837647D01*
X47303958Y-131928172D01*
X47326270Y-131948474D01*
X47413334Y-132027696D01*
X47420410Y-132034135D01*
X47427085Y-132037759D01*
X47552099Y-132105637D01*
X47552101Y-132105638D01*
X47558776Y-132109262D01*
X47566125Y-132111190D01*
X47703719Y-132147287D01*
X47703721Y-132147287D01*
X47711069Y-132149215D01*
X47794380Y-132150524D01*
X47860898Y-132151569D01*
X47860901Y-132151569D01*
X47868495Y-132151688D01*
X48021968Y-132116538D01*
X48162625Y-132045795D01*
X48193402Y-132019509D01*
X48276574Y-131948474D01*
X48276576Y-131948471D01*
X48282348Y-131943542D01*
X48374224Y-131815683D01*
X48432950Y-131669598D01*
X48451765Y-131537395D01*
X48454553Y-131517807D01*
X48454553Y-131517804D01*
X48455134Y-131513723D01*
X48455278Y-131500000D01*
X48436363Y-131343694D01*
X48420118Y-131300703D01*
X48383394Y-131203514D01*
X48383393Y-131203511D01*
X48380710Y-131196412D01*
X48291531Y-131066657D01*
X48227612Y-131009707D01*
X48179648Y-130966972D01*
X48179645Y-130966970D01*
X48173976Y-130961919D01*
X48149983Y-130949215D01*
X48074525Y-130909262D01*
X48034831Y-130888245D01*
X48027469Y-130886396D01*
X48027467Y-130886395D01*
X48000007Y-130879498D01*
X47997398Y-130878843D01*
X47936203Y-130842849D01*
X47904182Y-130779484D01*
X47911502Y-130708865D01*
X47925771Y-130683113D01*
X47969793Y-130621849D01*
X47974224Y-130615683D01*
X48032950Y-130469598D01*
X48051768Y-130337377D01*
X48054553Y-130317807D01*
X48054553Y-130317804D01*
X48055134Y-130313723D01*
X48055278Y-130300000D01*
X48036363Y-130143694D01*
X48005021Y-130060749D01*
X47983394Y-130003514D01*
X47983393Y-130003511D01*
X47980710Y-129996412D01*
X47891531Y-129866657D01*
X47813900Y-129797490D01*
X47779648Y-129766972D01*
X47779645Y-129766970D01*
X47773976Y-129761919D01*
X47751256Y-129749889D01*
X47678735Y-129711491D01*
X47634831Y-129688245D01*
X47625177Y-129685820D01*
X47489498Y-129651740D01*
X47489496Y-129651740D01*
X47482128Y-129649889D01*
X47474530Y-129649849D01*
X47474528Y-129649849D01*
X47407319Y-129649497D01*
X47324684Y-129649065D01*
X47317305Y-129650837D01*
X47317301Y-129650837D01*
X47178967Y-129684048D01*
X47178963Y-129684049D01*
X47171588Y-129685820D01*
X47164843Y-129689301D01*
X47164844Y-129689301D01*
X47043870Y-129751740D01*
X47031679Y-129758032D01*
X47025957Y-129763024D01*
X47025955Y-129763025D01*
X46918759Y-129856538D01*
X46918756Y-129856541D01*
X46913034Y-129861533D01*
X46890822Y-129893138D01*
X46834752Y-129972917D01*
X46822501Y-129990348D01*
X46765309Y-130137039D01*
X46763238Y-130152771D01*
X46751784Y-130239773D01*
X46744758Y-130293138D01*
X41518567Y-130293138D01*
X41574224Y-130215683D01*
X41632950Y-130069598D01*
X41647445Y-129967747D01*
X41654553Y-129917807D01*
X41654553Y-129917804D01*
X41655134Y-129913723D01*
X41655278Y-129900000D01*
X41652764Y-129879221D01*
X41650363Y-129859386D01*
X41636363Y-129743694D01*
X41605521Y-129662072D01*
X41583394Y-129603514D01*
X41583393Y-129603511D01*
X41580710Y-129596412D01*
X41509731Y-129493138D01*
X48244758Y-129493138D01*
X48262035Y-129649633D01*
X48316143Y-129797490D01*
X48320380Y-129803796D01*
X48320382Y-129803799D01*
X48348855Y-129846171D01*
X48403958Y-129928172D01*
X48520410Y-130034135D01*
X48541885Y-130045795D01*
X48652099Y-130105637D01*
X48652101Y-130105638D01*
X48658776Y-130109262D01*
X48666125Y-130111190D01*
X48803719Y-130147287D01*
X48803721Y-130147287D01*
X48811069Y-130149215D01*
X48894380Y-130150524D01*
X48960898Y-130151569D01*
X48960901Y-130151569D01*
X48968495Y-130151688D01*
X49121968Y-130116538D01*
X49262625Y-130045795D01*
X49327769Y-129990157D01*
X49376574Y-129948474D01*
X49376576Y-129948471D01*
X49382348Y-129943542D01*
X49474224Y-129815683D01*
X49532950Y-129669598D01*
X49548073Y-129563337D01*
X49554553Y-129517807D01*
X49554553Y-129517804D01*
X49555134Y-129513723D01*
X49555278Y-129500000D01*
X49536363Y-129343694D01*
X49501617Y-129251740D01*
X49483394Y-129203514D01*
X49483393Y-129203511D01*
X49480710Y-129196412D01*
X49391531Y-129066657D01*
X49344971Y-129025174D01*
X49279648Y-128966972D01*
X49279645Y-128966970D01*
X49273976Y-128961919D01*
X49134831Y-128888245D01*
X49118122Y-128884048D01*
X48989498Y-128851740D01*
X48989496Y-128851740D01*
X48982128Y-128849889D01*
X48974530Y-128849849D01*
X48974528Y-128849849D01*
X48907319Y-128849497D01*
X48824684Y-128849065D01*
X48817305Y-128850837D01*
X48817301Y-128850837D01*
X48678967Y-128884048D01*
X48678963Y-128884049D01*
X48671588Y-128885820D01*
X48664843Y-128889301D01*
X48664844Y-128889301D01*
X48571698Y-128937377D01*
X48531679Y-128958032D01*
X48525957Y-128963024D01*
X48525955Y-128963025D01*
X48418759Y-129056538D01*
X48418756Y-129056541D01*
X48413034Y-129061533D01*
X48408667Y-129067747D01*
X48339409Y-129166291D01*
X48322501Y-129190348D01*
X48265309Y-129337039D01*
X48261896Y-129362962D01*
X48248101Y-129467747D01*
X48244758Y-129493138D01*
X41509731Y-129493138D01*
X41491531Y-129466657D01*
X41444971Y-129425174D01*
X41379648Y-129366972D01*
X41379645Y-129366970D01*
X41373976Y-129361919D01*
X41234831Y-129288245D01*
X41218122Y-129284048D01*
X41089498Y-129251740D01*
X41089496Y-129251740D01*
X41082128Y-129249889D01*
X41074530Y-129249849D01*
X41074528Y-129249849D01*
X41007319Y-129249497D01*
X40924684Y-129249065D01*
X40917305Y-129250837D01*
X40917301Y-129250837D01*
X40778967Y-129284048D01*
X40778963Y-129284049D01*
X40771588Y-129285820D01*
X40746283Y-129298881D01*
X40659459Y-129343694D01*
X40631679Y-129358032D01*
X40625957Y-129363024D01*
X40625955Y-129363025D01*
X40518759Y-129456538D01*
X40518756Y-129456541D01*
X40513034Y-129461533D01*
X40490822Y-129493138D01*
X40438730Y-129567257D01*
X40422501Y-129590348D01*
X40365309Y-129737039D01*
X40361888Y-129763025D01*
X40348101Y-129867747D01*
X40344758Y-129893138D01*
X37993474Y-129893138D01*
X37987719Y-129881469D01*
X37985165Y-129876290D01*
X37914166Y-129781211D01*
X37862104Y-129711491D01*
X37862103Y-129711490D01*
X37858651Y-129706867D01*
X37739161Y-129596412D01*
X37707622Y-129567257D01*
X37707620Y-129567255D01*
X37703381Y-129563337D01*
X37604089Y-129500688D01*
X37529434Y-129453584D01*
X37529433Y-129453584D01*
X37524554Y-129450505D01*
X37328160Y-129372152D01*
X37322503Y-129371027D01*
X37322497Y-129371025D01*
X37125234Y-129331788D01*
X37062324Y-129298881D01*
X37027192Y-129237186D01*
X37030992Y-129166291D01*
X37072517Y-129108705D01*
X37131734Y-129083513D01*
X37264015Y-129064333D01*
X37264019Y-129064332D01*
X37269730Y-129063504D01*
X37356249Y-129034135D01*
X37464483Y-128997395D01*
X37464488Y-128997393D01*
X37469955Y-128995537D01*
X37474998Y-128992713D01*
X37649395Y-128895046D01*
X37649399Y-128895043D01*
X37654442Y-128892219D01*
X37817012Y-128757012D01*
X37952219Y-128594442D01*
X37955043Y-128589399D01*
X37955046Y-128589395D01*
X38008953Y-128493138D01*
X58444758Y-128493138D01*
X58462035Y-128649633D01*
X58516143Y-128797490D01*
X58520380Y-128803796D01*
X58520382Y-128803799D01*
X58540616Y-128833910D01*
X58603958Y-128928172D01*
X58720410Y-129034135D01*
X58731492Y-129040152D01*
X58852099Y-129105637D01*
X58852101Y-129105638D01*
X58858776Y-129109262D01*
X58866125Y-129111190D01*
X59003719Y-129147287D01*
X59003721Y-129147287D01*
X59011069Y-129149215D01*
X59094380Y-129150524D01*
X59160898Y-129151569D01*
X59160901Y-129151569D01*
X59168495Y-129151688D01*
X59321968Y-129116538D01*
X59462625Y-129045795D01*
X59554915Y-128966972D01*
X59576574Y-128948474D01*
X59576576Y-128948471D01*
X59582348Y-128943542D01*
X59674224Y-128815683D01*
X59732950Y-128669598D01*
X59746530Y-128574180D01*
X59754553Y-128517807D01*
X59754553Y-128517804D01*
X59755134Y-128513723D01*
X59755278Y-128500000D01*
X59736363Y-128343694D01*
X59727446Y-128320095D01*
X59683394Y-128203514D01*
X59683393Y-128203511D01*
X59680710Y-128196412D01*
X59591531Y-128066657D01*
X59513084Y-127996763D01*
X59479648Y-127966972D01*
X59479645Y-127966970D01*
X59473976Y-127961919D01*
X59334831Y-127888245D01*
X59318122Y-127884048D01*
X59189498Y-127851740D01*
X59189496Y-127851740D01*
X59182128Y-127849889D01*
X59174530Y-127849849D01*
X59174528Y-127849849D01*
X59107319Y-127849497D01*
X59024684Y-127849065D01*
X59017305Y-127850837D01*
X59017301Y-127850837D01*
X58878967Y-127884048D01*
X58878963Y-127884049D01*
X58871588Y-127885820D01*
X58814045Y-127915520D01*
X58766616Y-127940000D01*
X58731679Y-127958032D01*
X58725957Y-127963024D01*
X58725955Y-127963025D01*
X58618759Y-128056538D01*
X58618756Y-128056541D01*
X58613034Y-128061533D01*
X58522501Y-128190348D01*
X58465309Y-128337039D01*
X58444758Y-128493138D01*
X38008953Y-128493138D01*
X38052713Y-128414998D01*
X38052714Y-128414996D01*
X38055537Y-128409955D01*
X38057393Y-128404488D01*
X38057395Y-128404483D01*
X38121647Y-128215200D01*
X38123504Y-128209730D01*
X38124406Y-128203514D01*
X38153314Y-128004140D01*
X38153314Y-128004138D01*
X38153846Y-128000470D01*
X38155429Y-127940000D01*
X38136081Y-127729440D01*
X38078686Y-127525931D01*
X38067553Y-127503354D01*
X37987719Y-127341469D01*
X37985165Y-127336290D01*
X37858651Y-127166867D01*
X37703381Y-127023337D01*
X37524554Y-126910505D01*
X37328160Y-126832152D01*
X37322503Y-126831027D01*
X37322497Y-126831025D01*
X37125234Y-126791788D01*
X37062324Y-126758881D01*
X37027192Y-126697186D01*
X37030992Y-126626291D01*
X37072517Y-126568705D01*
X37131734Y-126543513D01*
X37264015Y-126524333D01*
X37264019Y-126524332D01*
X37269730Y-126523504D01*
X37359822Y-126492922D01*
X37464483Y-126457395D01*
X37464488Y-126457393D01*
X37469955Y-126455537D01*
X37502382Y-126437377D01*
X37649395Y-126355046D01*
X37649399Y-126355043D01*
X37654442Y-126352219D01*
X37817012Y-126217012D01*
X37952219Y-126054442D01*
X37955043Y-126049399D01*
X37955046Y-126049395D01*
X37986551Y-125993138D01*
X46944758Y-125993138D01*
X46962035Y-126149633D01*
X47016143Y-126297490D01*
X47020380Y-126303796D01*
X47020382Y-126303799D01*
X47054819Y-126355046D01*
X47103958Y-126428172D01*
X47126270Y-126448474D01*
X47206927Y-126521866D01*
X47220410Y-126534135D01*
X47251475Y-126551002D01*
X47352099Y-126605637D01*
X47352101Y-126605638D01*
X47358776Y-126609262D01*
X47366125Y-126611190D01*
X47503719Y-126647287D01*
X47503721Y-126647287D01*
X47511069Y-126649215D01*
X47594380Y-126650524D01*
X47660898Y-126651569D01*
X47660901Y-126651569D01*
X47668495Y-126651688D01*
X47821968Y-126616538D01*
X47962625Y-126545795D01*
X48020225Y-126496600D01*
X48076574Y-126448474D01*
X48076576Y-126448471D01*
X48082348Y-126443542D01*
X48174224Y-126315683D01*
X48176323Y-126317191D01*
X48217913Y-126275836D01*
X48287329Y-126260942D01*
X48353779Y-126285942D01*
X48396310Y-126343294D01*
X48416143Y-126397490D01*
X48420380Y-126403796D01*
X48420382Y-126403799D01*
X48440194Y-126433282D01*
X48503958Y-126528172D01*
X48547966Y-126568216D01*
X48611790Y-126626291D01*
X48620410Y-126634135D01*
X48680369Y-126666690D01*
X48752099Y-126705637D01*
X48752101Y-126705638D01*
X48758776Y-126709262D01*
X48766125Y-126711190D01*
X48903719Y-126747287D01*
X48903721Y-126747287D01*
X48911069Y-126749215D01*
X48994380Y-126750524D01*
X49060898Y-126751569D01*
X49060901Y-126751569D01*
X49068495Y-126751688D01*
X49221968Y-126716538D01*
X49362625Y-126645795D01*
X49409644Y-126605637D01*
X49476574Y-126548474D01*
X49476576Y-126548471D01*
X49482348Y-126543542D01*
X49574224Y-126415683D01*
X49632950Y-126269598D01*
X49649342Y-126154418D01*
X49654553Y-126117807D01*
X49654553Y-126117804D01*
X49655134Y-126113723D01*
X49655278Y-126100000D01*
X49636363Y-125943694D01*
X49610405Y-125874998D01*
X49583394Y-125803514D01*
X49583393Y-125803511D01*
X49580710Y-125796412D01*
X49491531Y-125666657D01*
X49444971Y-125625174D01*
X49379648Y-125566972D01*
X49379645Y-125566970D01*
X49373976Y-125561919D01*
X49234831Y-125488245D01*
X49150139Y-125466972D01*
X49089498Y-125451740D01*
X49089496Y-125451740D01*
X49082128Y-125449889D01*
X49074530Y-125449849D01*
X49074528Y-125449849D01*
X49007319Y-125449497D01*
X48924684Y-125449065D01*
X48917305Y-125450837D01*
X48917301Y-125450837D01*
X48778967Y-125484048D01*
X48778963Y-125484049D01*
X48771588Y-125485820D01*
X48764843Y-125489301D01*
X48764844Y-125489301D01*
X48671698Y-125537377D01*
X48631679Y-125558032D01*
X48625957Y-125563024D01*
X48625955Y-125563025D01*
X48518759Y-125656538D01*
X48518756Y-125656541D01*
X48513034Y-125661533D01*
X48425775Y-125785690D01*
X48425174Y-125786545D01*
X48369639Y-125830776D01*
X48299007Y-125837962D01*
X48235703Y-125805821D01*
X48204221Y-125758632D01*
X48183394Y-125703514D01*
X48183393Y-125703511D01*
X48180710Y-125696412D01*
X48091531Y-125566657D01*
X48041259Y-125521866D01*
X47979648Y-125466972D01*
X47979645Y-125466970D01*
X47973976Y-125461919D01*
X47951256Y-125449889D01*
X47886652Y-125415683D01*
X47834831Y-125388245D01*
X47761215Y-125369754D01*
X47689498Y-125351740D01*
X47689496Y-125351740D01*
X47682128Y-125349889D01*
X47674530Y-125349849D01*
X47674528Y-125349849D01*
X47607319Y-125349497D01*
X47524684Y-125349065D01*
X47517305Y-125350837D01*
X47517301Y-125350837D01*
X47378967Y-125384048D01*
X47378963Y-125384049D01*
X47371588Y-125385820D01*
X47336754Y-125403799D01*
X47243870Y-125451740D01*
X47231679Y-125458032D01*
X47225957Y-125463024D01*
X47225955Y-125463025D01*
X47118759Y-125556538D01*
X47118756Y-125556541D01*
X47113034Y-125561533D01*
X47108667Y-125567747D01*
X47034752Y-125672917D01*
X47022501Y-125690348D01*
X46965309Y-125837039D01*
X46960312Y-125874998D01*
X46946789Y-125977714D01*
X46944758Y-125993138D01*
X37986551Y-125993138D01*
X38052713Y-125874998D01*
X38052714Y-125874996D01*
X38055537Y-125869955D01*
X38057393Y-125864488D01*
X38057395Y-125864483D01*
X38104173Y-125726676D01*
X38123504Y-125669730D01*
X38126975Y-125645795D01*
X38153314Y-125464140D01*
X38153314Y-125464138D01*
X38153846Y-125460470D01*
X38155429Y-125400000D01*
X38136081Y-125189440D01*
X38108921Y-125093138D01*
X52944758Y-125093138D01*
X52962035Y-125249633D01*
X53016143Y-125397490D01*
X53020380Y-125403796D01*
X53020382Y-125403799D01*
X53049659Y-125447367D01*
X53103958Y-125528172D01*
X53220410Y-125634135D01*
X53227085Y-125637759D01*
X53352099Y-125705637D01*
X53352101Y-125705638D01*
X53358776Y-125709262D01*
X53366125Y-125711190D01*
X53503719Y-125747287D01*
X53503721Y-125747287D01*
X53511069Y-125749215D01*
X53594380Y-125750524D01*
X53660898Y-125751569D01*
X53660901Y-125751569D01*
X53668495Y-125751688D01*
X53821968Y-125716538D01*
X53962625Y-125645795D01*
X53988869Y-125623381D01*
X54076574Y-125548474D01*
X54076576Y-125548471D01*
X54082348Y-125543542D01*
X54174224Y-125415683D01*
X54190816Y-125374410D01*
X54234781Y-125318668D01*
X54301906Y-125295542D01*
X54370877Y-125312379D01*
X54385151Y-125322822D01*
X54385186Y-125322773D01*
X54391382Y-125327176D01*
X54396999Y-125332287D01*
X54403674Y-125335911D01*
X54528688Y-125403789D01*
X54528690Y-125403790D01*
X54535365Y-125407414D01*
X54542714Y-125409342D01*
X54680308Y-125445439D01*
X54680310Y-125445439D01*
X54687658Y-125447367D01*
X54770969Y-125448676D01*
X54837487Y-125449721D01*
X54837490Y-125449721D01*
X54845084Y-125449840D01*
X54998557Y-125414690D01*
X55139214Y-125343947D01*
X55195889Y-125295542D01*
X55253163Y-125246626D01*
X55253165Y-125246623D01*
X55258937Y-125241694D01*
X55350813Y-125113835D01*
X55359133Y-125093138D01*
X56744758Y-125093138D01*
X56762035Y-125249633D01*
X56816143Y-125397490D01*
X56820380Y-125403796D01*
X56820382Y-125403799D01*
X56849659Y-125447367D01*
X56903958Y-125528172D01*
X57020410Y-125634135D01*
X57027085Y-125637759D01*
X57152099Y-125705637D01*
X57152101Y-125705638D01*
X57158776Y-125709262D01*
X57166125Y-125711190D01*
X57303719Y-125747287D01*
X57303721Y-125747287D01*
X57311069Y-125749215D01*
X57394380Y-125750524D01*
X57460898Y-125751569D01*
X57460901Y-125751569D01*
X57468495Y-125751688D01*
X57621968Y-125716538D01*
X57762625Y-125645795D01*
X57788869Y-125623381D01*
X57876574Y-125548474D01*
X57876576Y-125548471D01*
X57882348Y-125543542D01*
X57974224Y-125415683D01*
X58032950Y-125269598D01*
X58055134Y-125113723D01*
X58055278Y-125100000D01*
X58036363Y-124943694D01*
X58031175Y-124929963D01*
X57983394Y-124803514D01*
X57983393Y-124803511D01*
X57980710Y-124796412D01*
X57891531Y-124666657D01*
X57831448Y-124613125D01*
X57779648Y-124566972D01*
X57779644Y-124566969D01*
X57773976Y-124561919D01*
X57634831Y-124488245D01*
X57618122Y-124484048D01*
X57489498Y-124451740D01*
X57489496Y-124451740D01*
X57482128Y-124449889D01*
X57474530Y-124449849D01*
X57474528Y-124449849D01*
X57407319Y-124449497D01*
X57324684Y-124449065D01*
X57317305Y-124450837D01*
X57317301Y-124450837D01*
X57178967Y-124484048D01*
X57178963Y-124484049D01*
X57171588Y-124485820D01*
X57031679Y-124558032D01*
X57025957Y-124563024D01*
X57025955Y-124563025D01*
X56918759Y-124656538D01*
X56918756Y-124656541D01*
X56913034Y-124661533D01*
X56908667Y-124667747D01*
X56839489Y-124766177D01*
X56822501Y-124790348D01*
X56765309Y-124937039D01*
X56744758Y-125093138D01*
X55359133Y-125093138D01*
X55409539Y-124967750D01*
X55416542Y-124918545D01*
X55431142Y-124815959D01*
X55431142Y-124815956D01*
X55431723Y-124811875D01*
X55431867Y-124798152D01*
X55412952Y-124641846D01*
X55400640Y-124609262D01*
X55359983Y-124501666D01*
X55359982Y-124501663D01*
X55357299Y-124494564D01*
X55268120Y-124364809D01*
X55192865Y-124297759D01*
X55156237Y-124265124D01*
X55156234Y-124265122D01*
X55150565Y-124260071D01*
X55134733Y-124251688D01*
X55071547Y-124218233D01*
X55011420Y-124186397D01*
X54977508Y-124177879D01*
X54866087Y-124149892D01*
X54866085Y-124149892D01*
X54858717Y-124148041D01*
X54851119Y-124148001D01*
X54851117Y-124148001D01*
X54783908Y-124147649D01*
X54701273Y-124147217D01*
X54693894Y-124148989D01*
X54693890Y-124148989D01*
X54555556Y-124182200D01*
X54555552Y-124182201D01*
X54548177Y-124183972D01*
X54541432Y-124187453D01*
X54541433Y-124187453D01*
X54417543Y-124251397D01*
X54408268Y-124256184D01*
X54402546Y-124261176D01*
X54402544Y-124261177D01*
X54295348Y-124354690D01*
X54295345Y-124354693D01*
X54289623Y-124359685D01*
X54250858Y-124414841D01*
X54205659Y-124479154D01*
X54199090Y-124488500D01*
X54196330Y-124495580D01*
X54185661Y-124522944D01*
X54142280Y-124579146D01*
X54075401Y-124602972D01*
X54006257Y-124586858D01*
X53984454Y-124571255D01*
X53973976Y-124561919D01*
X53834831Y-124488245D01*
X53818122Y-124484048D01*
X53689498Y-124451740D01*
X53689496Y-124451740D01*
X53682128Y-124449889D01*
X53674530Y-124449849D01*
X53674528Y-124449849D01*
X53607319Y-124449497D01*
X53524684Y-124449065D01*
X53517305Y-124450837D01*
X53517301Y-124450837D01*
X53378967Y-124484048D01*
X53378963Y-124484049D01*
X53371588Y-124485820D01*
X53231679Y-124558032D01*
X53225957Y-124563024D01*
X53225955Y-124563025D01*
X53118759Y-124656538D01*
X53118756Y-124656541D01*
X53113034Y-124661533D01*
X53108667Y-124667747D01*
X53039489Y-124766177D01*
X53022501Y-124790348D01*
X52965309Y-124937039D01*
X52944758Y-125093138D01*
X38108921Y-125093138D01*
X38078686Y-124985931D01*
X38069721Y-124967750D01*
X37987719Y-124801469D01*
X37985165Y-124796290D01*
X37858651Y-124626867D01*
X37723209Y-124501666D01*
X37707622Y-124487257D01*
X37707620Y-124487255D01*
X37703381Y-124483337D01*
X37649127Y-124449105D01*
X37529434Y-124373584D01*
X37529433Y-124373584D01*
X37524554Y-124370505D01*
X37328160Y-124292152D01*
X37322503Y-124291027D01*
X37322497Y-124291025D01*
X37129824Y-124252701D01*
X37125234Y-124251788D01*
X37062324Y-124218881D01*
X37027192Y-124157186D01*
X37030992Y-124086291D01*
X37072517Y-124028705D01*
X37131734Y-124003513D01*
X37203289Y-123993138D01*
X48244758Y-123993138D01*
X48262035Y-124149633D01*
X48316143Y-124297490D01*
X48320380Y-124303796D01*
X48320382Y-124303799D01*
X48354580Y-124354690D01*
X48403958Y-124428172D01*
X48426270Y-124448474D01*
X48478039Y-124495580D01*
X48520410Y-124534135D01*
X48580369Y-124566690D01*
X48652099Y-124605637D01*
X48652101Y-124605638D01*
X48658776Y-124609262D01*
X48666125Y-124611190D01*
X48803719Y-124647287D01*
X48803721Y-124647287D01*
X48811069Y-124649215D01*
X48894380Y-124650524D01*
X48960898Y-124651569D01*
X48960901Y-124651569D01*
X48968495Y-124651688D01*
X49121968Y-124616538D01*
X49262625Y-124545795D01*
X49289380Y-124522944D01*
X49376574Y-124448474D01*
X49376576Y-124448471D01*
X49382348Y-124443542D01*
X49474224Y-124315683D01*
X49481430Y-124297759D01*
X49498086Y-124256325D01*
X49532950Y-124169598D01*
X49551768Y-124037377D01*
X49554553Y-124017807D01*
X49554553Y-124017804D01*
X49555134Y-124013723D01*
X49555220Y-124005544D01*
X49555235Y-124004134D01*
X49555235Y-124004128D01*
X49555278Y-124000000D01*
X49536363Y-123843694D01*
X49503617Y-123757034D01*
X49483394Y-123703514D01*
X49483393Y-123703511D01*
X49480710Y-123696412D01*
X49409731Y-123593138D01*
X51344758Y-123593138D01*
X51362035Y-123749633D01*
X51416143Y-123897490D01*
X51420380Y-123903796D01*
X51420382Y-123903799D01*
X51453304Y-123952791D01*
X51503958Y-124028172D01*
X51620410Y-124134135D01*
X51671863Y-124162072D01*
X51752099Y-124205637D01*
X51752101Y-124205638D01*
X51758776Y-124209262D01*
X51766125Y-124211190D01*
X51903719Y-124247287D01*
X51903721Y-124247287D01*
X51911069Y-124249215D01*
X51994380Y-124250524D01*
X52060898Y-124251569D01*
X52060901Y-124251569D01*
X52068495Y-124251688D01*
X52221968Y-124216538D01*
X52362625Y-124145795D01*
X52407497Y-124107471D01*
X52476574Y-124048474D01*
X52476576Y-124048471D01*
X52482348Y-124043542D01*
X52574224Y-123915683D01*
X52632950Y-123769598D01*
X52645114Y-123684131D01*
X52654553Y-123617807D01*
X52654553Y-123617804D01*
X52655134Y-123613723D01*
X52655202Y-123607254D01*
X52655235Y-123604134D01*
X52655235Y-123604128D01*
X52655278Y-123600000D01*
X52636363Y-123443694D01*
X52601617Y-123351740D01*
X52583394Y-123303514D01*
X52583393Y-123303511D01*
X52580710Y-123296412D01*
X52491531Y-123166657D01*
X52443671Y-123124015D01*
X52379648Y-123066972D01*
X52379645Y-123066970D01*
X52373976Y-123061919D01*
X52234831Y-122988245D01*
X52218122Y-122984048D01*
X52089498Y-122951740D01*
X52089496Y-122951740D01*
X52082128Y-122949889D01*
X52074530Y-122949849D01*
X52074528Y-122949849D01*
X52007319Y-122949497D01*
X51924684Y-122949065D01*
X51917305Y-122950837D01*
X51917301Y-122950837D01*
X51778967Y-122984048D01*
X51778963Y-122984049D01*
X51771588Y-122985820D01*
X51764843Y-122989301D01*
X51764844Y-122989301D01*
X51671698Y-123037377D01*
X51631679Y-123058032D01*
X51625957Y-123063024D01*
X51625955Y-123063025D01*
X51518759Y-123156538D01*
X51518756Y-123156541D01*
X51513034Y-123161533D01*
X51422501Y-123290348D01*
X51365309Y-123437039D01*
X51361888Y-123463025D01*
X51348101Y-123567747D01*
X51344758Y-123593138D01*
X49409731Y-123593138D01*
X49391531Y-123566657D01*
X49327262Y-123509395D01*
X49279648Y-123466972D01*
X49279645Y-123466970D01*
X49273976Y-123461919D01*
X49134831Y-123388245D01*
X49095493Y-123378364D01*
X48989498Y-123351740D01*
X48989496Y-123351740D01*
X48982128Y-123349889D01*
X48974530Y-123349849D01*
X48974528Y-123349849D01*
X48907319Y-123349497D01*
X48824684Y-123349065D01*
X48817305Y-123350837D01*
X48817301Y-123350837D01*
X48678967Y-123384048D01*
X48678963Y-123384049D01*
X48671588Y-123385820D01*
X48589468Y-123428205D01*
X48559459Y-123443694D01*
X48531679Y-123458032D01*
X48525957Y-123463024D01*
X48525955Y-123463025D01*
X48418759Y-123556538D01*
X48418756Y-123556541D01*
X48413034Y-123561533D01*
X48390822Y-123593138D01*
X48329280Y-123680703D01*
X48322501Y-123690348D01*
X48265309Y-123837039D01*
X48264318Y-123844568D01*
X48246271Y-123981647D01*
X48244758Y-123993138D01*
X37203289Y-123993138D01*
X37264015Y-123984333D01*
X37264019Y-123984332D01*
X37269730Y-123983504D01*
X37360208Y-123952791D01*
X37464483Y-123917395D01*
X37464488Y-123917393D01*
X37469955Y-123915537D01*
X37474998Y-123912713D01*
X37649395Y-123815046D01*
X37649399Y-123815043D01*
X37654442Y-123812219D01*
X37817012Y-123677012D01*
X37952219Y-123514442D01*
X37955043Y-123509399D01*
X37955046Y-123509395D01*
X38052713Y-123334998D01*
X38052714Y-123334996D01*
X38055537Y-123329955D01*
X38057393Y-123324488D01*
X38057395Y-123324483D01*
X38119726Y-123140860D01*
X38123504Y-123129730D01*
X38133337Y-123061919D01*
X38153314Y-122924140D01*
X38153314Y-122924138D01*
X38153846Y-122920470D01*
X38155429Y-122860000D01*
X38136081Y-122649440D01*
X38124845Y-122609598D01*
X38120203Y-122593138D01*
X41944758Y-122593138D01*
X41962035Y-122749633D01*
X42016143Y-122897490D01*
X42020380Y-122903796D01*
X42020382Y-122903799D01*
X42034051Y-122924140D01*
X42103958Y-123028172D01*
X42220410Y-123134135D01*
X42227085Y-123137759D01*
X42352099Y-123205637D01*
X42352101Y-123205638D01*
X42358776Y-123209262D01*
X42366125Y-123211190D01*
X42503719Y-123247287D01*
X42503721Y-123247287D01*
X42511069Y-123249215D01*
X42594380Y-123250524D01*
X42660898Y-123251569D01*
X42660901Y-123251569D01*
X42668495Y-123251688D01*
X42821968Y-123216538D01*
X42962625Y-123145795D01*
X43054915Y-123066972D01*
X43076574Y-123048474D01*
X43076576Y-123048471D01*
X43082348Y-123043542D01*
X43174224Y-122915683D01*
X43232950Y-122769598D01*
X43239953Y-122720393D01*
X43254553Y-122617807D01*
X43254553Y-122617804D01*
X43255134Y-122613723D01*
X43255278Y-122600000D01*
X43254448Y-122593138D01*
X45744758Y-122593138D01*
X45762035Y-122749633D01*
X45816143Y-122897490D01*
X45820380Y-122903796D01*
X45820382Y-122903799D01*
X45834051Y-122924140D01*
X45903958Y-123028172D01*
X46020410Y-123134135D01*
X46027085Y-123137759D01*
X46152099Y-123205637D01*
X46152101Y-123205638D01*
X46158776Y-123209262D01*
X46166125Y-123211190D01*
X46303719Y-123247287D01*
X46303721Y-123247287D01*
X46311069Y-123249215D01*
X46394380Y-123250524D01*
X46460898Y-123251569D01*
X46460901Y-123251569D01*
X46468495Y-123251688D01*
X46621968Y-123216538D01*
X46762625Y-123145795D01*
X46854915Y-123066972D01*
X46876574Y-123048474D01*
X46876576Y-123048471D01*
X46882348Y-123043542D01*
X46974224Y-122915683D01*
X47032950Y-122769598D01*
X47039953Y-122720393D01*
X47054553Y-122617807D01*
X47054553Y-122617804D01*
X47055134Y-122613723D01*
X47055278Y-122600000D01*
X47036363Y-122443694D01*
X46980710Y-122296412D01*
X46891531Y-122166657D01*
X46797582Y-122082951D01*
X46779648Y-122066972D01*
X46779645Y-122066970D01*
X46773976Y-122061919D01*
X46634831Y-121988245D01*
X46618122Y-121984048D01*
X46489498Y-121951740D01*
X46489496Y-121951740D01*
X46482128Y-121949889D01*
X46474530Y-121949849D01*
X46474528Y-121949849D01*
X46407319Y-121949497D01*
X46324684Y-121949065D01*
X46317305Y-121950837D01*
X46317301Y-121950837D01*
X46178967Y-121984048D01*
X46178963Y-121984049D01*
X46171588Y-121985820D01*
X46031679Y-122058032D01*
X46025957Y-122063024D01*
X46025955Y-122063025D01*
X45918759Y-122156538D01*
X45918756Y-122156541D01*
X45913034Y-122161533D01*
X45908667Y-122167747D01*
X45832534Y-122276073D01*
X45822501Y-122290348D01*
X45765309Y-122437039D01*
X45744758Y-122593138D01*
X43254448Y-122593138D01*
X43236363Y-122443694D01*
X43180710Y-122296412D01*
X43091531Y-122166657D01*
X42997582Y-122082951D01*
X42979648Y-122066972D01*
X42979645Y-122066970D01*
X42973976Y-122061919D01*
X42834831Y-121988245D01*
X42818122Y-121984048D01*
X42689498Y-121951740D01*
X42689496Y-121951740D01*
X42682128Y-121949889D01*
X42674530Y-121949849D01*
X42674528Y-121949849D01*
X42607319Y-121949497D01*
X42524684Y-121949065D01*
X42517305Y-121950837D01*
X42517301Y-121950837D01*
X42378967Y-121984048D01*
X42378963Y-121984049D01*
X42371588Y-121985820D01*
X42231679Y-122058032D01*
X42225957Y-122063024D01*
X42225955Y-122063025D01*
X42118759Y-122156538D01*
X42118756Y-122156541D01*
X42113034Y-122161533D01*
X42108667Y-122167747D01*
X42032534Y-122276073D01*
X42022501Y-122290348D01*
X41965309Y-122437039D01*
X41944758Y-122593138D01*
X38120203Y-122593138D01*
X38080255Y-122451496D01*
X38078686Y-122445931D01*
X38070812Y-122429963D01*
X37987719Y-122261469D01*
X37985165Y-122256290D01*
X37858651Y-122086867D01*
X37747422Y-121984048D01*
X37707622Y-121947257D01*
X37707620Y-121947255D01*
X37703381Y-121943337D01*
X37524554Y-121830505D01*
X37328160Y-121752152D01*
X37322503Y-121751027D01*
X37322497Y-121751025D01*
X37125234Y-121711788D01*
X37062324Y-121678881D01*
X37027192Y-121617186D01*
X37030992Y-121546291D01*
X37072517Y-121488705D01*
X37131734Y-121463513D01*
X37264015Y-121444333D01*
X37264019Y-121444332D01*
X37269730Y-121443504D01*
X37348987Y-121416600D01*
X37464483Y-121377395D01*
X37464488Y-121377393D01*
X37469955Y-121375537D01*
X37474998Y-121372713D01*
X37649395Y-121275046D01*
X37649399Y-121275043D01*
X37654442Y-121272219D01*
X37817012Y-121137012D01*
X37853501Y-121093138D01*
X40344758Y-121093138D01*
X40362035Y-121249633D01*
X40416143Y-121397490D01*
X40420380Y-121403796D01*
X40420382Y-121403799D01*
X40445815Y-121441647D01*
X40503958Y-121528172D01*
X40620410Y-121634135D01*
X40627085Y-121637759D01*
X40752099Y-121705637D01*
X40752101Y-121705638D01*
X40758776Y-121709262D01*
X40766125Y-121711190D01*
X40903719Y-121747287D01*
X40903721Y-121747287D01*
X40911069Y-121749215D01*
X40994380Y-121750524D01*
X41060898Y-121751569D01*
X41060901Y-121751569D01*
X41068495Y-121751688D01*
X41221968Y-121716538D01*
X41362625Y-121645795D01*
X41399529Y-121614276D01*
X41476574Y-121548474D01*
X41476576Y-121548471D01*
X41482348Y-121543542D01*
X41574224Y-121415683D01*
X41632950Y-121269598D01*
X41655134Y-121113723D01*
X41655278Y-121100000D01*
X41654448Y-121093138D01*
X47344758Y-121093138D01*
X47362035Y-121249633D01*
X47416143Y-121397490D01*
X47420380Y-121403796D01*
X47420382Y-121403799D01*
X47445815Y-121441647D01*
X47503958Y-121528172D01*
X47620410Y-121634135D01*
X47627085Y-121637759D01*
X47752099Y-121705637D01*
X47752101Y-121705638D01*
X47758776Y-121709262D01*
X47766125Y-121711190D01*
X47903719Y-121747287D01*
X47903721Y-121747287D01*
X47911069Y-121749215D01*
X47994380Y-121750524D01*
X48060898Y-121751569D01*
X48060901Y-121751569D01*
X48068495Y-121751688D01*
X48221968Y-121716538D01*
X48362625Y-121645795D01*
X48399529Y-121614276D01*
X48476574Y-121548474D01*
X48476576Y-121548471D01*
X48482348Y-121543542D01*
X48574224Y-121415683D01*
X48632950Y-121269598D01*
X48655134Y-121113723D01*
X48655278Y-121100000D01*
X48636363Y-120943694D01*
X48580710Y-120796412D01*
X48491531Y-120666657D01*
X48411330Y-120595200D01*
X48379648Y-120566972D01*
X48379645Y-120566970D01*
X48373976Y-120561919D01*
X48234831Y-120488245D01*
X48218122Y-120484048D01*
X48089498Y-120451740D01*
X48089496Y-120451740D01*
X48082128Y-120449889D01*
X48074530Y-120449849D01*
X48074528Y-120449849D01*
X48007319Y-120449497D01*
X47924684Y-120449065D01*
X47917305Y-120450837D01*
X47917301Y-120450837D01*
X47778967Y-120484048D01*
X47778963Y-120484049D01*
X47771588Y-120485820D01*
X47631679Y-120558032D01*
X47625957Y-120563024D01*
X47625955Y-120563025D01*
X47518759Y-120656538D01*
X47518756Y-120656541D01*
X47513034Y-120661533D01*
X47422501Y-120790348D01*
X47365309Y-120937039D01*
X47364318Y-120944568D01*
X47347223Y-121074418D01*
X47344758Y-121093138D01*
X41654448Y-121093138D01*
X41636363Y-120943694D01*
X41580710Y-120796412D01*
X41491531Y-120666657D01*
X41411330Y-120595200D01*
X41379648Y-120566972D01*
X41379645Y-120566970D01*
X41373976Y-120561919D01*
X41234831Y-120488245D01*
X41218122Y-120484048D01*
X41089498Y-120451740D01*
X41089496Y-120451740D01*
X41082128Y-120449889D01*
X41074530Y-120449849D01*
X41074528Y-120449849D01*
X41007319Y-120449497D01*
X40924684Y-120449065D01*
X40917305Y-120450837D01*
X40917301Y-120450837D01*
X40778967Y-120484048D01*
X40778963Y-120484049D01*
X40771588Y-120485820D01*
X40631679Y-120558032D01*
X40625957Y-120563024D01*
X40625955Y-120563025D01*
X40518759Y-120656538D01*
X40518756Y-120656541D01*
X40513034Y-120661533D01*
X40422501Y-120790348D01*
X40365309Y-120937039D01*
X40364318Y-120944568D01*
X40347223Y-121074418D01*
X40344758Y-121093138D01*
X37853501Y-121093138D01*
X37952219Y-120974442D01*
X37955043Y-120969399D01*
X37955046Y-120969395D01*
X38052713Y-120794998D01*
X38052714Y-120794996D01*
X38055537Y-120789955D01*
X38057393Y-120784488D01*
X38057395Y-120784483D01*
X38121647Y-120595200D01*
X38123504Y-120589730D01*
X38143781Y-120449889D01*
X38153314Y-120384140D01*
X38153314Y-120384138D01*
X38153846Y-120380470D01*
X38155429Y-120320000D01*
X38136081Y-120109440D01*
X38078686Y-119905931D01*
X38021690Y-119790354D01*
X37987719Y-119721469D01*
X37985165Y-119716290D01*
X37858651Y-119546867D01*
X37758286Y-119454090D01*
X37707622Y-119407257D01*
X37707620Y-119407255D01*
X37703381Y-119403337D01*
X37524554Y-119290505D01*
X37500643Y-119280966D01*
X37444785Y-119237147D01*
X37421483Y-119170083D01*
X37438138Y-119101068D01*
X37489461Y-119052013D01*
X37501348Y-119046627D01*
X37501842Y-119046433D01*
X37693095Y-118952739D01*
X37701945Y-118947464D01*
X37875328Y-118823792D01*
X37883200Y-118817139D01*
X38034052Y-118666812D01*
X38040730Y-118658965D01*
X38088031Y-118593138D01*
X51844758Y-118593138D01*
X51862035Y-118749633D01*
X51916143Y-118897490D01*
X51920380Y-118903796D01*
X51920382Y-118903799D01*
X51950558Y-118948705D01*
X52003958Y-119028172D01*
X52120410Y-119134135D01*
X52127085Y-119137759D01*
X52252099Y-119205637D01*
X52252101Y-119205638D01*
X52258776Y-119209262D01*
X52266125Y-119211190D01*
X52403719Y-119247287D01*
X52403721Y-119247287D01*
X52411069Y-119249215D01*
X52494380Y-119250524D01*
X52560898Y-119251569D01*
X52560901Y-119251569D01*
X52568495Y-119251688D01*
X52721968Y-119216538D01*
X52862625Y-119145795D01*
X52955284Y-119066657D01*
X52976574Y-119048474D01*
X52976576Y-119048471D01*
X52982348Y-119043542D01*
X53074224Y-118915683D01*
X53079867Y-118901647D01*
X53105696Y-118837395D01*
X53132950Y-118769598D01*
X53146568Y-118673910D01*
X53154553Y-118617807D01*
X53154553Y-118617804D01*
X53155134Y-118613723D01*
X53155278Y-118600000D01*
X53151926Y-118572296D01*
X53138348Y-118460098D01*
X53150021Y-118390068D01*
X53197702Y-118337466D01*
X53266254Y-118318993D01*
X53333910Y-118340513D01*
X53368016Y-118374685D01*
X53403958Y-118428172D01*
X53520410Y-118534135D01*
X53527085Y-118537759D01*
X53652099Y-118605637D01*
X53652101Y-118605638D01*
X53658776Y-118609262D01*
X53666125Y-118611190D01*
X53803719Y-118647287D01*
X53803721Y-118647287D01*
X53811069Y-118649215D01*
X53894380Y-118650524D01*
X53960898Y-118651569D01*
X53960901Y-118651569D01*
X53968495Y-118651688D01*
X54121968Y-118616538D01*
X54262625Y-118545795D01*
X54332613Y-118486020D01*
X54376574Y-118448474D01*
X54376576Y-118448471D01*
X54382348Y-118443542D01*
X54474224Y-118315683D01*
X54532950Y-118169598D01*
X54547556Y-118066972D01*
X54554553Y-118017807D01*
X54554553Y-118017804D01*
X54555134Y-118013723D01*
X54555278Y-118000000D01*
X54553856Y-117988245D01*
X54537275Y-117851234D01*
X54536363Y-117843694D01*
X54499370Y-117745795D01*
X54483394Y-117703514D01*
X54483393Y-117703511D01*
X54480710Y-117696412D01*
X54391531Y-117566657D01*
X54334319Y-117515683D01*
X54279648Y-117466972D01*
X54279645Y-117466970D01*
X54273976Y-117461919D01*
X54254429Y-117451569D01*
X54210239Y-117428172D01*
X54134831Y-117388245D01*
X54060594Y-117369598D01*
X53989498Y-117351740D01*
X53989496Y-117351740D01*
X53982128Y-117349889D01*
X53974530Y-117349849D01*
X53974528Y-117349849D01*
X53907319Y-117349497D01*
X53824684Y-117349065D01*
X53817305Y-117350837D01*
X53817301Y-117350837D01*
X53678967Y-117384048D01*
X53678963Y-117384049D01*
X53671588Y-117385820D01*
X53664843Y-117389301D01*
X53664844Y-117389301D01*
X53571698Y-117437377D01*
X53531679Y-117458032D01*
X53525957Y-117463024D01*
X53525955Y-117463025D01*
X53418759Y-117556538D01*
X53418756Y-117556541D01*
X53413034Y-117561533D01*
X53408667Y-117567747D01*
X53349453Y-117652000D01*
X53322501Y-117690348D01*
X53265309Y-117837039D01*
X53258508Y-117888700D01*
X53245955Y-117984048D01*
X53244758Y-117993138D01*
X53252453Y-118062837D01*
X53260996Y-118140225D01*
X53248590Y-118210129D01*
X53200360Y-118262229D01*
X53131619Y-118279983D01*
X53064192Y-118257755D01*
X53031917Y-118225418D01*
X52995836Y-118172920D01*
X52995834Y-118172917D01*
X52991531Y-118166657D01*
X52944971Y-118125174D01*
X52879648Y-118066972D01*
X52879645Y-118066970D01*
X52873976Y-118061919D01*
X52734831Y-117988245D01*
X52623744Y-117960342D01*
X52589498Y-117951740D01*
X52589496Y-117951740D01*
X52582128Y-117949889D01*
X52574530Y-117949849D01*
X52574528Y-117949849D01*
X52507319Y-117949497D01*
X52424684Y-117949065D01*
X52417305Y-117950837D01*
X52417301Y-117950837D01*
X52278967Y-117984048D01*
X52278963Y-117984049D01*
X52271588Y-117985820D01*
X52131679Y-118058032D01*
X52125957Y-118063024D01*
X52125955Y-118063025D01*
X52018759Y-118156538D01*
X52018756Y-118156541D01*
X52013034Y-118161533D01*
X52008667Y-118167747D01*
X51929786Y-118279983D01*
X51922501Y-118290348D01*
X51865309Y-118437039D01*
X51864318Y-118444568D01*
X51850542Y-118549208D01*
X51844758Y-118593138D01*
X38088031Y-118593138D01*
X38165003Y-118486020D01*
X38170313Y-118477183D01*
X38264670Y-118286267D01*
X38268469Y-118276672D01*
X38330377Y-118072910D01*
X38332555Y-118062837D01*
X38333986Y-118051962D01*
X38331775Y-118037778D01*
X38318617Y-118034000D01*
X36872000Y-118034000D01*
X36803879Y-118013998D01*
X36757386Y-117960342D01*
X36746000Y-117908000D01*
X36746000Y-117652000D01*
X36766002Y-117583879D01*
X36819658Y-117537386D01*
X36872000Y-117526000D01*
X38318344Y-117526000D01*
X38331875Y-117522027D01*
X38333180Y-117512947D01*
X38291214Y-117345875D01*
X38287894Y-117336124D01*
X38225723Y-117193138D01*
X41644758Y-117193138D01*
X41662035Y-117349633D01*
X41716143Y-117497490D01*
X41720380Y-117503796D01*
X41720382Y-117503799D01*
X41748603Y-117545795D01*
X41803958Y-117628172D01*
X41920410Y-117734135D01*
X41927085Y-117737759D01*
X42052099Y-117805637D01*
X42052101Y-117805638D01*
X42058776Y-117809262D01*
X42066125Y-117811190D01*
X42203719Y-117847287D01*
X42203721Y-117847287D01*
X42211069Y-117849215D01*
X42294380Y-117850524D01*
X42360898Y-117851569D01*
X42360901Y-117851569D01*
X42368495Y-117851688D01*
X42521968Y-117816538D01*
X42662625Y-117745795D01*
X42727769Y-117690157D01*
X42776574Y-117648474D01*
X42776576Y-117648471D01*
X42782348Y-117643542D01*
X42874224Y-117515683D01*
X42932950Y-117369598D01*
X42951768Y-117237377D01*
X42954553Y-117217807D01*
X42954553Y-117217804D01*
X42955134Y-117213723D01*
X42955278Y-117200000D01*
X42952764Y-117179221D01*
X42948116Y-117140814D01*
X42936363Y-117043694D01*
X42920968Y-117002951D01*
X42917260Y-116993138D01*
X48444758Y-116993138D01*
X48462035Y-117149633D01*
X48516143Y-117297490D01*
X48520380Y-117303796D01*
X48520382Y-117303799D01*
X48546109Y-117342084D01*
X48603958Y-117428172D01*
X48720410Y-117534135D01*
X48727085Y-117537759D01*
X48852099Y-117605637D01*
X48852101Y-117605638D01*
X48858776Y-117609262D01*
X48866125Y-117611190D01*
X49003719Y-117647287D01*
X49003721Y-117647287D01*
X49011069Y-117649215D01*
X49094380Y-117650524D01*
X49160898Y-117651569D01*
X49160901Y-117651569D01*
X49168495Y-117651688D01*
X49321968Y-117616538D01*
X49462625Y-117545795D01*
X49554915Y-117466972D01*
X49576574Y-117448474D01*
X49576576Y-117448471D01*
X49582348Y-117443542D01*
X49674224Y-117315683D01*
X49679055Y-117303667D01*
X49717225Y-117208715D01*
X49732950Y-117169598D01*
X49745133Y-117083997D01*
X49754553Y-117017807D01*
X49754553Y-117017804D01*
X49755134Y-117013723D01*
X49755278Y-117000000D01*
X49736363Y-116843694D01*
X49721415Y-116804134D01*
X49717260Y-116793138D01*
X54344758Y-116793138D01*
X54362035Y-116949633D01*
X54416143Y-117097490D01*
X54420380Y-117103796D01*
X54420382Y-117103799D01*
X54446109Y-117142084D01*
X54503958Y-117228172D01*
X54620410Y-117334135D01*
X54649425Y-117349889D01*
X54752099Y-117405637D01*
X54752101Y-117405638D01*
X54758776Y-117409262D01*
X54766125Y-117411190D01*
X54903719Y-117447287D01*
X54903721Y-117447287D01*
X54911069Y-117449215D01*
X54994380Y-117450524D01*
X55060898Y-117451569D01*
X55060901Y-117451569D01*
X55068495Y-117451688D01*
X55221968Y-117416538D01*
X55362625Y-117345795D01*
X55427538Y-117290354D01*
X55476574Y-117248474D01*
X55476576Y-117248471D01*
X55482348Y-117243542D01*
X55574224Y-117115683D01*
X55603164Y-117043694D01*
X55632950Y-116969598D01*
X55635053Y-116970443D01*
X55666155Y-116919407D01*
X55730013Y-116888380D01*
X55800508Y-116896803D01*
X55855259Y-116942002D01*
X55869244Y-116969333D01*
X55874347Y-116983277D01*
X55916143Y-117097490D01*
X55920380Y-117103796D01*
X55920382Y-117103799D01*
X55946109Y-117142084D01*
X56003958Y-117228172D01*
X56120410Y-117334135D01*
X56149425Y-117349889D01*
X56252099Y-117405637D01*
X56252101Y-117405638D01*
X56258776Y-117409262D01*
X56266125Y-117411190D01*
X56403719Y-117447287D01*
X56403721Y-117447287D01*
X56411069Y-117449215D01*
X56494380Y-117450524D01*
X56560898Y-117451569D01*
X56560901Y-117451569D01*
X56568495Y-117451688D01*
X56721968Y-117416538D01*
X56862625Y-117345795D01*
X56927538Y-117290354D01*
X56976574Y-117248474D01*
X56976576Y-117248471D01*
X56982348Y-117243542D01*
X57074224Y-117115683D01*
X57132950Y-116969598D01*
X57148073Y-116863337D01*
X57154553Y-116817807D01*
X57154553Y-116817804D01*
X57155134Y-116813723D01*
X57155278Y-116800000D01*
X57136363Y-116643694D01*
X57101552Y-116551569D01*
X57083394Y-116503514D01*
X57083393Y-116503511D01*
X57080710Y-116496412D01*
X56991531Y-116366657D01*
X56941259Y-116321866D01*
X56879648Y-116266972D01*
X56879645Y-116266970D01*
X56873976Y-116261919D01*
X56734831Y-116188245D01*
X56718122Y-116184048D01*
X56589498Y-116151740D01*
X56589496Y-116151740D01*
X56582128Y-116149889D01*
X56574530Y-116149849D01*
X56574528Y-116149849D01*
X56507319Y-116149497D01*
X56424684Y-116149065D01*
X56417305Y-116150837D01*
X56417301Y-116150837D01*
X56278967Y-116184048D01*
X56278963Y-116184049D01*
X56271588Y-116185820D01*
X56131679Y-116258032D01*
X56125957Y-116263024D01*
X56125955Y-116263025D01*
X56018759Y-116356538D01*
X56018756Y-116356541D01*
X56013034Y-116361533D01*
X55993549Y-116389257D01*
X55932917Y-116475528D01*
X55922501Y-116490348D01*
X55867001Y-116632699D01*
X55823622Y-116688900D01*
X55756743Y-116712727D01*
X55687599Y-116696614D01*
X55638143Y-116645677D01*
X55631743Y-116631467D01*
X55583394Y-116503514D01*
X55583393Y-116503511D01*
X55580710Y-116496412D01*
X55491531Y-116366657D01*
X55441259Y-116321866D01*
X55379648Y-116266972D01*
X55379645Y-116266970D01*
X55373976Y-116261919D01*
X55234831Y-116188245D01*
X55218122Y-116184048D01*
X55089498Y-116151740D01*
X55089496Y-116151740D01*
X55082128Y-116149889D01*
X55074530Y-116149849D01*
X55074528Y-116149849D01*
X55007319Y-116149497D01*
X54924684Y-116149065D01*
X54917305Y-116150837D01*
X54917301Y-116150837D01*
X54778967Y-116184048D01*
X54778963Y-116184049D01*
X54771588Y-116185820D01*
X54631679Y-116258032D01*
X54625957Y-116263024D01*
X54625955Y-116263025D01*
X54518759Y-116356538D01*
X54518756Y-116356541D01*
X54513034Y-116361533D01*
X54493549Y-116389257D01*
X54432917Y-116475528D01*
X54422501Y-116490348D01*
X54365309Y-116637039D01*
X54361896Y-116662962D01*
X54348101Y-116767747D01*
X54344758Y-116793138D01*
X49717260Y-116793138D01*
X49683394Y-116703514D01*
X49683393Y-116703511D01*
X49680710Y-116696412D01*
X49591531Y-116566657D01*
X49531448Y-116513125D01*
X49479648Y-116466972D01*
X49479645Y-116466970D01*
X49473976Y-116461919D01*
X49334831Y-116388245D01*
X49315992Y-116383513D01*
X49189498Y-116351740D01*
X49189496Y-116351740D01*
X49182128Y-116349889D01*
X49174530Y-116349849D01*
X49174528Y-116349849D01*
X49107319Y-116349497D01*
X49024684Y-116349065D01*
X49017305Y-116350837D01*
X49017301Y-116350837D01*
X48878967Y-116384048D01*
X48878963Y-116384049D01*
X48871588Y-116385820D01*
X48731679Y-116458032D01*
X48725957Y-116463024D01*
X48725955Y-116463025D01*
X48618759Y-116556538D01*
X48618756Y-116556541D01*
X48613034Y-116561533D01*
X48522501Y-116690348D01*
X48465309Y-116837039D01*
X48461847Y-116863337D01*
X48445875Y-116984655D01*
X48444758Y-116993138D01*
X42917260Y-116993138D01*
X42883394Y-116903514D01*
X42883393Y-116903511D01*
X42880710Y-116896412D01*
X42791531Y-116766657D01*
X42744971Y-116725174D01*
X42679648Y-116666972D01*
X42679645Y-116666970D01*
X42673976Y-116661919D01*
X42643301Y-116645677D01*
X42541543Y-116591799D01*
X42541544Y-116591799D01*
X42534831Y-116588245D01*
X42518122Y-116584048D01*
X42389498Y-116551740D01*
X42389496Y-116551740D01*
X42382128Y-116549889D01*
X42374530Y-116549849D01*
X42374528Y-116549849D01*
X42307319Y-116549497D01*
X42224684Y-116549065D01*
X42217305Y-116550837D01*
X42217301Y-116550837D01*
X42078967Y-116584048D01*
X42078963Y-116584049D01*
X42071588Y-116585820D01*
X42046283Y-116598881D01*
X41950686Y-116648222D01*
X41931679Y-116658032D01*
X41925957Y-116663024D01*
X41925955Y-116663025D01*
X41818759Y-116756538D01*
X41818756Y-116756541D01*
X41813034Y-116761533D01*
X41794967Y-116787240D01*
X41733783Y-116874296D01*
X41722501Y-116890348D01*
X41665309Y-117037039D01*
X41664318Y-117044568D01*
X41649202Y-117159386D01*
X41644758Y-117193138D01*
X38225723Y-117193138D01*
X38202972Y-117140814D01*
X38198105Y-117131739D01*
X38082426Y-116952926D01*
X38076136Y-116944757D01*
X37932806Y-116787240D01*
X37925273Y-116780215D01*
X37758139Y-116648222D01*
X37749552Y-116642517D01*
X37563117Y-116539599D01*
X37553705Y-116535369D01*
X37502178Y-116517122D01*
X37444642Y-116475528D01*
X37418726Y-116409430D01*
X37432660Y-116339814D01*
X37482672Y-116288415D01*
X37536332Y-116258364D01*
X37654442Y-116192219D01*
X37817012Y-116057012D01*
X37952219Y-115894442D01*
X37955043Y-115889399D01*
X37955046Y-115889395D01*
X38052713Y-115714998D01*
X38052714Y-115714996D01*
X38055537Y-115709955D01*
X38057393Y-115704488D01*
X38057395Y-115704483D01*
X38097784Y-115585499D01*
X38138621Y-115527423D01*
X38204374Y-115500644D01*
X38217097Y-115500000D01*
X51173364Y-115500000D01*
X51241485Y-115520002D01*
G37*
%TD.AperFunction*%
%TD*%
M02*
