%TF.GenerationSoftware,KiCad,Pcbnew,(6.0.9)*%
%TF.CreationDate,2023-01-29T17:21:33+01:00*%
%TF.ProjectId,witns_processing_board,7769746e-735f-4707-926f-63657373696e,rev?*%
%TF.SameCoordinates,Original*%
%TF.FileFunction,Legend,Top*%
%TF.FilePolarity,Positive*%
%FSLAX46Y46*%
G04 Gerber Fmt 4.6, Leading zero omitted, Abs format (unit mm)*
G04 Created by KiCad (PCBNEW (6.0.9)) date 2023-01-29 17:21:33*
%MOMM*%
%LPD*%
G01*
G04 APERTURE LIST*
%ADD10C,0.300000*%
%ADD11C,0.150000*%
%ADD12C,0.120000*%
G04 APERTURE END LIST*
D10*
X47711803Y-105200000D02*
G75*
G03*
X47711803Y-105200000I-111803J0D01*
G01*
D11*
X57000000Y-101000000D02*
X59000000Y-101000000D01*
X59500000Y-104500000D02*
X59500000Y-103500000D01*
X57000000Y-103000000D02*
X57500000Y-102500000D01*
X57500000Y-102500000D02*
X59500000Y-104500000D01*
X58500000Y-101500000D02*
X60500000Y-103500000D01*
X57000000Y-101000000D02*
X57000000Y-103000000D01*
X59000000Y-101000000D02*
X58500000Y-101500000D01*
X59500000Y-103500000D02*
X60500000Y-103500000D01*
X53707023Y-133747142D02*
X53659404Y-133794761D01*
X53516547Y-133842380D01*
X53421309Y-133842380D01*
X53278452Y-133794761D01*
X53183214Y-133699523D01*
X53135595Y-133604285D01*
X53087976Y-133413809D01*
X53087976Y-133270952D01*
X53135595Y-133080476D01*
X53183214Y-132985238D01*
X53278452Y-132890000D01*
X53421309Y-132842380D01*
X53516547Y-132842380D01*
X53659404Y-132890000D01*
X53707023Y-132937619D01*
X54135595Y-133842380D02*
X54135595Y-132842380D01*
X54468928Y-133556666D01*
X54802261Y-132842380D01*
X54802261Y-133842380D01*
X55278452Y-133842380D02*
X55278452Y-132842380D01*
X55659404Y-132842380D01*
X55754642Y-132890000D01*
X55802261Y-132937619D01*
X55849880Y-133032857D01*
X55849880Y-133175714D01*
X55802261Y-133270952D01*
X55754642Y-133318571D01*
X55659404Y-133366190D01*
X55278452Y-133366190D01*
X56135595Y-132842380D02*
X56707023Y-132842380D01*
X56421309Y-133842380D02*
X56421309Y-132842380D01*
X57468928Y-132842380D02*
X57278452Y-132842380D01*
X57183214Y-132890000D01*
X57135595Y-132937619D01*
X57040357Y-133080476D01*
X56992738Y-133270952D01*
X56992738Y-133651904D01*
X57040357Y-133747142D01*
X57087976Y-133794761D01*
X57183214Y-133842380D01*
X57373690Y-133842380D01*
X57468928Y-133794761D01*
X57516547Y-133747142D01*
X57564166Y-133651904D01*
X57564166Y-133413809D01*
X57516547Y-133318571D01*
X57468928Y-133270952D01*
X57373690Y-133223333D01*
X57183214Y-133223333D01*
X57087976Y-133270952D01*
X57040357Y-133318571D01*
X56992738Y-133413809D01*
X57992738Y-133842380D02*
X57992738Y-132842380D01*
X57992738Y-133318571D02*
X58564166Y-133318571D01*
X58564166Y-133842380D02*
X58564166Y-132842380D01*
X59040357Y-133842380D02*
X59040357Y-132842380D01*
X59421309Y-132842380D01*
X59516547Y-132890000D01*
X59564166Y-132937619D01*
X59611785Y-133032857D01*
X59611785Y-133175714D01*
X59564166Y-133270952D01*
X59516547Y-133318571D01*
X59421309Y-133366190D01*
X59040357Y-133366190D01*
X53040357Y-134452380D02*
X53278452Y-135452380D01*
X53468928Y-134738095D01*
X53659404Y-135452380D01*
X53897500Y-134452380D01*
X54278452Y-135452380D02*
X54278452Y-134452380D01*
X54611785Y-134452380D02*
X55183214Y-134452380D01*
X54897500Y-135452380D02*
X54897500Y-134452380D01*
X55516547Y-135452380D02*
X55516547Y-134452380D01*
X56087976Y-135452380D01*
X56087976Y-134452380D01*
X56516547Y-135404761D02*
X56659404Y-135452380D01*
X56897500Y-135452380D01*
X56992738Y-135404761D01*
X57040357Y-135357142D01*
X57087976Y-135261904D01*
X57087976Y-135166666D01*
X57040357Y-135071428D01*
X56992738Y-135023809D01*
X56897500Y-134976190D01*
X56707023Y-134928571D01*
X56611785Y-134880952D01*
X56564166Y-134833333D01*
X56516547Y-134738095D01*
X56516547Y-134642857D01*
X56564166Y-134547619D01*
X56611785Y-134500000D01*
X56707023Y-134452380D01*
X56945119Y-134452380D01*
X57087976Y-134500000D01*
X53468928Y-136538571D02*
X53135595Y-136538571D01*
X53135595Y-137062380D02*
X53135595Y-136062380D01*
X53611785Y-136062380D01*
X53992738Y-137062380D02*
X53992738Y-136062380D01*
X54421309Y-136776666D02*
X54897500Y-136776666D01*
X54326071Y-137062380D02*
X54659404Y-136062380D01*
X54992738Y-137062380D01*
X55897500Y-136967142D02*
X55849880Y-137014761D01*
X55707023Y-137062380D01*
X55611785Y-137062380D01*
X55468928Y-137014761D01*
X55373690Y-136919523D01*
X55326071Y-136824285D01*
X55278452Y-136633809D01*
X55278452Y-136490952D01*
X55326071Y-136300476D01*
X55373690Y-136205238D01*
X55468928Y-136110000D01*
X55611785Y-136062380D01*
X55707023Y-136062380D01*
X55849880Y-136110000D01*
X55897500Y-136157619D01*
X56326071Y-137062380D02*
X56326071Y-136062380D01*
X56897500Y-137062380D02*
X56468928Y-136490952D01*
X56897500Y-136062380D02*
X56326071Y-136633809D01*
X58754642Y-136395714D02*
X58992738Y-137062380D01*
X59230833Y-136395714D01*
X60135595Y-137062380D02*
X59564166Y-137062380D01*
X59849880Y-137062380D02*
X59849880Y-136062380D01*
X59754642Y-136205238D01*
X59659404Y-136300476D01*
X59564166Y-136348095D01*
X60564166Y-136967142D02*
X60611785Y-137014761D01*
X60564166Y-137062380D01*
X60516547Y-137014761D01*
X60564166Y-136967142D01*
X60564166Y-137062380D01*
X61230833Y-136062380D02*
X61326071Y-136062380D01*
X61421309Y-136110000D01*
X61468928Y-136157619D01*
X61516547Y-136252857D01*
X61564166Y-136443333D01*
X61564166Y-136681428D01*
X61516547Y-136871904D01*
X61468928Y-136967142D01*
X61421309Y-137014761D01*
X61326071Y-137062380D01*
X61230833Y-137062380D01*
X61135595Y-137014761D01*
X61087976Y-136967142D01*
X61040357Y-136871904D01*
X60992738Y-136681428D01*
X60992738Y-136443333D01*
X61040357Y-136252857D01*
X61087976Y-136157619D01*
X61135595Y-136110000D01*
X61230833Y-136062380D01*
X42047619Y-114452380D02*
X41714285Y-113976190D01*
X41476190Y-114452380D02*
X41476190Y-113452380D01*
X41857142Y-113452380D01*
X41952380Y-113500000D01*
X42000000Y-113547619D01*
X42047619Y-113642857D01*
X42047619Y-113785714D01*
X42000000Y-113880952D01*
X41952380Y-113928571D01*
X41857142Y-113976190D01*
X41476190Y-113976190D01*
X42476190Y-113928571D02*
X42809523Y-113928571D01*
X42952380Y-114452380D02*
X42476190Y-114452380D01*
X42476190Y-113452380D01*
X42952380Y-113452380D01*
X43333333Y-114404761D02*
X43476190Y-114452380D01*
X43714285Y-114452380D01*
X43809523Y-114404761D01*
X43857142Y-114357142D01*
X43904761Y-114261904D01*
X43904761Y-114166666D01*
X43857142Y-114071428D01*
X43809523Y-114023809D01*
X43714285Y-113976190D01*
X43523809Y-113928571D01*
X43428571Y-113880952D01*
X43380952Y-113833333D01*
X43333333Y-113738095D01*
X43333333Y-113642857D01*
X43380952Y-113547619D01*
X43428571Y-113500000D01*
X43523809Y-113452380D01*
X43761904Y-113452380D01*
X43904761Y-113500000D01*
X44333333Y-113928571D02*
X44666666Y-113928571D01*
X44809523Y-114452380D02*
X44333333Y-114452380D01*
X44333333Y-113452380D01*
X44809523Y-113452380D01*
X45095238Y-113452380D02*
X45666666Y-113452380D01*
X45380952Y-114452380D02*
X45380952Y-113452380D01*
X58869047Y-100071428D02*
X59630952Y-100071428D01*
X59250000Y-100452380D02*
X59250000Y-99690476D01*
X37869047Y-97821428D02*
X38630952Y-97821428D01*
X38250000Y-98202380D02*
X38250000Y-97440476D01*
X60869047Y-100071428D02*
X61630952Y-100071428D01*
X61250000Y-100452380D02*
X61250000Y-99690476D01*
X36166666Y-102452380D02*
X36166666Y-101452380D01*
X36547619Y-101452380D01*
X36642857Y-101500000D01*
X36690476Y-101547619D01*
X36738095Y-101642857D01*
X36738095Y-101785714D01*
X36690476Y-101880952D01*
X36642857Y-101928571D01*
X36547619Y-101976190D01*
X36166666Y-101976190D01*
X37071428Y-101452380D02*
X37309523Y-102452380D01*
X37500000Y-101738095D01*
X37690476Y-102452380D01*
X37928571Y-101452380D01*
X38880952Y-102452380D02*
X38547619Y-101976190D01*
X38309523Y-102452380D02*
X38309523Y-101452380D01*
X38690476Y-101452380D01*
X38785714Y-101500000D01*
X38833333Y-101547619D01*
X38880952Y-101642857D01*
X38880952Y-101785714D01*
X38833333Y-101880952D01*
X38785714Y-101928571D01*
X38690476Y-101976190D01*
X38309523Y-101976190D01*
D12*
%TO.C,R310*%
X58737258Y-117477500D02*
X58262742Y-117477500D01*
X58737258Y-118522500D02*
X58262742Y-118522500D01*
%TO.C,U303*%
X48500000Y-135560000D02*
X50450000Y-135560000D01*
X48500000Y-130440000D02*
X50450000Y-130440000D01*
X48500000Y-135560000D02*
X46550000Y-135560000D01*
X48500000Y-130440000D02*
X45050000Y-130440000D01*
%TO.C,R319*%
X43477500Y-134737258D02*
X43477500Y-134262742D01*
X44522500Y-134737258D02*
X44522500Y-134262742D01*
%TO.C,D202*%
X57765000Y-97015000D02*
X57765000Y-99300000D01*
X59235000Y-97015000D02*
X57765000Y-97015000D01*
X59235000Y-99300000D02*
X59235000Y-97015000D01*
%TO.C,R317*%
X41522500Y-131262742D02*
X41522500Y-131737258D01*
X40477500Y-131262742D02*
X40477500Y-131737258D01*
%TO.C,U201*%
X49690000Y-111610000D02*
X49390000Y-111610000D01*
X56310000Y-111610000D02*
X56610000Y-111610000D01*
X49690000Y-104390000D02*
X49390000Y-104390000D01*
X49390000Y-104690000D02*
X48075000Y-104690000D01*
X56310000Y-104390000D02*
X56610000Y-104390000D01*
X56610000Y-111610000D02*
X56610000Y-111310000D01*
X49390000Y-111610000D02*
X49390000Y-111310000D01*
X56610000Y-104390000D02*
X56610000Y-104690000D01*
X49390000Y-104390000D02*
X49390000Y-104690000D01*
%TO.C,U302*%
X58060000Y-124000000D02*
X58060000Y-122050000D01*
X58060000Y-124000000D02*
X58060000Y-125950000D01*
X52940000Y-124000000D02*
X52940000Y-127450000D01*
X52940000Y-124000000D02*
X52940000Y-122050000D01*
%TO.C,R316*%
X54737258Y-129477500D02*
X54262742Y-129477500D01*
X54737258Y-130522500D02*
X54262742Y-130522500D01*
%TO.C,R313*%
X58737258Y-120022500D02*
X58262742Y-120022500D01*
X58737258Y-118977500D02*
X58262742Y-118977500D01*
%TO.C,R318*%
X41977500Y-134737258D02*
X41977500Y-134262742D01*
X43022500Y-134737258D02*
X43022500Y-134262742D01*
%TO.C,C306*%
X55640580Y-118990000D02*
X55359420Y-118990000D01*
X55640580Y-120010000D02*
X55359420Y-120010000D01*
%TO.C,R307*%
X44737258Y-114977500D02*
X44262742Y-114977500D01*
X44737258Y-116022500D02*
X44262742Y-116022500D01*
%TO.C,C203*%
X42140580Y-105990000D02*
X41859420Y-105990000D01*
X42140580Y-107010000D02*
X41859420Y-107010000D01*
%TO.C,R301*%
X40477500Y-123237258D02*
X40477500Y-122762742D01*
X41522500Y-123237258D02*
X41522500Y-122762742D01*
%TO.C,L201*%
X53510000Y-115087221D02*
X53510000Y-115412779D01*
X52490000Y-115087221D02*
X52490000Y-115412779D01*
%TO.C,R320*%
X44522500Y-131737258D02*
X44522500Y-131262742D01*
X43477500Y-131737258D02*
X43477500Y-131262742D01*
%TO.C,C301*%
X44640580Y-116490000D02*
X44359420Y-116490000D01*
X44640580Y-117510000D02*
X44359420Y-117510000D01*
%TO.C,R308*%
X43237258Y-126977500D02*
X42762742Y-126977500D01*
X43237258Y-128022500D02*
X42762742Y-128022500D01*
%TO.C,C401*%
X42990000Y-95646267D02*
X42990000Y-95353733D01*
X44010000Y-95646267D02*
X44010000Y-95353733D01*
%TO.C,R312*%
X57737258Y-130522500D02*
X57262742Y-130522500D01*
X57737258Y-129477500D02*
X57262742Y-129477500D01*
%TO.C,C307*%
X54640580Y-127990000D02*
X54359420Y-127990000D01*
X54640580Y-129010000D02*
X54359420Y-129010000D01*
%TO.C,C202*%
X41859420Y-100990000D02*
X42140580Y-100990000D01*
X41859420Y-102010000D02*
X42140580Y-102010000D01*
%TO.C,C303*%
X43140580Y-126510000D02*
X42859420Y-126510000D01*
X43140580Y-125490000D02*
X42859420Y-125490000D01*
%TO.C,R309*%
X52522500Y-125737258D02*
X52522500Y-125262742D01*
X51477500Y-125737258D02*
X51477500Y-125262742D01*
%TO.C,C402*%
X38010000Y-95646267D02*
X38010000Y-95353733D01*
X36990000Y-95646267D02*
X36990000Y-95353733D01*
%TO.C,C207*%
X55990000Y-114853733D02*
X55990000Y-115146267D01*
X57010000Y-114853733D02*
X57010000Y-115146267D01*
%TO.C,R202*%
X57977500Y-95737258D02*
X57977500Y-95262742D01*
X59022500Y-95737258D02*
X59022500Y-95262742D01*
%TO.C,C206*%
X58646267Y-111990000D02*
X58353733Y-111990000D01*
X58646267Y-113010000D02*
X58353733Y-113010000D01*
%TO.C,U301*%
X41940000Y-121500000D02*
X41940000Y-119550000D01*
X47060000Y-121500000D02*
X47060000Y-123450000D01*
X41940000Y-121500000D02*
X41940000Y-124950000D01*
X47060000Y-121500000D02*
X47060000Y-119550000D01*
%TO.C,C302*%
X48510000Y-119640580D02*
X48510000Y-119359420D01*
X47490000Y-119640580D02*
X47490000Y-119359420D01*
%TO.C,C308*%
X50359420Y-130010000D02*
X50640580Y-130010000D01*
X50359420Y-128990000D02*
X50640580Y-128990000D01*
%TO.C,C310*%
X43010000Y-131640580D02*
X43010000Y-131359420D01*
X41990000Y-131640580D02*
X41990000Y-131359420D01*
%TO.C,R304*%
X46237258Y-128022500D02*
X45762742Y-128022500D01*
X46237258Y-126977500D02*
X45762742Y-126977500D01*
%TO.C,C309*%
X46359420Y-137010000D02*
X46640580Y-137010000D01*
X46359420Y-135990000D02*
X46640580Y-135990000D01*
%TO.C,U401*%
X40500000Y-97060000D02*
X39700000Y-97060000D01*
X40500000Y-97060000D02*
X42300000Y-97060000D01*
X40500000Y-93940000D02*
X39700000Y-93940000D01*
X40500000Y-93940000D02*
X41300000Y-93940000D01*
%TO.C,D201*%
X61235000Y-97015000D02*
X59765000Y-97015000D01*
X59765000Y-97015000D02*
X59765000Y-99300000D01*
X61235000Y-99300000D02*
X61235000Y-97015000D01*
%TO.C,R201*%
X61022500Y-95737258D02*
X61022500Y-95262742D01*
X59977500Y-95737258D02*
X59977500Y-95262742D01*
%TO.C,R314*%
X57737258Y-129022500D02*
X57262742Y-129022500D01*
X57737258Y-127977500D02*
X57262742Y-127977500D01*
%TO.C,C304*%
X52510000Y-122140580D02*
X52510000Y-121859420D01*
X51490000Y-122140580D02*
X51490000Y-121859420D01*
%TO.C,R315*%
X55737258Y-117477500D02*
X55262742Y-117477500D01*
X55737258Y-118522500D02*
X55262742Y-118522500D01*
%TO.C,SW201*%
X41850000Y-112900000D02*
X45150000Y-112900000D01*
X45150000Y-110100000D02*
X45150000Y-110400000D01*
X41850000Y-110100000D02*
X45150000Y-110100000D01*
X45150000Y-112900000D02*
X45150000Y-112600000D01*
X41850000Y-112600000D02*
X41850000Y-112900000D01*
X41850000Y-110400000D02*
X41850000Y-110100000D01*
%TO.C,J201*%
X47995000Y-95735000D02*
X47995000Y-99265000D01*
X48060000Y-95735000D02*
X47995000Y-95735000D01*
X57005000Y-95735000D02*
X56940000Y-95735000D01*
X57005000Y-95735000D02*
X57005000Y-99265000D01*
X57005000Y-99265000D02*
X56940000Y-99265000D01*
X56940000Y-94410000D02*
X56940000Y-95735000D01*
X48060000Y-99265000D02*
X47995000Y-99265000D01*
%TO.C,R311*%
X54262742Y-132022500D02*
X54737258Y-132022500D01*
X54262742Y-130977500D02*
X54737258Y-130977500D01*
%TO.C,D401*%
X36765000Y-101160000D02*
X38235000Y-101160000D01*
X36765000Y-98700000D02*
X36765000Y-101160000D01*
X38235000Y-101160000D02*
X38235000Y-98700000D01*
%TO.C,Y201*%
X40050000Y-102400000D02*
X40050000Y-105600000D01*
X40050000Y-105600000D02*
X43950000Y-105600000D01*
%TO.C,R203*%
X45762742Y-105977500D02*
X46237258Y-105977500D01*
X45762742Y-107022500D02*
X46237258Y-107022500D01*
%TO.C,R204*%
X45737258Y-100477500D02*
X45262742Y-100477500D01*
X45737258Y-101522500D02*
X45262742Y-101522500D01*
%TO.C,C305*%
X41510000Y-119640580D02*
X41510000Y-119359420D01*
X40490000Y-119640580D02*
X40490000Y-119359420D01*
%TO.C,R303*%
X42762742Y-128477500D02*
X43237258Y-128477500D01*
X42762742Y-129522500D02*
X43237258Y-129522500D01*
%TO.C,R321*%
X46262742Y-130022500D02*
X46737258Y-130022500D01*
X46262742Y-128977500D02*
X46737258Y-128977500D01*
%TO.C,R401*%
X38977500Y-99754724D02*
X38977500Y-99245276D01*
X40022500Y-99754724D02*
X40022500Y-99245276D01*
%TO.C,C208*%
X54490000Y-114853733D02*
X54490000Y-115146267D01*
X55510000Y-114853733D02*
X55510000Y-115146267D01*
%TO.C,FB401*%
X42910242Y-99060000D02*
X42089758Y-99060000D01*
X42910242Y-97940000D02*
X42089758Y-97940000D01*
%TO.C,R302*%
X47737258Y-116022500D02*
X47262742Y-116022500D01*
X47737258Y-114977500D02*
X47262742Y-114977500D01*
%TO.C,C205*%
X47353733Y-104010000D02*
X47646267Y-104010000D01*
X47353733Y-102990000D02*
X47646267Y-102990000D01*
%TO.C,R306*%
X46237258Y-125477500D02*
X45762742Y-125477500D01*
X46237258Y-126522500D02*
X45762742Y-126522500D01*
%TO.C,C201*%
X46140580Y-107490000D02*
X45859420Y-107490000D01*
X46140580Y-108510000D02*
X45859420Y-108510000D01*
%TO.C,C204*%
X59146267Y-114510000D02*
X58853733Y-114510000D01*
X59146267Y-113490000D02*
X58853733Y-113490000D01*
%TO.C,R305*%
X47737258Y-116477500D02*
X47262742Y-116477500D01*
X47737258Y-117522500D02*
X47262742Y-117522500D01*
%TO.C,F401*%
X45090000Y-96397936D02*
X45090000Y-97602064D01*
X46910000Y-96397936D02*
X46910000Y-97602064D01*
%TD*%
M02*
