%TF.GenerationSoftware,KiCad,Pcbnew,(6.0.9)*%
%TF.CreationDate,2023-01-29T17:21:33+01:00*%
%TF.ProjectId,witns_processing_board,7769746e-735f-4707-926f-63657373696e,rev?*%
%TF.SameCoordinates,Original*%
%TF.FileFunction,Soldermask,Top*%
%TF.FilePolarity,Negative*%
%FSLAX46Y46*%
G04 Gerber Fmt 4.6, Leading zero omitted, Abs format (unit mm)*
G04 Created by KiCad (PCBNEW (6.0.9)) date 2023-01-29 17:21:33*
%MOMM*%
%LPD*%
G01*
G04 APERTURE LIST*
G04 Aperture macros list*
%AMRoundRect*
0 Rectangle with rounded corners*
0 $1 Rounding radius*
0 $2 $3 $4 $5 $6 $7 $8 $9 X,Y pos of 4 corners*
0 Add a 4 corners polygon primitive as box body*
4,1,4,$2,$3,$4,$5,$6,$7,$8,$9,$2,$3,0*
0 Add four circle primitives for the rounded corners*
1,1,$1+$1,$2,$3*
1,1,$1+$1,$4,$5*
1,1,$1+$1,$6,$7*
1,1,$1+$1,$8,$9*
0 Add four rect primitives between the rounded corners*
20,1,$1+$1,$2,$3,$4,$5,0*
20,1,$1+$1,$4,$5,$6,$7,0*
20,1,$1+$1,$6,$7,$8,$9,0*
20,1,$1+$1,$8,$9,$2,$3,0*%
G04 Aperture macros list end*
%ADD10RoundRect,0.200000X0.200000X0.275000X-0.200000X0.275000X-0.200000X-0.275000X0.200000X-0.275000X0*%
%ADD11RoundRect,0.150000X-0.825000X-0.150000X0.825000X-0.150000X0.825000X0.150000X-0.825000X0.150000X0*%
%ADD12RoundRect,0.200000X0.275000X-0.200000X0.275000X0.200000X-0.275000X0.200000X-0.275000X-0.200000X0*%
%ADD13RoundRect,0.218750X-0.256250X0.218750X-0.256250X-0.218750X0.256250X-0.218750X0.256250X0.218750X0*%
%ADD14RoundRect,0.200000X-0.275000X0.200000X-0.275000X-0.200000X0.275000X-0.200000X0.275000X0.200000X0*%
%ADD15RoundRect,0.125000X-0.625000X-0.125000X0.625000X-0.125000X0.625000X0.125000X-0.625000X0.125000X0*%
%ADD16RoundRect,0.125000X-0.125000X-0.625000X0.125000X-0.625000X0.125000X0.625000X-0.125000X0.625000X0*%
%ADD17RoundRect,0.150000X0.150000X-0.825000X0.150000X0.825000X-0.150000X0.825000X-0.150000X-0.825000X0*%
%ADD18RoundRect,0.225000X0.225000X0.250000X-0.225000X0.250000X-0.225000X-0.250000X0.225000X-0.250000X0*%
%ADD19RoundRect,0.237500X0.237500X-0.300000X0.237500X0.300000X-0.237500X0.300000X-0.237500X-0.300000X0*%
%ADD20RoundRect,0.225000X-0.225000X-0.250000X0.225000X-0.250000X0.225000X0.250000X-0.225000X0.250000X0*%
%ADD21RoundRect,0.237500X-0.237500X0.300000X-0.237500X-0.300000X0.237500X-0.300000X0.237500X0.300000X0*%
%ADD22RoundRect,0.237500X0.300000X0.237500X-0.300000X0.237500X-0.300000X-0.237500X0.300000X-0.237500X0*%
%ADD23RoundRect,0.225000X0.250000X-0.225000X0.250000X0.225000X-0.250000X0.225000X-0.250000X-0.225000X0*%
%ADD24RoundRect,0.150000X0.512500X0.150000X-0.512500X0.150000X-0.512500X-0.150000X0.512500X-0.150000X0*%
%ADD25R,0.900000X1.700000*%
%ADD26R,0.740000X2.400000*%
%ADD27RoundRect,0.200000X-0.200000X-0.275000X0.200000X-0.275000X0.200000X0.275000X-0.200000X0.275000X0*%
%ADD28RoundRect,0.237500X0.237500X-0.287500X0.237500X0.287500X-0.237500X0.287500X-0.237500X-0.287500X0*%
%ADD29R,1.300000X1.000000*%
%ADD30RoundRect,0.237500X0.237500X-0.250000X0.237500X0.250000X-0.237500X0.250000X-0.237500X-0.250000X0*%
%ADD31RoundRect,0.250000X0.275000X0.350000X-0.275000X0.350000X-0.275000X-0.350000X0.275000X-0.350000X0*%
%ADD32RoundRect,0.237500X-0.300000X-0.237500X0.300000X-0.237500X0.300000X0.237500X-0.300000X0.237500X0*%
%ADD33RoundRect,0.250001X-0.624999X0.462499X-0.624999X-0.462499X0.624999X-0.462499X0.624999X0.462499X0*%
%ADD34R,1.700000X1.700000*%
%ADD35O,1.700000X1.700000*%
G04 APERTURE END LIST*
D10*
%TO.C,R310*%
X59325000Y-118000000D03*
X57675000Y-118000000D03*
%TD*%
D11*
%TO.C,U303*%
X46025000Y-131095000D03*
X46025000Y-132365000D03*
X46025000Y-133635000D03*
X46025000Y-134905000D03*
X50975000Y-134905000D03*
X50975000Y-133635000D03*
X50975000Y-132365000D03*
X50975000Y-131095000D03*
%TD*%
D12*
%TO.C,R319*%
X44000000Y-135325000D03*
X44000000Y-133675000D03*
%TD*%
D13*
%TO.C,D202*%
X58500000Y-97712500D03*
X58500000Y-99287500D03*
%TD*%
D14*
%TO.C,R317*%
X41000000Y-130675000D03*
X41000000Y-132325000D03*
%TD*%
D15*
%TO.C,U201*%
X48825000Y-105200000D03*
X48825000Y-106000000D03*
X48825000Y-106800000D03*
X48825000Y-107600000D03*
X48825000Y-108400000D03*
X48825000Y-109200000D03*
X48825000Y-110000000D03*
X48825000Y-110800000D03*
D16*
X50200000Y-112175000D03*
X51000000Y-112175000D03*
X51800000Y-112175000D03*
X52600000Y-112175000D03*
X53400000Y-112175000D03*
X54200000Y-112175000D03*
X55000000Y-112175000D03*
X55800000Y-112175000D03*
D15*
X57175000Y-110800000D03*
X57175000Y-110000000D03*
X57175000Y-109200000D03*
X57175000Y-108400000D03*
X57175000Y-107600000D03*
X57175000Y-106800000D03*
X57175000Y-106000000D03*
X57175000Y-105200000D03*
D16*
X55800000Y-103825000D03*
X55000000Y-103825000D03*
X54200000Y-103825000D03*
X53400000Y-103825000D03*
X52600000Y-103825000D03*
X51800000Y-103825000D03*
X51000000Y-103825000D03*
X50200000Y-103825000D03*
%TD*%
D17*
%TO.C,U302*%
X53595000Y-126475000D03*
X54865000Y-126475000D03*
X56135000Y-126475000D03*
X57405000Y-126475000D03*
X57405000Y-121525000D03*
X56135000Y-121525000D03*
X54865000Y-121525000D03*
X53595000Y-121525000D03*
%TD*%
D10*
%TO.C,R316*%
X55325000Y-130000000D03*
X53675000Y-130000000D03*
%TD*%
%TO.C,R313*%
X59325000Y-119500000D03*
X57675000Y-119500000D03*
%TD*%
D12*
%TO.C,R318*%
X42500000Y-135325000D03*
X42500000Y-133675000D03*
%TD*%
D18*
%TO.C,C306*%
X56275000Y-119500000D03*
X54725000Y-119500000D03*
%TD*%
D10*
%TO.C,R307*%
X45325000Y-115500000D03*
X43675000Y-115500000D03*
%TD*%
D18*
%TO.C,C203*%
X42775000Y-106500000D03*
X41225000Y-106500000D03*
%TD*%
D12*
%TO.C,R301*%
X41000000Y-123825000D03*
X41000000Y-122175000D03*
%TD*%
D13*
%TO.C,L201*%
X53000000Y-114462500D03*
X53000000Y-116037500D03*
%TD*%
D12*
%TO.C,R320*%
X44000000Y-132325000D03*
X44000000Y-130675000D03*
%TD*%
D18*
%TO.C,C301*%
X45275000Y-117000000D03*
X43725000Y-117000000D03*
%TD*%
D10*
%TO.C,R308*%
X43825000Y-127500000D03*
X42175000Y-127500000D03*
%TD*%
D19*
%TO.C,C401*%
X43500000Y-96362500D03*
X43500000Y-94637500D03*
%TD*%
D10*
%TO.C,R312*%
X58325000Y-130000000D03*
X56675000Y-130000000D03*
%TD*%
D18*
%TO.C,C307*%
X55275000Y-128500000D03*
X53725000Y-128500000D03*
%TD*%
D20*
%TO.C,C202*%
X41225000Y-101500000D03*
X42775000Y-101500000D03*
%TD*%
D18*
%TO.C,C303*%
X43775000Y-126000000D03*
X42225000Y-126000000D03*
%TD*%
D12*
%TO.C,R309*%
X52000000Y-126325000D03*
X52000000Y-124675000D03*
%TD*%
D19*
%TO.C,C402*%
X37500000Y-96362500D03*
X37500000Y-94637500D03*
%TD*%
D21*
%TO.C,C207*%
X56500000Y-114137500D03*
X56500000Y-115862500D03*
%TD*%
D12*
%TO.C,R202*%
X58500000Y-96325000D03*
X58500000Y-94675000D03*
%TD*%
D22*
%TO.C,C206*%
X59362500Y-112500000D03*
X57637500Y-112500000D03*
%TD*%
D17*
%TO.C,U301*%
X42595000Y-123975000D03*
X43865000Y-123975000D03*
X45135000Y-123975000D03*
X46405000Y-123975000D03*
X46405000Y-119025000D03*
X45135000Y-119025000D03*
X43865000Y-119025000D03*
X42595000Y-119025000D03*
%TD*%
D23*
%TO.C,C302*%
X48000000Y-120275000D03*
X48000000Y-118725000D03*
%TD*%
D20*
%TO.C,C308*%
X49725000Y-129500000D03*
X51275000Y-129500000D03*
%TD*%
D23*
%TO.C,C310*%
X42500000Y-132275000D03*
X42500000Y-130725000D03*
%TD*%
D10*
%TO.C,R304*%
X46825000Y-127500000D03*
X45175000Y-127500000D03*
%TD*%
D20*
%TO.C,C309*%
X45725000Y-136500000D03*
X47275000Y-136500000D03*
%TD*%
D24*
%TO.C,U401*%
X41637500Y-96450000D03*
X41637500Y-95500000D03*
X41637500Y-94550000D03*
X39362500Y-94550000D03*
X39362500Y-96450000D03*
%TD*%
D13*
%TO.C,D201*%
X60500000Y-97712500D03*
X60500000Y-99287500D03*
%TD*%
D12*
%TO.C,R201*%
X60500000Y-96325000D03*
X60500000Y-94675000D03*
%TD*%
D10*
%TO.C,R314*%
X58325000Y-128500000D03*
X56675000Y-128500000D03*
%TD*%
D23*
%TO.C,C304*%
X52000000Y-122775000D03*
X52000000Y-121225000D03*
%TD*%
D10*
%TO.C,R315*%
X56325000Y-118000000D03*
X54675000Y-118000000D03*
%TD*%
D25*
%TO.C,SW201*%
X41800000Y-111500000D03*
X45200000Y-111500000D03*
%TD*%
D26*
%TO.C,J201*%
X56310000Y-95550000D03*
X56310000Y-99450000D03*
X55040000Y-95550000D03*
X55040000Y-99450000D03*
X53770000Y-95550000D03*
X53770000Y-99450000D03*
X52500000Y-95550000D03*
X52500000Y-99450000D03*
X51230000Y-95550000D03*
X51230000Y-99450000D03*
X49960000Y-95550000D03*
X49960000Y-99450000D03*
X48690000Y-95550000D03*
X48690000Y-99450000D03*
%TD*%
D27*
%TO.C,R311*%
X53675000Y-131500000D03*
X55325000Y-131500000D03*
%TD*%
D28*
%TO.C,D401*%
X37500000Y-100375000D03*
X37500000Y-98625000D03*
%TD*%
D29*
%TO.C,Y201*%
X40900000Y-104900000D03*
X43100000Y-104900000D03*
X43100000Y-103100000D03*
X40900000Y-103100000D03*
%TD*%
D27*
%TO.C,R203*%
X45175000Y-106500000D03*
X46825000Y-106500000D03*
%TD*%
D10*
%TO.C,R204*%
X46325000Y-101000000D03*
X44675000Y-101000000D03*
%TD*%
D23*
%TO.C,C305*%
X41000000Y-120275000D03*
X41000000Y-118725000D03*
%TD*%
D27*
%TO.C,R303*%
X42175000Y-129000000D03*
X43825000Y-129000000D03*
%TD*%
%TO.C,R321*%
X45675000Y-129500000D03*
X47325000Y-129500000D03*
%TD*%
D30*
%TO.C,R401*%
X39500000Y-100412500D03*
X39500000Y-98587500D03*
%TD*%
D21*
%TO.C,C208*%
X55000000Y-114137500D03*
X55000000Y-115862500D03*
%TD*%
D31*
%TO.C,FB401*%
X43650000Y-98500000D03*
X41350000Y-98500000D03*
%TD*%
D10*
%TO.C,R302*%
X48325000Y-115500000D03*
X46675000Y-115500000D03*
%TD*%
D32*
%TO.C,C205*%
X46637500Y-103500000D03*
X48362500Y-103500000D03*
%TD*%
D10*
%TO.C,R306*%
X46825000Y-126000000D03*
X45175000Y-126000000D03*
%TD*%
D18*
%TO.C,C201*%
X46775000Y-108000000D03*
X45225000Y-108000000D03*
%TD*%
D22*
%TO.C,C204*%
X59862500Y-114000000D03*
X58137500Y-114000000D03*
%TD*%
D10*
%TO.C,R305*%
X48325000Y-117000000D03*
X46675000Y-117000000D03*
%TD*%
D33*
%TO.C,F401*%
X46000000Y-95512500D03*
X46000000Y-98487500D03*
%TD*%
D34*
%TO.C,J103*%
X63000000Y-100000000D03*
D35*
X63000000Y-102540000D03*
X63000000Y-105080000D03*
X63000000Y-107620000D03*
X63000000Y-110160000D03*
X63000000Y-112700000D03*
X63000000Y-115240000D03*
X63000000Y-117780000D03*
X63000000Y-120320000D03*
%TD*%
D34*
%TO.C,J102*%
X63000000Y-125400000D03*
D35*
X63000000Y-127940000D03*
X63000000Y-130480000D03*
X63000000Y-133020000D03*
X63000000Y-135560000D03*
%TD*%
D34*
%TO.C,J101*%
X37000000Y-105080000D03*
D35*
X37000000Y-107620000D03*
X37000000Y-110160000D03*
X37000000Y-112700000D03*
X37000000Y-115240000D03*
X37000000Y-117780000D03*
X37000000Y-120320000D03*
X37000000Y-122860000D03*
X37000000Y-125400000D03*
X37000000Y-127940000D03*
X37000000Y-130480000D03*
X37000000Y-133020000D03*
X37000000Y-135560000D03*
%TD*%
M02*
