%TF.GenerationSoftware,KiCad,Pcbnew,(6.0.9)*%
%TF.CreationDate,2023-01-29T17:21:33+01:00*%
%TF.ProjectId,witns_processing_board,7769746e-735f-4707-926f-63657373696e,rev?*%
%TF.SameCoordinates,Original*%
%TF.FileFunction,Legend,Bot*%
%TF.FilePolarity,Positive*%
%FSLAX46Y46*%
G04 Gerber Fmt 4.6, Leading zero omitted, Abs format (unit mm)*
G04 Created by KiCad (PCBNEW (6.0.9)) date 2023-01-29 17:21:33*
%MOMM*%
%LPD*%
G01*
G04 APERTURE LIST*
%ADD10C,0.150000*%
%ADD11C,0.120000*%
G04 APERTURE END LIST*
D10*
X42953214Y-113152380D02*
X42953214Y-112152380D01*
X42572261Y-112152380D01*
X42477023Y-112200000D01*
X42429404Y-112247619D01*
X42381785Y-112342857D01*
X42381785Y-112485714D01*
X42429404Y-112580952D01*
X42477023Y-112628571D01*
X42572261Y-112676190D01*
X42953214Y-112676190D01*
X41762738Y-112152380D02*
X41572261Y-112152380D01*
X41477023Y-112200000D01*
X41381785Y-112295238D01*
X41334166Y-112485714D01*
X41334166Y-112819047D01*
X41381785Y-113009523D01*
X41477023Y-113104761D01*
X41572261Y-113152380D01*
X41762738Y-113152380D01*
X41857976Y-113104761D01*
X41953214Y-113009523D01*
X42000833Y-112819047D01*
X42000833Y-112485714D01*
X41953214Y-112295238D01*
X41857976Y-112200000D01*
X41762738Y-112152380D01*
X41048452Y-112152380D02*
X40477023Y-112152380D01*
X40762738Y-113152380D02*
X40762738Y-112152380D01*
X40381785Y-113247619D02*
X39619880Y-113247619D01*
X39477023Y-112152380D02*
X38857976Y-112152380D01*
X39191309Y-112533333D01*
X39048452Y-112533333D01*
X38953214Y-112580952D01*
X38905595Y-112628571D01*
X38857976Y-112723809D01*
X38857976Y-112961904D01*
X38905595Y-113057142D01*
X38953214Y-113104761D01*
X39048452Y-113152380D01*
X39334166Y-113152380D01*
X39429404Y-113104761D01*
X39477023Y-113057142D01*
X60570595Y-99500000D02*
X60665833Y-99452380D01*
X60808690Y-99452380D01*
X60951547Y-99500000D01*
X61046785Y-99595238D01*
X61094404Y-99690476D01*
X61142023Y-99880952D01*
X61142023Y-100023809D01*
X61094404Y-100214285D01*
X61046785Y-100309523D01*
X60951547Y-100404761D01*
X60808690Y-100452380D01*
X60713452Y-100452380D01*
X60570595Y-100404761D01*
X60522976Y-100357142D01*
X60522976Y-100023809D01*
X60713452Y-100023809D01*
X60094404Y-100452380D02*
X60094404Y-99452380D01*
X59522976Y-100452380D01*
X59522976Y-99452380D01*
X59046785Y-100452380D02*
X59046785Y-99452380D01*
X58808690Y-99452380D01*
X58665833Y-99500000D01*
X58570595Y-99595238D01*
X58522976Y-99690476D01*
X58475357Y-99880952D01*
X58475357Y-100023809D01*
X58522976Y-100214285D01*
X58570595Y-100309523D01*
X58665833Y-100404761D01*
X58808690Y-100452380D01*
X59046785Y-100452380D01*
X61094404Y-102468571D02*
X60761071Y-102468571D01*
X60618214Y-102992380D02*
X61094404Y-102992380D01*
X61094404Y-101992380D01*
X60618214Y-101992380D01*
X60189642Y-102325714D02*
X60189642Y-102992380D01*
X60189642Y-102420952D02*
X60142023Y-102373333D01*
X60046785Y-102325714D01*
X59903928Y-102325714D01*
X59808690Y-102373333D01*
X59761071Y-102468571D01*
X59761071Y-102992380D01*
X58856309Y-102944761D02*
X58951547Y-102992380D01*
X59142023Y-102992380D01*
X59237261Y-102944761D01*
X59284880Y-102897142D01*
X59332500Y-102801904D01*
X59332500Y-102516190D01*
X59284880Y-102420952D01*
X59237261Y-102373333D01*
X59142023Y-102325714D01*
X58951547Y-102325714D01*
X58856309Y-102373333D01*
X58475357Y-102944761D02*
X58332500Y-102992380D01*
X58094404Y-102992380D01*
X57999166Y-102944761D01*
X57951547Y-102897142D01*
X57903928Y-102801904D01*
X57903928Y-102706666D01*
X57951547Y-102611428D01*
X57999166Y-102563809D01*
X58094404Y-102516190D01*
X58284880Y-102468571D01*
X58380119Y-102420952D01*
X58427738Y-102373333D01*
X58475357Y-102278095D01*
X58475357Y-102182857D01*
X58427738Y-102087619D01*
X58380119Y-102040000D01*
X58284880Y-101992380D01*
X58046785Y-101992380D01*
X57903928Y-102040000D01*
X57570595Y-101992380D02*
X57332500Y-102992380D01*
X57142023Y-102278095D01*
X56951547Y-102992380D01*
X56713452Y-101992380D01*
X60570595Y-114740000D02*
X60665833Y-114692380D01*
X60808690Y-114692380D01*
X60951547Y-114740000D01*
X61046785Y-114835238D01*
X61094404Y-114930476D01*
X61142023Y-115120952D01*
X61142023Y-115263809D01*
X61094404Y-115454285D01*
X61046785Y-115549523D01*
X60951547Y-115644761D01*
X60808690Y-115692380D01*
X60713452Y-115692380D01*
X60570595Y-115644761D01*
X60522976Y-115597142D01*
X60522976Y-115263809D01*
X60713452Y-115263809D01*
X59522976Y-115692380D02*
X59856309Y-115216190D01*
X60094404Y-115692380D02*
X60094404Y-114692380D01*
X59713452Y-114692380D01*
X59618214Y-114740000D01*
X59570595Y-114787619D01*
X59522976Y-114882857D01*
X59522976Y-115025714D01*
X59570595Y-115120952D01*
X59618214Y-115168571D01*
X59713452Y-115216190D01*
X60094404Y-115216190D01*
X59094404Y-115168571D02*
X58761071Y-115168571D01*
X58618214Y-115692380D02*
X59094404Y-115692380D01*
X59094404Y-114692380D01*
X58618214Y-114692380D01*
X58189642Y-115168571D02*
X57856309Y-115168571D01*
X57713452Y-115692380D02*
X58189642Y-115692380D01*
X58189642Y-114692380D01*
X57713452Y-114692380D01*
X57284880Y-115692380D02*
X57284880Y-114692380D01*
X56713452Y-115692380D01*
X56713452Y-114692380D01*
X61094404Y-130551428D02*
X60332500Y-130551428D01*
X60713452Y-130932380D02*
X60713452Y-130170476D01*
X59332500Y-130932380D02*
X59903928Y-130932380D01*
X59618214Y-130932380D02*
X59618214Y-129932380D01*
X59713452Y-130075238D01*
X59808690Y-130170476D01*
X59903928Y-130218095D01*
X58951547Y-130027619D02*
X58903928Y-129980000D01*
X58808690Y-129932380D01*
X58570595Y-129932380D01*
X58475357Y-129980000D01*
X58427738Y-130027619D01*
X58380119Y-130122857D01*
X58380119Y-130218095D01*
X58427738Y-130360952D01*
X58999166Y-130932380D01*
X58380119Y-130932380D01*
X58094404Y-129932380D02*
X57761071Y-130932380D01*
X57427738Y-129932380D01*
X40667500Y-120677142D02*
X40715119Y-120724761D01*
X40857976Y-120772380D01*
X40953214Y-120772380D01*
X41096071Y-120724761D01*
X41191309Y-120629523D01*
X41238928Y-120534285D01*
X41286547Y-120343809D01*
X41286547Y-120200952D01*
X41238928Y-120010476D01*
X41191309Y-119915238D01*
X41096071Y-119820000D01*
X40953214Y-119772380D01*
X40857976Y-119772380D01*
X40715119Y-119820000D01*
X40667500Y-119867619D01*
X40381785Y-119772380D02*
X40048452Y-120772380D01*
X39715119Y-119772380D01*
X38857976Y-120772380D02*
X39429404Y-120772380D01*
X39143690Y-120772380D02*
X39143690Y-119772380D01*
X39238928Y-119915238D01*
X39334166Y-120010476D01*
X39429404Y-120058095D01*
X40953214Y-129980000D02*
X41048452Y-129932380D01*
X41191309Y-129932380D01*
X41334166Y-129980000D01*
X41429404Y-130075238D01*
X41477023Y-130170476D01*
X41524642Y-130360952D01*
X41524642Y-130503809D01*
X41477023Y-130694285D01*
X41429404Y-130789523D01*
X41334166Y-130884761D01*
X41191309Y-130932380D01*
X41096071Y-130932380D01*
X40953214Y-130884761D01*
X40905595Y-130837142D01*
X40905595Y-130503809D01*
X41096071Y-130503809D01*
X40477023Y-130932380D02*
X40477023Y-129932380D01*
X39905595Y-130932380D01*
X39905595Y-129932380D01*
X39429404Y-130932380D02*
X39429404Y-129932380D01*
X39191309Y-129932380D01*
X39048452Y-129980000D01*
X38953214Y-130075238D01*
X38905595Y-130170476D01*
X38857976Y-130360952D01*
X38857976Y-130503809D01*
X38905595Y-130694285D01*
X38953214Y-130789523D01*
X39048452Y-130884761D01*
X39191309Y-130932380D01*
X39429404Y-130932380D01*
X40953214Y-104580000D02*
X41048452Y-104532380D01*
X41191309Y-104532380D01*
X41334166Y-104580000D01*
X41429404Y-104675238D01*
X41477023Y-104770476D01*
X41524642Y-104960952D01*
X41524642Y-105103809D01*
X41477023Y-105294285D01*
X41429404Y-105389523D01*
X41334166Y-105484761D01*
X41191309Y-105532380D01*
X41096071Y-105532380D01*
X40953214Y-105484761D01*
X40905595Y-105437142D01*
X40905595Y-105103809D01*
X41096071Y-105103809D01*
X40477023Y-105532380D02*
X40477023Y-104532380D01*
X39905595Y-105532380D01*
X39905595Y-104532380D01*
X39429404Y-105532380D02*
X39429404Y-104532380D01*
X39191309Y-104532380D01*
X39048452Y-104580000D01*
X38953214Y-104675238D01*
X38905595Y-104770476D01*
X38857976Y-104960952D01*
X38857976Y-105103809D01*
X38905595Y-105294285D01*
X38953214Y-105389523D01*
X39048452Y-105484761D01*
X39191309Y-105532380D01*
X39429404Y-105532380D01*
X61094404Y-125471428D02*
X60332500Y-125471428D01*
X60713452Y-125852380D02*
X60713452Y-125090476D01*
X59380119Y-124852380D02*
X59856309Y-124852380D01*
X59903928Y-125328571D01*
X59856309Y-125280952D01*
X59761071Y-125233333D01*
X59522976Y-125233333D01*
X59427738Y-125280952D01*
X59380119Y-125328571D01*
X59332500Y-125423809D01*
X59332500Y-125661904D01*
X59380119Y-125757142D01*
X59427738Y-125804761D01*
X59522976Y-125852380D01*
X59761071Y-125852380D01*
X59856309Y-125804761D01*
X59903928Y-125757142D01*
X59046785Y-124852380D02*
X58713452Y-125852380D01*
X58380119Y-124852380D01*
X60761071Y-117708571D02*
X60618214Y-117756190D01*
X60570595Y-117803809D01*
X60522976Y-117899047D01*
X60522976Y-118041904D01*
X60570595Y-118137142D01*
X60618214Y-118184761D01*
X60713452Y-118232380D01*
X61094404Y-118232380D01*
X61094404Y-117232380D01*
X60761071Y-117232380D01*
X60665833Y-117280000D01*
X60618214Y-117327619D01*
X60570595Y-117422857D01*
X60570595Y-117518095D01*
X60618214Y-117613333D01*
X60665833Y-117660952D01*
X60761071Y-117708571D01*
X61094404Y-117708571D01*
X59618214Y-118232380D02*
X60094404Y-118232380D01*
X60094404Y-117232380D01*
X59284880Y-117232380D02*
X59284880Y-118041904D01*
X59237261Y-118137142D01*
X59189642Y-118184761D01*
X59094404Y-118232380D01*
X58903928Y-118232380D01*
X58808690Y-118184761D01*
X58761071Y-118137142D01*
X58713452Y-118041904D01*
X58713452Y-117232380D01*
X58237261Y-117708571D02*
X57903928Y-117708571D01*
X57761071Y-118232380D02*
X58237261Y-118232380D01*
X58237261Y-117232380D01*
X57761071Y-117232380D01*
X40953214Y-135060000D02*
X41048452Y-135012380D01*
X41191309Y-135012380D01*
X41334166Y-135060000D01*
X41429404Y-135155238D01*
X41477023Y-135250476D01*
X41524642Y-135440952D01*
X41524642Y-135583809D01*
X41477023Y-135774285D01*
X41429404Y-135869523D01*
X41334166Y-135964761D01*
X41191309Y-136012380D01*
X41096071Y-136012380D01*
X40953214Y-135964761D01*
X40905595Y-135917142D01*
X40905595Y-135583809D01*
X41096071Y-135583809D01*
X40477023Y-136012380D02*
X40477023Y-135012380D01*
X39905595Y-136012380D01*
X39905595Y-135012380D01*
X39429404Y-136012380D02*
X39429404Y-135012380D01*
X39191309Y-135012380D01*
X39048452Y-135060000D01*
X38953214Y-135155238D01*
X38905595Y-135250476D01*
X38857976Y-135440952D01*
X38857976Y-135583809D01*
X38905595Y-135774285D01*
X38953214Y-135869523D01*
X39048452Y-135964761D01*
X39191309Y-136012380D01*
X39429404Y-136012380D01*
X60522976Y-113152380D02*
X60856309Y-112676190D01*
X61094404Y-113152380D02*
X61094404Y-112152380D01*
X60713452Y-112152380D01*
X60618214Y-112200000D01*
X60570595Y-112247619D01*
X60522976Y-112342857D01*
X60522976Y-112485714D01*
X60570595Y-112580952D01*
X60618214Y-112628571D01*
X60713452Y-112676190D01*
X61094404Y-112676190D01*
X60094404Y-112628571D02*
X59761071Y-112628571D01*
X59618214Y-113152380D02*
X60094404Y-113152380D01*
X60094404Y-112152380D01*
X59618214Y-112152380D01*
X59189642Y-113152380D02*
X59189642Y-112152380D01*
X58951547Y-112152380D01*
X58808690Y-112200000D01*
X58713452Y-112295238D01*
X58665833Y-112390476D01*
X58618214Y-112580952D01*
X58618214Y-112723809D01*
X58665833Y-112914285D01*
X58713452Y-113009523D01*
X58808690Y-113104761D01*
X58951547Y-113152380D01*
X59189642Y-113152380D01*
X60570595Y-109660000D02*
X60665833Y-109612380D01*
X60808690Y-109612380D01*
X60951547Y-109660000D01*
X61046785Y-109755238D01*
X61094404Y-109850476D01*
X61142023Y-110040952D01*
X61142023Y-110183809D01*
X61094404Y-110374285D01*
X61046785Y-110469523D01*
X60951547Y-110564761D01*
X60808690Y-110612380D01*
X60713452Y-110612380D01*
X60570595Y-110564761D01*
X60522976Y-110517142D01*
X60522976Y-110183809D01*
X60713452Y-110183809D01*
X60094404Y-110612380D02*
X60094404Y-109612380D01*
X59522976Y-110612380D01*
X59522976Y-109612380D01*
X59046785Y-110612380D02*
X59046785Y-109612380D01*
X58808690Y-109612380D01*
X58665833Y-109660000D01*
X58570595Y-109755238D01*
X58522976Y-109850476D01*
X58475357Y-110040952D01*
X58475357Y-110183809D01*
X58522976Y-110374285D01*
X58570595Y-110469523D01*
X58665833Y-110564761D01*
X58808690Y-110612380D01*
X59046785Y-110612380D01*
X60570595Y-119820000D02*
X60665833Y-119772380D01*
X60808690Y-119772380D01*
X60951547Y-119820000D01*
X61046785Y-119915238D01*
X61094404Y-120010476D01*
X61142023Y-120200952D01*
X61142023Y-120343809D01*
X61094404Y-120534285D01*
X61046785Y-120629523D01*
X60951547Y-120724761D01*
X60808690Y-120772380D01*
X60713452Y-120772380D01*
X60570595Y-120724761D01*
X60522976Y-120677142D01*
X60522976Y-120343809D01*
X60713452Y-120343809D01*
X60094404Y-120772380D02*
X60094404Y-119772380D01*
X59522976Y-120772380D01*
X59522976Y-119772380D01*
X59046785Y-120772380D02*
X59046785Y-119772380D01*
X58808690Y-119772380D01*
X58665833Y-119820000D01*
X58570595Y-119915238D01*
X58522976Y-120010476D01*
X58475357Y-120200952D01*
X58475357Y-120343809D01*
X58522976Y-120534285D01*
X58570595Y-120629523D01*
X58665833Y-120724761D01*
X58808690Y-120772380D01*
X59046785Y-120772380D01*
X57119047Y-93952380D02*
X57119047Y-94666666D01*
X57166666Y-94809523D01*
X57261904Y-94904761D01*
X57404761Y-94952380D01*
X57500000Y-94952380D01*
X56166666Y-94952380D02*
X56642857Y-94952380D01*
X56642857Y-93952380D01*
X55261904Y-94857142D02*
X55309523Y-94904761D01*
X55452380Y-94952380D01*
X55547619Y-94952380D01*
X55690476Y-94904761D01*
X55785714Y-94809523D01*
X55833333Y-94714285D01*
X55880952Y-94523809D01*
X55880952Y-94380952D01*
X55833333Y-94190476D01*
X55785714Y-94095238D01*
X55690476Y-94000000D01*
X55547619Y-93952380D01*
X55452380Y-93952380D01*
X55309523Y-94000000D01*
X55261904Y-94047619D01*
X54547619Y-93952380D02*
X54547619Y-94666666D01*
X54595238Y-94809523D01*
X54690476Y-94904761D01*
X54833333Y-94952380D01*
X54928571Y-94952380D01*
X53595238Y-94952380D02*
X54071428Y-94952380D01*
X54071428Y-93952380D01*
X52690476Y-94857142D02*
X52738095Y-94904761D01*
X52880952Y-94952380D01*
X52976190Y-94952380D01*
X53119047Y-94904761D01*
X53214285Y-94809523D01*
X53261904Y-94714285D01*
X53309523Y-94523809D01*
X53309523Y-94380952D01*
X53261904Y-94190476D01*
X53214285Y-94095238D01*
X53119047Y-94000000D01*
X52976190Y-93952380D01*
X52880952Y-93952380D01*
X52738095Y-94000000D01*
X52690476Y-94047619D01*
X51976190Y-93952380D02*
X51976190Y-94666666D01*
X52023809Y-94809523D01*
X52119047Y-94904761D01*
X52261904Y-94952380D01*
X52357142Y-94952380D01*
X51023809Y-94952380D02*
X51500000Y-94952380D01*
X51500000Y-93952380D01*
X50119047Y-94857142D02*
X50166666Y-94904761D01*
X50309523Y-94952380D01*
X50404761Y-94952380D01*
X50547619Y-94904761D01*
X50642857Y-94809523D01*
X50690476Y-94714285D01*
X50738095Y-94523809D01*
X50738095Y-94380952D01*
X50690476Y-94190476D01*
X50642857Y-94095238D01*
X50547619Y-94000000D01*
X50404761Y-93952380D01*
X50309523Y-93952380D01*
X50166666Y-94000000D01*
X50119047Y-94047619D01*
X49404761Y-93952380D02*
X49404761Y-94666666D01*
X49452380Y-94809523D01*
X49547619Y-94904761D01*
X49690476Y-94952380D01*
X49785714Y-94952380D01*
X48452380Y-94952380D02*
X48928571Y-94952380D01*
X48928571Y-93952380D01*
X47547619Y-94857142D02*
X47595238Y-94904761D01*
X47738095Y-94952380D01*
X47833333Y-94952380D01*
X47976190Y-94904761D01*
X48071428Y-94809523D01*
X48119047Y-94714285D01*
X48166666Y-94523809D01*
X48166666Y-94380952D01*
X48119047Y-94190476D01*
X48071428Y-94095238D01*
X47976190Y-94000000D01*
X47833333Y-93952380D01*
X47738095Y-93952380D01*
X47595238Y-94000000D01*
X47547619Y-94047619D01*
X61094404Y-107548571D02*
X60761071Y-107548571D01*
X60618214Y-108072380D02*
X61094404Y-108072380D01*
X61094404Y-107072380D01*
X60618214Y-107072380D01*
X60189642Y-107405714D02*
X60189642Y-108072380D01*
X60189642Y-107500952D02*
X60142023Y-107453333D01*
X60046785Y-107405714D01*
X59903928Y-107405714D01*
X59808690Y-107453333D01*
X59761071Y-107548571D01*
X59761071Y-108072380D01*
X58856309Y-108024761D02*
X58951547Y-108072380D01*
X59142023Y-108072380D01*
X59237261Y-108024761D01*
X59284880Y-107977142D01*
X59332500Y-107881904D01*
X59332500Y-107596190D01*
X59284880Y-107500952D01*
X59237261Y-107453333D01*
X59142023Y-107405714D01*
X58951547Y-107405714D01*
X58856309Y-107453333D01*
X58094404Y-107548571D02*
X57951547Y-107596190D01*
X57903928Y-107643809D01*
X57856309Y-107739047D01*
X57856309Y-107881904D01*
X57903928Y-107977142D01*
X57951547Y-108024761D01*
X58046785Y-108072380D01*
X58427738Y-108072380D01*
X58427738Y-107072380D01*
X58094404Y-107072380D01*
X57999166Y-107120000D01*
X57951547Y-107167619D01*
X57903928Y-107262857D01*
X57903928Y-107358095D01*
X57951547Y-107453333D01*
X57999166Y-107500952D01*
X58094404Y-107548571D01*
X58427738Y-107548571D01*
X42953214Y-110612380D02*
X42953214Y-109612380D01*
X42572261Y-109612380D01*
X42477023Y-109660000D01*
X42429404Y-109707619D01*
X42381785Y-109802857D01*
X42381785Y-109945714D01*
X42429404Y-110040952D01*
X42477023Y-110088571D01*
X42572261Y-110136190D01*
X42953214Y-110136190D01*
X41762738Y-109612380D02*
X41572261Y-109612380D01*
X41477023Y-109660000D01*
X41381785Y-109755238D01*
X41334166Y-109945714D01*
X41334166Y-110279047D01*
X41381785Y-110469523D01*
X41477023Y-110564761D01*
X41572261Y-110612380D01*
X41762738Y-110612380D01*
X41857976Y-110564761D01*
X41953214Y-110469523D01*
X42000833Y-110279047D01*
X42000833Y-109945714D01*
X41953214Y-109755238D01*
X41857976Y-109660000D01*
X41762738Y-109612380D01*
X41048452Y-109612380D02*
X40477023Y-109612380D01*
X40762738Y-110612380D02*
X40762738Y-109612380D01*
X40381785Y-110707619D02*
X39619880Y-110707619D01*
X39429404Y-109707619D02*
X39381785Y-109660000D01*
X39286547Y-109612380D01*
X39048452Y-109612380D01*
X38953214Y-109660000D01*
X38905595Y-109707619D01*
X38857976Y-109802857D01*
X38857976Y-109898095D01*
X38905595Y-110040952D01*
X39477023Y-110612380D01*
X38857976Y-110612380D01*
X40667500Y-123217142D02*
X40715119Y-123264761D01*
X40857976Y-123312380D01*
X40953214Y-123312380D01*
X41096071Y-123264761D01*
X41191309Y-123169523D01*
X41238928Y-123074285D01*
X41286547Y-122883809D01*
X41286547Y-122740952D01*
X41238928Y-122550476D01*
X41191309Y-122455238D01*
X41096071Y-122360000D01*
X40953214Y-122312380D01*
X40857976Y-122312380D01*
X40715119Y-122360000D01*
X40667500Y-122407619D01*
X40381785Y-122312380D02*
X40048452Y-123312380D01*
X39715119Y-122312380D01*
X39429404Y-122407619D02*
X39381785Y-122360000D01*
X39286547Y-122312380D01*
X39048452Y-122312380D01*
X38953214Y-122360000D01*
X38905595Y-122407619D01*
X38857976Y-122502857D01*
X38857976Y-122598095D01*
X38905595Y-122740952D01*
X39477023Y-123312380D01*
X38857976Y-123312380D01*
X42953214Y-115692380D02*
X42953214Y-114692380D01*
X42572261Y-114692380D01*
X42477023Y-114740000D01*
X42429404Y-114787619D01*
X42381785Y-114882857D01*
X42381785Y-115025714D01*
X42429404Y-115120952D01*
X42477023Y-115168571D01*
X42572261Y-115216190D01*
X42953214Y-115216190D01*
X41762738Y-114692380D02*
X41572261Y-114692380D01*
X41477023Y-114740000D01*
X41381785Y-114835238D01*
X41334166Y-115025714D01*
X41334166Y-115359047D01*
X41381785Y-115549523D01*
X41477023Y-115644761D01*
X41572261Y-115692380D01*
X41762738Y-115692380D01*
X41857976Y-115644761D01*
X41953214Y-115549523D01*
X42000833Y-115359047D01*
X42000833Y-115025714D01*
X41953214Y-114835238D01*
X41857976Y-114740000D01*
X41762738Y-114692380D01*
X41048452Y-114692380D02*
X40477023Y-114692380D01*
X40762738Y-115692380D02*
X40762738Y-114692380D01*
X40381785Y-115787619D02*
X39619880Y-115787619D01*
X38953214Y-115025714D02*
X38953214Y-115692380D01*
X39191309Y-114644761D02*
X39429404Y-115359047D01*
X38810357Y-115359047D01*
X40953214Y-117280000D02*
X41048452Y-117232380D01*
X41191309Y-117232380D01*
X41334166Y-117280000D01*
X41429404Y-117375238D01*
X41477023Y-117470476D01*
X41524642Y-117660952D01*
X41524642Y-117803809D01*
X41477023Y-117994285D01*
X41429404Y-118089523D01*
X41334166Y-118184761D01*
X41191309Y-118232380D01*
X41096071Y-118232380D01*
X40953214Y-118184761D01*
X40905595Y-118137142D01*
X40905595Y-117803809D01*
X41096071Y-117803809D01*
X40477023Y-118232380D02*
X40477023Y-117232380D01*
X39905595Y-118232380D01*
X39905595Y-117232380D01*
X39429404Y-118232380D02*
X39429404Y-117232380D01*
X39191309Y-117232380D01*
X39048452Y-117280000D01*
X38953214Y-117375238D01*
X38905595Y-117470476D01*
X38857976Y-117660952D01*
X38857976Y-117803809D01*
X38905595Y-117994285D01*
X38953214Y-118089523D01*
X39048452Y-118184761D01*
X39191309Y-118232380D01*
X39429404Y-118232380D01*
X60570595Y-127440000D02*
X60665833Y-127392380D01*
X60808690Y-127392380D01*
X60951547Y-127440000D01*
X61046785Y-127535238D01*
X61094404Y-127630476D01*
X61142023Y-127820952D01*
X61142023Y-127963809D01*
X61094404Y-128154285D01*
X61046785Y-128249523D01*
X60951547Y-128344761D01*
X60808690Y-128392380D01*
X60713452Y-128392380D01*
X60570595Y-128344761D01*
X60522976Y-128297142D01*
X60522976Y-127963809D01*
X60713452Y-127963809D01*
X60094404Y-128392380D02*
X60094404Y-127392380D01*
X59522976Y-128392380D01*
X59522976Y-127392380D01*
X59046785Y-128392380D02*
X59046785Y-127392380D01*
X58808690Y-127392380D01*
X58665833Y-127440000D01*
X58570595Y-127535238D01*
X58522976Y-127630476D01*
X58475357Y-127820952D01*
X58475357Y-127963809D01*
X58522976Y-128154285D01*
X58570595Y-128249523D01*
X58665833Y-128344761D01*
X58808690Y-128392380D01*
X59046785Y-128392380D01*
X40667500Y-125757142D02*
X40715119Y-125804761D01*
X40857976Y-125852380D01*
X40953214Y-125852380D01*
X41096071Y-125804761D01*
X41191309Y-125709523D01*
X41238928Y-125614285D01*
X41286547Y-125423809D01*
X41286547Y-125280952D01*
X41238928Y-125090476D01*
X41191309Y-124995238D01*
X41096071Y-124900000D01*
X40953214Y-124852380D01*
X40857976Y-124852380D01*
X40715119Y-124900000D01*
X40667500Y-124947619D01*
X40381785Y-124852380D02*
X40048452Y-125852380D01*
X39715119Y-124852380D01*
X39477023Y-124852380D02*
X38857976Y-124852380D01*
X39191309Y-125233333D01*
X39048452Y-125233333D01*
X38953214Y-125280952D01*
X38905595Y-125328571D01*
X38857976Y-125423809D01*
X38857976Y-125661904D01*
X38905595Y-125757142D01*
X38953214Y-125804761D01*
X39048452Y-125852380D01*
X39334166Y-125852380D01*
X39429404Y-125804761D01*
X39477023Y-125757142D01*
X61094404Y-135631428D02*
X60332500Y-135631428D01*
X59332500Y-136012380D02*
X59903928Y-136012380D01*
X59618214Y-136012380D02*
X59618214Y-135012380D01*
X59713452Y-135155238D01*
X59808690Y-135250476D01*
X59903928Y-135298095D01*
X58951547Y-135107619D02*
X58903928Y-135060000D01*
X58808690Y-135012380D01*
X58570595Y-135012380D01*
X58475357Y-135060000D01*
X58427738Y-135107619D01*
X58380119Y-135202857D01*
X58380119Y-135298095D01*
X58427738Y-135440952D01*
X58999166Y-136012380D01*
X58380119Y-136012380D01*
X58094404Y-135012380D02*
X57761071Y-136012380D01*
X57427738Y-135012380D01*
X41096071Y-132472380D02*
X40905595Y-132472380D01*
X40810357Y-132520000D01*
X40715119Y-132615238D01*
X40667500Y-132805714D01*
X40667500Y-133139047D01*
X40715119Y-133329523D01*
X40810357Y-133424761D01*
X40905595Y-133472380D01*
X41096071Y-133472380D01*
X41191309Y-133424761D01*
X41286547Y-133329523D01*
X41334166Y-133139047D01*
X41334166Y-132805714D01*
X41286547Y-132615238D01*
X41191309Y-132520000D01*
X41096071Y-132472380D01*
X40238928Y-132472380D02*
X40238928Y-133281904D01*
X40191309Y-133377142D01*
X40143690Y-133424761D01*
X40048452Y-133472380D01*
X39857976Y-133472380D01*
X39762738Y-133424761D01*
X39715119Y-133377142D01*
X39667500Y-133281904D01*
X39667500Y-132472380D01*
X39334166Y-132472380D02*
X38762738Y-132472380D01*
X39048452Y-133472380D02*
X39048452Y-132472380D01*
X60570595Y-132520000D02*
X60665833Y-132472380D01*
X60808690Y-132472380D01*
X60951547Y-132520000D01*
X61046785Y-132615238D01*
X61094404Y-132710476D01*
X61142023Y-132900952D01*
X61142023Y-133043809D01*
X61094404Y-133234285D01*
X61046785Y-133329523D01*
X60951547Y-133424761D01*
X60808690Y-133472380D01*
X60713452Y-133472380D01*
X60570595Y-133424761D01*
X60522976Y-133377142D01*
X60522976Y-133043809D01*
X60713452Y-133043809D01*
X60094404Y-133472380D02*
X60094404Y-132472380D01*
X59522976Y-133472380D01*
X59522976Y-132472380D01*
X59046785Y-133472380D02*
X59046785Y-132472380D01*
X58808690Y-132472380D01*
X58665833Y-132520000D01*
X58570595Y-132615238D01*
X58522976Y-132710476D01*
X58475357Y-132900952D01*
X58475357Y-133043809D01*
X58522976Y-133234285D01*
X58570595Y-133329523D01*
X58665833Y-133424761D01*
X58808690Y-133472380D01*
X59046785Y-133472380D01*
X42953214Y-108072380D02*
X42953214Y-107072380D01*
X42572261Y-107072380D01*
X42477023Y-107120000D01*
X42429404Y-107167619D01*
X42381785Y-107262857D01*
X42381785Y-107405714D01*
X42429404Y-107500952D01*
X42477023Y-107548571D01*
X42572261Y-107596190D01*
X42953214Y-107596190D01*
X41762738Y-107072380D02*
X41572261Y-107072380D01*
X41477023Y-107120000D01*
X41381785Y-107215238D01*
X41334166Y-107405714D01*
X41334166Y-107739047D01*
X41381785Y-107929523D01*
X41477023Y-108024761D01*
X41572261Y-108072380D01*
X41762738Y-108072380D01*
X41857976Y-108024761D01*
X41953214Y-107929523D01*
X42000833Y-107739047D01*
X42000833Y-107405714D01*
X41953214Y-107215238D01*
X41857976Y-107120000D01*
X41762738Y-107072380D01*
X41048452Y-107072380D02*
X40477023Y-107072380D01*
X40762738Y-108072380D02*
X40762738Y-107072380D01*
X40381785Y-108167619D02*
X39619880Y-108167619D01*
X38857976Y-108072380D02*
X39429404Y-108072380D01*
X39143690Y-108072380D02*
X39143690Y-107072380D01*
X39238928Y-107215238D01*
X39334166Y-107310476D01*
X39429404Y-107358095D01*
X61094404Y-105008571D02*
X60761071Y-105008571D01*
X60618214Y-105532380D02*
X61094404Y-105532380D01*
X61094404Y-104532380D01*
X60618214Y-104532380D01*
X60189642Y-104865714D02*
X60189642Y-105532380D01*
X60189642Y-104960952D02*
X60142023Y-104913333D01*
X60046785Y-104865714D01*
X59903928Y-104865714D01*
X59808690Y-104913333D01*
X59761071Y-105008571D01*
X59761071Y-105532380D01*
X58856309Y-105484761D02*
X58951547Y-105532380D01*
X59142023Y-105532380D01*
X59237261Y-105484761D01*
X59284880Y-105437142D01*
X59332500Y-105341904D01*
X59332500Y-105056190D01*
X59284880Y-104960952D01*
X59237261Y-104913333D01*
X59142023Y-104865714D01*
X58951547Y-104865714D01*
X58856309Y-104913333D01*
X58475357Y-105246666D02*
X57999166Y-105246666D01*
X58570595Y-105532380D02*
X58237261Y-104532380D01*
X57903928Y-105532380D01*
X40667500Y-128297142D02*
X40715119Y-128344761D01*
X40857976Y-128392380D01*
X40953214Y-128392380D01*
X41096071Y-128344761D01*
X41191309Y-128249523D01*
X41238928Y-128154285D01*
X41286547Y-127963809D01*
X41286547Y-127820952D01*
X41238928Y-127630476D01*
X41191309Y-127535238D01*
X41096071Y-127440000D01*
X40953214Y-127392380D01*
X40857976Y-127392380D01*
X40715119Y-127440000D01*
X40667500Y-127487619D01*
X40381785Y-127392380D02*
X40048452Y-128392380D01*
X39715119Y-127392380D01*
X38953214Y-127725714D02*
X38953214Y-128392380D01*
X39191309Y-127344761D02*
X39429404Y-128059047D01*
X38810357Y-128059047D01*
D11*
%TO.C,J103*%
X64330000Y-98670000D02*
X63000000Y-98670000D01*
X64330000Y-121650000D02*
X61670000Y-121650000D01*
X64330000Y-101270000D02*
X61670000Y-101270000D01*
X64330000Y-100000000D02*
X64330000Y-98670000D01*
X61670000Y-101270000D02*
X61670000Y-121650000D01*
X64330000Y-101270000D02*
X64330000Y-121650000D01*
%TO.C,J102*%
X64330000Y-126670000D02*
X61670000Y-126670000D01*
X64330000Y-126670000D02*
X64330000Y-136890000D01*
X64330000Y-125400000D02*
X64330000Y-124070000D01*
X61670000Y-126670000D02*
X61670000Y-136890000D01*
X64330000Y-124070000D02*
X63000000Y-124070000D01*
X64330000Y-136890000D02*
X61670000Y-136890000D01*
%TO.C,J101*%
X38330000Y-106350000D02*
X38330000Y-136890000D01*
X38330000Y-103750000D02*
X37000000Y-103750000D01*
X38330000Y-105080000D02*
X38330000Y-103750000D01*
X38330000Y-136890000D02*
X35670000Y-136890000D01*
X35670000Y-106350000D02*
X35670000Y-136890000D01*
X38330000Y-106350000D02*
X35670000Y-106350000D01*
%TD*%
M02*
